%TF.GenerationSoftware,KiCad,Pcbnew,9.0.3*%
%TF.CreationDate,2025-11-14T19:54:21+01:00*%
%TF.ProjectId,ESPhome_greenhouse_controller,45535068-6f6d-4655-9f67-7265656e686f,rev?*%
%TF.SameCoordinates,Original*%
%TF.FileFunction,Soldermask,Top*%
%TF.FilePolarity,Negative*%
%FSLAX46Y46*%
G04 Gerber Fmt 4.6, Leading zero omitted, Abs format (unit mm)*
G04 Created by KiCad (PCBNEW 9.0.3) date 2025-11-14 19:54:21*
%MOMM*%
%LPD*%
G01*
G04 APERTURE LIST*
G04 Aperture macros list*
%AMRoundRect*
0 Rectangle with rounded corners*
0 $1 Rounding radius*
0 $2 $3 $4 $5 $6 $7 $8 $9 X,Y pos of 4 corners*
0 Add a 4 corners polygon primitive as box body*
4,1,4,$2,$3,$4,$5,$6,$7,$8,$9,$2,$3,0*
0 Add four circle primitives for the rounded corners*
1,1,$1+$1,$2,$3*
1,1,$1+$1,$4,$5*
1,1,$1+$1,$6,$7*
1,1,$1+$1,$8,$9*
0 Add four rect primitives between the rounded corners*
20,1,$1+$1,$2,$3,$4,$5,0*
20,1,$1+$1,$4,$5,$6,$7,0*
20,1,$1+$1,$6,$7,$8,$9,0*
20,1,$1+$1,$8,$9,$2,$3,0*%
G04 Aperture macros list end*
%ADD10RoundRect,0.250000X-0.725000X0.600000X-0.725000X-0.600000X0.725000X-0.600000X0.725000X0.600000X0*%
%ADD11O,1.950000X1.700000*%
%ADD12RoundRect,0.200000X-0.200000X-0.275000X0.200000X-0.275000X0.200000X0.275000X-0.200000X0.275000X0*%
%ADD13RoundRect,0.150000X0.150000X-0.875000X0.150000X0.875000X-0.150000X0.875000X-0.150000X-0.875000X0*%
%ADD14RoundRect,0.250000X-0.450000X0.262500X-0.450000X-0.262500X0.450000X-0.262500X0.450000X0.262500X0*%
%ADD15C,3.000000*%
%ADD16C,2.500000*%
%ADD17RoundRect,0.250000X0.450000X-0.262500X0.450000X0.262500X-0.450000X0.262500X-0.450000X-0.262500X0*%
%ADD18RoundRect,0.249999X-0.640001X0.750001X-0.640001X-0.750001X0.640001X-0.750001X0.640001X0.750001X0*%
%ADD19RoundRect,0.250000X-0.550000X-0.550000X0.550000X-0.550000X0.550000X0.550000X-0.550000X0.550000X0*%
%ADD20C,1.600000*%
%ADD21RoundRect,0.200000X0.200000X0.275000X-0.200000X0.275000X-0.200000X-0.275000X0.200000X-0.275000X0*%
%ADD22RoundRect,0.150000X-0.150000X0.875000X-0.150000X-0.875000X0.150000X-0.875000X0.150000X0.875000X0*%
%ADD23RoundRect,0.250000X-0.750000X-0.750000X0.750000X-0.750000X0.750000X0.750000X-0.750000X0.750000X0*%
%ADD24C,2.000000*%
%ADD25RoundRect,0.249999X0.640001X-0.750001X0.640001X0.750001X-0.640001X0.750001X-0.640001X-0.750001X0*%
%ADD26R,3.200000X3.200000*%
%ADD27C,3.200000*%
%ADD28RoundRect,0.250000X0.475000X-0.250000X0.475000X0.250000X-0.475000X0.250000X-0.475000X-0.250000X0*%
%ADD29RoundRect,0.200000X0.275000X-0.200000X0.275000X0.200000X-0.275000X0.200000X-0.275000X-0.200000X0*%
%ADD30RoundRect,0.250000X0.725000X-0.600000X0.725000X0.600000X-0.725000X0.600000X-0.725000X-0.600000X0*%
%ADD31R,2.600000X2.600000*%
%ADD32C,2.600000*%
%ADD33C,5.600000*%
%ADD34RoundRect,0.225000X-0.225000X-0.250000X0.225000X-0.250000X0.225000X0.250000X-0.225000X0.250000X0*%
%ADD35R,1.500000X2.300000*%
%ADD36O,1.500000X2.300000*%
%ADD37C,2.010000*%
G04 APERTURE END LIST*
D10*
%TO.C,J2*%
X180000000Y-86000000D03*
D11*
X180000000Y-88500000D03*
X180000000Y-91000000D03*
X180000000Y-93500000D03*
X180000000Y-96000000D03*
X180000000Y-98500000D03*
%TD*%
D12*
%TO.C,R40*%
X172350000Y-90800000D03*
X174000000Y-90800000D03*
%TD*%
D13*
%TO.C,U4*%
X140545000Y-114950000D03*
X141815000Y-114950000D03*
X143085000Y-114950000D03*
X144355000Y-114950000D03*
X145625000Y-114950000D03*
X146895000Y-114950000D03*
X148165000Y-114950000D03*
X149435000Y-114950000D03*
X150705000Y-114950000D03*
X151975000Y-114950000D03*
X153245000Y-114950000D03*
X154515000Y-114950000D03*
X155785000Y-114950000D03*
X157055000Y-114950000D03*
X157055000Y-105650000D03*
X155785000Y-105650000D03*
X154515000Y-105650000D03*
X153245000Y-105650000D03*
X151975000Y-105650000D03*
X150705000Y-105650000D03*
X149435000Y-105650000D03*
X148165000Y-105650000D03*
X146895000Y-105650000D03*
X145625000Y-105650000D03*
X144355000Y-105650000D03*
X143085000Y-105650000D03*
X141815000Y-105650000D03*
X140545000Y-105650000D03*
%TD*%
D14*
%TO.C,R34*%
X138000000Y-81875000D03*
X138000000Y-83700000D03*
%TD*%
D15*
%TO.C,K3*%
X163400000Y-136500000D03*
D16*
X169450000Y-134550000D03*
D15*
X169450000Y-122350000D03*
X157400000Y-122300000D03*
D16*
X157450000Y-134550000D03*
%TD*%
D17*
%TO.C,R5*%
X96650000Y-134912500D03*
X96650000Y-133087500D03*
%TD*%
%TO.C,R8*%
X103750000Y-135000000D03*
X103750000Y-133175000D03*
%TD*%
%TO.C,R19*%
X206300000Y-133412500D03*
X206300000Y-131587500D03*
%TD*%
D18*
%TO.C,U16*%
X141070000Y-85935000D03*
X138530000Y-85935000D03*
X138530000Y-95465000D03*
X141070000Y-95465000D03*
%TD*%
D19*
%TO.C,C4*%
X171347349Y-98700000D03*
D20*
X174847349Y-98700000D03*
%TD*%
D21*
%TO.C,R3*%
X96000000Y-117362500D03*
X94350000Y-117362500D03*
%TD*%
D22*
%TO.C,U5*%
X118520000Y-107150000D03*
X117250000Y-107150000D03*
X115980000Y-107150000D03*
X114710000Y-107150000D03*
X113440000Y-107150000D03*
X112170000Y-107150000D03*
X110900000Y-107150000D03*
X109630000Y-107150000D03*
X108360000Y-107150000D03*
X108360000Y-116450000D03*
X109630000Y-116450000D03*
X110900000Y-116450000D03*
X112170000Y-116450000D03*
X113440000Y-116450000D03*
X114710000Y-116450000D03*
X115980000Y-116450000D03*
X117250000Y-116450000D03*
X118520000Y-116450000D03*
%TD*%
D21*
%TO.C,R39*%
X170925000Y-93800000D03*
X169275000Y-93800000D03*
%TD*%
D23*
%TO.C,C1*%
X96000000Y-111300000D03*
D24*
X101000000Y-111300000D03*
%TD*%
D23*
%TO.C,C2*%
X96000000Y-100700000D03*
D24*
X101000000Y-100700000D03*
%TD*%
D15*
%TO.C,K1*%
X130200000Y-136450000D03*
D16*
X136250000Y-134500000D03*
D15*
X136250000Y-122300000D03*
X124200000Y-122250000D03*
D16*
X124250000Y-134500000D03*
%TD*%
D14*
%TO.C,R35*%
X146800000Y-81887500D03*
X146800000Y-83712500D03*
%TD*%
D25*
%TO.C,U15*%
X210280000Y-92365000D03*
X212820000Y-92365000D03*
X212820000Y-82835000D03*
X210280000Y-82835000D03*
%TD*%
%TO.C,U11*%
X206400000Y-128900000D03*
X208940000Y-128900000D03*
X208940000Y-119370000D03*
X206400000Y-119370000D03*
%TD*%
%TO.C,U6*%
X95460000Y-130500000D03*
X98000000Y-130500000D03*
X98000000Y-120970000D03*
X95460000Y-120970000D03*
%TD*%
D26*
%TO.C,D7*%
X90000000Y-107400000D03*
D27*
X90000000Y-102320000D03*
X90000000Y-97240000D03*
X90000000Y-92160000D03*
%TD*%
D12*
%TO.C,R27*%
X151600000Y-103600000D03*
X153250000Y-103600000D03*
%TD*%
D15*
%TO.C,K8*%
X128650000Y-98950000D03*
D16*
X134700000Y-97000000D03*
D15*
X134700000Y-84800000D03*
X122650000Y-84750000D03*
D16*
X122700000Y-97000000D03*
%TD*%
D28*
%TO.C,C6*%
X161400000Y-84750000D03*
X161400000Y-82850000D03*
%TD*%
D12*
%TO.C,R9*%
X97350000Y-117362500D03*
X99000000Y-117362500D03*
%TD*%
D25*
%TO.C,U7*%
X101230000Y-130565000D03*
X103770000Y-130565000D03*
X103770000Y-121035000D03*
X101230000Y-121035000D03*
%TD*%
%TO.C,U10*%
X212230000Y-128865000D03*
X214770000Y-128865000D03*
X214770000Y-119335000D03*
X212230000Y-119335000D03*
%TD*%
D15*
%TO.C,K2*%
X146700000Y-136450000D03*
D16*
X152750000Y-134500000D03*
D15*
X152750000Y-122300000D03*
X140700000Y-122250000D03*
D16*
X140750000Y-134500000D03*
%TD*%
D21*
%TO.C,R38*%
X170925000Y-90800000D03*
X169275000Y-90800000D03*
%TD*%
D29*
%TO.C,R30*%
X207050000Y-96250000D03*
X207050000Y-94600000D03*
%TD*%
D12*
%TO.C,R21*%
X214325000Y-116250000D03*
X215975000Y-116250000D03*
%TD*%
D30*
%TO.C,J4*%
X157050000Y-97900000D03*
D11*
X157050000Y-95400000D03*
X157050000Y-92900000D03*
X157050000Y-90400000D03*
X157050000Y-87900000D03*
X157050000Y-85400000D03*
%TD*%
D18*
%TO.C,U17*%
X146770000Y-85935000D03*
X144230000Y-85935000D03*
X144230000Y-95465000D03*
X146770000Y-95465000D03*
%TD*%
D31*
%TO.C,MOD1*%
X92430000Y-144950000D03*
D32*
X97430000Y-144950000D03*
X102430000Y-144950000D03*
X107430000Y-144950000D03*
X112430000Y-144950000D03*
X117430000Y-144950000D03*
X122430000Y-144950000D03*
X127430000Y-144950000D03*
X132430000Y-144950000D03*
X137430000Y-144950000D03*
X142430000Y-144950000D03*
X147430000Y-144950000D03*
D31*
X162670000Y-144950000D03*
D32*
X167670000Y-144950000D03*
X172670000Y-144950000D03*
X177670000Y-144950000D03*
X182670000Y-144950000D03*
X187670000Y-144950000D03*
X192670000Y-144950000D03*
X197670000Y-144950000D03*
X202670000Y-144950000D03*
X207670000Y-144950000D03*
X212670000Y-144950000D03*
X217670000Y-144950000D03*
D31*
X217670000Y-74331500D03*
D32*
X212670000Y-74331500D03*
X207670000Y-74331500D03*
X202670000Y-74331500D03*
X197670000Y-74331500D03*
X192670000Y-74331500D03*
X187670000Y-74331500D03*
X182670000Y-74331500D03*
X177670000Y-74331500D03*
X172670000Y-74331500D03*
X167670000Y-74331500D03*
X162670000Y-74331500D03*
D31*
X147430000Y-74331500D03*
D32*
X142430000Y-74331500D03*
X137430000Y-74331500D03*
X132430000Y-74331500D03*
X127430000Y-74331500D03*
X122430000Y-74331500D03*
X117430000Y-74331500D03*
X112430000Y-74331500D03*
X107430000Y-74331500D03*
X102430000Y-74331500D03*
X97430000Y-74331500D03*
X92430000Y-74331500D03*
D31*
X152510000Y-144950000D03*
D32*
X157590000Y-144950000D03*
D31*
X157590000Y-74331500D03*
D32*
X152510000Y-74331500D03*
D33*
X91875000Y-85075000D03*
X91875000Y-134825000D03*
X218225000Y-85075000D03*
X218225000Y-134825000D03*
%TD*%
D15*
%TO.C,K4*%
X179900000Y-136500000D03*
D16*
X185950000Y-134550000D03*
D15*
X185950000Y-122350000D03*
X173900000Y-122300000D03*
D16*
X173950000Y-134550000D03*
%TD*%
D28*
%TO.C,C3*%
X167800000Y-97650000D03*
X167800000Y-95750000D03*
%TD*%
D21*
%TO.C,R32*%
X143325000Y-99400000D03*
X141675000Y-99400000D03*
%TD*%
D15*
%TO.C,K5*%
X113700000Y-136450000D03*
D16*
X119750000Y-134500000D03*
D15*
X119750000Y-122300000D03*
X107700000Y-122250000D03*
D16*
X107750000Y-134500000D03*
%TD*%
D34*
%TO.C,C8*%
X136050000Y-116100000D03*
X137600000Y-116100000D03*
%TD*%
D21*
%TO.C,R15*%
X212925000Y-116250000D03*
X211275000Y-116250000D03*
%TD*%
D17*
%TO.C,R18*%
X213900000Y-133412500D03*
X213900000Y-131587500D03*
%TD*%
D34*
%TO.C,C7*%
X150725000Y-117000000D03*
X152275000Y-117000000D03*
%TD*%
D35*
%TO.C,U18*%
X166853000Y-87107500D03*
D36*
X169393000Y-87107500D03*
X171933000Y-87107500D03*
%TD*%
D34*
%TO.C,C9*%
X190125000Y-117100000D03*
X191675000Y-117100000D03*
%TD*%
D17*
%TO.C,R7*%
X101350000Y-135000000D03*
X101350000Y-133175000D03*
%TD*%
D12*
%TO.C,R10*%
X103375000Y-117362500D03*
X105025000Y-117362500D03*
%TD*%
D17*
%TO.C,R17*%
X211600000Y-133412500D03*
X211600000Y-131587500D03*
%TD*%
D21*
%TO.C,R28*%
X194400000Y-103500000D03*
X192750000Y-103500000D03*
%TD*%
D30*
%TO.C,J3*%
X151200000Y-97900000D03*
D11*
X151200000Y-95400000D03*
X151200000Y-92900000D03*
X151200000Y-90400000D03*
X151200000Y-87900000D03*
X151200000Y-85400000D03*
%TD*%
D13*
%TO.C,U2*%
X179790000Y-114950000D03*
X181060000Y-114950000D03*
X182330000Y-114950000D03*
X183600000Y-114950000D03*
X184870000Y-114950000D03*
X186140000Y-114950000D03*
X187410000Y-114950000D03*
X188680000Y-114950000D03*
X189950000Y-114950000D03*
X191220000Y-114950000D03*
X192490000Y-114950000D03*
X193760000Y-114950000D03*
X195030000Y-114950000D03*
X196300000Y-114950000D03*
X196300000Y-105650000D03*
X195030000Y-105650000D03*
X193760000Y-105650000D03*
X192490000Y-105650000D03*
X191220000Y-105650000D03*
X189950000Y-105650000D03*
X188680000Y-105650000D03*
X187410000Y-105650000D03*
X186140000Y-105650000D03*
X184870000Y-105650000D03*
X183600000Y-105650000D03*
X182330000Y-105650000D03*
X181060000Y-105650000D03*
X179790000Y-105650000D03*
%TD*%
D14*
%TO.C,R33*%
X141100000Y-81887500D03*
X141100000Y-83712500D03*
%TD*%
D15*
%TO.C,K6*%
X196400000Y-136500000D03*
D16*
X202450000Y-134550000D03*
D15*
X202450000Y-122350000D03*
X190400000Y-122300000D03*
D16*
X190450000Y-134550000D03*
%TD*%
D37*
%TO.C,F2*%
X90800000Y-116800000D03*
X89600000Y-127000000D03*
%TD*%
D21*
%TO.C,R37*%
X170925000Y-92300000D03*
X169275000Y-92300000D03*
%TD*%
D15*
%TO.C,K7*%
X112400000Y-98900000D03*
D16*
X118450000Y-96950000D03*
D15*
X118450000Y-84750000D03*
X106400000Y-84700000D03*
D16*
X106450000Y-96950000D03*
%TD*%
D17*
%TO.C,R20*%
X208800000Y-133412500D03*
X208800000Y-131587500D03*
%TD*%
D25*
%TO.C,U1*%
X204580000Y-92365000D03*
X207120000Y-92365000D03*
X207120000Y-82835000D03*
X204580000Y-82835000D03*
%TD*%
D29*
%TO.C,R29*%
X212850000Y-96325000D03*
X212850000Y-94675000D03*
%TD*%
D12*
%TO.C,R22*%
X208225000Y-116250000D03*
X209875000Y-116250000D03*
%TD*%
D14*
%TO.C,R36*%
X144300000Y-81900000D03*
X144300000Y-83725000D03*
%TD*%
D34*
%TO.C,C10*%
X168025000Y-116000000D03*
X169575000Y-116000000D03*
%TD*%
D12*
%TO.C,R31*%
X145275000Y-99400000D03*
X146925000Y-99400000D03*
%TD*%
D21*
%TO.C,R16*%
X206825000Y-116250000D03*
X205175000Y-116250000D03*
%TD*%
%TO.C,R4*%
X102000000Y-117362500D03*
X100350000Y-117362500D03*
%TD*%
D17*
%TO.C,R6*%
X99000000Y-134950000D03*
X99000000Y-133125000D03*
%TD*%
M02*
