%TF.GenerationSoftware,KiCad,Pcbnew,9.0.3*%
%TF.CreationDate,2025-11-14T19:54:21+01:00*%
%TF.ProjectId,ESPhome_greenhouse_controller,45535068-6f6d-4655-9f67-7265656e686f,rev?*%
%TF.SameCoordinates,Original*%
%TF.FileFunction,Legend,Top*%
%TF.FilePolarity,Positive*%
%FSLAX46Y46*%
G04 Gerber Fmt 4.6, Leading zero omitted, Abs format (unit mm)*
G04 Created by KiCad (PCBNEW 9.0.3) date 2025-11-14 19:54:21*
%MOMM*%
%LPD*%
G01*
G04 APERTURE LIST*
G04 Aperture macros list*
%AMRoundRect*
0 Rectangle with rounded corners*
0 $1 Rounding radius*
0 $2 $3 $4 $5 $6 $7 $8 $9 X,Y pos of 4 corners*
0 Add a 4 corners polygon primitive as box body*
4,1,4,$2,$3,$4,$5,$6,$7,$8,$9,$2,$3,0*
0 Add four circle primitives for the rounded corners*
1,1,$1+$1,$2,$3*
1,1,$1+$1,$4,$5*
1,1,$1+$1,$6,$7*
1,1,$1+$1,$8,$9*
0 Add four rect primitives between the rounded corners*
20,1,$1+$1,$2,$3,$4,$5,0*
20,1,$1+$1,$4,$5,$6,$7,0*
20,1,$1+$1,$6,$7,$8,$9,0*
20,1,$1+$1,$8,$9,$2,$3,0*%
G04 Aperture macros list end*
%ADD10C,0.150000*%
%ADD11C,0.120000*%
%ADD12RoundRect,0.250000X-0.725000X0.600000X-0.725000X-0.600000X0.725000X-0.600000X0.725000X0.600000X0*%
%ADD13O,1.950000X1.700000*%
%ADD14RoundRect,0.200000X-0.200000X-0.275000X0.200000X-0.275000X0.200000X0.275000X-0.200000X0.275000X0*%
%ADD15RoundRect,0.150000X0.150000X-0.875000X0.150000X0.875000X-0.150000X0.875000X-0.150000X-0.875000X0*%
%ADD16RoundRect,0.250000X-0.450000X0.262500X-0.450000X-0.262500X0.450000X-0.262500X0.450000X0.262500X0*%
%ADD17C,3.000000*%
%ADD18C,2.500000*%
%ADD19RoundRect,0.250000X0.450000X-0.262500X0.450000X0.262500X-0.450000X0.262500X-0.450000X-0.262500X0*%
%ADD20RoundRect,0.249999X-0.640001X0.750001X-0.640001X-0.750001X0.640001X-0.750001X0.640001X0.750001X0*%
%ADD21RoundRect,0.250000X-0.550000X-0.550000X0.550000X-0.550000X0.550000X0.550000X-0.550000X0.550000X0*%
%ADD22C,1.600000*%
%ADD23RoundRect,0.200000X0.200000X0.275000X-0.200000X0.275000X-0.200000X-0.275000X0.200000X-0.275000X0*%
%ADD24RoundRect,0.150000X-0.150000X0.875000X-0.150000X-0.875000X0.150000X-0.875000X0.150000X0.875000X0*%
%ADD25RoundRect,0.250000X-0.750000X-0.750000X0.750000X-0.750000X0.750000X0.750000X-0.750000X0.750000X0*%
%ADD26C,2.000000*%
%ADD27RoundRect,0.249999X0.640001X-0.750001X0.640001X0.750001X-0.640001X0.750001X-0.640001X-0.750001X0*%
%ADD28R,3.200000X3.200000*%
%ADD29C,3.200000*%
%ADD30RoundRect,0.250000X0.475000X-0.250000X0.475000X0.250000X-0.475000X0.250000X-0.475000X-0.250000X0*%
%ADD31RoundRect,0.200000X0.275000X-0.200000X0.275000X0.200000X-0.275000X0.200000X-0.275000X-0.200000X0*%
%ADD32RoundRect,0.250000X0.725000X-0.600000X0.725000X0.600000X-0.725000X0.600000X-0.725000X-0.600000X0*%
%ADD33R,2.600000X2.600000*%
%ADD34C,2.600000*%
%ADD35C,5.600000*%
%ADD36RoundRect,0.225000X-0.225000X-0.250000X0.225000X-0.250000X0.225000X0.250000X-0.225000X0.250000X0*%
%ADD37R,1.500000X2.300000*%
%ADD38O,1.500000X2.300000*%
%ADD39C,2.010000*%
G04 APERTURE END LIST*
D10*
X105100000Y-136950000D02*
X105100000Y-132150000D01*
X204950000Y-134050000D02*
X204950000Y-130700000D01*
X182254819Y-92583333D02*
X182969104Y-92583333D01*
X182969104Y-92583333D02*
X183111961Y-92630952D01*
X183111961Y-92630952D02*
X183207200Y-92726190D01*
X183207200Y-92726190D02*
X183254819Y-92869047D01*
X183254819Y-92869047D02*
X183254819Y-92964285D01*
X182350057Y-92154761D02*
X182302438Y-92107142D01*
X182302438Y-92107142D02*
X182254819Y-92011904D01*
X182254819Y-92011904D02*
X182254819Y-91773809D01*
X182254819Y-91773809D02*
X182302438Y-91678571D01*
X182302438Y-91678571D02*
X182350057Y-91630952D01*
X182350057Y-91630952D02*
X182445295Y-91583333D01*
X182445295Y-91583333D02*
X182540533Y-91583333D01*
X182540533Y-91583333D02*
X182683390Y-91630952D01*
X182683390Y-91630952D02*
X183254819Y-92202380D01*
X183254819Y-92202380D02*
X183254819Y-91583333D01*
X175457142Y-91254819D02*
X175123809Y-90778628D01*
X174885714Y-91254819D02*
X174885714Y-90254819D01*
X174885714Y-90254819D02*
X175266666Y-90254819D01*
X175266666Y-90254819D02*
X175361904Y-90302438D01*
X175361904Y-90302438D02*
X175409523Y-90350057D01*
X175409523Y-90350057D02*
X175457142Y-90445295D01*
X175457142Y-90445295D02*
X175457142Y-90588152D01*
X175457142Y-90588152D02*
X175409523Y-90683390D01*
X175409523Y-90683390D02*
X175361904Y-90731009D01*
X175361904Y-90731009D02*
X175266666Y-90778628D01*
X175266666Y-90778628D02*
X174885714Y-90778628D01*
X176314285Y-90588152D02*
X176314285Y-91254819D01*
X176076190Y-90207200D02*
X175838095Y-90921485D01*
X175838095Y-90921485D02*
X176457142Y-90921485D01*
X177028571Y-90254819D02*
X177123809Y-90254819D01*
X177123809Y-90254819D02*
X177219047Y-90302438D01*
X177219047Y-90302438D02*
X177266666Y-90350057D01*
X177266666Y-90350057D02*
X177314285Y-90445295D01*
X177314285Y-90445295D02*
X177361904Y-90635771D01*
X177361904Y-90635771D02*
X177361904Y-90873866D01*
X177361904Y-90873866D02*
X177314285Y-91064342D01*
X177314285Y-91064342D02*
X177266666Y-91159580D01*
X177266666Y-91159580D02*
X177219047Y-91207200D01*
X177219047Y-91207200D02*
X177123809Y-91254819D01*
X177123809Y-91254819D02*
X177028571Y-91254819D01*
X177028571Y-91254819D02*
X176933333Y-91207200D01*
X176933333Y-91207200D02*
X176885714Y-91159580D01*
X176885714Y-91159580D02*
X176838095Y-91064342D01*
X176838095Y-91064342D02*
X176790476Y-90873866D01*
X176790476Y-90873866D02*
X176790476Y-90635771D01*
X176790476Y-90635771D02*
X176838095Y-90445295D01*
X176838095Y-90445295D02*
X176885714Y-90350057D01*
X176885714Y-90350057D02*
X176933333Y-90302438D01*
X176933333Y-90302438D02*
X177028571Y-90254819D01*
X138462295Y-110909523D02*
X139109914Y-110909523D01*
X139109914Y-110909523D02*
X139186104Y-110871428D01*
X139186104Y-110871428D02*
X139224200Y-110833333D01*
X139224200Y-110833333D02*
X139262295Y-110757142D01*
X139262295Y-110757142D02*
X139262295Y-110604761D01*
X139262295Y-110604761D02*
X139224200Y-110528571D01*
X139224200Y-110528571D02*
X139186104Y-110490476D01*
X139186104Y-110490476D02*
X139109914Y-110452380D01*
X139109914Y-110452380D02*
X138462295Y-110452380D01*
X138728961Y-109728571D02*
X139262295Y-109728571D01*
X138424200Y-109919047D02*
X138995628Y-110109524D01*
X138995628Y-110109524D02*
X138995628Y-109614285D01*
X137457142Y-80954819D02*
X137123809Y-80478628D01*
X136885714Y-80954819D02*
X136885714Y-79954819D01*
X136885714Y-79954819D02*
X137266666Y-79954819D01*
X137266666Y-79954819D02*
X137361904Y-80002438D01*
X137361904Y-80002438D02*
X137409523Y-80050057D01*
X137409523Y-80050057D02*
X137457142Y-80145295D01*
X137457142Y-80145295D02*
X137457142Y-80288152D01*
X137457142Y-80288152D02*
X137409523Y-80383390D01*
X137409523Y-80383390D02*
X137361904Y-80431009D01*
X137361904Y-80431009D02*
X137266666Y-80478628D01*
X137266666Y-80478628D02*
X136885714Y-80478628D01*
X137790476Y-79954819D02*
X138409523Y-79954819D01*
X138409523Y-79954819D02*
X138076190Y-80335771D01*
X138076190Y-80335771D02*
X138219047Y-80335771D01*
X138219047Y-80335771D02*
X138314285Y-80383390D01*
X138314285Y-80383390D02*
X138361904Y-80431009D01*
X138361904Y-80431009D02*
X138409523Y-80526247D01*
X138409523Y-80526247D02*
X138409523Y-80764342D01*
X138409523Y-80764342D02*
X138361904Y-80859580D01*
X138361904Y-80859580D02*
X138314285Y-80907200D01*
X138314285Y-80907200D02*
X138219047Y-80954819D01*
X138219047Y-80954819D02*
X137933333Y-80954819D01*
X137933333Y-80954819D02*
X137838095Y-80907200D01*
X137838095Y-80907200D02*
X137790476Y-80859580D01*
X139266666Y-80288152D02*
X139266666Y-80954819D01*
X139028571Y-79907200D02*
X138790476Y-80621485D01*
X138790476Y-80621485D02*
X139409523Y-80621485D01*
X162859524Y-139112295D02*
X162859524Y-138312295D01*
X163316667Y-139112295D02*
X162973809Y-138655152D01*
X163316667Y-138312295D02*
X162859524Y-138769438D01*
X163583333Y-138312295D02*
X164078571Y-138312295D01*
X164078571Y-138312295D02*
X163811905Y-138617057D01*
X163811905Y-138617057D02*
X163926190Y-138617057D01*
X163926190Y-138617057D02*
X164002381Y-138655152D01*
X164002381Y-138655152D02*
X164040476Y-138693247D01*
X164040476Y-138693247D02*
X164078571Y-138769438D01*
X164078571Y-138769438D02*
X164078571Y-138959914D01*
X164078571Y-138959914D02*
X164040476Y-139036104D01*
X164040476Y-139036104D02*
X164002381Y-139074200D01*
X164002381Y-139074200D02*
X163926190Y-139112295D01*
X163926190Y-139112295D02*
X163697619Y-139112295D01*
X163697619Y-139112295D02*
X163621428Y-139074200D01*
X163621428Y-139074200D02*
X163583333Y-139036104D01*
X97012295Y-137083332D02*
X96631342Y-137349999D01*
X97012295Y-137540475D02*
X96212295Y-137540475D01*
X96212295Y-137540475D02*
X96212295Y-137235713D01*
X96212295Y-137235713D02*
X96250390Y-137159523D01*
X96250390Y-137159523D02*
X96288485Y-137121428D01*
X96288485Y-137121428D02*
X96364676Y-137083332D01*
X96364676Y-137083332D02*
X96478961Y-137083332D01*
X96478961Y-137083332D02*
X96555152Y-137121428D01*
X96555152Y-137121428D02*
X96593247Y-137159523D01*
X96593247Y-137159523D02*
X96631342Y-137235713D01*
X96631342Y-137235713D02*
X96631342Y-137540475D01*
X96212295Y-136359523D02*
X96212295Y-136740475D01*
X96212295Y-136740475D02*
X96593247Y-136778571D01*
X96593247Y-136778571D02*
X96555152Y-136740475D01*
X96555152Y-136740475D02*
X96517057Y-136664285D01*
X96517057Y-136664285D02*
X96517057Y-136473809D01*
X96517057Y-136473809D02*
X96555152Y-136397618D01*
X96555152Y-136397618D02*
X96593247Y-136359523D01*
X96593247Y-136359523D02*
X96669438Y-136321428D01*
X96669438Y-136321428D02*
X96859914Y-136321428D01*
X96859914Y-136321428D02*
X96936104Y-136359523D01*
X96936104Y-136359523D02*
X96974200Y-136397618D01*
X96974200Y-136397618D02*
X97012295Y-136473809D01*
X97012295Y-136473809D02*
X97012295Y-136664285D01*
X97012295Y-136664285D02*
X96974200Y-136740475D01*
X96974200Y-136740475D02*
X96936104Y-136778571D01*
X104162295Y-137070832D02*
X103781342Y-137337499D01*
X104162295Y-137527975D02*
X103362295Y-137527975D01*
X103362295Y-137527975D02*
X103362295Y-137223213D01*
X103362295Y-137223213D02*
X103400390Y-137147023D01*
X103400390Y-137147023D02*
X103438485Y-137108928D01*
X103438485Y-137108928D02*
X103514676Y-137070832D01*
X103514676Y-137070832D02*
X103628961Y-137070832D01*
X103628961Y-137070832D02*
X103705152Y-137108928D01*
X103705152Y-137108928D02*
X103743247Y-137147023D01*
X103743247Y-137147023D02*
X103781342Y-137223213D01*
X103781342Y-137223213D02*
X103781342Y-137527975D01*
X103705152Y-136613690D02*
X103667057Y-136689880D01*
X103667057Y-136689880D02*
X103628961Y-136727975D01*
X103628961Y-136727975D02*
X103552771Y-136766071D01*
X103552771Y-136766071D02*
X103514676Y-136766071D01*
X103514676Y-136766071D02*
X103438485Y-136727975D01*
X103438485Y-136727975D02*
X103400390Y-136689880D01*
X103400390Y-136689880D02*
X103362295Y-136613690D01*
X103362295Y-136613690D02*
X103362295Y-136461309D01*
X103362295Y-136461309D02*
X103400390Y-136385118D01*
X103400390Y-136385118D02*
X103438485Y-136347023D01*
X103438485Y-136347023D02*
X103514676Y-136308928D01*
X103514676Y-136308928D02*
X103552771Y-136308928D01*
X103552771Y-136308928D02*
X103628961Y-136347023D01*
X103628961Y-136347023D02*
X103667057Y-136385118D01*
X103667057Y-136385118D02*
X103705152Y-136461309D01*
X103705152Y-136461309D02*
X103705152Y-136613690D01*
X103705152Y-136613690D02*
X103743247Y-136689880D01*
X103743247Y-136689880D02*
X103781342Y-136727975D01*
X103781342Y-136727975D02*
X103857533Y-136766071D01*
X103857533Y-136766071D02*
X104009914Y-136766071D01*
X104009914Y-136766071D02*
X104086104Y-136727975D01*
X104086104Y-136727975D02*
X104124200Y-136689880D01*
X104124200Y-136689880D02*
X104162295Y-136613690D01*
X104162295Y-136613690D02*
X104162295Y-136461309D01*
X104162295Y-136461309D02*
X104124200Y-136385118D01*
X104124200Y-136385118D02*
X104086104Y-136347023D01*
X104086104Y-136347023D02*
X104009914Y-136308928D01*
X104009914Y-136308928D02*
X103857533Y-136308928D01*
X103857533Y-136308928D02*
X103781342Y-136347023D01*
X103781342Y-136347023D02*
X103743247Y-136385118D01*
X103743247Y-136385118D02*
X103705152Y-136461309D01*
X206562295Y-136214285D02*
X206181342Y-136480952D01*
X206562295Y-136671428D02*
X205762295Y-136671428D01*
X205762295Y-136671428D02*
X205762295Y-136366666D01*
X205762295Y-136366666D02*
X205800390Y-136290476D01*
X205800390Y-136290476D02*
X205838485Y-136252381D01*
X205838485Y-136252381D02*
X205914676Y-136214285D01*
X205914676Y-136214285D02*
X206028961Y-136214285D01*
X206028961Y-136214285D02*
X206105152Y-136252381D01*
X206105152Y-136252381D02*
X206143247Y-136290476D01*
X206143247Y-136290476D02*
X206181342Y-136366666D01*
X206181342Y-136366666D02*
X206181342Y-136671428D01*
X206562295Y-135452381D02*
X206562295Y-135909524D01*
X206562295Y-135680952D02*
X205762295Y-135680952D01*
X205762295Y-135680952D02*
X205876580Y-135757143D01*
X205876580Y-135757143D02*
X205952771Y-135833333D01*
X205952771Y-135833333D02*
X205990866Y-135909524D01*
X206562295Y-135071428D02*
X206562295Y-134919047D01*
X206562295Y-134919047D02*
X206524200Y-134842857D01*
X206524200Y-134842857D02*
X206486104Y-134804761D01*
X206486104Y-134804761D02*
X206371819Y-134728571D01*
X206371819Y-134728571D02*
X206219438Y-134690476D01*
X206219438Y-134690476D02*
X205914676Y-134690476D01*
X205914676Y-134690476D02*
X205838485Y-134728571D01*
X205838485Y-134728571D02*
X205800390Y-134766666D01*
X205800390Y-134766666D02*
X205762295Y-134842857D01*
X205762295Y-134842857D02*
X205762295Y-134995238D01*
X205762295Y-134995238D02*
X205800390Y-135071428D01*
X205800390Y-135071428D02*
X205838485Y-135109523D01*
X205838485Y-135109523D02*
X205914676Y-135147619D01*
X205914676Y-135147619D02*
X206105152Y-135147619D01*
X206105152Y-135147619D02*
X206181342Y-135109523D01*
X206181342Y-135109523D02*
X206219438Y-135071428D01*
X206219438Y-135071428D02*
X206257533Y-134995238D01*
X206257533Y-134995238D02*
X206257533Y-134842857D01*
X206257533Y-134842857D02*
X206219438Y-134766666D01*
X206219438Y-134766666D02*
X206181342Y-134728571D01*
X206181342Y-134728571D02*
X206105152Y-134690476D01*
X137261905Y-97154819D02*
X137261905Y-97964342D01*
X137261905Y-97964342D02*
X137309524Y-98059580D01*
X137309524Y-98059580D02*
X137357143Y-98107200D01*
X137357143Y-98107200D02*
X137452381Y-98154819D01*
X137452381Y-98154819D02*
X137642857Y-98154819D01*
X137642857Y-98154819D02*
X137738095Y-98107200D01*
X137738095Y-98107200D02*
X137785714Y-98059580D01*
X137785714Y-98059580D02*
X137833333Y-97964342D01*
X137833333Y-97964342D02*
X137833333Y-97154819D01*
X138833333Y-98154819D02*
X138261905Y-98154819D01*
X138547619Y-98154819D02*
X138547619Y-97154819D01*
X138547619Y-97154819D02*
X138452381Y-97297676D01*
X138452381Y-97297676D02*
X138357143Y-97392914D01*
X138357143Y-97392914D02*
X138261905Y-97440533D01*
X139690476Y-97154819D02*
X139500000Y-97154819D01*
X139500000Y-97154819D02*
X139404762Y-97202438D01*
X139404762Y-97202438D02*
X139357143Y-97250057D01*
X139357143Y-97250057D02*
X139261905Y-97392914D01*
X139261905Y-97392914D02*
X139214286Y-97583390D01*
X139214286Y-97583390D02*
X139214286Y-97964342D01*
X139214286Y-97964342D02*
X139261905Y-98059580D01*
X139261905Y-98059580D02*
X139309524Y-98107200D01*
X139309524Y-98107200D02*
X139404762Y-98154819D01*
X139404762Y-98154819D02*
X139595238Y-98154819D01*
X139595238Y-98154819D02*
X139690476Y-98107200D01*
X139690476Y-98107200D02*
X139738095Y-98059580D01*
X139738095Y-98059580D02*
X139785714Y-97964342D01*
X139785714Y-97964342D02*
X139785714Y-97726247D01*
X139785714Y-97726247D02*
X139738095Y-97631009D01*
X139738095Y-97631009D02*
X139690476Y-97583390D01*
X139690476Y-97583390D02*
X139595238Y-97535771D01*
X139595238Y-97535771D02*
X139404762Y-97535771D01*
X139404762Y-97535771D02*
X139309524Y-97583390D01*
X139309524Y-97583390D02*
X139261905Y-97631009D01*
X139261905Y-97631009D02*
X139214286Y-97726247D01*
X172930682Y-93809580D02*
X172883063Y-93857200D01*
X172883063Y-93857200D02*
X172740206Y-93904819D01*
X172740206Y-93904819D02*
X172644968Y-93904819D01*
X172644968Y-93904819D02*
X172502111Y-93857200D01*
X172502111Y-93857200D02*
X172406873Y-93761961D01*
X172406873Y-93761961D02*
X172359254Y-93666723D01*
X172359254Y-93666723D02*
X172311635Y-93476247D01*
X172311635Y-93476247D02*
X172311635Y-93333390D01*
X172311635Y-93333390D02*
X172359254Y-93142914D01*
X172359254Y-93142914D02*
X172406873Y-93047676D01*
X172406873Y-93047676D02*
X172502111Y-92952438D01*
X172502111Y-92952438D02*
X172644968Y-92904819D01*
X172644968Y-92904819D02*
X172740206Y-92904819D01*
X172740206Y-92904819D02*
X172883063Y-92952438D01*
X172883063Y-92952438D02*
X172930682Y-93000057D01*
X173787825Y-93238152D02*
X173787825Y-93904819D01*
X173549730Y-92857200D02*
X173311635Y-93571485D01*
X173311635Y-93571485D02*
X173930682Y-93571485D01*
X95016667Y-119112295D02*
X94750000Y-118731342D01*
X94559524Y-119112295D02*
X94559524Y-118312295D01*
X94559524Y-118312295D02*
X94864286Y-118312295D01*
X94864286Y-118312295D02*
X94940476Y-118350390D01*
X94940476Y-118350390D02*
X94978571Y-118388485D01*
X94978571Y-118388485D02*
X95016667Y-118464676D01*
X95016667Y-118464676D02*
X95016667Y-118578961D01*
X95016667Y-118578961D02*
X94978571Y-118655152D01*
X94978571Y-118655152D02*
X94940476Y-118693247D01*
X94940476Y-118693247D02*
X94864286Y-118731342D01*
X94864286Y-118731342D02*
X94559524Y-118731342D01*
X95283333Y-118312295D02*
X95778571Y-118312295D01*
X95778571Y-118312295D02*
X95511905Y-118617057D01*
X95511905Y-118617057D02*
X95626190Y-118617057D01*
X95626190Y-118617057D02*
X95702381Y-118655152D01*
X95702381Y-118655152D02*
X95740476Y-118693247D01*
X95740476Y-118693247D02*
X95778571Y-118769438D01*
X95778571Y-118769438D02*
X95778571Y-118959914D01*
X95778571Y-118959914D02*
X95740476Y-119036104D01*
X95740476Y-119036104D02*
X95702381Y-119074200D01*
X95702381Y-119074200D02*
X95626190Y-119112295D01*
X95626190Y-119112295D02*
X95397619Y-119112295D01*
X95397619Y-119112295D02*
X95321428Y-119074200D01*
X95321428Y-119074200D02*
X95283333Y-119036104D01*
X119614819Y-112561904D02*
X120424342Y-112561904D01*
X120424342Y-112561904D02*
X120519580Y-112514285D01*
X120519580Y-112514285D02*
X120567200Y-112466666D01*
X120567200Y-112466666D02*
X120614819Y-112371428D01*
X120614819Y-112371428D02*
X120614819Y-112180952D01*
X120614819Y-112180952D02*
X120567200Y-112085714D01*
X120567200Y-112085714D02*
X120519580Y-112038095D01*
X120519580Y-112038095D02*
X120424342Y-111990476D01*
X120424342Y-111990476D02*
X119614819Y-111990476D01*
X119614819Y-111038095D02*
X119614819Y-111514285D01*
X119614819Y-111514285D02*
X120091009Y-111561904D01*
X120091009Y-111561904D02*
X120043390Y-111514285D01*
X120043390Y-111514285D02*
X119995771Y-111419047D01*
X119995771Y-111419047D02*
X119995771Y-111180952D01*
X119995771Y-111180952D02*
X120043390Y-111085714D01*
X120043390Y-111085714D02*
X120091009Y-111038095D01*
X120091009Y-111038095D02*
X120186247Y-110990476D01*
X120186247Y-110990476D02*
X120424342Y-110990476D01*
X120424342Y-110990476D02*
X120519580Y-111038095D01*
X120519580Y-111038095D02*
X120567200Y-111085714D01*
X120567200Y-111085714D02*
X120614819Y-111180952D01*
X120614819Y-111180952D02*
X120614819Y-111419047D01*
X120614819Y-111419047D02*
X120567200Y-111514285D01*
X120567200Y-111514285D02*
X120519580Y-111561904D01*
X166457142Y-94254819D02*
X166123809Y-93778628D01*
X165885714Y-94254819D02*
X165885714Y-93254819D01*
X165885714Y-93254819D02*
X166266666Y-93254819D01*
X166266666Y-93254819D02*
X166361904Y-93302438D01*
X166361904Y-93302438D02*
X166409523Y-93350057D01*
X166409523Y-93350057D02*
X166457142Y-93445295D01*
X166457142Y-93445295D02*
X166457142Y-93588152D01*
X166457142Y-93588152D02*
X166409523Y-93683390D01*
X166409523Y-93683390D02*
X166361904Y-93731009D01*
X166361904Y-93731009D02*
X166266666Y-93778628D01*
X166266666Y-93778628D02*
X165885714Y-93778628D01*
X166790476Y-93254819D02*
X167409523Y-93254819D01*
X167409523Y-93254819D02*
X167076190Y-93635771D01*
X167076190Y-93635771D02*
X167219047Y-93635771D01*
X167219047Y-93635771D02*
X167314285Y-93683390D01*
X167314285Y-93683390D02*
X167361904Y-93731009D01*
X167361904Y-93731009D02*
X167409523Y-93826247D01*
X167409523Y-93826247D02*
X167409523Y-94064342D01*
X167409523Y-94064342D02*
X167361904Y-94159580D01*
X167361904Y-94159580D02*
X167314285Y-94207200D01*
X167314285Y-94207200D02*
X167219047Y-94254819D01*
X167219047Y-94254819D02*
X166933333Y-94254819D01*
X166933333Y-94254819D02*
X166838095Y-94207200D01*
X166838095Y-94207200D02*
X166790476Y-94159580D01*
X167885714Y-94254819D02*
X168076190Y-94254819D01*
X168076190Y-94254819D02*
X168171428Y-94207200D01*
X168171428Y-94207200D02*
X168219047Y-94159580D01*
X168219047Y-94159580D02*
X168314285Y-94016723D01*
X168314285Y-94016723D02*
X168361904Y-93826247D01*
X168361904Y-93826247D02*
X168361904Y-93445295D01*
X168361904Y-93445295D02*
X168314285Y-93350057D01*
X168314285Y-93350057D02*
X168266666Y-93302438D01*
X168266666Y-93302438D02*
X168171428Y-93254819D01*
X168171428Y-93254819D02*
X167980952Y-93254819D01*
X167980952Y-93254819D02*
X167885714Y-93302438D01*
X167885714Y-93302438D02*
X167838095Y-93350057D01*
X167838095Y-93350057D02*
X167790476Y-93445295D01*
X167790476Y-93445295D02*
X167790476Y-93683390D01*
X167790476Y-93683390D02*
X167838095Y-93778628D01*
X167838095Y-93778628D02*
X167885714Y-93826247D01*
X167885714Y-93826247D02*
X167980952Y-93873866D01*
X167980952Y-93873866D02*
X168171428Y-93873866D01*
X168171428Y-93873866D02*
X168266666Y-93826247D01*
X168266666Y-93826247D02*
X168314285Y-93778628D01*
X168314285Y-93778628D02*
X168361904Y-93683390D01*
X93566667Y-115286104D02*
X93528571Y-115324200D01*
X93528571Y-115324200D02*
X93414286Y-115362295D01*
X93414286Y-115362295D02*
X93338095Y-115362295D01*
X93338095Y-115362295D02*
X93223809Y-115324200D01*
X93223809Y-115324200D02*
X93147619Y-115248009D01*
X93147619Y-115248009D02*
X93109524Y-115171819D01*
X93109524Y-115171819D02*
X93071428Y-115019438D01*
X93071428Y-115019438D02*
X93071428Y-114905152D01*
X93071428Y-114905152D02*
X93109524Y-114752771D01*
X93109524Y-114752771D02*
X93147619Y-114676580D01*
X93147619Y-114676580D02*
X93223809Y-114600390D01*
X93223809Y-114600390D02*
X93338095Y-114562295D01*
X93338095Y-114562295D02*
X93414286Y-114562295D01*
X93414286Y-114562295D02*
X93528571Y-114600390D01*
X93528571Y-114600390D02*
X93566667Y-114638485D01*
X94328571Y-115362295D02*
X93871428Y-115362295D01*
X94100000Y-115362295D02*
X94100000Y-114562295D01*
X94100000Y-114562295D02*
X94023809Y-114676580D01*
X94023809Y-114676580D02*
X93947619Y-114752771D01*
X93947619Y-114752771D02*
X93871428Y-114790866D01*
X93666667Y-104886104D02*
X93628571Y-104924200D01*
X93628571Y-104924200D02*
X93514286Y-104962295D01*
X93514286Y-104962295D02*
X93438095Y-104962295D01*
X93438095Y-104962295D02*
X93323809Y-104924200D01*
X93323809Y-104924200D02*
X93247619Y-104848009D01*
X93247619Y-104848009D02*
X93209524Y-104771819D01*
X93209524Y-104771819D02*
X93171428Y-104619438D01*
X93171428Y-104619438D02*
X93171428Y-104505152D01*
X93171428Y-104505152D02*
X93209524Y-104352771D01*
X93209524Y-104352771D02*
X93247619Y-104276580D01*
X93247619Y-104276580D02*
X93323809Y-104200390D01*
X93323809Y-104200390D02*
X93438095Y-104162295D01*
X93438095Y-104162295D02*
X93514286Y-104162295D01*
X93514286Y-104162295D02*
X93628571Y-104200390D01*
X93628571Y-104200390D02*
X93666667Y-104238485D01*
X93971428Y-104238485D02*
X94009524Y-104200390D01*
X94009524Y-104200390D02*
X94085714Y-104162295D01*
X94085714Y-104162295D02*
X94276190Y-104162295D01*
X94276190Y-104162295D02*
X94352381Y-104200390D01*
X94352381Y-104200390D02*
X94390476Y-104238485D01*
X94390476Y-104238485D02*
X94428571Y-104314676D01*
X94428571Y-104314676D02*
X94428571Y-104390866D01*
X94428571Y-104390866D02*
X94390476Y-104505152D01*
X94390476Y-104505152D02*
X93933333Y-104962295D01*
X93933333Y-104962295D02*
X94428571Y-104962295D01*
X129659524Y-139112295D02*
X129659524Y-138312295D01*
X130116667Y-139112295D02*
X129773809Y-138655152D01*
X130116667Y-138312295D02*
X129659524Y-138769438D01*
X130878571Y-139112295D02*
X130421428Y-139112295D01*
X130650000Y-139112295D02*
X130650000Y-138312295D01*
X130650000Y-138312295D02*
X130573809Y-138426580D01*
X130573809Y-138426580D02*
X130497619Y-138502771D01*
X130497619Y-138502771D02*
X130421428Y-138540866D01*
X146357142Y-80854819D02*
X146023809Y-80378628D01*
X145785714Y-80854819D02*
X145785714Y-79854819D01*
X145785714Y-79854819D02*
X146166666Y-79854819D01*
X146166666Y-79854819D02*
X146261904Y-79902438D01*
X146261904Y-79902438D02*
X146309523Y-79950057D01*
X146309523Y-79950057D02*
X146357142Y-80045295D01*
X146357142Y-80045295D02*
X146357142Y-80188152D01*
X146357142Y-80188152D02*
X146309523Y-80283390D01*
X146309523Y-80283390D02*
X146261904Y-80331009D01*
X146261904Y-80331009D02*
X146166666Y-80378628D01*
X146166666Y-80378628D02*
X145785714Y-80378628D01*
X146690476Y-79854819D02*
X147309523Y-79854819D01*
X147309523Y-79854819D02*
X146976190Y-80235771D01*
X146976190Y-80235771D02*
X147119047Y-80235771D01*
X147119047Y-80235771D02*
X147214285Y-80283390D01*
X147214285Y-80283390D02*
X147261904Y-80331009D01*
X147261904Y-80331009D02*
X147309523Y-80426247D01*
X147309523Y-80426247D02*
X147309523Y-80664342D01*
X147309523Y-80664342D02*
X147261904Y-80759580D01*
X147261904Y-80759580D02*
X147214285Y-80807200D01*
X147214285Y-80807200D02*
X147119047Y-80854819D01*
X147119047Y-80854819D02*
X146833333Y-80854819D01*
X146833333Y-80854819D02*
X146738095Y-80807200D01*
X146738095Y-80807200D02*
X146690476Y-80759580D01*
X148214285Y-79854819D02*
X147738095Y-79854819D01*
X147738095Y-79854819D02*
X147690476Y-80331009D01*
X147690476Y-80331009D02*
X147738095Y-80283390D01*
X147738095Y-80283390D02*
X147833333Y-80235771D01*
X147833333Y-80235771D02*
X148071428Y-80235771D01*
X148071428Y-80235771D02*
X148166666Y-80283390D01*
X148166666Y-80283390D02*
X148214285Y-80331009D01*
X148214285Y-80331009D02*
X148261904Y-80426247D01*
X148261904Y-80426247D02*
X148261904Y-80664342D01*
X148261904Y-80664342D02*
X148214285Y-80759580D01*
X148214285Y-80759580D02*
X148166666Y-80807200D01*
X148166666Y-80807200D02*
X148071428Y-80854819D01*
X148071428Y-80854819D02*
X147833333Y-80854819D01*
X147833333Y-80854819D02*
X147738095Y-80807200D01*
X147738095Y-80807200D02*
X147690476Y-80759580D01*
X210459524Y-80412295D02*
X210459524Y-81059914D01*
X210459524Y-81059914D02*
X210497619Y-81136104D01*
X210497619Y-81136104D02*
X210535714Y-81174200D01*
X210535714Y-81174200D02*
X210611905Y-81212295D01*
X210611905Y-81212295D02*
X210764286Y-81212295D01*
X210764286Y-81212295D02*
X210840476Y-81174200D01*
X210840476Y-81174200D02*
X210878571Y-81136104D01*
X210878571Y-81136104D02*
X210916667Y-81059914D01*
X210916667Y-81059914D02*
X210916667Y-80412295D01*
X211716666Y-81212295D02*
X211259523Y-81212295D01*
X211488095Y-81212295D02*
X211488095Y-80412295D01*
X211488095Y-80412295D02*
X211411904Y-80526580D01*
X211411904Y-80526580D02*
X211335714Y-80602771D01*
X211335714Y-80602771D02*
X211259523Y-80640866D01*
X212440476Y-80412295D02*
X212059524Y-80412295D01*
X212059524Y-80412295D02*
X212021428Y-80793247D01*
X212021428Y-80793247D02*
X212059524Y-80755152D01*
X212059524Y-80755152D02*
X212135714Y-80717057D01*
X212135714Y-80717057D02*
X212326190Y-80717057D01*
X212326190Y-80717057D02*
X212402381Y-80755152D01*
X212402381Y-80755152D02*
X212440476Y-80793247D01*
X212440476Y-80793247D02*
X212478571Y-80869438D01*
X212478571Y-80869438D02*
X212478571Y-81059914D01*
X212478571Y-81059914D02*
X212440476Y-81136104D01*
X212440476Y-81136104D02*
X212402381Y-81174200D01*
X212402381Y-81174200D02*
X212326190Y-81212295D01*
X212326190Y-81212295D02*
X212135714Y-81212295D01*
X212135714Y-81212295D02*
X212059524Y-81174200D01*
X212059524Y-81174200D02*
X212021428Y-81136104D01*
X204562295Y-136640475D02*
X205209914Y-136640475D01*
X205209914Y-136640475D02*
X205286104Y-136602380D01*
X205286104Y-136602380D02*
X205324200Y-136564285D01*
X205324200Y-136564285D02*
X205362295Y-136488094D01*
X205362295Y-136488094D02*
X205362295Y-136335713D01*
X205362295Y-136335713D02*
X205324200Y-136259523D01*
X205324200Y-136259523D02*
X205286104Y-136221428D01*
X205286104Y-136221428D02*
X205209914Y-136183332D01*
X205209914Y-136183332D02*
X204562295Y-136183332D01*
X205362295Y-135383333D02*
X205362295Y-135840476D01*
X205362295Y-135611904D02*
X204562295Y-135611904D01*
X204562295Y-135611904D02*
X204676580Y-135688095D01*
X204676580Y-135688095D02*
X204752771Y-135764285D01*
X204752771Y-135764285D02*
X204790866Y-135840476D01*
X205362295Y-134621428D02*
X205362295Y-135078571D01*
X205362295Y-134849999D02*
X204562295Y-134849999D01*
X204562295Y-134849999D02*
X204676580Y-134926190D01*
X204676580Y-134926190D02*
X204752771Y-135002380D01*
X204752771Y-135002380D02*
X204790866Y-135078571D01*
X92712295Y-126309523D02*
X93359914Y-126309523D01*
X93359914Y-126309523D02*
X93436104Y-126271428D01*
X93436104Y-126271428D02*
X93474200Y-126233333D01*
X93474200Y-126233333D02*
X93512295Y-126157142D01*
X93512295Y-126157142D02*
X93512295Y-126004761D01*
X93512295Y-126004761D02*
X93474200Y-125928571D01*
X93474200Y-125928571D02*
X93436104Y-125890476D01*
X93436104Y-125890476D02*
X93359914Y-125852380D01*
X93359914Y-125852380D02*
X92712295Y-125852380D01*
X92712295Y-125128571D02*
X92712295Y-125280952D01*
X92712295Y-125280952D02*
X92750390Y-125357143D01*
X92750390Y-125357143D02*
X92788485Y-125395238D01*
X92788485Y-125395238D02*
X92902771Y-125471428D01*
X92902771Y-125471428D02*
X93055152Y-125509524D01*
X93055152Y-125509524D02*
X93359914Y-125509524D01*
X93359914Y-125509524D02*
X93436104Y-125471428D01*
X93436104Y-125471428D02*
X93474200Y-125433333D01*
X93474200Y-125433333D02*
X93512295Y-125357143D01*
X93512295Y-125357143D02*
X93512295Y-125204762D01*
X93512295Y-125204762D02*
X93474200Y-125128571D01*
X93474200Y-125128571D02*
X93436104Y-125090476D01*
X93436104Y-125090476D02*
X93359914Y-125052381D01*
X93359914Y-125052381D02*
X93169438Y-125052381D01*
X93169438Y-125052381D02*
X93093247Y-125090476D01*
X93093247Y-125090476D02*
X93055152Y-125128571D01*
X93055152Y-125128571D02*
X93017057Y-125204762D01*
X93017057Y-125204762D02*
X93017057Y-125357143D01*
X93017057Y-125357143D02*
X93055152Y-125433333D01*
X93055152Y-125433333D02*
X93093247Y-125471428D01*
X93093247Y-125471428D02*
X93169438Y-125509524D01*
X93662295Y-106790475D02*
X92862295Y-106790475D01*
X92862295Y-106790475D02*
X92862295Y-106599999D01*
X92862295Y-106599999D02*
X92900390Y-106485713D01*
X92900390Y-106485713D02*
X92976580Y-106409523D01*
X92976580Y-106409523D02*
X93052771Y-106371428D01*
X93052771Y-106371428D02*
X93205152Y-106333332D01*
X93205152Y-106333332D02*
X93319438Y-106333332D01*
X93319438Y-106333332D02*
X93471819Y-106371428D01*
X93471819Y-106371428D02*
X93548009Y-106409523D01*
X93548009Y-106409523D02*
X93624200Y-106485713D01*
X93624200Y-106485713D02*
X93662295Y-106599999D01*
X93662295Y-106599999D02*
X93662295Y-106790475D01*
X92862295Y-106066666D02*
X92862295Y-105533332D01*
X92862295Y-105533332D02*
X93662295Y-105876190D01*
X154782142Y-104004819D02*
X154448809Y-103528628D01*
X154210714Y-104004819D02*
X154210714Y-103004819D01*
X154210714Y-103004819D02*
X154591666Y-103004819D01*
X154591666Y-103004819D02*
X154686904Y-103052438D01*
X154686904Y-103052438D02*
X154734523Y-103100057D01*
X154734523Y-103100057D02*
X154782142Y-103195295D01*
X154782142Y-103195295D02*
X154782142Y-103338152D01*
X154782142Y-103338152D02*
X154734523Y-103433390D01*
X154734523Y-103433390D02*
X154686904Y-103481009D01*
X154686904Y-103481009D02*
X154591666Y-103528628D01*
X154591666Y-103528628D02*
X154210714Y-103528628D01*
X155163095Y-103100057D02*
X155210714Y-103052438D01*
X155210714Y-103052438D02*
X155305952Y-103004819D01*
X155305952Y-103004819D02*
X155544047Y-103004819D01*
X155544047Y-103004819D02*
X155639285Y-103052438D01*
X155639285Y-103052438D02*
X155686904Y-103100057D01*
X155686904Y-103100057D02*
X155734523Y-103195295D01*
X155734523Y-103195295D02*
X155734523Y-103290533D01*
X155734523Y-103290533D02*
X155686904Y-103433390D01*
X155686904Y-103433390D02*
X155115476Y-104004819D01*
X155115476Y-104004819D02*
X155734523Y-104004819D01*
X156067857Y-103004819D02*
X156734523Y-103004819D01*
X156734523Y-103004819D02*
X156305952Y-104004819D01*
X127861905Y-102054819D02*
X127861905Y-101054819D01*
X128433333Y-102054819D02*
X128004762Y-101483390D01*
X128433333Y-101054819D02*
X127861905Y-101626247D01*
X129004762Y-101483390D02*
X128909524Y-101435771D01*
X128909524Y-101435771D02*
X128861905Y-101388152D01*
X128861905Y-101388152D02*
X128814286Y-101292914D01*
X128814286Y-101292914D02*
X128814286Y-101245295D01*
X128814286Y-101245295D02*
X128861905Y-101150057D01*
X128861905Y-101150057D02*
X128909524Y-101102438D01*
X128909524Y-101102438D02*
X129004762Y-101054819D01*
X129004762Y-101054819D02*
X129195238Y-101054819D01*
X129195238Y-101054819D02*
X129290476Y-101102438D01*
X129290476Y-101102438D02*
X129338095Y-101150057D01*
X129338095Y-101150057D02*
X129385714Y-101245295D01*
X129385714Y-101245295D02*
X129385714Y-101292914D01*
X129385714Y-101292914D02*
X129338095Y-101388152D01*
X129338095Y-101388152D02*
X129290476Y-101435771D01*
X129290476Y-101435771D02*
X129195238Y-101483390D01*
X129195238Y-101483390D02*
X129004762Y-101483390D01*
X129004762Y-101483390D02*
X128909524Y-101531009D01*
X128909524Y-101531009D02*
X128861905Y-101578628D01*
X128861905Y-101578628D02*
X128814286Y-101673866D01*
X128814286Y-101673866D02*
X128814286Y-101864342D01*
X128814286Y-101864342D02*
X128861905Y-101959580D01*
X128861905Y-101959580D02*
X128909524Y-102007200D01*
X128909524Y-102007200D02*
X129004762Y-102054819D01*
X129004762Y-102054819D02*
X129195238Y-102054819D01*
X129195238Y-102054819D02*
X129290476Y-102007200D01*
X129290476Y-102007200D02*
X129338095Y-101959580D01*
X129338095Y-101959580D02*
X129385714Y-101864342D01*
X129385714Y-101864342D02*
X129385714Y-101673866D01*
X129385714Y-101673866D02*
X129338095Y-101578628D01*
X129338095Y-101578628D02*
X129290476Y-101531009D01*
X129290476Y-101531009D02*
X129195238Y-101483390D01*
X161859580Y-86666666D02*
X161907200Y-86714285D01*
X161907200Y-86714285D02*
X161954819Y-86857142D01*
X161954819Y-86857142D02*
X161954819Y-86952380D01*
X161954819Y-86952380D02*
X161907200Y-87095237D01*
X161907200Y-87095237D02*
X161811961Y-87190475D01*
X161811961Y-87190475D02*
X161716723Y-87238094D01*
X161716723Y-87238094D02*
X161526247Y-87285713D01*
X161526247Y-87285713D02*
X161383390Y-87285713D01*
X161383390Y-87285713D02*
X161192914Y-87238094D01*
X161192914Y-87238094D02*
X161097676Y-87190475D01*
X161097676Y-87190475D02*
X161002438Y-87095237D01*
X161002438Y-87095237D02*
X160954819Y-86952380D01*
X160954819Y-86952380D02*
X160954819Y-86857142D01*
X160954819Y-86857142D02*
X161002438Y-86714285D01*
X161002438Y-86714285D02*
X161050057Y-86666666D01*
X160954819Y-85809523D02*
X160954819Y-85999999D01*
X160954819Y-85999999D02*
X161002438Y-86095237D01*
X161002438Y-86095237D02*
X161050057Y-86142856D01*
X161050057Y-86142856D02*
X161192914Y-86238094D01*
X161192914Y-86238094D02*
X161383390Y-86285713D01*
X161383390Y-86285713D02*
X161764342Y-86285713D01*
X161764342Y-86285713D02*
X161859580Y-86238094D01*
X161859580Y-86238094D02*
X161907200Y-86190475D01*
X161907200Y-86190475D02*
X161954819Y-86095237D01*
X161954819Y-86095237D02*
X161954819Y-85904761D01*
X161954819Y-85904761D02*
X161907200Y-85809523D01*
X161907200Y-85809523D02*
X161859580Y-85761904D01*
X161859580Y-85761904D02*
X161764342Y-85714285D01*
X161764342Y-85714285D02*
X161526247Y-85714285D01*
X161526247Y-85714285D02*
X161431009Y-85761904D01*
X161431009Y-85761904D02*
X161383390Y-85809523D01*
X161383390Y-85809523D02*
X161335771Y-85904761D01*
X161335771Y-85904761D02*
X161335771Y-86095237D01*
X161335771Y-86095237D02*
X161383390Y-86190475D01*
X161383390Y-86190475D02*
X161431009Y-86238094D01*
X161431009Y-86238094D02*
X161526247Y-86285713D01*
X98041667Y-119112295D02*
X97775000Y-118731342D01*
X97584524Y-119112295D02*
X97584524Y-118312295D01*
X97584524Y-118312295D02*
X97889286Y-118312295D01*
X97889286Y-118312295D02*
X97965476Y-118350390D01*
X97965476Y-118350390D02*
X98003571Y-118388485D01*
X98003571Y-118388485D02*
X98041667Y-118464676D01*
X98041667Y-118464676D02*
X98041667Y-118578961D01*
X98041667Y-118578961D02*
X98003571Y-118655152D01*
X98003571Y-118655152D02*
X97965476Y-118693247D01*
X97965476Y-118693247D02*
X97889286Y-118731342D01*
X97889286Y-118731342D02*
X97584524Y-118731342D01*
X98422619Y-119112295D02*
X98575000Y-119112295D01*
X98575000Y-119112295D02*
X98651190Y-119074200D01*
X98651190Y-119074200D02*
X98689286Y-119036104D01*
X98689286Y-119036104D02*
X98765476Y-118921819D01*
X98765476Y-118921819D02*
X98803571Y-118769438D01*
X98803571Y-118769438D02*
X98803571Y-118464676D01*
X98803571Y-118464676D02*
X98765476Y-118388485D01*
X98765476Y-118388485D02*
X98727381Y-118350390D01*
X98727381Y-118350390D02*
X98651190Y-118312295D01*
X98651190Y-118312295D02*
X98498809Y-118312295D01*
X98498809Y-118312295D02*
X98422619Y-118350390D01*
X98422619Y-118350390D02*
X98384524Y-118388485D01*
X98384524Y-118388485D02*
X98346428Y-118464676D01*
X98346428Y-118464676D02*
X98346428Y-118655152D01*
X98346428Y-118655152D02*
X98384524Y-118731342D01*
X98384524Y-118731342D02*
X98422619Y-118769438D01*
X98422619Y-118769438D02*
X98498809Y-118807533D01*
X98498809Y-118807533D02*
X98651190Y-118807533D01*
X98651190Y-118807533D02*
X98727381Y-118769438D01*
X98727381Y-118769438D02*
X98765476Y-118731342D01*
X98765476Y-118731342D02*
X98803571Y-118655152D01*
X104612295Y-139059523D02*
X105259914Y-139059523D01*
X105259914Y-139059523D02*
X105336104Y-139021428D01*
X105336104Y-139021428D02*
X105374200Y-138983333D01*
X105374200Y-138983333D02*
X105412295Y-138907142D01*
X105412295Y-138907142D02*
X105412295Y-138754761D01*
X105412295Y-138754761D02*
X105374200Y-138678571D01*
X105374200Y-138678571D02*
X105336104Y-138640476D01*
X105336104Y-138640476D02*
X105259914Y-138602380D01*
X105259914Y-138602380D02*
X104612295Y-138602380D01*
X104612295Y-138297619D02*
X104612295Y-137764285D01*
X104612295Y-137764285D02*
X105412295Y-138107143D01*
X216512295Y-125190475D02*
X217159914Y-125190475D01*
X217159914Y-125190475D02*
X217236104Y-125152380D01*
X217236104Y-125152380D02*
X217274200Y-125114285D01*
X217274200Y-125114285D02*
X217312295Y-125038094D01*
X217312295Y-125038094D02*
X217312295Y-124885713D01*
X217312295Y-124885713D02*
X217274200Y-124809523D01*
X217274200Y-124809523D02*
X217236104Y-124771428D01*
X217236104Y-124771428D02*
X217159914Y-124733332D01*
X217159914Y-124733332D02*
X216512295Y-124733332D01*
X217312295Y-123933333D02*
X217312295Y-124390476D01*
X217312295Y-124161904D02*
X216512295Y-124161904D01*
X216512295Y-124161904D02*
X216626580Y-124238095D01*
X216626580Y-124238095D02*
X216702771Y-124314285D01*
X216702771Y-124314285D02*
X216740866Y-124390476D01*
X216512295Y-123438094D02*
X216512295Y-123361904D01*
X216512295Y-123361904D02*
X216550390Y-123285713D01*
X216550390Y-123285713D02*
X216588485Y-123247618D01*
X216588485Y-123247618D02*
X216664676Y-123209523D01*
X216664676Y-123209523D02*
X216817057Y-123171428D01*
X216817057Y-123171428D02*
X217007533Y-123171428D01*
X217007533Y-123171428D02*
X217159914Y-123209523D01*
X217159914Y-123209523D02*
X217236104Y-123247618D01*
X217236104Y-123247618D02*
X217274200Y-123285713D01*
X217274200Y-123285713D02*
X217312295Y-123361904D01*
X217312295Y-123361904D02*
X217312295Y-123438094D01*
X217312295Y-123438094D02*
X217274200Y-123514285D01*
X217274200Y-123514285D02*
X217236104Y-123552380D01*
X217236104Y-123552380D02*
X217159914Y-123590475D01*
X217159914Y-123590475D02*
X217007533Y-123628571D01*
X217007533Y-123628571D02*
X216817057Y-123628571D01*
X216817057Y-123628571D02*
X216664676Y-123590475D01*
X216664676Y-123590475D02*
X216588485Y-123552380D01*
X216588485Y-123552380D02*
X216550390Y-123514285D01*
X216550390Y-123514285D02*
X216512295Y-123438094D01*
X146109524Y-139112295D02*
X146109524Y-138312295D01*
X146566667Y-139112295D02*
X146223809Y-138655152D01*
X146566667Y-138312295D02*
X146109524Y-138769438D01*
X146871428Y-138388485D02*
X146909524Y-138350390D01*
X146909524Y-138350390D02*
X146985714Y-138312295D01*
X146985714Y-138312295D02*
X147176190Y-138312295D01*
X147176190Y-138312295D02*
X147252381Y-138350390D01*
X147252381Y-138350390D02*
X147290476Y-138388485D01*
X147290476Y-138388485D02*
X147328571Y-138464676D01*
X147328571Y-138464676D02*
X147328571Y-138540866D01*
X147328571Y-138540866D02*
X147290476Y-138655152D01*
X147290476Y-138655152D02*
X146833333Y-139112295D01*
X146833333Y-139112295D02*
X147328571Y-139112295D01*
X166457142Y-91254819D02*
X166123809Y-90778628D01*
X165885714Y-91254819D02*
X165885714Y-90254819D01*
X165885714Y-90254819D02*
X166266666Y-90254819D01*
X166266666Y-90254819D02*
X166361904Y-90302438D01*
X166361904Y-90302438D02*
X166409523Y-90350057D01*
X166409523Y-90350057D02*
X166457142Y-90445295D01*
X166457142Y-90445295D02*
X166457142Y-90588152D01*
X166457142Y-90588152D02*
X166409523Y-90683390D01*
X166409523Y-90683390D02*
X166361904Y-90731009D01*
X166361904Y-90731009D02*
X166266666Y-90778628D01*
X166266666Y-90778628D02*
X165885714Y-90778628D01*
X166790476Y-90254819D02*
X167409523Y-90254819D01*
X167409523Y-90254819D02*
X167076190Y-90635771D01*
X167076190Y-90635771D02*
X167219047Y-90635771D01*
X167219047Y-90635771D02*
X167314285Y-90683390D01*
X167314285Y-90683390D02*
X167361904Y-90731009D01*
X167361904Y-90731009D02*
X167409523Y-90826247D01*
X167409523Y-90826247D02*
X167409523Y-91064342D01*
X167409523Y-91064342D02*
X167361904Y-91159580D01*
X167361904Y-91159580D02*
X167314285Y-91207200D01*
X167314285Y-91207200D02*
X167219047Y-91254819D01*
X167219047Y-91254819D02*
X166933333Y-91254819D01*
X166933333Y-91254819D02*
X166838095Y-91207200D01*
X166838095Y-91207200D02*
X166790476Y-91159580D01*
X167980952Y-90683390D02*
X167885714Y-90635771D01*
X167885714Y-90635771D02*
X167838095Y-90588152D01*
X167838095Y-90588152D02*
X167790476Y-90492914D01*
X167790476Y-90492914D02*
X167790476Y-90445295D01*
X167790476Y-90445295D02*
X167838095Y-90350057D01*
X167838095Y-90350057D02*
X167885714Y-90302438D01*
X167885714Y-90302438D02*
X167980952Y-90254819D01*
X167980952Y-90254819D02*
X168171428Y-90254819D01*
X168171428Y-90254819D02*
X168266666Y-90302438D01*
X168266666Y-90302438D02*
X168314285Y-90350057D01*
X168314285Y-90350057D02*
X168361904Y-90445295D01*
X168361904Y-90445295D02*
X168361904Y-90492914D01*
X168361904Y-90492914D02*
X168314285Y-90588152D01*
X168314285Y-90588152D02*
X168266666Y-90635771D01*
X168266666Y-90635771D02*
X168171428Y-90683390D01*
X168171428Y-90683390D02*
X167980952Y-90683390D01*
X167980952Y-90683390D02*
X167885714Y-90731009D01*
X167885714Y-90731009D02*
X167838095Y-90778628D01*
X167838095Y-90778628D02*
X167790476Y-90873866D01*
X167790476Y-90873866D02*
X167790476Y-91064342D01*
X167790476Y-91064342D02*
X167838095Y-91159580D01*
X167838095Y-91159580D02*
X167885714Y-91207200D01*
X167885714Y-91207200D02*
X167980952Y-91254819D01*
X167980952Y-91254819D02*
X168171428Y-91254819D01*
X168171428Y-91254819D02*
X168266666Y-91207200D01*
X168266666Y-91207200D02*
X168314285Y-91159580D01*
X168314285Y-91159580D02*
X168361904Y-91064342D01*
X168361904Y-91064342D02*
X168361904Y-90873866D01*
X168361904Y-90873866D02*
X168314285Y-90778628D01*
X168314285Y-90778628D02*
X168266666Y-90731009D01*
X168266666Y-90731009D02*
X168171428Y-90683390D01*
X206074819Y-96067857D02*
X205598628Y-96401190D01*
X206074819Y-96639285D02*
X205074819Y-96639285D01*
X205074819Y-96639285D02*
X205074819Y-96258333D01*
X205074819Y-96258333D02*
X205122438Y-96163095D01*
X205122438Y-96163095D02*
X205170057Y-96115476D01*
X205170057Y-96115476D02*
X205265295Y-96067857D01*
X205265295Y-96067857D02*
X205408152Y-96067857D01*
X205408152Y-96067857D02*
X205503390Y-96115476D01*
X205503390Y-96115476D02*
X205551009Y-96163095D01*
X205551009Y-96163095D02*
X205598628Y-96258333D01*
X205598628Y-96258333D02*
X205598628Y-96639285D01*
X205074819Y-95734523D02*
X205074819Y-95115476D01*
X205074819Y-95115476D02*
X205455771Y-95448809D01*
X205455771Y-95448809D02*
X205455771Y-95305952D01*
X205455771Y-95305952D02*
X205503390Y-95210714D01*
X205503390Y-95210714D02*
X205551009Y-95163095D01*
X205551009Y-95163095D02*
X205646247Y-95115476D01*
X205646247Y-95115476D02*
X205884342Y-95115476D01*
X205884342Y-95115476D02*
X205979580Y-95163095D01*
X205979580Y-95163095D02*
X206027200Y-95210714D01*
X206027200Y-95210714D02*
X206074819Y-95305952D01*
X206074819Y-95305952D02*
X206074819Y-95591666D01*
X206074819Y-95591666D02*
X206027200Y-95686904D01*
X206027200Y-95686904D02*
X205979580Y-95734523D01*
X205074819Y-94496428D02*
X205074819Y-94401190D01*
X205074819Y-94401190D02*
X205122438Y-94305952D01*
X205122438Y-94305952D02*
X205170057Y-94258333D01*
X205170057Y-94258333D02*
X205265295Y-94210714D01*
X205265295Y-94210714D02*
X205455771Y-94163095D01*
X205455771Y-94163095D02*
X205693866Y-94163095D01*
X205693866Y-94163095D02*
X205884342Y-94210714D01*
X205884342Y-94210714D02*
X205979580Y-94258333D01*
X205979580Y-94258333D02*
X206027200Y-94305952D01*
X206027200Y-94305952D02*
X206074819Y-94401190D01*
X206074819Y-94401190D02*
X206074819Y-94496428D01*
X206074819Y-94496428D02*
X206027200Y-94591666D01*
X206027200Y-94591666D02*
X205979580Y-94639285D01*
X205979580Y-94639285D02*
X205884342Y-94686904D01*
X205884342Y-94686904D02*
X205693866Y-94734523D01*
X205693866Y-94734523D02*
X205455771Y-94734523D01*
X205455771Y-94734523D02*
X205265295Y-94686904D01*
X205265295Y-94686904D02*
X205170057Y-94639285D01*
X205170057Y-94639285D02*
X205122438Y-94591666D01*
X205122438Y-94591666D02*
X205074819Y-94496428D01*
X214585714Y-114712295D02*
X214319047Y-114331342D01*
X214128571Y-114712295D02*
X214128571Y-113912295D01*
X214128571Y-113912295D02*
X214433333Y-113912295D01*
X214433333Y-113912295D02*
X214509523Y-113950390D01*
X214509523Y-113950390D02*
X214547618Y-113988485D01*
X214547618Y-113988485D02*
X214585714Y-114064676D01*
X214585714Y-114064676D02*
X214585714Y-114178961D01*
X214585714Y-114178961D02*
X214547618Y-114255152D01*
X214547618Y-114255152D02*
X214509523Y-114293247D01*
X214509523Y-114293247D02*
X214433333Y-114331342D01*
X214433333Y-114331342D02*
X214128571Y-114331342D01*
X214890475Y-113988485D02*
X214928571Y-113950390D01*
X214928571Y-113950390D02*
X215004761Y-113912295D01*
X215004761Y-113912295D02*
X215195237Y-113912295D01*
X215195237Y-113912295D02*
X215271428Y-113950390D01*
X215271428Y-113950390D02*
X215309523Y-113988485D01*
X215309523Y-113988485D02*
X215347618Y-114064676D01*
X215347618Y-114064676D02*
X215347618Y-114140866D01*
X215347618Y-114140866D02*
X215309523Y-114255152D01*
X215309523Y-114255152D02*
X214852380Y-114712295D01*
X214852380Y-114712295D02*
X215347618Y-114712295D01*
X216109523Y-114712295D02*
X215652380Y-114712295D01*
X215880952Y-114712295D02*
X215880952Y-113912295D01*
X215880952Y-113912295D02*
X215804761Y-114026580D01*
X215804761Y-114026580D02*
X215728571Y-114102771D01*
X215728571Y-114102771D02*
X215652380Y-114140866D01*
X156766666Y-80954819D02*
X156766666Y-81669104D01*
X156766666Y-81669104D02*
X156719047Y-81811961D01*
X156719047Y-81811961D02*
X156623809Y-81907200D01*
X156623809Y-81907200D02*
X156480952Y-81954819D01*
X156480952Y-81954819D02*
X156385714Y-81954819D01*
X157671428Y-81288152D02*
X157671428Y-81954819D01*
X157433333Y-80907200D02*
X157195238Y-81621485D01*
X157195238Y-81621485D02*
X157814285Y-81621485D01*
X145861905Y-97154819D02*
X145861905Y-97964342D01*
X145861905Y-97964342D02*
X145909524Y-98059580D01*
X145909524Y-98059580D02*
X145957143Y-98107200D01*
X145957143Y-98107200D02*
X146052381Y-98154819D01*
X146052381Y-98154819D02*
X146242857Y-98154819D01*
X146242857Y-98154819D02*
X146338095Y-98107200D01*
X146338095Y-98107200D02*
X146385714Y-98059580D01*
X146385714Y-98059580D02*
X146433333Y-97964342D01*
X146433333Y-97964342D02*
X146433333Y-97154819D01*
X147433333Y-98154819D02*
X146861905Y-98154819D01*
X147147619Y-98154819D02*
X147147619Y-97154819D01*
X147147619Y-97154819D02*
X147052381Y-97297676D01*
X147052381Y-97297676D02*
X146957143Y-97392914D01*
X146957143Y-97392914D02*
X146861905Y-97440533D01*
X147766667Y-97154819D02*
X148433333Y-97154819D01*
X148433333Y-97154819D02*
X148004762Y-98154819D01*
X156033333Y-69862295D02*
X156033333Y-69062295D01*
X156033333Y-69062295D02*
X156299999Y-69633723D01*
X156299999Y-69633723D02*
X156566666Y-69062295D01*
X156566666Y-69062295D02*
X156566666Y-69862295D01*
X157100000Y-69062295D02*
X157252381Y-69062295D01*
X157252381Y-69062295D02*
X157328571Y-69100390D01*
X157328571Y-69100390D02*
X157404762Y-69176580D01*
X157404762Y-69176580D02*
X157442857Y-69328961D01*
X157442857Y-69328961D02*
X157442857Y-69595628D01*
X157442857Y-69595628D02*
X157404762Y-69748009D01*
X157404762Y-69748009D02*
X157328571Y-69824200D01*
X157328571Y-69824200D02*
X157252381Y-69862295D01*
X157252381Y-69862295D02*
X157100000Y-69862295D01*
X157100000Y-69862295D02*
X157023809Y-69824200D01*
X157023809Y-69824200D02*
X156947619Y-69748009D01*
X156947619Y-69748009D02*
X156909523Y-69595628D01*
X156909523Y-69595628D02*
X156909523Y-69328961D01*
X156909523Y-69328961D02*
X156947619Y-69176580D01*
X156947619Y-69176580D02*
X157023809Y-69100390D01*
X157023809Y-69100390D02*
X157100000Y-69062295D01*
X157785714Y-69862295D02*
X157785714Y-69062295D01*
X157785714Y-69062295D02*
X157976190Y-69062295D01*
X157976190Y-69062295D02*
X158090476Y-69100390D01*
X158090476Y-69100390D02*
X158166666Y-69176580D01*
X158166666Y-69176580D02*
X158204761Y-69252771D01*
X158204761Y-69252771D02*
X158242857Y-69405152D01*
X158242857Y-69405152D02*
X158242857Y-69519438D01*
X158242857Y-69519438D02*
X158204761Y-69671819D01*
X158204761Y-69671819D02*
X158166666Y-69748009D01*
X158166666Y-69748009D02*
X158090476Y-69824200D01*
X158090476Y-69824200D02*
X157976190Y-69862295D01*
X157976190Y-69862295D02*
X157785714Y-69862295D01*
X159004761Y-69862295D02*
X158547618Y-69862295D01*
X158776190Y-69862295D02*
X158776190Y-69062295D01*
X158776190Y-69062295D02*
X158699999Y-69176580D01*
X158699999Y-69176580D02*
X158623809Y-69252771D01*
X158623809Y-69252771D02*
X158547618Y-69290866D01*
X179209524Y-139112295D02*
X179209524Y-138312295D01*
X179666667Y-139112295D02*
X179323809Y-138655152D01*
X179666667Y-138312295D02*
X179209524Y-138769438D01*
X180352381Y-138578961D02*
X180352381Y-139112295D01*
X180161905Y-138274200D02*
X179971428Y-138845628D01*
X179971428Y-138845628D02*
X180466667Y-138845628D01*
X166479580Y-96866666D02*
X166527200Y-96914285D01*
X166527200Y-96914285D02*
X166574819Y-97057142D01*
X166574819Y-97057142D02*
X166574819Y-97152380D01*
X166574819Y-97152380D02*
X166527200Y-97295237D01*
X166527200Y-97295237D02*
X166431961Y-97390475D01*
X166431961Y-97390475D02*
X166336723Y-97438094D01*
X166336723Y-97438094D02*
X166146247Y-97485713D01*
X166146247Y-97485713D02*
X166003390Y-97485713D01*
X166003390Y-97485713D02*
X165812914Y-97438094D01*
X165812914Y-97438094D02*
X165717676Y-97390475D01*
X165717676Y-97390475D02*
X165622438Y-97295237D01*
X165622438Y-97295237D02*
X165574819Y-97152380D01*
X165574819Y-97152380D02*
X165574819Y-97057142D01*
X165574819Y-97057142D02*
X165622438Y-96914285D01*
X165622438Y-96914285D02*
X165670057Y-96866666D01*
X165574819Y-96533332D02*
X165574819Y-95914285D01*
X165574819Y-95914285D02*
X165955771Y-96247618D01*
X165955771Y-96247618D02*
X165955771Y-96104761D01*
X165955771Y-96104761D02*
X166003390Y-96009523D01*
X166003390Y-96009523D02*
X166051009Y-95961904D01*
X166051009Y-95961904D02*
X166146247Y-95914285D01*
X166146247Y-95914285D02*
X166384342Y-95914285D01*
X166384342Y-95914285D02*
X166479580Y-95961904D01*
X166479580Y-95961904D02*
X166527200Y-96009523D01*
X166527200Y-96009523D02*
X166574819Y-96104761D01*
X166574819Y-96104761D02*
X166574819Y-96390475D01*
X166574819Y-96390475D02*
X166527200Y-96485713D01*
X166527200Y-96485713D02*
X166479580Y-96533332D01*
X141857142Y-101354819D02*
X141523809Y-100878628D01*
X141285714Y-101354819D02*
X141285714Y-100354819D01*
X141285714Y-100354819D02*
X141666666Y-100354819D01*
X141666666Y-100354819D02*
X141761904Y-100402438D01*
X141761904Y-100402438D02*
X141809523Y-100450057D01*
X141809523Y-100450057D02*
X141857142Y-100545295D01*
X141857142Y-100545295D02*
X141857142Y-100688152D01*
X141857142Y-100688152D02*
X141809523Y-100783390D01*
X141809523Y-100783390D02*
X141761904Y-100831009D01*
X141761904Y-100831009D02*
X141666666Y-100878628D01*
X141666666Y-100878628D02*
X141285714Y-100878628D01*
X142190476Y-100354819D02*
X142809523Y-100354819D01*
X142809523Y-100354819D02*
X142476190Y-100735771D01*
X142476190Y-100735771D02*
X142619047Y-100735771D01*
X142619047Y-100735771D02*
X142714285Y-100783390D01*
X142714285Y-100783390D02*
X142761904Y-100831009D01*
X142761904Y-100831009D02*
X142809523Y-100926247D01*
X142809523Y-100926247D02*
X142809523Y-101164342D01*
X142809523Y-101164342D02*
X142761904Y-101259580D01*
X142761904Y-101259580D02*
X142714285Y-101307200D01*
X142714285Y-101307200D02*
X142619047Y-101354819D01*
X142619047Y-101354819D02*
X142333333Y-101354819D01*
X142333333Y-101354819D02*
X142238095Y-101307200D01*
X142238095Y-101307200D02*
X142190476Y-101259580D01*
X143190476Y-100450057D02*
X143238095Y-100402438D01*
X143238095Y-100402438D02*
X143333333Y-100354819D01*
X143333333Y-100354819D02*
X143571428Y-100354819D01*
X143571428Y-100354819D02*
X143666666Y-100402438D01*
X143666666Y-100402438D02*
X143714285Y-100450057D01*
X143714285Y-100450057D02*
X143761904Y-100545295D01*
X143761904Y-100545295D02*
X143761904Y-100640533D01*
X143761904Y-100640533D02*
X143714285Y-100783390D01*
X143714285Y-100783390D02*
X143142857Y-101354819D01*
X143142857Y-101354819D02*
X143761904Y-101354819D01*
X113209524Y-139262295D02*
X113209524Y-138462295D01*
X113666667Y-139262295D02*
X113323809Y-138805152D01*
X113666667Y-138462295D02*
X113209524Y-138919438D01*
X114390476Y-138462295D02*
X114009524Y-138462295D01*
X114009524Y-138462295D02*
X113971428Y-138843247D01*
X113971428Y-138843247D02*
X114009524Y-138805152D01*
X114009524Y-138805152D02*
X114085714Y-138767057D01*
X114085714Y-138767057D02*
X114276190Y-138767057D01*
X114276190Y-138767057D02*
X114352381Y-138805152D01*
X114352381Y-138805152D02*
X114390476Y-138843247D01*
X114390476Y-138843247D02*
X114428571Y-138919438D01*
X114428571Y-138919438D02*
X114428571Y-139109914D01*
X114428571Y-139109914D02*
X114390476Y-139186104D01*
X114390476Y-139186104D02*
X114352381Y-139224200D01*
X114352381Y-139224200D02*
X114276190Y-139262295D01*
X114276190Y-139262295D02*
X114085714Y-139262295D01*
X114085714Y-139262295D02*
X114009524Y-139224200D01*
X114009524Y-139224200D02*
X113971428Y-139186104D01*
X136658333Y-115029580D02*
X136610714Y-115077200D01*
X136610714Y-115077200D02*
X136467857Y-115124819D01*
X136467857Y-115124819D02*
X136372619Y-115124819D01*
X136372619Y-115124819D02*
X136229762Y-115077200D01*
X136229762Y-115077200D02*
X136134524Y-114981961D01*
X136134524Y-114981961D02*
X136086905Y-114886723D01*
X136086905Y-114886723D02*
X136039286Y-114696247D01*
X136039286Y-114696247D02*
X136039286Y-114553390D01*
X136039286Y-114553390D02*
X136086905Y-114362914D01*
X136086905Y-114362914D02*
X136134524Y-114267676D01*
X136134524Y-114267676D02*
X136229762Y-114172438D01*
X136229762Y-114172438D02*
X136372619Y-114124819D01*
X136372619Y-114124819D02*
X136467857Y-114124819D01*
X136467857Y-114124819D02*
X136610714Y-114172438D01*
X136610714Y-114172438D02*
X136658333Y-114220057D01*
X137229762Y-114553390D02*
X137134524Y-114505771D01*
X137134524Y-114505771D02*
X137086905Y-114458152D01*
X137086905Y-114458152D02*
X137039286Y-114362914D01*
X137039286Y-114362914D02*
X137039286Y-114315295D01*
X137039286Y-114315295D02*
X137086905Y-114220057D01*
X137086905Y-114220057D02*
X137134524Y-114172438D01*
X137134524Y-114172438D02*
X137229762Y-114124819D01*
X137229762Y-114124819D02*
X137420238Y-114124819D01*
X137420238Y-114124819D02*
X137515476Y-114172438D01*
X137515476Y-114172438D02*
X137563095Y-114220057D01*
X137563095Y-114220057D02*
X137610714Y-114315295D01*
X137610714Y-114315295D02*
X137610714Y-114362914D01*
X137610714Y-114362914D02*
X137563095Y-114458152D01*
X137563095Y-114458152D02*
X137515476Y-114505771D01*
X137515476Y-114505771D02*
X137420238Y-114553390D01*
X137420238Y-114553390D02*
X137229762Y-114553390D01*
X137229762Y-114553390D02*
X137134524Y-114601009D01*
X137134524Y-114601009D02*
X137086905Y-114648628D01*
X137086905Y-114648628D02*
X137039286Y-114743866D01*
X137039286Y-114743866D02*
X137039286Y-114934342D01*
X137039286Y-114934342D02*
X137086905Y-115029580D01*
X137086905Y-115029580D02*
X137134524Y-115077200D01*
X137134524Y-115077200D02*
X137229762Y-115124819D01*
X137229762Y-115124819D02*
X137420238Y-115124819D01*
X137420238Y-115124819D02*
X137515476Y-115077200D01*
X137515476Y-115077200D02*
X137563095Y-115029580D01*
X137563095Y-115029580D02*
X137610714Y-114934342D01*
X137610714Y-114934342D02*
X137610714Y-114743866D01*
X137610714Y-114743866D02*
X137563095Y-114648628D01*
X137563095Y-114648628D02*
X137515476Y-114601009D01*
X137515476Y-114601009D02*
X137420238Y-114553390D01*
X211535714Y-114762295D02*
X211269047Y-114381342D01*
X211078571Y-114762295D02*
X211078571Y-113962295D01*
X211078571Y-113962295D02*
X211383333Y-113962295D01*
X211383333Y-113962295D02*
X211459523Y-114000390D01*
X211459523Y-114000390D02*
X211497618Y-114038485D01*
X211497618Y-114038485D02*
X211535714Y-114114676D01*
X211535714Y-114114676D02*
X211535714Y-114228961D01*
X211535714Y-114228961D02*
X211497618Y-114305152D01*
X211497618Y-114305152D02*
X211459523Y-114343247D01*
X211459523Y-114343247D02*
X211383333Y-114381342D01*
X211383333Y-114381342D02*
X211078571Y-114381342D01*
X212297618Y-114762295D02*
X211840475Y-114762295D01*
X212069047Y-114762295D02*
X212069047Y-113962295D01*
X212069047Y-113962295D02*
X211992856Y-114076580D01*
X211992856Y-114076580D02*
X211916666Y-114152771D01*
X211916666Y-114152771D02*
X211840475Y-114190866D01*
X213021428Y-113962295D02*
X212640476Y-113962295D01*
X212640476Y-113962295D02*
X212602380Y-114343247D01*
X212602380Y-114343247D02*
X212640476Y-114305152D01*
X212640476Y-114305152D02*
X212716666Y-114267057D01*
X212716666Y-114267057D02*
X212907142Y-114267057D01*
X212907142Y-114267057D02*
X212983333Y-114305152D01*
X212983333Y-114305152D02*
X213021428Y-114343247D01*
X213021428Y-114343247D02*
X213059523Y-114419438D01*
X213059523Y-114419438D02*
X213059523Y-114609914D01*
X213059523Y-114609914D02*
X213021428Y-114686104D01*
X213021428Y-114686104D02*
X212983333Y-114724200D01*
X212983333Y-114724200D02*
X212907142Y-114762295D01*
X212907142Y-114762295D02*
X212716666Y-114762295D01*
X212716666Y-114762295D02*
X212640476Y-114724200D01*
X212640476Y-114724200D02*
X212602380Y-114686104D01*
X214262295Y-136314285D02*
X213881342Y-136580952D01*
X214262295Y-136771428D02*
X213462295Y-136771428D01*
X213462295Y-136771428D02*
X213462295Y-136466666D01*
X213462295Y-136466666D02*
X213500390Y-136390476D01*
X213500390Y-136390476D02*
X213538485Y-136352381D01*
X213538485Y-136352381D02*
X213614676Y-136314285D01*
X213614676Y-136314285D02*
X213728961Y-136314285D01*
X213728961Y-136314285D02*
X213805152Y-136352381D01*
X213805152Y-136352381D02*
X213843247Y-136390476D01*
X213843247Y-136390476D02*
X213881342Y-136466666D01*
X213881342Y-136466666D02*
X213881342Y-136771428D01*
X214262295Y-135552381D02*
X214262295Y-136009524D01*
X214262295Y-135780952D02*
X213462295Y-135780952D01*
X213462295Y-135780952D02*
X213576580Y-135857143D01*
X213576580Y-135857143D02*
X213652771Y-135933333D01*
X213652771Y-135933333D02*
X213690866Y-136009524D01*
X213805152Y-135095238D02*
X213767057Y-135171428D01*
X213767057Y-135171428D02*
X213728961Y-135209523D01*
X213728961Y-135209523D02*
X213652771Y-135247619D01*
X213652771Y-135247619D02*
X213614676Y-135247619D01*
X213614676Y-135247619D02*
X213538485Y-135209523D01*
X213538485Y-135209523D02*
X213500390Y-135171428D01*
X213500390Y-135171428D02*
X213462295Y-135095238D01*
X213462295Y-135095238D02*
X213462295Y-134942857D01*
X213462295Y-134942857D02*
X213500390Y-134866666D01*
X213500390Y-134866666D02*
X213538485Y-134828571D01*
X213538485Y-134828571D02*
X213614676Y-134790476D01*
X213614676Y-134790476D02*
X213652771Y-134790476D01*
X213652771Y-134790476D02*
X213728961Y-134828571D01*
X213728961Y-134828571D02*
X213767057Y-134866666D01*
X213767057Y-134866666D02*
X213805152Y-134942857D01*
X213805152Y-134942857D02*
X213805152Y-135095238D01*
X213805152Y-135095238D02*
X213843247Y-135171428D01*
X213843247Y-135171428D02*
X213881342Y-135209523D01*
X213881342Y-135209523D02*
X213957533Y-135247619D01*
X213957533Y-135247619D02*
X214109914Y-135247619D01*
X214109914Y-135247619D02*
X214186104Y-135209523D01*
X214186104Y-135209523D02*
X214224200Y-135171428D01*
X214224200Y-135171428D02*
X214262295Y-135095238D01*
X214262295Y-135095238D02*
X214262295Y-134942857D01*
X214262295Y-134942857D02*
X214224200Y-134866666D01*
X214224200Y-134866666D02*
X214186104Y-134828571D01*
X214186104Y-134828571D02*
X214109914Y-134790476D01*
X214109914Y-134790476D02*
X213957533Y-134790476D01*
X213957533Y-134790476D02*
X213881342Y-134828571D01*
X213881342Y-134828571D02*
X213843247Y-134866666D01*
X213843247Y-134866666D02*
X213805152Y-134942857D01*
X148533333Y-117459580D02*
X148485714Y-117507200D01*
X148485714Y-117507200D02*
X148342857Y-117554819D01*
X148342857Y-117554819D02*
X148247619Y-117554819D01*
X148247619Y-117554819D02*
X148104762Y-117507200D01*
X148104762Y-117507200D02*
X148009524Y-117411961D01*
X148009524Y-117411961D02*
X147961905Y-117316723D01*
X147961905Y-117316723D02*
X147914286Y-117126247D01*
X147914286Y-117126247D02*
X147914286Y-116983390D01*
X147914286Y-116983390D02*
X147961905Y-116792914D01*
X147961905Y-116792914D02*
X148009524Y-116697676D01*
X148009524Y-116697676D02*
X148104762Y-116602438D01*
X148104762Y-116602438D02*
X148247619Y-116554819D01*
X148247619Y-116554819D02*
X148342857Y-116554819D01*
X148342857Y-116554819D02*
X148485714Y-116602438D01*
X148485714Y-116602438D02*
X148533333Y-116650057D01*
X148866667Y-116554819D02*
X149533333Y-116554819D01*
X149533333Y-116554819D02*
X149104762Y-117554819D01*
X160361905Y-80454819D02*
X160361905Y-81264342D01*
X160361905Y-81264342D02*
X160409524Y-81359580D01*
X160409524Y-81359580D02*
X160457143Y-81407200D01*
X160457143Y-81407200D02*
X160552381Y-81454819D01*
X160552381Y-81454819D02*
X160742857Y-81454819D01*
X160742857Y-81454819D02*
X160838095Y-81407200D01*
X160838095Y-81407200D02*
X160885714Y-81359580D01*
X160885714Y-81359580D02*
X160933333Y-81264342D01*
X160933333Y-81264342D02*
X160933333Y-80454819D01*
X161933333Y-81454819D02*
X161361905Y-81454819D01*
X161647619Y-81454819D02*
X161647619Y-80454819D01*
X161647619Y-80454819D02*
X161552381Y-80597676D01*
X161552381Y-80597676D02*
X161457143Y-80692914D01*
X161457143Y-80692914D02*
X161361905Y-80740533D01*
X162504762Y-80883390D02*
X162409524Y-80835771D01*
X162409524Y-80835771D02*
X162361905Y-80788152D01*
X162361905Y-80788152D02*
X162314286Y-80692914D01*
X162314286Y-80692914D02*
X162314286Y-80645295D01*
X162314286Y-80645295D02*
X162361905Y-80550057D01*
X162361905Y-80550057D02*
X162409524Y-80502438D01*
X162409524Y-80502438D02*
X162504762Y-80454819D01*
X162504762Y-80454819D02*
X162695238Y-80454819D01*
X162695238Y-80454819D02*
X162790476Y-80502438D01*
X162790476Y-80502438D02*
X162838095Y-80550057D01*
X162838095Y-80550057D02*
X162885714Y-80645295D01*
X162885714Y-80645295D02*
X162885714Y-80692914D01*
X162885714Y-80692914D02*
X162838095Y-80788152D01*
X162838095Y-80788152D02*
X162790476Y-80835771D01*
X162790476Y-80835771D02*
X162695238Y-80883390D01*
X162695238Y-80883390D02*
X162504762Y-80883390D01*
X162504762Y-80883390D02*
X162409524Y-80931009D01*
X162409524Y-80931009D02*
X162361905Y-80978628D01*
X162361905Y-80978628D02*
X162314286Y-81073866D01*
X162314286Y-81073866D02*
X162314286Y-81264342D01*
X162314286Y-81264342D02*
X162361905Y-81359580D01*
X162361905Y-81359580D02*
X162409524Y-81407200D01*
X162409524Y-81407200D02*
X162504762Y-81454819D01*
X162504762Y-81454819D02*
X162695238Y-81454819D01*
X162695238Y-81454819D02*
X162790476Y-81407200D01*
X162790476Y-81407200D02*
X162838095Y-81359580D01*
X162838095Y-81359580D02*
X162885714Y-81264342D01*
X162885714Y-81264342D02*
X162885714Y-81073866D01*
X162885714Y-81073866D02*
X162838095Y-80978628D01*
X162838095Y-80978628D02*
X162790476Y-80931009D01*
X162790476Y-80931009D02*
X162695238Y-80883390D01*
X193333333Y-117459580D02*
X193285714Y-117507200D01*
X193285714Y-117507200D02*
X193142857Y-117554819D01*
X193142857Y-117554819D02*
X193047619Y-117554819D01*
X193047619Y-117554819D02*
X192904762Y-117507200D01*
X192904762Y-117507200D02*
X192809524Y-117411961D01*
X192809524Y-117411961D02*
X192761905Y-117316723D01*
X192761905Y-117316723D02*
X192714286Y-117126247D01*
X192714286Y-117126247D02*
X192714286Y-116983390D01*
X192714286Y-116983390D02*
X192761905Y-116792914D01*
X192761905Y-116792914D02*
X192809524Y-116697676D01*
X192809524Y-116697676D02*
X192904762Y-116602438D01*
X192904762Y-116602438D02*
X193047619Y-116554819D01*
X193047619Y-116554819D02*
X193142857Y-116554819D01*
X193142857Y-116554819D02*
X193285714Y-116602438D01*
X193285714Y-116602438D02*
X193333333Y-116650057D01*
X193809524Y-117554819D02*
X194000000Y-117554819D01*
X194000000Y-117554819D02*
X194095238Y-117507200D01*
X194095238Y-117507200D02*
X194142857Y-117459580D01*
X194142857Y-117459580D02*
X194238095Y-117316723D01*
X194238095Y-117316723D02*
X194285714Y-117126247D01*
X194285714Y-117126247D02*
X194285714Y-116745295D01*
X194285714Y-116745295D02*
X194238095Y-116650057D01*
X194238095Y-116650057D02*
X194190476Y-116602438D01*
X194190476Y-116602438D02*
X194095238Y-116554819D01*
X194095238Y-116554819D02*
X193904762Y-116554819D01*
X193904762Y-116554819D02*
X193809524Y-116602438D01*
X193809524Y-116602438D02*
X193761905Y-116650057D01*
X193761905Y-116650057D02*
X193714286Y-116745295D01*
X193714286Y-116745295D02*
X193714286Y-116983390D01*
X193714286Y-116983390D02*
X193761905Y-117078628D01*
X193761905Y-117078628D02*
X193809524Y-117126247D01*
X193809524Y-117126247D02*
X193904762Y-117173866D01*
X193904762Y-117173866D02*
X194095238Y-117173866D01*
X194095238Y-117173866D02*
X194190476Y-117126247D01*
X194190476Y-117126247D02*
X194238095Y-117078628D01*
X194238095Y-117078628D02*
X194285714Y-116983390D01*
X101812295Y-137158332D02*
X101431342Y-137424999D01*
X101812295Y-137615475D02*
X101012295Y-137615475D01*
X101012295Y-137615475D02*
X101012295Y-137310713D01*
X101012295Y-137310713D02*
X101050390Y-137234523D01*
X101050390Y-137234523D02*
X101088485Y-137196428D01*
X101088485Y-137196428D02*
X101164676Y-137158332D01*
X101164676Y-137158332D02*
X101278961Y-137158332D01*
X101278961Y-137158332D02*
X101355152Y-137196428D01*
X101355152Y-137196428D02*
X101393247Y-137234523D01*
X101393247Y-137234523D02*
X101431342Y-137310713D01*
X101431342Y-137310713D02*
X101431342Y-137615475D01*
X101012295Y-136891666D02*
X101012295Y-136358332D01*
X101012295Y-136358332D02*
X101812295Y-136701190D01*
X103710714Y-119062295D02*
X103444047Y-118681342D01*
X103253571Y-119062295D02*
X103253571Y-118262295D01*
X103253571Y-118262295D02*
X103558333Y-118262295D01*
X103558333Y-118262295D02*
X103634523Y-118300390D01*
X103634523Y-118300390D02*
X103672618Y-118338485D01*
X103672618Y-118338485D02*
X103710714Y-118414676D01*
X103710714Y-118414676D02*
X103710714Y-118528961D01*
X103710714Y-118528961D02*
X103672618Y-118605152D01*
X103672618Y-118605152D02*
X103634523Y-118643247D01*
X103634523Y-118643247D02*
X103558333Y-118681342D01*
X103558333Y-118681342D02*
X103253571Y-118681342D01*
X104472618Y-119062295D02*
X104015475Y-119062295D01*
X104244047Y-119062295D02*
X104244047Y-118262295D01*
X104244047Y-118262295D02*
X104167856Y-118376580D01*
X104167856Y-118376580D02*
X104091666Y-118452771D01*
X104091666Y-118452771D02*
X104015475Y-118490866D01*
X104967857Y-118262295D02*
X105044047Y-118262295D01*
X105044047Y-118262295D02*
X105120238Y-118300390D01*
X105120238Y-118300390D02*
X105158333Y-118338485D01*
X105158333Y-118338485D02*
X105196428Y-118414676D01*
X105196428Y-118414676D02*
X105234523Y-118567057D01*
X105234523Y-118567057D02*
X105234523Y-118757533D01*
X105234523Y-118757533D02*
X105196428Y-118909914D01*
X105196428Y-118909914D02*
X105158333Y-118986104D01*
X105158333Y-118986104D02*
X105120238Y-119024200D01*
X105120238Y-119024200D02*
X105044047Y-119062295D01*
X105044047Y-119062295D02*
X104967857Y-119062295D01*
X104967857Y-119062295D02*
X104891666Y-119024200D01*
X104891666Y-119024200D02*
X104853571Y-118986104D01*
X104853571Y-118986104D02*
X104815476Y-118909914D01*
X104815476Y-118909914D02*
X104777380Y-118757533D01*
X104777380Y-118757533D02*
X104777380Y-118567057D01*
X104777380Y-118567057D02*
X104815476Y-118414676D01*
X104815476Y-118414676D02*
X104853571Y-118338485D01*
X104853571Y-118338485D02*
X104891666Y-118300390D01*
X104891666Y-118300390D02*
X104967857Y-118262295D01*
X212062295Y-136314285D02*
X211681342Y-136580952D01*
X212062295Y-136771428D02*
X211262295Y-136771428D01*
X211262295Y-136771428D02*
X211262295Y-136466666D01*
X211262295Y-136466666D02*
X211300390Y-136390476D01*
X211300390Y-136390476D02*
X211338485Y-136352381D01*
X211338485Y-136352381D02*
X211414676Y-136314285D01*
X211414676Y-136314285D02*
X211528961Y-136314285D01*
X211528961Y-136314285D02*
X211605152Y-136352381D01*
X211605152Y-136352381D02*
X211643247Y-136390476D01*
X211643247Y-136390476D02*
X211681342Y-136466666D01*
X211681342Y-136466666D02*
X211681342Y-136771428D01*
X212062295Y-135552381D02*
X212062295Y-136009524D01*
X212062295Y-135780952D02*
X211262295Y-135780952D01*
X211262295Y-135780952D02*
X211376580Y-135857143D01*
X211376580Y-135857143D02*
X211452771Y-135933333D01*
X211452771Y-135933333D02*
X211490866Y-136009524D01*
X211262295Y-135285714D02*
X211262295Y-134752380D01*
X211262295Y-134752380D02*
X212062295Y-135095238D01*
X189957142Y-104054819D02*
X189623809Y-103578628D01*
X189385714Y-104054819D02*
X189385714Y-103054819D01*
X189385714Y-103054819D02*
X189766666Y-103054819D01*
X189766666Y-103054819D02*
X189861904Y-103102438D01*
X189861904Y-103102438D02*
X189909523Y-103150057D01*
X189909523Y-103150057D02*
X189957142Y-103245295D01*
X189957142Y-103245295D02*
X189957142Y-103388152D01*
X189957142Y-103388152D02*
X189909523Y-103483390D01*
X189909523Y-103483390D02*
X189861904Y-103531009D01*
X189861904Y-103531009D02*
X189766666Y-103578628D01*
X189766666Y-103578628D02*
X189385714Y-103578628D01*
X190338095Y-103150057D02*
X190385714Y-103102438D01*
X190385714Y-103102438D02*
X190480952Y-103054819D01*
X190480952Y-103054819D02*
X190719047Y-103054819D01*
X190719047Y-103054819D02*
X190814285Y-103102438D01*
X190814285Y-103102438D02*
X190861904Y-103150057D01*
X190861904Y-103150057D02*
X190909523Y-103245295D01*
X190909523Y-103245295D02*
X190909523Y-103340533D01*
X190909523Y-103340533D02*
X190861904Y-103483390D01*
X190861904Y-103483390D02*
X190290476Y-104054819D01*
X190290476Y-104054819D02*
X190909523Y-104054819D01*
X191480952Y-103483390D02*
X191385714Y-103435771D01*
X191385714Y-103435771D02*
X191338095Y-103388152D01*
X191338095Y-103388152D02*
X191290476Y-103292914D01*
X191290476Y-103292914D02*
X191290476Y-103245295D01*
X191290476Y-103245295D02*
X191338095Y-103150057D01*
X191338095Y-103150057D02*
X191385714Y-103102438D01*
X191385714Y-103102438D02*
X191480952Y-103054819D01*
X191480952Y-103054819D02*
X191671428Y-103054819D01*
X191671428Y-103054819D02*
X191766666Y-103102438D01*
X191766666Y-103102438D02*
X191814285Y-103150057D01*
X191814285Y-103150057D02*
X191861904Y-103245295D01*
X191861904Y-103245295D02*
X191861904Y-103292914D01*
X191861904Y-103292914D02*
X191814285Y-103388152D01*
X191814285Y-103388152D02*
X191766666Y-103435771D01*
X191766666Y-103435771D02*
X191671428Y-103483390D01*
X191671428Y-103483390D02*
X191480952Y-103483390D01*
X191480952Y-103483390D02*
X191385714Y-103531009D01*
X191385714Y-103531009D02*
X191338095Y-103578628D01*
X191338095Y-103578628D02*
X191290476Y-103673866D01*
X191290476Y-103673866D02*
X191290476Y-103864342D01*
X191290476Y-103864342D02*
X191338095Y-103959580D01*
X191338095Y-103959580D02*
X191385714Y-104007200D01*
X191385714Y-104007200D02*
X191480952Y-104054819D01*
X191480952Y-104054819D02*
X191671428Y-104054819D01*
X191671428Y-104054819D02*
X191766666Y-104007200D01*
X191766666Y-104007200D02*
X191814285Y-103959580D01*
X191814285Y-103959580D02*
X191861904Y-103864342D01*
X191861904Y-103864342D02*
X191861904Y-103673866D01*
X191861904Y-103673866D02*
X191814285Y-103578628D01*
X191814285Y-103578628D02*
X191766666Y-103531009D01*
X191766666Y-103531009D02*
X191671428Y-103483390D01*
X150766666Y-80854819D02*
X150766666Y-81569104D01*
X150766666Y-81569104D02*
X150719047Y-81711961D01*
X150719047Y-81711961D02*
X150623809Y-81807200D01*
X150623809Y-81807200D02*
X150480952Y-81854819D01*
X150480952Y-81854819D02*
X150385714Y-81854819D01*
X151147619Y-80854819D02*
X151766666Y-80854819D01*
X151766666Y-80854819D02*
X151433333Y-81235771D01*
X151433333Y-81235771D02*
X151576190Y-81235771D01*
X151576190Y-81235771D02*
X151671428Y-81283390D01*
X151671428Y-81283390D02*
X151719047Y-81331009D01*
X151719047Y-81331009D02*
X151766666Y-81426247D01*
X151766666Y-81426247D02*
X151766666Y-81664342D01*
X151766666Y-81664342D02*
X151719047Y-81759580D01*
X151719047Y-81759580D02*
X151671428Y-81807200D01*
X151671428Y-81807200D02*
X151576190Y-81854819D01*
X151576190Y-81854819D02*
X151290476Y-81854819D01*
X151290476Y-81854819D02*
X151195238Y-81807200D01*
X151195238Y-81807200D02*
X151147619Y-81759580D01*
X177707295Y-110909523D02*
X178354914Y-110909523D01*
X178354914Y-110909523D02*
X178431104Y-110871428D01*
X178431104Y-110871428D02*
X178469200Y-110833333D01*
X178469200Y-110833333D02*
X178507295Y-110757142D01*
X178507295Y-110757142D02*
X178507295Y-110604761D01*
X178507295Y-110604761D02*
X178469200Y-110528571D01*
X178469200Y-110528571D02*
X178431104Y-110490476D01*
X178431104Y-110490476D02*
X178354914Y-110452380D01*
X178354914Y-110452380D02*
X177707295Y-110452380D01*
X177783485Y-110109524D02*
X177745390Y-110071428D01*
X177745390Y-110071428D02*
X177707295Y-109995238D01*
X177707295Y-109995238D02*
X177707295Y-109804762D01*
X177707295Y-109804762D02*
X177745390Y-109728571D01*
X177745390Y-109728571D02*
X177783485Y-109690476D01*
X177783485Y-109690476D02*
X177859676Y-109652381D01*
X177859676Y-109652381D02*
X177935866Y-109652381D01*
X177935866Y-109652381D02*
X178050152Y-109690476D01*
X178050152Y-109690476D02*
X178507295Y-110147619D01*
X178507295Y-110147619D02*
X178507295Y-109652381D01*
X140357142Y-80854819D02*
X140023809Y-80378628D01*
X139785714Y-80854819D02*
X139785714Y-79854819D01*
X139785714Y-79854819D02*
X140166666Y-79854819D01*
X140166666Y-79854819D02*
X140261904Y-79902438D01*
X140261904Y-79902438D02*
X140309523Y-79950057D01*
X140309523Y-79950057D02*
X140357142Y-80045295D01*
X140357142Y-80045295D02*
X140357142Y-80188152D01*
X140357142Y-80188152D02*
X140309523Y-80283390D01*
X140309523Y-80283390D02*
X140261904Y-80331009D01*
X140261904Y-80331009D02*
X140166666Y-80378628D01*
X140166666Y-80378628D02*
X139785714Y-80378628D01*
X140690476Y-79854819D02*
X141309523Y-79854819D01*
X141309523Y-79854819D02*
X140976190Y-80235771D01*
X140976190Y-80235771D02*
X141119047Y-80235771D01*
X141119047Y-80235771D02*
X141214285Y-80283390D01*
X141214285Y-80283390D02*
X141261904Y-80331009D01*
X141261904Y-80331009D02*
X141309523Y-80426247D01*
X141309523Y-80426247D02*
X141309523Y-80664342D01*
X141309523Y-80664342D02*
X141261904Y-80759580D01*
X141261904Y-80759580D02*
X141214285Y-80807200D01*
X141214285Y-80807200D02*
X141119047Y-80854819D01*
X141119047Y-80854819D02*
X140833333Y-80854819D01*
X140833333Y-80854819D02*
X140738095Y-80807200D01*
X140738095Y-80807200D02*
X140690476Y-80759580D01*
X141642857Y-79854819D02*
X142261904Y-79854819D01*
X142261904Y-79854819D02*
X141928571Y-80235771D01*
X141928571Y-80235771D02*
X142071428Y-80235771D01*
X142071428Y-80235771D02*
X142166666Y-80283390D01*
X142166666Y-80283390D02*
X142214285Y-80331009D01*
X142214285Y-80331009D02*
X142261904Y-80426247D01*
X142261904Y-80426247D02*
X142261904Y-80664342D01*
X142261904Y-80664342D02*
X142214285Y-80759580D01*
X142214285Y-80759580D02*
X142166666Y-80807200D01*
X142166666Y-80807200D02*
X142071428Y-80854819D01*
X142071428Y-80854819D02*
X141785714Y-80854819D01*
X141785714Y-80854819D02*
X141690476Y-80807200D01*
X141690476Y-80807200D02*
X141642857Y-80759580D01*
X195809524Y-139112295D02*
X195809524Y-138312295D01*
X196266667Y-139112295D02*
X195923809Y-138655152D01*
X196266667Y-138312295D02*
X195809524Y-138769438D01*
X196952381Y-138312295D02*
X196800000Y-138312295D01*
X196800000Y-138312295D02*
X196723809Y-138350390D01*
X196723809Y-138350390D02*
X196685714Y-138388485D01*
X196685714Y-138388485D02*
X196609524Y-138502771D01*
X196609524Y-138502771D02*
X196571428Y-138655152D01*
X196571428Y-138655152D02*
X196571428Y-138959914D01*
X196571428Y-138959914D02*
X196609524Y-139036104D01*
X196609524Y-139036104D02*
X196647619Y-139074200D01*
X196647619Y-139074200D02*
X196723809Y-139112295D01*
X196723809Y-139112295D02*
X196876190Y-139112295D01*
X196876190Y-139112295D02*
X196952381Y-139074200D01*
X196952381Y-139074200D02*
X196990476Y-139036104D01*
X196990476Y-139036104D02*
X197028571Y-138959914D01*
X197028571Y-138959914D02*
X197028571Y-138769438D01*
X197028571Y-138769438D02*
X196990476Y-138693247D01*
X196990476Y-138693247D02*
X196952381Y-138655152D01*
X196952381Y-138655152D02*
X196876190Y-138617057D01*
X196876190Y-138617057D02*
X196723809Y-138617057D01*
X196723809Y-138617057D02*
X196647619Y-138655152D01*
X196647619Y-138655152D02*
X196609524Y-138693247D01*
X196609524Y-138693247D02*
X196571428Y-138769438D01*
X92643247Y-122166666D02*
X92643247Y-122433332D01*
X93062295Y-122433332D02*
X92262295Y-122433332D01*
X92262295Y-122433332D02*
X92262295Y-122052380D01*
X92338485Y-121785714D02*
X92300390Y-121747618D01*
X92300390Y-121747618D02*
X92262295Y-121671428D01*
X92262295Y-121671428D02*
X92262295Y-121480952D01*
X92262295Y-121480952D02*
X92300390Y-121404761D01*
X92300390Y-121404761D02*
X92338485Y-121366666D01*
X92338485Y-121366666D02*
X92414676Y-121328571D01*
X92414676Y-121328571D02*
X92490866Y-121328571D01*
X92490866Y-121328571D02*
X92605152Y-121366666D01*
X92605152Y-121366666D02*
X93062295Y-121823809D01*
X93062295Y-121823809D02*
X93062295Y-121328571D01*
X166457142Y-92854819D02*
X166123809Y-92378628D01*
X165885714Y-92854819D02*
X165885714Y-91854819D01*
X165885714Y-91854819D02*
X166266666Y-91854819D01*
X166266666Y-91854819D02*
X166361904Y-91902438D01*
X166361904Y-91902438D02*
X166409523Y-91950057D01*
X166409523Y-91950057D02*
X166457142Y-92045295D01*
X166457142Y-92045295D02*
X166457142Y-92188152D01*
X166457142Y-92188152D02*
X166409523Y-92283390D01*
X166409523Y-92283390D02*
X166361904Y-92331009D01*
X166361904Y-92331009D02*
X166266666Y-92378628D01*
X166266666Y-92378628D02*
X165885714Y-92378628D01*
X166790476Y-91854819D02*
X167409523Y-91854819D01*
X167409523Y-91854819D02*
X167076190Y-92235771D01*
X167076190Y-92235771D02*
X167219047Y-92235771D01*
X167219047Y-92235771D02*
X167314285Y-92283390D01*
X167314285Y-92283390D02*
X167361904Y-92331009D01*
X167361904Y-92331009D02*
X167409523Y-92426247D01*
X167409523Y-92426247D02*
X167409523Y-92664342D01*
X167409523Y-92664342D02*
X167361904Y-92759580D01*
X167361904Y-92759580D02*
X167314285Y-92807200D01*
X167314285Y-92807200D02*
X167219047Y-92854819D01*
X167219047Y-92854819D02*
X166933333Y-92854819D01*
X166933333Y-92854819D02*
X166838095Y-92807200D01*
X166838095Y-92807200D02*
X166790476Y-92759580D01*
X167742857Y-91854819D02*
X168409523Y-91854819D01*
X168409523Y-91854819D02*
X167980952Y-92854819D01*
X111661905Y-101954819D02*
X111661905Y-100954819D01*
X112233333Y-101954819D02*
X111804762Y-101383390D01*
X112233333Y-100954819D02*
X111661905Y-101526247D01*
X112566667Y-100954819D02*
X113233333Y-100954819D01*
X113233333Y-100954819D02*
X112804762Y-101954819D01*
X209162295Y-136414285D02*
X208781342Y-136680952D01*
X209162295Y-136871428D02*
X208362295Y-136871428D01*
X208362295Y-136871428D02*
X208362295Y-136566666D01*
X208362295Y-136566666D02*
X208400390Y-136490476D01*
X208400390Y-136490476D02*
X208438485Y-136452381D01*
X208438485Y-136452381D02*
X208514676Y-136414285D01*
X208514676Y-136414285D02*
X208628961Y-136414285D01*
X208628961Y-136414285D02*
X208705152Y-136452381D01*
X208705152Y-136452381D02*
X208743247Y-136490476D01*
X208743247Y-136490476D02*
X208781342Y-136566666D01*
X208781342Y-136566666D02*
X208781342Y-136871428D01*
X208438485Y-136109524D02*
X208400390Y-136071428D01*
X208400390Y-136071428D02*
X208362295Y-135995238D01*
X208362295Y-135995238D02*
X208362295Y-135804762D01*
X208362295Y-135804762D02*
X208400390Y-135728571D01*
X208400390Y-135728571D02*
X208438485Y-135690476D01*
X208438485Y-135690476D02*
X208514676Y-135652381D01*
X208514676Y-135652381D02*
X208590866Y-135652381D01*
X208590866Y-135652381D02*
X208705152Y-135690476D01*
X208705152Y-135690476D02*
X209162295Y-136147619D01*
X209162295Y-136147619D02*
X209162295Y-135652381D01*
X208362295Y-135157142D02*
X208362295Y-135080952D01*
X208362295Y-135080952D02*
X208400390Y-135004761D01*
X208400390Y-135004761D02*
X208438485Y-134966666D01*
X208438485Y-134966666D02*
X208514676Y-134928571D01*
X208514676Y-134928571D02*
X208667057Y-134890476D01*
X208667057Y-134890476D02*
X208857533Y-134890476D01*
X208857533Y-134890476D02*
X209009914Y-134928571D01*
X209009914Y-134928571D02*
X209086104Y-134966666D01*
X209086104Y-134966666D02*
X209124200Y-135004761D01*
X209124200Y-135004761D02*
X209162295Y-135080952D01*
X209162295Y-135080952D02*
X209162295Y-135157142D01*
X209162295Y-135157142D02*
X209124200Y-135233333D01*
X209124200Y-135233333D02*
X209086104Y-135271428D01*
X209086104Y-135271428D02*
X209009914Y-135309523D01*
X209009914Y-135309523D02*
X208857533Y-135347619D01*
X208857533Y-135347619D02*
X208667057Y-135347619D01*
X208667057Y-135347619D02*
X208514676Y-135309523D01*
X208514676Y-135309523D02*
X208438485Y-135271428D01*
X208438485Y-135271428D02*
X208400390Y-135233333D01*
X208400390Y-135233333D02*
X208362295Y-135157142D01*
X205290476Y-80512295D02*
X205290476Y-81159914D01*
X205290476Y-81159914D02*
X205328571Y-81236104D01*
X205328571Y-81236104D02*
X205366666Y-81274200D01*
X205366666Y-81274200D02*
X205442857Y-81312295D01*
X205442857Y-81312295D02*
X205595238Y-81312295D01*
X205595238Y-81312295D02*
X205671428Y-81274200D01*
X205671428Y-81274200D02*
X205709523Y-81236104D01*
X205709523Y-81236104D02*
X205747619Y-81159914D01*
X205747619Y-81159914D02*
X205747619Y-80512295D01*
X206547618Y-81312295D02*
X206090475Y-81312295D01*
X206319047Y-81312295D02*
X206319047Y-80512295D01*
X206319047Y-80512295D02*
X206242856Y-80626580D01*
X206242856Y-80626580D02*
X206166666Y-80702771D01*
X206166666Y-80702771D02*
X206090475Y-80740866D01*
X211874819Y-96142857D02*
X211398628Y-96476190D01*
X211874819Y-96714285D02*
X210874819Y-96714285D01*
X210874819Y-96714285D02*
X210874819Y-96333333D01*
X210874819Y-96333333D02*
X210922438Y-96238095D01*
X210922438Y-96238095D02*
X210970057Y-96190476D01*
X210970057Y-96190476D02*
X211065295Y-96142857D01*
X211065295Y-96142857D02*
X211208152Y-96142857D01*
X211208152Y-96142857D02*
X211303390Y-96190476D01*
X211303390Y-96190476D02*
X211351009Y-96238095D01*
X211351009Y-96238095D02*
X211398628Y-96333333D01*
X211398628Y-96333333D02*
X211398628Y-96714285D01*
X210970057Y-95761904D02*
X210922438Y-95714285D01*
X210922438Y-95714285D02*
X210874819Y-95619047D01*
X210874819Y-95619047D02*
X210874819Y-95380952D01*
X210874819Y-95380952D02*
X210922438Y-95285714D01*
X210922438Y-95285714D02*
X210970057Y-95238095D01*
X210970057Y-95238095D02*
X211065295Y-95190476D01*
X211065295Y-95190476D02*
X211160533Y-95190476D01*
X211160533Y-95190476D02*
X211303390Y-95238095D01*
X211303390Y-95238095D02*
X211874819Y-95809523D01*
X211874819Y-95809523D02*
X211874819Y-95190476D01*
X211874819Y-94714285D02*
X211874819Y-94523809D01*
X211874819Y-94523809D02*
X211827200Y-94428571D01*
X211827200Y-94428571D02*
X211779580Y-94380952D01*
X211779580Y-94380952D02*
X211636723Y-94285714D01*
X211636723Y-94285714D02*
X211446247Y-94238095D01*
X211446247Y-94238095D02*
X211065295Y-94238095D01*
X211065295Y-94238095D02*
X210970057Y-94285714D01*
X210970057Y-94285714D02*
X210922438Y-94333333D01*
X210922438Y-94333333D02*
X210874819Y-94428571D01*
X210874819Y-94428571D02*
X210874819Y-94619047D01*
X210874819Y-94619047D02*
X210922438Y-94714285D01*
X210922438Y-94714285D02*
X210970057Y-94761904D01*
X210970057Y-94761904D02*
X211065295Y-94809523D01*
X211065295Y-94809523D02*
X211303390Y-94809523D01*
X211303390Y-94809523D02*
X211398628Y-94761904D01*
X211398628Y-94761904D02*
X211446247Y-94714285D01*
X211446247Y-94714285D02*
X211493866Y-94619047D01*
X211493866Y-94619047D02*
X211493866Y-94428571D01*
X211493866Y-94428571D02*
X211446247Y-94333333D01*
X211446247Y-94333333D02*
X211398628Y-94285714D01*
X211398628Y-94285714D02*
X211303390Y-94238095D01*
X208485714Y-114762295D02*
X208219047Y-114381342D01*
X208028571Y-114762295D02*
X208028571Y-113962295D01*
X208028571Y-113962295D02*
X208333333Y-113962295D01*
X208333333Y-113962295D02*
X208409523Y-114000390D01*
X208409523Y-114000390D02*
X208447618Y-114038485D01*
X208447618Y-114038485D02*
X208485714Y-114114676D01*
X208485714Y-114114676D02*
X208485714Y-114228961D01*
X208485714Y-114228961D02*
X208447618Y-114305152D01*
X208447618Y-114305152D02*
X208409523Y-114343247D01*
X208409523Y-114343247D02*
X208333333Y-114381342D01*
X208333333Y-114381342D02*
X208028571Y-114381342D01*
X208790475Y-114038485D02*
X208828571Y-114000390D01*
X208828571Y-114000390D02*
X208904761Y-113962295D01*
X208904761Y-113962295D02*
X209095237Y-113962295D01*
X209095237Y-113962295D02*
X209171428Y-114000390D01*
X209171428Y-114000390D02*
X209209523Y-114038485D01*
X209209523Y-114038485D02*
X209247618Y-114114676D01*
X209247618Y-114114676D02*
X209247618Y-114190866D01*
X209247618Y-114190866D02*
X209209523Y-114305152D01*
X209209523Y-114305152D02*
X208752380Y-114762295D01*
X208752380Y-114762295D02*
X209247618Y-114762295D01*
X209552380Y-114038485D02*
X209590476Y-114000390D01*
X209590476Y-114000390D02*
X209666666Y-113962295D01*
X209666666Y-113962295D02*
X209857142Y-113962295D01*
X209857142Y-113962295D02*
X209933333Y-114000390D01*
X209933333Y-114000390D02*
X209971428Y-114038485D01*
X209971428Y-114038485D02*
X210009523Y-114114676D01*
X210009523Y-114114676D02*
X210009523Y-114190866D01*
X210009523Y-114190866D02*
X209971428Y-114305152D01*
X209971428Y-114305152D02*
X209514285Y-114762295D01*
X209514285Y-114762295D02*
X210009523Y-114762295D01*
X143457142Y-80954819D02*
X143123809Y-80478628D01*
X142885714Y-80954819D02*
X142885714Y-79954819D01*
X142885714Y-79954819D02*
X143266666Y-79954819D01*
X143266666Y-79954819D02*
X143361904Y-80002438D01*
X143361904Y-80002438D02*
X143409523Y-80050057D01*
X143409523Y-80050057D02*
X143457142Y-80145295D01*
X143457142Y-80145295D02*
X143457142Y-80288152D01*
X143457142Y-80288152D02*
X143409523Y-80383390D01*
X143409523Y-80383390D02*
X143361904Y-80431009D01*
X143361904Y-80431009D02*
X143266666Y-80478628D01*
X143266666Y-80478628D02*
X142885714Y-80478628D01*
X143790476Y-79954819D02*
X144409523Y-79954819D01*
X144409523Y-79954819D02*
X144076190Y-80335771D01*
X144076190Y-80335771D02*
X144219047Y-80335771D01*
X144219047Y-80335771D02*
X144314285Y-80383390D01*
X144314285Y-80383390D02*
X144361904Y-80431009D01*
X144361904Y-80431009D02*
X144409523Y-80526247D01*
X144409523Y-80526247D02*
X144409523Y-80764342D01*
X144409523Y-80764342D02*
X144361904Y-80859580D01*
X144361904Y-80859580D02*
X144314285Y-80907200D01*
X144314285Y-80907200D02*
X144219047Y-80954819D01*
X144219047Y-80954819D02*
X143933333Y-80954819D01*
X143933333Y-80954819D02*
X143838095Y-80907200D01*
X143838095Y-80907200D02*
X143790476Y-80859580D01*
X145266666Y-79954819D02*
X145076190Y-79954819D01*
X145076190Y-79954819D02*
X144980952Y-80002438D01*
X144980952Y-80002438D02*
X144933333Y-80050057D01*
X144933333Y-80050057D02*
X144838095Y-80192914D01*
X144838095Y-80192914D02*
X144790476Y-80383390D01*
X144790476Y-80383390D02*
X144790476Y-80764342D01*
X144790476Y-80764342D02*
X144838095Y-80859580D01*
X144838095Y-80859580D02*
X144885714Y-80907200D01*
X144885714Y-80907200D02*
X144980952Y-80954819D01*
X144980952Y-80954819D02*
X145171428Y-80954819D01*
X145171428Y-80954819D02*
X145266666Y-80907200D01*
X145266666Y-80907200D02*
X145314285Y-80859580D01*
X145314285Y-80859580D02*
X145361904Y-80764342D01*
X145361904Y-80764342D02*
X145361904Y-80526247D01*
X145361904Y-80526247D02*
X145314285Y-80431009D01*
X145314285Y-80431009D02*
X145266666Y-80383390D01*
X145266666Y-80383390D02*
X145171428Y-80335771D01*
X145171428Y-80335771D02*
X144980952Y-80335771D01*
X144980952Y-80335771D02*
X144885714Y-80383390D01*
X144885714Y-80383390D02*
X144838095Y-80431009D01*
X144838095Y-80431009D02*
X144790476Y-80526247D01*
X171257142Y-116359580D02*
X171209523Y-116407200D01*
X171209523Y-116407200D02*
X171066666Y-116454819D01*
X171066666Y-116454819D02*
X170971428Y-116454819D01*
X170971428Y-116454819D02*
X170828571Y-116407200D01*
X170828571Y-116407200D02*
X170733333Y-116311961D01*
X170733333Y-116311961D02*
X170685714Y-116216723D01*
X170685714Y-116216723D02*
X170638095Y-116026247D01*
X170638095Y-116026247D02*
X170638095Y-115883390D01*
X170638095Y-115883390D02*
X170685714Y-115692914D01*
X170685714Y-115692914D02*
X170733333Y-115597676D01*
X170733333Y-115597676D02*
X170828571Y-115502438D01*
X170828571Y-115502438D02*
X170971428Y-115454819D01*
X170971428Y-115454819D02*
X171066666Y-115454819D01*
X171066666Y-115454819D02*
X171209523Y-115502438D01*
X171209523Y-115502438D02*
X171257142Y-115550057D01*
X172209523Y-116454819D02*
X171638095Y-116454819D01*
X171923809Y-116454819D02*
X171923809Y-115454819D01*
X171923809Y-115454819D02*
X171828571Y-115597676D01*
X171828571Y-115597676D02*
X171733333Y-115692914D01*
X171733333Y-115692914D02*
X171638095Y-115740533D01*
X172828571Y-115454819D02*
X172923809Y-115454819D01*
X172923809Y-115454819D02*
X173019047Y-115502438D01*
X173019047Y-115502438D02*
X173066666Y-115550057D01*
X173066666Y-115550057D02*
X173114285Y-115645295D01*
X173114285Y-115645295D02*
X173161904Y-115835771D01*
X173161904Y-115835771D02*
X173161904Y-116073866D01*
X173161904Y-116073866D02*
X173114285Y-116264342D01*
X173114285Y-116264342D02*
X173066666Y-116359580D01*
X173066666Y-116359580D02*
X173019047Y-116407200D01*
X173019047Y-116407200D02*
X172923809Y-116454819D01*
X172923809Y-116454819D02*
X172828571Y-116454819D01*
X172828571Y-116454819D02*
X172733333Y-116407200D01*
X172733333Y-116407200D02*
X172685714Y-116359580D01*
X172685714Y-116359580D02*
X172638095Y-116264342D01*
X172638095Y-116264342D02*
X172590476Y-116073866D01*
X172590476Y-116073866D02*
X172590476Y-115835771D01*
X172590476Y-115835771D02*
X172638095Y-115645295D01*
X172638095Y-115645295D02*
X172685714Y-115550057D01*
X172685714Y-115550057D02*
X172733333Y-115502438D01*
X172733333Y-115502438D02*
X172828571Y-115454819D01*
X145357142Y-101354819D02*
X145023809Y-100878628D01*
X144785714Y-101354819D02*
X144785714Y-100354819D01*
X144785714Y-100354819D02*
X145166666Y-100354819D01*
X145166666Y-100354819D02*
X145261904Y-100402438D01*
X145261904Y-100402438D02*
X145309523Y-100450057D01*
X145309523Y-100450057D02*
X145357142Y-100545295D01*
X145357142Y-100545295D02*
X145357142Y-100688152D01*
X145357142Y-100688152D02*
X145309523Y-100783390D01*
X145309523Y-100783390D02*
X145261904Y-100831009D01*
X145261904Y-100831009D02*
X145166666Y-100878628D01*
X145166666Y-100878628D02*
X144785714Y-100878628D01*
X145690476Y-100354819D02*
X146309523Y-100354819D01*
X146309523Y-100354819D02*
X145976190Y-100735771D01*
X145976190Y-100735771D02*
X146119047Y-100735771D01*
X146119047Y-100735771D02*
X146214285Y-100783390D01*
X146214285Y-100783390D02*
X146261904Y-100831009D01*
X146261904Y-100831009D02*
X146309523Y-100926247D01*
X146309523Y-100926247D02*
X146309523Y-101164342D01*
X146309523Y-101164342D02*
X146261904Y-101259580D01*
X146261904Y-101259580D02*
X146214285Y-101307200D01*
X146214285Y-101307200D02*
X146119047Y-101354819D01*
X146119047Y-101354819D02*
X145833333Y-101354819D01*
X145833333Y-101354819D02*
X145738095Y-101307200D01*
X145738095Y-101307200D02*
X145690476Y-101259580D01*
X147261904Y-101354819D02*
X146690476Y-101354819D01*
X146976190Y-101354819D02*
X146976190Y-100354819D01*
X146976190Y-100354819D02*
X146880952Y-100497676D01*
X146880952Y-100497676D02*
X146785714Y-100592914D01*
X146785714Y-100592914D02*
X146690476Y-100640533D01*
X205685714Y-114762295D02*
X205419047Y-114381342D01*
X205228571Y-114762295D02*
X205228571Y-113962295D01*
X205228571Y-113962295D02*
X205533333Y-113962295D01*
X205533333Y-113962295D02*
X205609523Y-114000390D01*
X205609523Y-114000390D02*
X205647618Y-114038485D01*
X205647618Y-114038485D02*
X205685714Y-114114676D01*
X205685714Y-114114676D02*
X205685714Y-114228961D01*
X205685714Y-114228961D02*
X205647618Y-114305152D01*
X205647618Y-114305152D02*
X205609523Y-114343247D01*
X205609523Y-114343247D02*
X205533333Y-114381342D01*
X205533333Y-114381342D02*
X205228571Y-114381342D01*
X206447618Y-114762295D02*
X205990475Y-114762295D01*
X206219047Y-114762295D02*
X206219047Y-113962295D01*
X206219047Y-113962295D02*
X206142856Y-114076580D01*
X206142856Y-114076580D02*
X206066666Y-114152771D01*
X206066666Y-114152771D02*
X205990475Y-114190866D01*
X207133333Y-113962295D02*
X206980952Y-113962295D01*
X206980952Y-113962295D02*
X206904761Y-114000390D01*
X206904761Y-114000390D02*
X206866666Y-114038485D01*
X206866666Y-114038485D02*
X206790476Y-114152771D01*
X206790476Y-114152771D02*
X206752380Y-114305152D01*
X206752380Y-114305152D02*
X206752380Y-114609914D01*
X206752380Y-114609914D02*
X206790476Y-114686104D01*
X206790476Y-114686104D02*
X206828571Y-114724200D01*
X206828571Y-114724200D02*
X206904761Y-114762295D01*
X206904761Y-114762295D02*
X207057142Y-114762295D01*
X207057142Y-114762295D02*
X207133333Y-114724200D01*
X207133333Y-114724200D02*
X207171428Y-114686104D01*
X207171428Y-114686104D02*
X207209523Y-114609914D01*
X207209523Y-114609914D02*
X207209523Y-114419438D01*
X207209523Y-114419438D02*
X207171428Y-114343247D01*
X207171428Y-114343247D02*
X207133333Y-114305152D01*
X207133333Y-114305152D02*
X207057142Y-114267057D01*
X207057142Y-114267057D02*
X206904761Y-114267057D01*
X206904761Y-114267057D02*
X206828571Y-114305152D01*
X206828571Y-114305152D02*
X206790476Y-114343247D01*
X206790476Y-114343247D02*
X206752380Y-114419438D01*
X101041667Y-119154795D02*
X100775000Y-118773842D01*
X100584524Y-119154795D02*
X100584524Y-118354795D01*
X100584524Y-118354795D02*
X100889286Y-118354795D01*
X100889286Y-118354795D02*
X100965476Y-118392890D01*
X100965476Y-118392890D02*
X101003571Y-118430985D01*
X101003571Y-118430985D02*
X101041667Y-118507176D01*
X101041667Y-118507176D02*
X101041667Y-118621461D01*
X101041667Y-118621461D02*
X101003571Y-118697652D01*
X101003571Y-118697652D02*
X100965476Y-118735747D01*
X100965476Y-118735747D02*
X100889286Y-118773842D01*
X100889286Y-118773842D02*
X100584524Y-118773842D01*
X101727381Y-118621461D02*
X101727381Y-119154795D01*
X101536905Y-118316700D02*
X101346428Y-118888128D01*
X101346428Y-118888128D02*
X101841667Y-118888128D01*
X99362295Y-137170832D02*
X98981342Y-137437499D01*
X99362295Y-137627975D02*
X98562295Y-137627975D01*
X98562295Y-137627975D02*
X98562295Y-137323213D01*
X98562295Y-137323213D02*
X98600390Y-137247023D01*
X98600390Y-137247023D02*
X98638485Y-137208928D01*
X98638485Y-137208928D02*
X98714676Y-137170832D01*
X98714676Y-137170832D02*
X98828961Y-137170832D01*
X98828961Y-137170832D02*
X98905152Y-137208928D01*
X98905152Y-137208928D02*
X98943247Y-137247023D01*
X98943247Y-137247023D02*
X98981342Y-137323213D01*
X98981342Y-137323213D02*
X98981342Y-137627975D01*
X98562295Y-136485118D02*
X98562295Y-136637499D01*
X98562295Y-136637499D02*
X98600390Y-136713690D01*
X98600390Y-136713690D02*
X98638485Y-136751785D01*
X98638485Y-136751785D02*
X98752771Y-136827975D01*
X98752771Y-136827975D02*
X98905152Y-136866071D01*
X98905152Y-136866071D02*
X99209914Y-136866071D01*
X99209914Y-136866071D02*
X99286104Y-136827975D01*
X99286104Y-136827975D02*
X99324200Y-136789880D01*
X99324200Y-136789880D02*
X99362295Y-136713690D01*
X99362295Y-136713690D02*
X99362295Y-136561309D01*
X99362295Y-136561309D02*
X99324200Y-136485118D01*
X99324200Y-136485118D02*
X99286104Y-136447023D01*
X99286104Y-136447023D02*
X99209914Y-136408928D01*
X99209914Y-136408928D02*
X99019438Y-136408928D01*
X99019438Y-136408928D02*
X98943247Y-136447023D01*
X98943247Y-136447023D02*
X98905152Y-136485118D01*
X98905152Y-136485118D02*
X98867057Y-136561309D01*
X98867057Y-136561309D02*
X98867057Y-136713690D01*
X98867057Y-136713690D02*
X98905152Y-136789880D01*
X98905152Y-136789880D02*
X98943247Y-136827975D01*
X98943247Y-136827975D02*
X99019438Y-136866071D01*
D11*
%TO.C,J2*%
X179890000Y-83090000D02*
X177390000Y-83090000D01*
X177390000Y-83090000D02*
X177390000Y-85590000D01*
X181710000Y-83390000D02*
X177690000Y-83390000D01*
X180000000Y-83390000D02*
X180000000Y-83890000D01*
X179190000Y-83390000D02*
X179190000Y-84390000D01*
X177690000Y-83390000D02*
X177690000Y-101110000D01*
X181210000Y-83890000D02*
X181210000Y-100610000D01*
X180000000Y-83890000D02*
X181210000Y-83890000D01*
X179190000Y-84390000D02*
X177690000Y-84390000D01*
X179190000Y-100110000D02*
X177690000Y-100110000D01*
X181210000Y-100610000D02*
X180000000Y-100610000D01*
X180000000Y-100610000D02*
X180000000Y-101110000D01*
X181710000Y-101110000D02*
X181710000Y-83390000D01*
X179190000Y-101110000D02*
X179190000Y-100110000D01*
X177690000Y-101110000D02*
X181710000Y-101110000D01*
%TO.C,R40*%
X172937742Y-90277500D02*
X173412258Y-90277500D01*
X172937742Y-91322500D02*
X173412258Y-91322500D01*
%TO.C,U4*%
X139740000Y-106440000D02*
X139985000Y-106440000D01*
X139740000Y-110300000D02*
X139740000Y-106440000D01*
X139740000Y-110300000D02*
X139740000Y-114160000D01*
X139740000Y-114160000D02*
X139985000Y-114160000D01*
X157860000Y-106440000D02*
X157615000Y-106440000D01*
X157860000Y-110300000D02*
X157860000Y-106440000D01*
X157860000Y-110300000D02*
X157860000Y-114160000D01*
X157860000Y-114160000D02*
X157615000Y-114160000D01*
X139985000Y-115012500D02*
X139515000Y-115352500D01*
X139515000Y-114672500D01*
X139985000Y-115012500D01*
G36*
X139985000Y-115012500D02*
G01*
X139515000Y-115352500D01*
X139515000Y-114672500D01*
X139985000Y-115012500D01*
G37*
%TO.C,R34*%
X137265000Y-82560436D02*
X137265000Y-83014564D01*
X138735000Y-82560436D02*
X138735000Y-83014564D01*
%TO.C,K3*%
X155600000Y-118100000D02*
X171200000Y-118100000D01*
X155600000Y-137900000D02*
X155600000Y-118100000D01*
X155600000Y-137900000D02*
X162200000Y-137900000D01*
X157450000Y-130450000D02*
X157450000Y-132950000D01*
X157450000Y-130450000D02*
X161650000Y-130450000D01*
X159200000Y-122350000D02*
X161700000Y-122350000D01*
X161650000Y-128450000D02*
X165250000Y-128450000D01*
X161650000Y-132450000D02*
X161650000Y-128450000D01*
X163450000Y-125550000D02*
X160950000Y-120950000D01*
X163450000Y-127050000D02*
X163450000Y-125550000D01*
X163450000Y-127050000D02*
X167050000Y-127050000D01*
X163450000Y-133850000D02*
X163450000Y-134650000D01*
X163450000Y-133850000D02*
X167050000Y-133850000D01*
X164600000Y-137900000D02*
X171200000Y-137900000D01*
X165250000Y-128450000D02*
X161650000Y-132450000D01*
X165250000Y-128450000D02*
X165250000Y-132450000D01*
X165250000Y-130450000D02*
X169450000Y-130450000D01*
X165250000Y-132450000D02*
X161650000Y-132450000D01*
X167050000Y-127050000D02*
X167050000Y-133850000D01*
X167600000Y-122350000D02*
X165150000Y-122350000D01*
X169450000Y-132950000D02*
X169450000Y-130450000D01*
X171200000Y-118100000D02*
X171200000Y-137900000D01*
%TO.C,R5*%
X95915000Y-134227064D02*
X95915000Y-133772936D01*
X97385000Y-134227064D02*
X97385000Y-133772936D01*
%TO.C,R8*%
X103015000Y-134314564D02*
X103015000Y-133860436D01*
X104485000Y-134314564D02*
X104485000Y-133860436D01*
%TO.C,R19*%
X205565000Y-132727064D02*
X205565000Y-132272936D01*
X207035000Y-132727064D02*
X207035000Y-132272936D01*
%TO.C,U16*%
X137200000Y-87465000D02*
X137200000Y-93935000D01*
X137200000Y-93935000D02*
X142400000Y-93935000D01*
X142400000Y-87465000D02*
X137200000Y-87465000D01*
X142400000Y-89700000D02*
X142400000Y-87465000D01*
X142400000Y-93935000D02*
X142400000Y-91700000D01*
X142400000Y-91700000D02*
G75*
G02*
X142400000Y-89700000I0J1000000D01*
G01*
%TO.C,C4*%
X168687651Y-96385000D02*
X169487651Y-96385000D01*
X169087651Y-95985000D02*
X169087651Y-96785000D01*
X173097349Y-94620000D02*
X173097349Y-102780000D01*
X173137349Y-94620000D02*
X173137349Y-102780000D01*
X173177349Y-94621000D02*
X173177349Y-102779000D01*
X173217349Y-94622000D02*
X173217349Y-102778000D01*
X173257349Y-94623000D02*
X173257349Y-102777000D01*
X173297349Y-94625000D02*
X173297349Y-102775000D01*
X173337349Y-94627000D02*
X173337349Y-102773000D01*
X173377349Y-94630000D02*
X173377349Y-102770000D01*
X173417349Y-94632000D02*
X173417349Y-102768000D01*
X173457349Y-94636000D02*
X173457349Y-102764000D01*
X173497349Y-94639000D02*
X173497349Y-102761000D01*
X173537349Y-94644000D02*
X173537349Y-102756000D01*
X173577349Y-94648000D02*
X173577349Y-102752000D01*
X173617349Y-94653000D02*
X173617349Y-102747000D01*
X173657349Y-94658000D02*
X173657349Y-102742000D01*
X173697349Y-94664000D02*
X173697349Y-102736000D01*
X173737349Y-94670000D02*
X173737349Y-102730000D01*
X173777349Y-94677000D02*
X173777349Y-102723000D01*
X173817349Y-94683000D02*
X173817349Y-97660000D01*
X173817349Y-99740000D02*
X173817349Y-102717000D01*
X173857349Y-94691000D02*
X173857349Y-97660000D01*
X173857349Y-99740000D02*
X173857349Y-102709000D01*
X173897349Y-94698000D02*
X173897349Y-97660000D01*
X173897349Y-99740000D02*
X173897349Y-102702000D01*
X173937349Y-94707000D02*
X173937349Y-97660000D01*
X173937349Y-99740000D02*
X173937349Y-102693000D01*
X173977349Y-94715000D02*
X173977349Y-97660000D01*
X173977349Y-99740000D02*
X173977349Y-102685000D01*
X174017349Y-94724000D02*
X174017349Y-97660000D01*
X174017349Y-99740000D02*
X174017349Y-102676000D01*
X174057349Y-94733000D02*
X174057349Y-97660000D01*
X174057349Y-99740000D02*
X174057349Y-102667000D01*
X174097349Y-94743000D02*
X174097349Y-97660000D01*
X174097349Y-99740000D02*
X174097349Y-102657000D01*
X174137349Y-94753000D02*
X174137349Y-97660000D01*
X174137349Y-99740000D02*
X174137349Y-102647000D01*
X174177349Y-94764000D02*
X174177349Y-97660000D01*
X174177349Y-99740000D02*
X174177349Y-102636000D01*
X174217349Y-94775000D02*
X174217349Y-97660000D01*
X174217349Y-99740000D02*
X174217349Y-102625000D01*
X174257349Y-94787000D02*
X174257349Y-97660000D01*
X174257349Y-99740000D02*
X174257349Y-102613000D01*
X174297349Y-94799000D02*
X174297349Y-97660000D01*
X174297349Y-99740000D02*
X174297349Y-102601000D01*
X174337349Y-94811000D02*
X174337349Y-97660000D01*
X174337349Y-99740000D02*
X174337349Y-102589000D01*
X174377349Y-94824000D02*
X174377349Y-97660000D01*
X174377349Y-99740000D02*
X174377349Y-102576000D01*
X174417349Y-94837000D02*
X174417349Y-97660000D01*
X174417349Y-99740000D02*
X174417349Y-102563000D01*
X174457349Y-94851000D02*
X174457349Y-97660000D01*
X174457349Y-99740000D02*
X174457349Y-102549000D01*
X174497349Y-94865000D02*
X174497349Y-97660000D01*
X174497349Y-99740000D02*
X174497349Y-102535000D01*
X174537349Y-94880000D02*
X174537349Y-97660000D01*
X174537349Y-99740000D02*
X174537349Y-102520000D01*
X174577349Y-94895000D02*
X174577349Y-97660000D01*
X174577349Y-99740000D02*
X174577349Y-102505000D01*
X174617349Y-94911000D02*
X174617349Y-97660000D01*
X174617349Y-99740000D02*
X174617349Y-102489000D01*
X174657349Y-94927000D02*
X174657349Y-97660000D01*
X174657349Y-99740000D02*
X174657349Y-102473000D01*
X174697349Y-94943000D02*
X174697349Y-97660000D01*
X174697349Y-99740000D02*
X174697349Y-102457000D01*
X174737349Y-94960000D02*
X174737349Y-97660000D01*
X174737349Y-99740000D02*
X174737349Y-102440000D01*
X174777349Y-94978000D02*
X174777349Y-97660000D01*
X174777349Y-99740000D02*
X174777349Y-102422000D01*
X174817349Y-94996000D02*
X174817349Y-97660000D01*
X174817349Y-99740000D02*
X174817349Y-102404000D01*
X174857349Y-95015000D02*
X174857349Y-97660000D01*
X174857349Y-99740000D02*
X174857349Y-102385000D01*
X174897349Y-95034000D02*
X174897349Y-97660000D01*
X174897349Y-99740000D02*
X174897349Y-102366000D01*
X174937349Y-95054000D02*
X174937349Y-97660000D01*
X174937349Y-99740000D02*
X174937349Y-102346000D01*
X174977349Y-95074000D02*
X174977349Y-97660000D01*
X174977349Y-99740000D02*
X174977349Y-102326000D01*
X175017349Y-95095000D02*
X175017349Y-97660000D01*
X175017349Y-99740000D02*
X175017349Y-102305000D01*
X175057349Y-95116000D02*
X175057349Y-97660000D01*
X175057349Y-99740000D02*
X175057349Y-102284000D01*
X175097349Y-95138000D02*
X175097349Y-97660000D01*
X175097349Y-99740000D02*
X175097349Y-102262000D01*
X175137349Y-95161000D02*
X175137349Y-97660000D01*
X175137349Y-99740000D02*
X175137349Y-102239000D01*
X175177349Y-95184000D02*
X175177349Y-97660000D01*
X175177349Y-99740000D02*
X175177349Y-102216000D01*
X175217349Y-95207000D02*
X175217349Y-97660000D01*
X175217349Y-99740000D02*
X175217349Y-102193000D01*
X175257349Y-95232000D02*
X175257349Y-97660000D01*
X175257349Y-99740000D02*
X175257349Y-102168000D01*
X175297349Y-95257000D02*
X175297349Y-97660000D01*
X175297349Y-99740000D02*
X175297349Y-102143000D01*
X175337349Y-95282000D02*
X175337349Y-97660000D01*
X175337349Y-99740000D02*
X175337349Y-102118000D01*
X175377349Y-95308000D02*
X175377349Y-97660000D01*
X175377349Y-99740000D02*
X175377349Y-102092000D01*
X175417349Y-95335000D02*
X175417349Y-97660000D01*
X175417349Y-99740000D02*
X175417349Y-102065000D01*
X175457349Y-95363000D02*
X175457349Y-97660000D01*
X175457349Y-99740000D02*
X175457349Y-102037000D01*
X175497349Y-95391000D02*
X175497349Y-97660000D01*
X175497349Y-99740000D02*
X175497349Y-102009000D01*
X175537349Y-95420000D02*
X175537349Y-97660000D01*
X175537349Y-99740000D02*
X175537349Y-101980000D01*
X175577349Y-95450000D02*
X175577349Y-97660000D01*
X175577349Y-99740000D02*
X175577349Y-101950000D01*
X175617349Y-95481000D02*
X175617349Y-97660000D01*
X175617349Y-99740000D02*
X175617349Y-101919000D01*
X175657349Y-95512000D02*
X175657349Y-97660000D01*
X175657349Y-99740000D02*
X175657349Y-101888000D01*
X175697349Y-95544000D02*
X175697349Y-97660000D01*
X175697349Y-99740000D02*
X175697349Y-101856000D01*
X175737349Y-95577000D02*
X175737349Y-97660000D01*
X175737349Y-99740000D02*
X175737349Y-101823000D01*
X175777349Y-95611000D02*
X175777349Y-97660000D01*
X175777349Y-99740000D02*
X175777349Y-101789000D01*
X175817349Y-95645000D02*
X175817349Y-97660000D01*
X175817349Y-99740000D02*
X175817349Y-101755000D01*
X175857349Y-95681000D02*
X175857349Y-97660000D01*
X175857349Y-99740000D02*
X175857349Y-101719000D01*
X175897349Y-95718000D02*
X175897349Y-101682000D01*
X175937349Y-95755000D02*
X175937349Y-101645000D01*
X175977349Y-95794000D02*
X175977349Y-101606000D01*
X176017349Y-95833000D02*
X176017349Y-101567000D01*
X176057349Y-95874000D02*
X176057349Y-101526000D01*
X176097349Y-95916000D02*
X176097349Y-101484000D01*
X176137349Y-95959000D02*
X176137349Y-101441000D01*
X176177349Y-96004000D02*
X176177349Y-101396000D01*
X176217349Y-96049000D02*
X176217349Y-101351000D01*
X176257349Y-96096000D02*
X176257349Y-101304000D01*
X176297349Y-96145000D02*
X176297349Y-101255000D01*
X176337349Y-96195000D02*
X176337349Y-101205000D01*
X176377349Y-96247000D02*
X176377349Y-101153000D01*
X176417349Y-96300000D02*
X176417349Y-101100000D01*
X176457349Y-96356000D02*
X176457349Y-101044000D01*
X176497349Y-96413000D02*
X176497349Y-100987000D01*
X176537349Y-96473000D02*
X176537349Y-100927000D01*
X176577349Y-96535000D02*
X176577349Y-100865000D01*
X176617349Y-96599000D02*
X176617349Y-100801000D01*
X176657349Y-96666000D02*
X176657349Y-100734000D01*
X176697349Y-96736000D02*
X176697349Y-100664000D01*
X176737349Y-96810000D02*
X176737349Y-100590000D01*
X176777349Y-96887000D02*
X176777349Y-100513000D01*
X176817349Y-96969000D02*
X176817349Y-100431000D01*
X176857349Y-97056000D02*
X176857349Y-100344000D01*
X176897349Y-97148000D02*
X176897349Y-100252000D01*
X176937349Y-97247000D02*
X176937349Y-100153000D01*
X176977349Y-97354000D02*
X176977349Y-100046000D01*
X177017349Y-97472000D02*
X177017349Y-99928000D01*
X177057349Y-97603000D02*
X177057349Y-99797000D01*
X177097349Y-97753000D02*
X177097349Y-99647000D01*
X177137349Y-97932000D02*
X177137349Y-99468000D01*
X177177349Y-98167000D02*
X177177349Y-99233000D01*
X177217349Y-98700000D02*
G75*
G02*
X168977349Y-98700000I-4120000J0D01*
G01*
X168977349Y-98700000D02*
G75*
G02*
X177217349Y-98700000I4120000J0D01*
G01*
%TO.C,R3*%
X95412258Y-116840000D02*
X94937742Y-116840000D01*
X95412258Y-117885000D02*
X94937742Y-117885000D01*
%TO.C,U5*%
X107555000Y-107940000D02*
X107800000Y-107940000D01*
X107555000Y-111800000D02*
X107555000Y-107940000D01*
X107555000Y-111800000D02*
X107555000Y-115660000D01*
X107555000Y-115660000D02*
X107800000Y-115660000D01*
X119325000Y-107940000D02*
X119080000Y-107940000D01*
X119325000Y-111800000D02*
X119325000Y-107940000D01*
X119325000Y-111800000D02*
X119325000Y-115660000D01*
X119325000Y-115660000D02*
X119080000Y-115660000D01*
X119550000Y-107427500D02*
X119080000Y-107087500D01*
X119550000Y-106747500D01*
X119550000Y-107427500D01*
G36*
X119550000Y-107427500D02*
G01*
X119080000Y-107087500D01*
X119550000Y-106747500D01*
X119550000Y-107427500D01*
G37*
%TO.C,R39*%
X170337258Y-93277500D02*
X169862742Y-93277500D01*
X170337258Y-94322500D02*
X169862742Y-94322500D01*
%TO.C,C1*%
X93020354Y-108425000D02*
X94020354Y-108425000D01*
X93520354Y-107925000D02*
X93520354Y-108925000D01*
X98500000Y-106220000D02*
X98500000Y-116380000D01*
X98540000Y-106220000D02*
X98540000Y-116380000D01*
X98580000Y-106221000D02*
X98580000Y-116379000D01*
X98620000Y-106221000D02*
X98620000Y-116379000D01*
X98660000Y-106223000D02*
X98660000Y-116377000D01*
X98700000Y-106224000D02*
X98700000Y-116376000D01*
X98740000Y-106226000D02*
X98740000Y-116374000D01*
X98780000Y-106228000D02*
X98780000Y-116372000D01*
X98820000Y-106230000D02*
X98820000Y-116370000D01*
X98860000Y-106233000D02*
X98860000Y-116367000D01*
X98900000Y-106236000D02*
X98900000Y-116364000D01*
X98940000Y-106239000D02*
X98940000Y-116361000D01*
X98980000Y-106243000D02*
X98980000Y-116357000D01*
X99020000Y-106246000D02*
X99020000Y-116354000D01*
X99060000Y-106251000D02*
X99060000Y-116349000D01*
X99100000Y-106255000D02*
X99100000Y-116345000D01*
X99140000Y-106260000D02*
X99140000Y-116340000D01*
X99180000Y-106265000D02*
X99180000Y-116335000D01*
X99220000Y-106271000D02*
X99220000Y-116329000D01*
X99260000Y-106277000D02*
X99260000Y-116323000D01*
X99300000Y-106283000D02*
X99300000Y-116317000D01*
X99340000Y-106289000D02*
X99340000Y-116311000D01*
X99380000Y-106296000D02*
X99380000Y-116304000D01*
X99420000Y-106303000D02*
X99420000Y-116297000D01*
X99460000Y-106311000D02*
X99460000Y-116289000D01*
X99500000Y-106319000D02*
X99500000Y-116281000D01*
X99540000Y-106327000D02*
X99540000Y-116273000D01*
X99580000Y-106335000D02*
X99580000Y-116265000D01*
X99620000Y-106344000D02*
X99620000Y-116256000D01*
X99660000Y-106353000D02*
X99660000Y-116247000D01*
X99700000Y-106363000D02*
X99700000Y-116237000D01*
X99740000Y-106372000D02*
X99740000Y-116228000D01*
X99780000Y-106383000D02*
X99780000Y-110060000D01*
X99780000Y-112540000D02*
X99780000Y-116217000D01*
X99820000Y-106393000D02*
X99820000Y-110060000D01*
X99820000Y-112540000D02*
X99820000Y-116207000D01*
X99860000Y-106404000D02*
X99860000Y-110060000D01*
X99860000Y-112540000D02*
X99860000Y-116196000D01*
X99900000Y-106415000D02*
X99900000Y-110060000D01*
X99900000Y-112540000D02*
X99900000Y-116185000D01*
X99940000Y-106427000D02*
X99940000Y-110060000D01*
X99940000Y-112540000D02*
X99940000Y-116173000D01*
X99980000Y-106439000D02*
X99980000Y-110060000D01*
X99980000Y-112540000D02*
X99980000Y-116161000D01*
X100020000Y-106451000D02*
X100020000Y-110060000D01*
X100020000Y-112540000D02*
X100020000Y-116149000D01*
X100060000Y-106463000D02*
X100060000Y-110060000D01*
X100060000Y-112540000D02*
X100060000Y-116137000D01*
X100100000Y-106476000D02*
X100100000Y-110060000D01*
X100100000Y-112540000D02*
X100100000Y-116124000D01*
X100140000Y-106490000D02*
X100140000Y-110060000D01*
X100140000Y-112540000D02*
X100140000Y-116110000D01*
X100180000Y-106503000D02*
X100180000Y-110060000D01*
X100180000Y-112540000D02*
X100180000Y-116097000D01*
X100220000Y-106518000D02*
X100220000Y-110060000D01*
X100220000Y-112540000D02*
X100220000Y-116082000D01*
X100260000Y-106532000D02*
X100260000Y-110060000D01*
X100260000Y-112540000D02*
X100260000Y-116068000D01*
X100300000Y-106547000D02*
X100300000Y-110060000D01*
X100300000Y-112540000D02*
X100300000Y-116053000D01*
X100340000Y-106562000D02*
X100340000Y-110060000D01*
X100340000Y-112540000D02*
X100340000Y-116038000D01*
X100380000Y-106578000D02*
X100380000Y-110060000D01*
X100380000Y-112540000D02*
X100380000Y-116022000D01*
X100420000Y-106594000D02*
X100420000Y-110060000D01*
X100420000Y-112540000D02*
X100420000Y-116006000D01*
X100460000Y-106610000D02*
X100460000Y-110060000D01*
X100460000Y-112540000D02*
X100460000Y-115990000D01*
X100500000Y-106627000D02*
X100500000Y-110060000D01*
X100500000Y-112540000D02*
X100500000Y-115973000D01*
X100540000Y-106644000D02*
X100540000Y-110060000D01*
X100540000Y-112540000D02*
X100540000Y-115956000D01*
X100580000Y-106662000D02*
X100580000Y-110060000D01*
X100580000Y-112540000D02*
X100580000Y-115938000D01*
X100620000Y-106680000D02*
X100620000Y-110060000D01*
X100620000Y-112540000D02*
X100620000Y-115920000D01*
X100660000Y-106698000D02*
X100660000Y-110060000D01*
X100660000Y-112540000D02*
X100660000Y-115902000D01*
X100700000Y-106717000D02*
X100700000Y-110060000D01*
X100700000Y-112540000D02*
X100700000Y-115883000D01*
X100740000Y-106736000D02*
X100740000Y-110060000D01*
X100740000Y-112540000D02*
X100740000Y-115864000D01*
X100780000Y-106756000D02*
X100780000Y-110060000D01*
X100780000Y-112540000D02*
X100780000Y-115844000D01*
X100820000Y-106776000D02*
X100820000Y-110060000D01*
X100820000Y-112540000D02*
X100820000Y-115824000D01*
X100860000Y-106796000D02*
X100860000Y-110060000D01*
X100860000Y-112540000D02*
X100860000Y-115804000D01*
X100900000Y-106817000D02*
X100900000Y-110060000D01*
X100900000Y-112540000D02*
X100900000Y-115783000D01*
X100940000Y-106839000D02*
X100940000Y-110060000D01*
X100940000Y-112540000D02*
X100940000Y-115761000D01*
X100980000Y-106861000D02*
X100980000Y-110060000D01*
X100980000Y-112540000D02*
X100980000Y-115739000D01*
X101020000Y-106883000D02*
X101020000Y-110060000D01*
X101020000Y-112540000D02*
X101020000Y-115717000D01*
X101060000Y-106906000D02*
X101060000Y-110060000D01*
X101060000Y-112540000D02*
X101060000Y-115694000D01*
X101100000Y-106929000D02*
X101100000Y-110060000D01*
X101100000Y-112540000D02*
X101100000Y-115671000D01*
X101140000Y-106953000D02*
X101140000Y-110060000D01*
X101140000Y-112540000D02*
X101140000Y-115647000D01*
X101180000Y-106977000D02*
X101180000Y-110060000D01*
X101180000Y-112540000D02*
X101180000Y-115623000D01*
X101220000Y-107002000D02*
X101220000Y-110060000D01*
X101220000Y-112540000D02*
X101220000Y-115598000D01*
X101260000Y-107028000D02*
X101260000Y-110060000D01*
X101260000Y-112540000D02*
X101260000Y-115572000D01*
X101300000Y-107053000D02*
X101300000Y-110060000D01*
X101300000Y-112540000D02*
X101300000Y-115547000D01*
X101340000Y-107080000D02*
X101340000Y-110060000D01*
X101340000Y-112540000D02*
X101340000Y-115520000D01*
X101380000Y-107107000D02*
X101380000Y-110060000D01*
X101380000Y-112540000D02*
X101380000Y-115493000D01*
X101420000Y-107134000D02*
X101420000Y-110060000D01*
X101420000Y-112540000D02*
X101420000Y-115466000D01*
X101460000Y-107162000D02*
X101460000Y-110060000D01*
X101460000Y-112540000D02*
X101460000Y-115438000D01*
X101500000Y-107191000D02*
X101500000Y-110060000D01*
X101500000Y-112540000D02*
X101500000Y-115409000D01*
X101540000Y-107220000D02*
X101540000Y-110060000D01*
X101540000Y-112540000D02*
X101540000Y-115380000D01*
X101580000Y-107250000D02*
X101580000Y-110060000D01*
X101580000Y-112540000D02*
X101580000Y-115350000D01*
X101620000Y-107280000D02*
X101620000Y-110060000D01*
X101620000Y-112540000D02*
X101620000Y-115320000D01*
X101660000Y-107312000D02*
X101660000Y-110060000D01*
X101660000Y-112540000D02*
X101660000Y-115288000D01*
X101700000Y-107343000D02*
X101700000Y-110060000D01*
X101700000Y-112540000D02*
X101700000Y-115257000D01*
X101740000Y-107376000D02*
X101740000Y-110060000D01*
X101740000Y-112540000D02*
X101740000Y-115224000D01*
X101780000Y-107409000D02*
X101780000Y-110060000D01*
X101780000Y-112540000D02*
X101780000Y-115191000D01*
X101820000Y-107442000D02*
X101820000Y-110060000D01*
X101820000Y-112540000D02*
X101820000Y-115158000D01*
X101860000Y-107477000D02*
X101860000Y-110060000D01*
X101860000Y-112540000D02*
X101860000Y-115123000D01*
X101900000Y-107512000D02*
X101900000Y-110060000D01*
X101900000Y-112540000D02*
X101900000Y-115088000D01*
X101940000Y-107548000D02*
X101940000Y-110060000D01*
X101940000Y-112540000D02*
X101940000Y-115052000D01*
X101980000Y-107584000D02*
X101980000Y-110060000D01*
X101980000Y-112540000D02*
X101980000Y-115016000D01*
X102020000Y-107622000D02*
X102020000Y-110060000D01*
X102020000Y-112540000D02*
X102020000Y-114978000D01*
X102060000Y-107660000D02*
X102060000Y-110060000D01*
X102060000Y-112540000D02*
X102060000Y-114940000D01*
X102100000Y-107699000D02*
X102100000Y-110060000D01*
X102100000Y-112540000D02*
X102100000Y-114901000D01*
X102140000Y-107739000D02*
X102140000Y-110060000D01*
X102140000Y-112540000D02*
X102140000Y-114861000D01*
X102180000Y-107780000D02*
X102180000Y-110060000D01*
X102180000Y-112540000D02*
X102180000Y-114820000D01*
X102220000Y-107822000D02*
X102220000Y-110060000D01*
X102220000Y-112540000D02*
X102220000Y-114778000D01*
X102260000Y-107865000D02*
X102260000Y-114735000D01*
X102300000Y-107909000D02*
X102300000Y-114691000D01*
X102340000Y-107953000D02*
X102340000Y-114647000D01*
X102380000Y-107999000D02*
X102380000Y-114601000D01*
X102420000Y-108046000D02*
X102420000Y-114554000D01*
X102460000Y-108095000D02*
X102460000Y-114505000D01*
X102500000Y-108144000D02*
X102500000Y-114456000D01*
X102540000Y-108195000D02*
X102540000Y-114405000D01*
X102580000Y-108247000D02*
X102580000Y-114353000D01*
X102620000Y-108300000D02*
X102620000Y-114300000D01*
X102660000Y-108355000D02*
X102660000Y-114245000D01*
X102700000Y-108412000D02*
X102700000Y-114188000D01*
X102740000Y-108470000D02*
X102740000Y-114130000D01*
X102780000Y-108530000D02*
X102780000Y-114070000D01*
X102820000Y-108592000D02*
X102820000Y-114008000D01*
X102860000Y-108656000D02*
X102860000Y-113944000D01*
X102900000Y-108722000D02*
X102900000Y-113878000D01*
X102940000Y-108790000D02*
X102940000Y-113810000D01*
X102980000Y-108861000D02*
X102980000Y-113739000D01*
X103020000Y-108935000D02*
X103020000Y-113665000D01*
X103060000Y-109012000D02*
X103060000Y-113588000D01*
X103100000Y-109092000D02*
X103100000Y-113508000D01*
X103140000Y-109176000D02*
X103140000Y-113424000D01*
X103180000Y-109263000D02*
X103180000Y-113337000D01*
X103220000Y-109356000D02*
X103220000Y-113244000D01*
X103260000Y-109454000D02*
X103260000Y-113146000D01*
X103300000Y-109558000D02*
X103300000Y-113042000D01*
X103340000Y-109670000D02*
X103340000Y-112930000D01*
X103380000Y-109791000D02*
X103380000Y-112809000D01*
X103420000Y-109923000D02*
X103420000Y-112677000D01*
X103460000Y-110070000D02*
X103460000Y-112530000D01*
X103500000Y-110238000D02*
X103500000Y-112362000D01*
X103540000Y-110438000D02*
X103540000Y-112162000D01*
X103580000Y-110701000D02*
X103580000Y-111899000D01*
X103620000Y-111300000D02*
G75*
G02*
X93380000Y-111300000I-5120000J0D01*
G01*
X93380000Y-111300000D02*
G75*
G02*
X103620000Y-111300000I5120000J0D01*
G01*
%TO.C,C2*%
X93020354Y-97825000D02*
X94020354Y-97825000D01*
X93520354Y-97325000D02*
X93520354Y-98325000D01*
X98500000Y-95620000D02*
X98500000Y-105780000D01*
X98540000Y-95620000D02*
X98540000Y-105780000D01*
X98580000Y-95621000D02*
X98580000Y-105779000D01*
X98620000Y-95621000D02*
X98620000Y-105779000D01*
X98660000Y-95623000D02*
X98660000Y-105777000D01*
X98700000Y-95624000D02*
X98700000Y-105776000D01*
X98740000Y-95626000D02*
X98740000Y-105774000D01*
X98780000Y-95628000D02*
X98780000Y-105772000D01*
X98820000Y-95630000D02*
X98820000Y-105770000D01*
X98860000Y-95633000D02*
X98860000Y-105767000D01*
X98900000Y-95636000D02*
X98900000Y-105764000D01*
X98940000Y-95639000D02*
X98940000Y-105761000D01*
X98980000Y-95643000D02*
X98980000Y-105757000D01*
X99020000Y-95646000D02*
X99020000Y-105754000D01*
X99060000Y-95651000D02*
X99060000Y-105749000D01*
X99100000Y-95655000D02*
X99100000Y-105745000D01*
X99140000Y-95660000D02*
X99140000Y-105740000D01*
X99180000Y-95665000D02*
X99180000Y-105735000D01*
X99220000Y-95671000D02*
X99220000Y-105729000D01*
X99260000Y-95677000D02*
X99260000Y-105723000D01*
X99300000Y-95683000D02*
X99300000Y-105717000D01*
X99340000Y-95689000D02*
X99340000Y-105711000D01*
X99380000Y-95696000D02*
X99380000Y-105704000D01*
X99420000Y-95703000D02*
X99420000Y-105697000D01*
X99460000Y-95711000D02*
X99460000Y-105689000D01*
X99500000Y-95719000D02*
X99500000Y-105681000D01*
X99540000Y-95727000D02*
X99540000Y-105673000D01*
X99580000Y-95735000D02*
X99580000Y-105665000D01*
X99620000Y-95744000D02*
X99620000Y-105656000D01*
X99660000Y-95753000D02*
X99660000Y-105647000D01*
X99700000Y-95763000D02*
X99700000Y-105637000D01*
X99740000Y-95772000D02*
X99740000Y-105628000D01*
X99780000Y-95783000D02*
X99780000Y-99460000D01*
X99780000Y-101940000D02*
X99780000Y-105617000D01*
X99820000Y-95793000D02*
X99820000Y-99460000D01*
X99820000Y-101940000D02*
X99820000Y-105607000D01*
X99860000Y-95804000D02*
X99860000Y-99460000D01*
X99860000Y-101940000D02*
X99860000Y-105596000D01*
X99900000Y-95815000D02*
X99900000Y-99460000D01*
X99900000Y-101940000D02*
X99900000Y-105585000D01*
X99940000Y-95827000D02*
X99940000Y-99460000D01*
X99940000Y-101940000D02*
X99940000Y-105573000D01*
X99980000Y-95839000D02*
X99980000Y-99460000D01*
X99980000Y-101940000D02*
X99980000Y-105561000D01*
X100020000Y-95851000D02*
X100020000Y-99460000D01*
X100020000Y-101940000D02*
X100020000Y-105549000D01*
X100060000Y-95863000D02*
X100060000Y-99460000D01*
X100060000Y-101940000D02*
X100060000Y-105537000D01*
X100100000Y-95876000D02*
X100100000Y-99460000D01*
X100100000Y-101940000D02*
X100100000Y-105524000D01*
X100140000Y-95890000D02*
X100140000Y-99460000D01*
X100140000Y-101940000D02*
X100140000Y-105510000D01*
X100180000Y-95903000D02*
X100180000Y-99460000D01*
X100180000Y-101940000D02*
X100180000Y-105497000D01*
X100220000Y-95918000D02*
X100220000Y-99460000D01*
X100220000Y-101940000D02*
X100220000Y-105482000D01*
X100260000Y-95932000D02*
X100260000Y-99460000D01*
X100260000Y-101940000D02*
X100260000Y-105468000D01*
X100300000Y-95947000D02*
X100300000Y-99460000D01*
X100300000Y-101940000D02*
X100300000Y-105453000D01*
X100340000Y-95962000D02*
X100340000Y-99460000D01*
X100340000Y-101940000D02*
X100340000Y-105438000D01*
X100380000Y-95978000D02*
X100380000Y-99460000D01*
X100380000Y-101940000D02*
X100380000Y-105422000D01*
X100420000Y-95994000D02*
X100420000Y-99460000D01*
X100420000Y-101940000D02*
X100420000Y-105406000D01*
X100460000Y-96010000D02*
X100460000Y-99460000D01*
X100460000Y-101940000D02*
X100460000Y-105390000D01*
X100500000Y-96027000D02*
X100500000Y-99460000D01*
X100500000Y-101940000D02*
X100500000Y-105373000D01*
X100540000Y-96044000D02*
X100540000Y-99460000D01*
X100540000Y-101940000D02*
X100540000Y-105356000D01*
X100580000Y-96062000D02*
X100580000Y-99460000D01*
X100580000Y-101940000D02*
X100580000Y-105338000D01*
X100620000Y-96080000D02*
X100620000Y-99460000D01*
X100620000Y-101940000D02*
X100620000Y-105320000D01*
X100660000Y-96098000D02*
X100660000Y-99460000D01*
X100660000Y-101940000D02*
X100660000Y-105302000D01*
X100700000Y-96117000D02*
X100700000Y-99460000D01*
X100700000Y-101940000D02*
X100700000Y-105283000D01*
X100740000Y-96136000D02*
X100740000Y-99460000D01*
X100740000Y-101940000D02*
X100740000Y-105264000D01*
X100780000Y-96156000D02*
X100780000Y-99460000D01*
X100780000Y-101940000D02*
X100780000Y-105244000D01*
X100820000Y-96176000D02*
X100820000Y-99460000D01*
X100820000Y-101940000D02*
X100820000Y-105224000D01*
X100860000Y-96196000D02*
X100860000Y-99460000D01*
X100860000Y-101940000D02*
X100860000Y-105204000D01*
X100900000Y-96217000D02*
X100900000Y-99460000D01*
X100900000Y-101940000D02*
X100900000Y-105183000D01*
X100940000Y-96239000D02*
X100940000Y-99460000D01*
X100940000Y-101940000D02*
X100940000Y-105161000D01*
X100980000Y-96261000D02*
X100980000Y-99460000D01*
X100980000Y-101940000D02*
X100980000Y-105139000D01*
X101020000Y-96283000D02*
X101020000Y-99460000D01*
X101020000Y-101940000D02*
X101020000Y-105117000D01*
X101060000Y-96306000D02*
X101060000Y-99460000D01*
X101060000Y-101940000D02*
X101060000Y-105094000D01*
X101100000Y-96329000D02*
X101100000Y-99460000D01*
X101100000Y-101940000D02*
X101100000Y-105071000D01*
X101140000Y-96353000D02*
X101140000Y-99460000D01*
X101140000Y-101940000D02*
X101140000Y-105047000D01*
X101180000Y-96377000D02*
X101180000Y-99460000D01*
X101180000Y-101940000D02*
X101180000Y-105023000D01*
X101220000Y-96402000D02*
X101220000Y-99460000D01*
X101220000Y-101940000D02*
X101220000Y-104998000D01*
X101260000Y-96428000D02*
X101260000Y-99460000D01*
X101260000Y-101940000D02*
X101260000Y-104972000D01*
X101300000Y-96453000D02*
X101300000Y-99460000D01*
X101300000Y-101940000D02*
X101300000Y-104947000D01*
X101340000Y-96480000D02*
X101340000Y-99460000D01*
X101340000Y-101940000D02*
X101340000Y-104920000D01*
X101380000Y-96507000D02*
X101380000Y-99460000D01*
X101380000Y-101940000D02*
X101380000Y-104893000D01*
X101420000Y-96534000D02*
X101420000Y-99460000D01*
X101420000Y-101940000D02*
X101420000Y-104866000D01*
X101460000Y-96562000D02*
X101460000Y-99460000D01*
X101460000Y-101940000D02*
X101460000Y-104838000D01*
X101500000Y-96591000D02*
X101500000Y-99460000D01*
X101500000Y-101940000D02*
X101500000Y-104809000D01*
X101540000Y-96620000D02*
X101540000Y-99460000D01*
X101540000Y-101940000D02*
X101540000Y-104780000D01*
X101580000Y-96650000D02*
X101580000Y-99460000D01*
X101580000Y-101940000D02*
X101580000Y-104750000D01*
X101620000Y-96680000D02*
X101620000Y-99460000D01*
X101620000Y-101940000D02*
X101620000Y-104720000D01*
X101660000Y-96712000D02*
X101660000Y-99460000D01*
X101660000Y-101940000D02*
X101660000Y-104688000D01*
X101700000Y-96743000D02*
X101700000Y-99460000D01*
X101700000Y-101940000D02*
X101700000Y-104657000D01*
X101740000Y-96776000D02*
X101740000Y-99460000D01*
X101740000Y-101940000D02*
X101740000Y-104624000D01*
X101780000Y-96809000D02*
X101780000Y-99460000D01*
X101780000Y-101940000D02*
X101780000Y-104591000D01*
X101820000Y-96842000D02*
X101820000Y-99460000D01*
X101820000Y-101940000D02*
X101820000Y-104558000D01*
X101860000Y-96877000D02*
X101860000Y-99460000D01*
X101860000Y-101940000D02*
X101860000Y-104523000D01*
X101900000Y-96912000D02*
X101900000Y-99460000D01*
X101900000Y-101940000D02*
X101900000Y-104488000D01*
X101940000Y-96948000D02*
X101940000Y-99460000D01*
X101940000Y-101940000D02*
X101940000Y-104452000D01*
X101980000Y-96984000D02*
X101980000Y-99460000D01*
X101980000Y-101940000D02*
X101980000Y-104416000D01*
X102020000Y-97022000D02*
X102020000Y-99460000D01*
X102020000Y-101940000D02*
X102020000Y-104378000D01*
X102060000Y-97060000D02*
X102060000Y-99460000D01*
X102060000Y-101940000D02*
X102060000Y-104340000D01*
X102100000Y-97099000D02*
X102100000Y-99460000D01*
X102100000Y-101940000D02*
X102100000Y-104301000D01*
X102140000Y-97139000D02*
X102140000Y-99460000D01*
X102140000Y-101940000D02*
X102140000Y-104261000D01*
X102180000Y-97180000D02*
X102180000Y-99460000D01*
X102180000Y-101940000D02*
X102180000Y-104220000D01*
X102220000Y-97222000D02*
X102220000Y-99460000D01*
X102220000Y-101940000D02*
X102220000Y-104178000D01*
X102260000Y-97265000D02*
X102260000Y-104135000D01*
X102300000Y-97309000D02*
X102300000Y-104091000D01*
X102340000Y-97353000D02*
X102340000Y-104047000D01*
X102380000Y-97399000D02*
X102380000Y-104001000D01*
X102420000Y-97446000D02*
X102420000Y-103954000D01*
X102460000Y-97495000D02*
X102460000Y-103905000D01*
X102500000Y-97544000D02*
X102500000Y-103856000D01*
X102540000Y-97595000D02*
X102540000Y-103805000D01*
X102580000Y-97647000D02*
X102580000Y-103753000D01*
X102620000Y-97700000D02*
X102620000Y-103700000D01*
X102660000Y-97755000D02*
X102660000Y-103645000D01*
X102700000Y-97812000D02*
X102700000Y-103588000D01*
X102740000Y-97870000D02*
X102740000Y-103530000D01*
X102780000Y-97930000D02*
X102780000Y-103470000D01*
X102820000Y-97992000D02*
X102820000Y-103408000D01*
X102860000Y-98056000D02*
X102860000Y-103344000D01*
X102900000Y-98122000D02*
X102900000Y-103278000D01*
X102940000Y-98190000D02*
X102940000Y-103210000D01*
X102980000Y-98261000D02*
X102980000Y-103139000D01*
X103020000Y-98335000D02*
X103020000Y-103065000D01*
X103060000Y-98412000D02*
X103060000Y-102988000D01*
X103100000Y-98492000D02*
X103100000Y-102908000D01*
X103140000Y-98576000D02*
X103140000Y-102824000D01*
X103180000Y-98663000D02*
X103180000Y-102737000D01*
X103220000Y-98756000D02*
X103220000Y-102644000D01*
X103260000Y-98854000D02*
X103260000Y-102546000D01*
X103300000Y-98958000D02*
X103300000Y-102442000D01*
X103340000Y-99070000D02*
X103340000Y-102330000D01*
X103380000Y-99191000D02*
X103380000Y-102209000D01*
X103420000Y-99323000D02*
X103420000Y-102077000D01*
X103460000Y-99470000D02*
X103460000Y-101930000D01*
X103500000Y-99638000D02*
X103500000Y-101762000D01*
X103540000Y-99838000D02*
X103540000Y-101562000D01*
X103580000Y-100101000D02*
X103580000Y-101299000D01*
X103620000Y-100700000D02*
G75*
G02*
X93380000Y-100700000I-5120000J0D01*
G01*
X93380000Y-100700000D02*
G75*
G02*
X103620000Y-100700000I5120000J0D01*
G01*
%TO.C,K1*%
X122400000Y-118050000D02*
X138000000Y-118050000D01*
X122400000Y-137850000D02*
X122400000Y-118050000D01*
X122400000Y-137850000D02*
X129000000Y-137850000D01*
X124250000Y-130400000D02*
X124250000Y-132900000D01*
X124250000Y-130400000D02*
X128450000Y-130400000D01*
X126000000Y-122300000D02*
X128500000Y-122300000D01*
X128450000Y-128400000D02*
X132050000Y-128400000D01*
X128450000Y-132400000D02*
X128450000Y-128400000D01*
X130250000Y-125500000D02*
X127750000Y-120900000D01*
X130250000Y-127000000D02*
X130250000Y-125500000D01*
X130250000Y-127000000D02*
X133850000Y-127000000D01*
X130250000Y-133800000D02*
X130250000Y-134600000D01*
X130250000Y-133800000D02*
X133850000Y-133800000D01*
X131400000Y-137850000D02*
X138000000Y-137850000D01*
X132050000Y-128400000D02*
X128450000Y-132400000D01*
X132050000Y-128400000D02*
X132050000Y-132400000D01*
X132050000Y-130400000D02*
X136250000Y-130400000D01*
X132050000Y-132400000D02*
X128450000Y-132400000D01*
X133850000Y-127000000D02*
X133850000Y-133800000D01*
X134400000Y-122300000D02*
X131950000Y-122300000D01*
X136250000Y-132900000D02*
X136250000Y-130400000D01*
X138000000Y-118050000D02*
X138000000Y-137850000D01*
%TO.C,R35*%
X146065000Y-82572936D02*
X146065000Y-83027064D01*
X147535000Y-82572936D02*
X147535000Y-83027064D01*
%TO.C,U15*%
X208950000Y-84365000D02*
X208950000Y-86600000D01*
X208950000Y-88600000D02*
X208950000Y-90835000D01*
X208950000Y-90835000D02*
X214150000Y-90835000D01*
X214150000Y-84365000D02*
X208950000Y-84365000D01*
X214150000Y-90835000D02*
X214150000Y-84365000D01*
X208950000Y-86600000D02*
G75*
G02*
X208950000Y-88600000I0J-1000000D01*
G01*
%TO.C,U11*%
X205070000Y-120900000D02*
X205070000Y-123135000D01*
X205070000Y-125135000D02*
X205070000Y-127370000D01*
X205070000Y-127370000D02*
X210270000Y-127370000D01*
X210270000Y-120900000D02*
X205070000Y-120900000D01*
X210270000Y-127370000D02*
X210270000Y-120900000D01*
X205070000Y-123135000D02*
G75*
G02*
X205070000Y-125135000I0J-1000000D01*
G01*
%TO.C,U6*%
X94130000Y-122500000D02*
X94130000Y-124735000D01*
X94130000Y-126735000D02*
X94130000Y-128970000D01*
X94130000Y-128970000D02*
X99330000Y-128970000D01*
X99330000Y-122500000D02*
X94130000Y-122500000D01*
X99330000Y-128970000D02*
X99330000Y-122500000D01*
X94130000Y-124735000D02*
G75*
G02*
X94130000Y-126735000I0J-1000000D01*
G01*
%TO.C,D7*%
X88800000Y-88600000D02*
X92400000Y-88600000D01*
X88800000Y-90600000D02*
X88800000Y-88600000D01*
X88800000Y-95700000D02*
X88800000Y-93700000D01*
X88800000Y-100700000D02*
X88800000Y-98800000D01*
X88800000Y-105400000D02*
X88800000Y-103900000D01*
X88800000Y-110900000D02*
X88800000Y-109400000D01*
X92400000Y-88600000D02*
X92400000Y-110900000D01*
X92400000Y-107700000D02*
X91900000Y-107700000D01*
X92400000Y-110900000D02*
X88800000Y-110900000D01*
%TO.C,R27*%
X152187742Y-103077500D02*
X152662258Y-103077500D01*
X152187742Y-104122500D02*
X152662258Y-104122500D01*
%TO.C,K8*%
X120850000Y-80550000D02*
X136450000Y-80550000D01*
X120850000Y-100350000D02*
X120850000Y-80550000D01*
X120850000Y-100350000D02*
X127450000Y-100350000D01*
X122700000Y-92900000D02*
X122700000Y-95400000D01*
X122700000Y-92900000D02*
X126900000Y-92900000D01*
X124450000Y-84800000D02*
X126950000Y-84800000D01*
X126900000Y-90900000D02*
X130500000Y-90900000D01*
X126900000Y-94900000D02*
X126900000Y-90900000D01*
X128700000Y-88000000D02*
X126200000Y-83400000D01*
X128700000Y-89500000D02*
X128700000Y-88000000D01*
X128700000Y-89500000D02*
X132300000Y-89500000D01*
X128700000Y-96300000D02*
X128700000Y-97100000D01*
X128700000Y-96300000D02*
X132300000Y-96300000D01*
X129850000Y-100350000D02*
X136450000Y-100350000D01*
X130500000Y-90900000D02*
X126900000Y-94900000D01*
X130500000Y-90900000D02*
X130500000Y-94900000D01*
X130500000Y-92900000D02*
X134700000Y-92900000D01*
X130500000Y-94900000D02*
X126900000Y-94900000D01*
X132300000Y-89500000D02*
X132300000Y-96300000D01*
X132850000Y-84800000D02*
X130400000Y-84800000D01*
X134700000Y-95400000D02*
X134700000Y-92900000D01*
X136450000Y-80550000D02*
X136450000Y-100350000D01*
%TO.C,C6*%
X160665000Y-84061252D02*
X160665000Y-83538748D01*
X162135000Y-84061252D02*
X162135000Y-83538748D01*
%TO.C,R9*%
X97937742Y-116840000D02*
X98412258Y-116840000D01*
X97937742Y-117885000D02*
X98412258Y-117885000D01*
%TO.C,U7*%
X99900000Y-122565000D02*
X99900000Y-124800000D01*
X99900000Y-126800000D02*
X99900000Y-129035000D01*
X99900000Y-129035000D02*
X105100000Y-129035000D01*
X105100000Y-122565000D02*
X99900000Y-122565000D01*
X105100000Y-129035000D02*
X105100000Y-122565000D01*
X99900000Y-124800000D02*
G75*
G02*
X99900000Y-126800000I0J-1000000D01*
G01*
%TO.C,U10*%
X210900000Y-120865000D02*
X210900000Y-123100000D01*
X210900000Y-125100000D02*
X210900000Y-127335000D01*
X210900000Y-127335000D02*
X216100000Y-127335000D01*
X216100000Y-120865000D02*
X210900000Y-120865000D01*
X216100000Y-127335000D02*
X216100000Y-120865000D01*
X210900000Y-123100000D02*
G75*
G02*
X210900000Y-125100000I0J-1000000D01*
G01*
%TO.C,K2*%
X138900000Y-118050000D02*
X154500000Y-118050000D01*
X138900000Y-137850000D02*
X138900000Y-118050000D01*
X138900000Y-137850000D02*
X145500000Y-137850000D01*
X140750000Y-130400000D02*
X140750000Y-132900000D01*
X140750000Y-130400000D02*
X144950000Y-130400000D01*
X142500000Y-122300000D02*
X145000000Y-122300000D01*
X144950000Y-128400000D02*
X148550000Y-128400000D01*
X144950000Y-132400000D02*
X144950000Y-128400000D01*
X146750000Y-125500000D02*
X144250000Y-120900000D01*
X146750000Y-127000000D02*
X146750000Y-125500000D01*
X146750000Y-127000000D02*
X150350000Y-127000000D01*
X146750000Y-133800000D02*
X146750000Y-134600000D01*
X146750000Y-133800000D02*
X150350000Y-133800000D01*
X147900000Y-137850000D02*
X154500000Y-137850000D01*
X148550000Y-128400000D02*
X144950000Y-132400000D01*
X148550000Y-128400000D02*
X148550000Y-132400000D01*
X148550000Y-130400000D02*
X152750000Y-130400000D01*
X148550000Y-132400000D02*
X144950000Y-132400000D01*
X150350000Y-127000000D02*
X150350000Y-133800000D01*
X150900000Y-122300000D02*
X148450000Y-122300000D01*
X152750000Y-132900000D02*
X152750000Y-130400000D01*
X154500000Y-118050000D02*
X154500000Y-137850000D01*
%TO.C,R38*%
X170337258Y-90277500D02*
X169862742Y-90277500D01*
X170337258Y-91322500D02*
X169862742Y-91322500D01*
%TO.C,R30*%
X206527500Y-95662258D02*
X206527500Y-95187742D01*
X207572500Y-95662258D02*
X207572500Y-95187742D01*
%TO.C,R21*%
X214912742Y-115727500D02*
X215387258Y-115727500D01*
X214912742Y-116772500D02*
X215387258Y-116772500D01*
%TO.C,J4*%
X155340000Y-82790000D02*
X155340000Y-100510000D01*
X155340000Y-100510000D02*
X159360000Y-100510000D01*
X155840000Y-83290000D02*
X157050000Y-83290000D01*
X155840000Y-100010000D02*
X155840000Y-83290000D01*
X157050000Y-83290000D02*
X157050000Y-82790000D01*
X157050000Y-100010000D02*
X155840000Y-100010000D01*
X157050000Y-100510000D02*
X157050000Y-100010000D01*
X157160000Y-100810000D02*
X159660000Y-100810000D01*
X157860000Y-82790000D02*
X157860000Y-83790000D01*
X157860000Y-83790000D02*
X159360000Y-83790000D01*
X157860000Y-99510000D02*
X159360000Y-99510000D01*
X157860000Y-100510000D02*
X157860000Y-99510000D01*
X159360000Y-82790000D02*
X155340000Y-82790000D01*
X159360000Y-100510000D02*
X159360000Y-82790000D01*
X159660000Y-100810000D02*
X159660000Y-98310000D01*
%TO.C,U17*%
X142900000Y-87465000D02*
X142900000Y-93935000D01*
X142900000Y-93935000D02*
X148100000Y-93935000D01*
X148100000Y-87465000D02*
X142900000Y-87465000D01*
X148100000Y-89700000D02*
X148100000Y-87465000D01*
X148100000Y-93935000D02*
X148100000Y-91700000D01*
X148100000Y-91700000D02*
G75*
G02*
X148100000Y-89700000I0J1000000D01*
G01*
D10*
%TO.C,MOD1*%
X89630000Y-149110000D02*
X89630000Y-149850000D01*
X89630000Y-149850000D02*
X90130000Y-149850000D01*
X89870000Y-79592500D02*
X89870000Y-69671500D01*
X89870000Y-139689000D02*
X89870000Y-149610000D01*
X89870000Y-139689000D02*
X149990000Y-139689000D01*
X89870000Y-142649000D02*
X149990000Y-142649000D01*
X89870000Y-147550000D02*
X149990000Y-147550000D01*
X89870000Y-149050000D02*
X149990000Y-149050000D01*
X89870000Y-149610000D02*
X149990000Y-149610000D01*
X91155000Y-75400500D02*
X91202000Y-75354500D01*
X91360000Y-75606500D02*
X91395000Y-75570500D01*
X93464000Y-73092500D02*
X93499000Y-73057500D01*
X93657000Y-73308500D02*
X93704000Y-73262500D01*
X96155000Y-75400500D02*
X96202000Y-75354500D01*
X96203000Y-145973000D02*
X96156000Y-146019000D01*
X96360000Y-75606500D02*
X96395000Y-75570500D01*
X96396000Y-146189000D02*
X96361000Y-146224000D01*
X98464000Y-73092500D02*
X98499000Y-73057500D01*
X98500000Y-143675000D02*
X98465000Y-143711000D01*
X98657000Y-73308500D02*
X98704000Y-73262500D01*
X98705000Y-143881000D02*
X98658000Y-143927000D01*
X101155000Y-75400500D02*
X101202000Y-75354500D01*
X101203000Y-145973000D02*
X101156000Y-146019000D01*
X101360000Y-75606500D02*
X101395000Y-75570500D01*
X101396000Y-146189000D02*
X101361000Y-146224000D01*
X103464000Y-73092500D02*
X103499000Y-73057500D01*
X103500000Y-143675000D02*
X103465000Y-143711000D01*
X103657000Y-73308500D02*
X103704000Y-73262500D01*
X103705000Y-143881000D02*
X103658000Y-143927000D01*
X106155000Y-75400500D02*
X106202000Y-75354500D01*
X106203000Y-145973000D02*
X106156000Y-146019000D01*
X106360000Y-75606500D02*
X106395000Y-75570500D01*
X106396000Y-146189000D02*
X106361000Y-146224000D01*
X108464000Y-73092500D02*
X108499000Y-73057500D01*
X108500000Y-143675000D02*
X108465000Y-143711000D01*
X108657000Y-73308500D02*
X108704000Y-73262500D01*
X108705000Y-143881000D02*
X108658000Y-143927000D01*
X111155000Y-75400500D02*
X111202000Y-75354500D01*
X111203000Y-145973000D02*
X111156000Y-146019000D01*
X111360000Y-75606500D02*
X111395000Y-75570500D01*
X111396000Y-146189000D02*
X111361000Y-146224000D01*
X113464000Y-73092500D02*
X113499000Y-73057500D01*
X113500000Y-143675000D02*
X113465000Y-143711000D01*
X113657000Y-73308500D02*
X113704000Y-73262500D01*
X113705000Y-143881000D02*
X113658000Y-143927000D01*
X116155000Y-75400500D02*
X116202000Y-75354500D01*
X116203000Y-145973000D02*
X116156000Y-146019000D01*
X116360000Y-75606500D02*
X116395000Y-75570500D01*
X116396000Y-146189000D02*
X116361000Y-146224000D01*
X118464000Y-73092500D02*
X118499000Y-73057500D01*
X118500000Y-143675000D02*
X118465000Y-143711000D01*
X118657000Y-73308500D02*
X118704000Y-73262500D01*
X118705000Y-143881000D02*
X118658000Y-143927000D01*
X121155000Y-75400500D02*
X121202000Y-75354500D01*
X121203000Y-145973000D02*
X121156000Y-146019000D01*
X121360000Y-75606500D02*
X121395000Y-75570500D01*
X121396000Y-146189000D02*
X121361000Y-146224000D01*
X123464000Y-73092500D02*
X123499000Y-73057500D01*
X123500000Y-143675000D02*
X123465000Y-143711000D01*
X123657000Y-73308500D02*
X123704000Y-73262500D01*
X123705000Y-143881000D02*
X123658000Y-143927000D01*
X126155000Y-75400500D02*
X126202000Y-75354500D01*
X126203000Y-145973000D02*
X126156000Y-146019000D01*
X126360000Y-75606500D02*
X126395000Y-75570500D01*
X126396000Y-146189000D02*
X126361000Y-146224000D01*
X128464000Y-73092500D02*
X128499000Y-73057500D01*
X128500000Y-143675000D02*
X128465000Y-143711000D01*
X128657000Y-73308500D02*
X128704000Y-73262500D01*
X128705000Y-143881000D02*
X128658000Y-143927000D01*
X131155000Y-75400500D02*
X131202000Y-75354500D01*
X131203000Y-145973000D02*
X131156000Y-146019000D01*
X131360000Y-75606500D02*
X131395000Y-75570500D01*
X131396000Y-146189000D02*
X131361000Y-146224000D01*
X133464000Y-73092500D02*
X133499000Y-73057500D01*
X133500000Y-143675000D02*
X133465000Y-143711000D01*
X133657000Y-73308500D02*
X133704000Y-73262500D01*
X133705000Y-143881000D02*
X133658000Y-143927000D01*
X136155000Y-75400500D02*
X136202000Y-75354500D01*
X136203000Y-145973000D02*
X136156000Y-146019000D01*
X136360000Y-75606500D02*
X136395000Y-75570500D01*
X136396000Y-146189000D02*
X136361000Y-146224000D01*
X138464000Y-73092500D02*
X138499000Y-73057500D01*
X138500000Y-143675000D02*
X138465000Y-143711000D01*
X138657000Y-73308500D02*
X138704000Y-73262500D01*
X138705000Y-143881000D02*
X138658000Y-143927000D01*
X141155000Y-75400500D02*
X141202000Y-75354500D01*
X141203000Y-145973000D02*
X141156000Y-146019000D01*
X141360000Y-75606500D02*
X141395000Y-75570500D01*
X141396000Y-146189000D02*
X141361000Y-146224000D01*
X143464000Y-73092500D02*
X143499000Y-73057500D01*
X143500000Y-143675000D02*
X143465000Y-143711000D01*
X143657000Y-73308500D02*
X143704000Y-73262500D01*
X143705000Y-143881000D02*
X143658000Y-143927000D01*
X146203000Y-145973000D02*
X146156000Y-146019000D01*
X146396000Y-146189000D02*
X146361000Y-146224000D01*
X148500000Y-143675000D02*
X148465000Y-143711000D01*
X148705000Y-143881000D02*
X148658000Y-143927000D01*
X149990000Y-69671500D02*
X89870000Y-69671500D01*
X149990000Y-70231500D02*
X89870000Y-70231500D01*
X149990000Y-71731500D02*
X89870000Y-71731500D01*
X149990000Y-76632500D02*
X89870000Y-76632500D01*
X149990000Y-79592500D02*
X89870000Y-79592500D01*
X149990000Y-79592500D02*
X149990000Y-69671500D01*
X149990000Y-139689000D02*
X149990000Y-149610000D01*
X150230000Y-69431500D02*
X149730000Y-69431500D01*
X150230000Y-70171500D02*
X150230000Y-69431500D01*
X159870000Y-149110000D02*
X159870000Y-149850000D01*
X159870000Y-149850000D02*
X160370000Y-149850000D01*
X160110000Y-79592500D02*
X160110000Y-69671500D01*
X160110000Y-139689000D02*
X160110000Y-149610000D01*
X160110000Y-139689000D02*
X220230000Y-139689000D01*
X160110000Y-142649000D02*
X220230000Y-142649000D01*
X160110000Y-147550000D02*
X220230000Y-147550000D01*
X160110000Y-149050000D02*
X220230000Y-149050000D01*
X160110000Y-149610000D02*
X220230000Y-149610000D01*
X163897000Y-73308500D02*
X163944000Y-73262500D01*
X166395000Y-75400500D02*
X166442000Y-75354500D01*
X166443000Y-145973000D02*
X166396000Y-146019000D01*
X166600000Y-75606500D02*
X166635000Y-75570500D01*
X166636000Y-146189000D02*
X166601000Y-146224000D01*
X168704000Y-73092500D02*
X168739000Y-73057500D01*
X168740000Y-143675000D02*
X168705000Y-143711000D01*
X168897000Y-73308500D02*
X168944000Y-73262500D01*
X168945000Y-143881000D02*
X168898000Y-143927000D01*
X171395000Y-75400500D02*
X171442000Y-75354500D01*
X171443000Y-145973000D02*
X171396000Y-146019000D01*
X171600000Y-75606500D02*
X171635000Y-75570500D01*
X171636000Y-146189000D02*
X171601000Y-146224000D01*
X173704000Y-73092500D02*
X173739000Y-73057500D01*
X173740000Y-143675000D02*
X173705000Y-143711000D01*
X173897000Y-73308500D02*
X173944000Y-73262500D01*
X173945000Y-143881000D02*
X173898000Y-143927000D01*
X176395000Y-75400500D02*
X176442000Y-75354500D01*
X176443000Y-145973000D02*
X176396000Y-146019000D01*
X176600000Y-75606500D02*
X176635000Y-75570500D01*
X176636000Y-146189000D02*
X176601000Y-146224000D01*
X178704000Y-73092500D02*
X178739000Y-73057500D01*
X178740000Y-143675000D02*
X178705000Y-143711000D01*
X178897000Y-73308500D02*
X178944000Y-73262500D01*
X178945000Y-143881000D02*
X178898000Y-143927000D01*
X181395000Y-75400500D02*
X181442000Y-75354500D01*
X181443000Y-145973000D02*
X181396000Y-146019000D01*
X181600000Y-75606500D02*
X181635000Y-75570500D01*
X181636000Y-146189000D02*
X181601000Y-146224000D01*
X183704000Y-73092500D02*
X183739000Y-73057500D01*
X183740000Y-143675000D02*
X183705000Y-143711000D01*
X183897000Y-73308500D02*
X183944000Y-73262500D01*
X183945000Y-143881000D02*
X183898000Y-143927000D01*
X186395000Y-75400500D02*
X186442000Y-75354500D01*
X186443000Y-145973000D02*
X186396000Y-146019000D01*
X186600000Y-75606500D02*
X186635000Y-75570500D01*
X186636000Y-146189000D02*
X186601000Y-146224000D01*
X188704000Y-73092500D02*
X188739000Y-73057500D01*
X188740000Y-143675000D02*
X188705000Y-143711000D01*
X188897000Y-73308500D02*
X188944000Y-73262500D01*
X188945000Y-143881000D02*
X188898000Y-143927000D01*
X191395000Y-75400500D02*
X191442000Y-75354500D01*
X191443000Y-145973000D02*
X191396000Y-146019000D01*
X191600000Y-75606500D02*
X191635000Y-75570500D01*
X191636000Y-146189000D02*
X191601000Y-146224000D01*
X193704000Y-73092500D02*
X193739000Y-73057500D01*
X193740000Y-143675000D02*
X193705000Y-143711000D01*
X193897000Y-73308500D02*
X193944000Y-73262500D01*
X193945000Y-143881000D02*
X193898000Y-143927000D01*
X196395000Y-75400500D02*
X196442000Y-75354500D01*
X196443000Y-145973000D02*
X196396000Y-146019000D01*
X196600000Y-75606500D02*
X196635000Y-75570500D01*
X196636000Y-146189000D02*
X196601000Y-146224000D01*
X198704000Y-73092500D02*
X198739000Y-73057500D01*
X198740000Y-143675000D02*
X198705000Y-143711000D01*
X198897000Y-73308500D02*
X198944000Y-73262500D01*
X198945000Y-143881000D02*
X198898000Y-143927000D01*
X201395000Y-75400500D02*
X201442000Y-75354500D01*
X201443000Y-145973000D02*
X201396000Y-146019000D01*
X201600000Y-75606500D02*
X201635000Y-75570500D01*
X201636000Y-146189000D02*
X201601000Y-146224000D01*
X203704000Y-73092500D02*
X203739000Y-73057500D01*
X203740000Y-143675000D02*
X203705000Y-143711000D01*
X203897000Y-73308500D02*
X203944000Y-73262500D01*
X203945000Y-143881000D02*
X203898000Y-143927000D01*
X206395000Y-75400500D02*
X206442000Y-75354500D01*
X206443000Y-145973000D02*
X206396000Y-146019000D01*
X206600000Y-75606500D02*
X206635000Y-75570500D01*
X206636000Y-146189000D02*
X206601000Y-146224000D01*
X208704000Y-73092500D02*
X208739000Y-73057500D01*
X208740000Y-143675000D02*
X208705000Y-143711000D01*
X208897000Y-73308500D02*
X208944000Y-73262500D01*
X208945000Y-143881000D02*
X208898000Y-143927000D01*
X211395000Y-75400500D02*
X211442000Y-75354500D01*
X211443000Y-145973000D02*
X211396000Y-146019000D01*
X211600000Y-75606500D02*
X211635000Y-75570500D01*
X211636000Y-146189000D02*
X211601000Y-146224000D01*
X213704000Y-73092500D02*
X213739000Y-73057500D01*
X213740000Y-143675000D02*
X213705000Y-143711000D01*
X213897000Y-73308500D02*
X213944000Y-73262500D01*
X213945000Y-143881000D02*
X213898000Y-143927000D01*
X216443000Y-145973000D02*
X216396000Y-146019000D01*
X216636000Y-146189000D02*
X216601000Y-146224000D01*
X218740000Y-143675000D02*
X218705000Y-143711000D01*
X218945000Y-143881000D02*
X218898000Y-143927000D01*
X220230000Y-69671500D02*
X160110000Y-69671500D01*
X220230000Y-70231500D02*
X160110000Y-70231500D01*
X220230000Y-71731500D02*
X160110000Y-71731500D01*
X220230000Y-76632500D02*
X160110000Y-76632500D01*
X220230000Y-79592500D02*
X160110000Y-79592500D01*
X220230000Y-79592500D02*
X220230000Y-69671500D01*
X220230000Y-139689000D02*
X220230000Y-149610000D01*
X220470000Y-68821500D02*
X219970000Y-68821500D01*
X220470000Y-69561500D02*
X220470000Y-68821500D01*
X90894573Y-145633042D02*
G75*
G02*
X90895000Y-144266000I1535420J683041D01*
G01*
X91746958Y-143414573D02*
G75*
G02*
X93114000Y-143415000I683041J-1535420D01*
G01*
X92458805Y-146630253D02*
G75*
G02*
X91746000Y-146485000I-28806J1680254D01*
G01*
X93113318Y-146484756D02*
G75*
G02*
X92430000Y-146630000I-683317J1534748D01*
G01*
X93965427Y-144266958D02*
G75*
G02*
X93965000Y-145634000I-1535420J-683041D01*
G01*
X145894573Y-75014542D02*
G75*
G02*
X145895000Y-73647500I1535396J683041D01*
G01*
X146746682Y-72796744D02*
G75*
G02*
X147430000Y-72651500I683259J-1534476D01*
G01*
X147401195Y-72651247D02*
G75*
G02*
X148114000Y-72796500I28806J-1680254D01*
G01*
X148113042Y-75866927D02*
G75*
G02*
X146746000Y-75866500I-683041J1535420D01*
G01*
X148965427Y-73648458D02*
G75*
G02*
X148965000Y-75015500I-1535420J-683041D01*
G01*
X161134573Y-145633042D02*
G75*
G02*
X161135000Y-144266000I1535427J683042D01*
G01*
X161986958Y-143414573D02*
G75*
G02*
X163354000Y-143415000I683042J-1535427D01*
G01*
X162698805Y-146630253D02*
G75*
G02*
X161986000Y-146485000I-28805J1680253D01*
G01*
X163353318Y-146484756D02*
G75*
G02*
X162670000Y-146630000I-683318J1534756D01*
G01*
X164205427Y-144266958D02*
G75*
G02*
X164205000Y-145634000I-1535427J-683042D01*
G01*
X216134573Y-75014542D02*
G75*
G02*
X216135000Y-73647500I1535427J683042D01*
G01*
X216986682Y-72796744D02*
G75*
G02*
X217670000Y-72651500I683318J-1534756D01*
G01*
X217641195Y-72651247D02*
G75*
G02*
X218354000Y-72796500I28805J-1680253D01*
G01*
X218353042Y-75866927D02*
G75*
G02*
X216986000Y-75866500I-683042J1535427D01*
G01*
X219205427Y-73648458D02*
G75*
G02*
X219205000Y-75015500I-1535427J-683042D01*
G01*
X94110000Y-74331500D02*
G75*
G02*
X90750000Y-74331500I-1680000J0D01*
G01*
X90750000Y-74331500D02*
G75*
G02*
X94110000Y-74331500I1680000J0D01*
G01*
X99110000Y-74331500D02*
G75*
G02*
X95750000Y-74331500I-1680000J0D01*
G01*
X95750000Y-74331500D02*
G75*
G02*
X99110000Y-74331500I1680000J0D01*
G01*
X99110000Y-144950000D02*
G75*
G02*
X95750000Y-144950000I-1680000J0D01*
G01*
X95750000Y-144950000D02*
G75*
G02*
X99110000Y-144950000I1680000J0D01*
G01*
X104110000Y-74331500D02*
G75*
G02*
X100750000Y-74331500I-1680000J0D01*
G01*
X100750000Y-74331500D02*
G75*
G02*
X104110000Y-74331500I1680000J0D01*
G01*
X104110000Y-144950000D02*
G75*
G02*
X100750000Y-144950000I-1680000J0D01*
G01*
X100750000Y-144950000D02*
G75*
G02*
X104110000Y-144950000I1680000J0D01*
G01*
X109110000Y-74331500D02*
G75*
G02*
X105750000Y-74331500I-1680000J0D01*
G01*
X105750000Y-74331500D02*
G75*
G02*
X109110000Y-74331500I1680000J0D01*
G01*
X109110000Y-144950000D02*
G75*
G02*
X105750000Y-144950000I-1680000J0D01*
G01*
X105750000Y-144950000D02*
G75*
G02*
X109110000Y-144950000I1680000J0D01*
G01*
X114110000Y-74331500D02*
G75*
G02*
X110750000Y-74331500I-1680000J0D01*
G01*
X110750000Y-74331500D02*
G75*
G02*
X114110000Y-74331500I1680000J0D01*
G01*
X114110000Y-144950000D02*
G75*
G02*
X110750000Y-144950000I-1680000J0D01*
G01*
X110750000Y-144950000D02*
G75*
G02*
X114110000Y-144950000I1680000J0D01*
G01*
X119110000Y-74331500D02*
G75*
G02*
X115750000Y-74331500I-1680000J0D01*
G01*
X115750000Y-74331500D02*
G75*
G02*
X119110000Y-74331500I1680000J0D01*
G01*
X119110000Y-144950000D02*
G75*
G02*
X115750000Y-144950000I-1680000J0D01*
G01*
X115750000Y-144950000D02*
G75*
G02*
X119110000Y-144950000I1680000J0D01*
G01*
X124110000Y-74331500D02*
G75*
G02*
X120750000Y-74331500I-1680000J0D01*
G01*
X120750000Y-74331500D02*
G75*
G02*
X124110000Y-74331500I1680000J0D01*
G01*
X124110000Y-144950000D02*
G75*
G02*
X120750000Y-144950000I-1680000J0D01*
G01*
X120750000Y-144950000D02*
G75*
G02*
X124110000Y-144950000I1680000J0D01*
G01*
X129110000Y-74331500D02*
G75*
G02*
X125750000Y-74331500I-1680000J0D01*
G01*
X125750000Y-74331500D02*
G75*
G02*
X129110000Y-74331500I1680000J0D01*
G01*
X129110000Y-144950000D02*
G75*
G02*
X125750000Y-144950000I-1680000J0D01*
G01*
X125750000Y-144950000D02*
G75*
G02*
X129110000Y-144950000I1680000J0D01*
G01*
X134110000Y-74331500D02*
G75*
G02*
X130750000Y-74331500I-1680000J0D01*
G01*
X130750000Y-74331500D02*
G75*
G02*
X134110000Y-74331500I1680000J0D01*
G01*
X134110000Y-144950000D02*
G75*
G02*
X130750000Y-144950000I-1680000J0D01*
G01*
X130750000Y-144950000D02*
G75*
G02*
X134110000Y-144950000I1680000J0D01*
G01*
X139110000Y-74331500D02*
G75*
G02*
X135750000Y-74331500I-1680000J0D01*
G01*
X135750000Y-74331500D02*
G75*
G02*
X139110000Y-74331500I1680000J0D01*
G01*
X139110000Y-144950000D02*
G75*
G02*
X135750000Y-144950000I-1680000J0D01*
G01*
X135750000Y-144950000D02*
G75*
G02*
X139110000Y-144950000I1680000J0D01*
G01*
X144110000Y-74331500D02*
G75*
G02*
X140750000Y-74331500I-1680000J0D01*
G01*
X140750000Y-74331500D02*
G75*
G02*
X144110000Y-74331500I1680000J0D01*
G01*
X144110000Y-144950000D02*
G75*
G02*
X140750000Y-144950000I-1680000J0D01*
G01*
X140750000Y-144950000D02*
G75*
G02*
X144110000Y-144950000I1680000J0D01*
G01*
X149110000Y-144950000D02*
G75*
G02*
X145750000Y-144950000I-1680000J0D01*
G01*
X145750000Y-144950000D02*
G75*
G02*
X149110000Y-144950000I1680000J0D01*
G01*
X164350000Y-74331500D02*
G75*
G02*
X160990000Y-74331500I-1680000J0D01*
G01*
X160990000Y-74331500D02*
G75*
G02*
X164350000Y-74331500I1680000J0D01*
G01*
X169350000Y-74331500D02*
G75*
G02*
X165990000Y-74331500I-1680000J0D01*
G01*
X165990000Y-74331500D02*
G75*
G02*
X169350000Y-74331500I1680000J0D01*
G01*
X169350000Y-144950000D02*
G75*
G02*
X165990000Y-144950000I-1680000J0D01*
G01*
X165990000Y-144950000D02*
G75*
G02*
X169350000Y-144950000I1680000J0D01*
G01*
X174350000Y-74331500D02*
G75*
G02*
X170990000Y-74331500I-1680000J0D01*
G01*
X170990000Y-74331500D02*
G75*
G02*
X174350000Y-74331500I1680000J0D01*
G01*
X174350000Y-144950000D02*
G75*
G02*
X170990000Y-144950000I-1680000J0D01*
G01*
X170990000Y-144950000D02*
G75*
G02*
X174350000Y-144950000I1680000J0D01*
G01*
X179350000Y-74331500D02*
G75*
G02*
X175990000Y-74331500I-1680000J0D01*
G01*
X175990000Y-74331500D02*
G75*
G02*
X179350000Y-74331500I1680000J0D01*
G01*
X179350000Y-144950000D02*
G75*
G02*
X175990000Y-144950000I-1680000J0D01*
G01*
X175990000Y-144950000D02*
G75*
G02*
X179350000Y-144950000I1680000J0D01*
G01*
X184350000Y-74331500D02*
G75*
G02*
X180990000Y-74331500I-1680000J0D01*
G01*
X180990000Y-74331500D02*
G75*
G02*
X184350000Y-74331500I1680000J0D01*
G01*
X184350000Y-144950000D02*
G75*
G02*
X180990000Y-144950000I-1680000J0D01*
G01*
X180990000Y-144950000D02*
G75*
G02*
X184350000Y-144950000I1680000J0D01*
G01*
X189350000Y-74331500D02*
G75*
G02*
X185990000Y-74331500I-1680000J0D01*
G01*
X185990000Y-74331500D02*
G75*
G02*
X189350000Y-74331500I1680000J0D01*
G01*
X189350000Y-144950000D02*
G75*
G02*
X185990000Y-144950000I-1680000J0D01*
G01*
X185990000Y-144950000D02*
G75*
G02*
X189350000Y-144950000I1680000J0D01*
G01*
X194350000Y-74331500D02*
G75*
G02*
X190990000Y-74331500I-1680000J0D01*
G01*
X190990000Y-74331500D02*
G75*
G02*
X194350000Y-74331500I1680000J0D01*
G01*
X194350000Y-144950000D02*
G75*
G02*
X190990000Y-144950000I-1680000J0D01*
G01*
X190990000Y-144950000D02*
G75*
G02*
X194350000Y-144950000I1680000J0D01*
G01*
X199350000Y-74331500D02*
G75*
G02*
X195990000Y-74331500I-1680000J0D01*
G01*
X195990000Y-74331500D02*
G75*
G02*
X199350000Y-74331500I1680000J0D01*
G01*
X199350000Y-144950000D02*
G75*
G02*
X195990000Y-144950000I-1680000J0D01*
G01*
X195990000Y-144950000D02*
G75*
G02*
X199350000Y-144950000I1680000J0D01*
G01*
X204350000Y-74331500D02*
G75*
G02*
X200990000Y-74331500I-1680000J0D01*
G01*
X200990000Y-74331500D02*
G75*
G02*
X204350000Y-74331500I1680000J0D01*
G01*
X204350000Y-144950000D02*
G75*
G02*
X200990000Y-144950000I-1680000J0D01*
G01*
X200990000Y-144950000D02*
G75*
G02*
X204350000Y-144950000I1680000J0D01*
G01*
X209350000Y-74331500D02*
G75*
G02*
X205990000Y-74331500I-1680000J0D01*
G01*
X205990000Y-74331500D02*
G75*
G02*
X209350000Y-74331500I1680000J0D01*
G01*
X209350000Y-144950000D02*
G75*
G02*
X205990000Y-144950000I-1680000J0D01*
G01*
X205990000Y-144950000D02*
G75*
G02*
X209350000Y-144950000I1680000J0D01*
G01*
X214350000Y-74331500D02*
G75*
G02*
X210990000Y-74331500I-1680000J0D01*
G01*
X210990000Y-74331500D02*
G75*
G02*
X214350000Y-74331500I1680000J0D01*
G01*
X214350000Y-144950000D02*
G75*
G02*
X210990000Y-144950000I-1680000J0D01*
G01*
X210990000Y-144950000D02*
G75*
G02*
X214350000Y-144950000I1680000J0D01*
G01*
X219350000Y-144950000D02*
G75*
G02*
X215990000Y-144950000I-1680000J0D01*
G01*
X215990000Y-144950000D02*
G75*
G02*
X219350000Y-144950000I1680000J0D01*
G01*
D11*
%TO.C,K4*%
X172100000Y-118100000D02*
X187700000Y-118100000D01*
X172100000Y-137900000D02*
X172100000Y-118100000D01*
X172100000Y-137900000D02*
X178700000Y-137900000D01*
X173950000Y-130450000D02*
X173950000Y-132950000D01*
X173950000Y-130450000D02*
X178150000Y-130450000D01*
X175700000Y-122350000D02*
X178200000Y-122350000D01*
X178150000Y-128450000D02*
X181750000Y-128450000D01*
X178150000Y-132450000D02*
X178150000Y-128450000D01*
X179950000Y-125550000D02*
X177450000Y-120950000D01*
X179950000Y-127050000D02*
X179950000Y-125550000D01*
X179950000Y-127050000D02*
X183550000Y-127050000D01*
X179950000Y-133850000D02*
X179950000Y-134650000D01*
X179950000Y-133850000D02*
X183550000Y-133850000D01*
X181100000Y-137900000D02*
X187700000Y-137900000D01*
X181750000Y-128450000D02*
X178150000Y-132450000D01*
X181750000Y-128450000D02*
X181750000Y-132450000D01*
X181750000Y-130450000D02*
X185950000Y-130450000D01*
X181750000Y-132450000D02*
X178150000Y-132450000D01*
X183550000Y-127050000D02*
X183550000Y-133850000D01*
X184100000Y-122350000D02*
X181650000Y-122350000D01*
X185950000Y-132950000D02*
X185950000Y-130450000D01*
X187700000Y-118100000D02*
X187700000Y-137900000D01*
%TO.C,C3*%
X167065000Y-96961252D02*
X167065000Y-96438748D01*
X168535000Y-96961252D02*
X168535000Y-96438748D01*
%TO.C,R32*%
X142737258Y-98877500D02*
X142262742Y-98877500D01*
X142737258Y-99922500D02*
X142262742Y-99922500D01*
%TO.C,K5*%
X105900000Y-118050000D02*
X121500000Y-118050000D01*
X105900000Y-137850000D02*
X105900000Y-118050000D01*
X105900000Y-137850000D02*
X112500000Y-137850000D01*
X107750000Y-130400000D02*
X107750000Y-132900000D01*
X107750000Y-130400000D02*
X111950000Y-130400000D01*
X109500000Y-122300000D02*
X112000000Y-122300000D01*
X111950000Y-128400000D02*
X115550000Y-128400000D01*
X111950000Y-132400000D02*
X111950000Y-128400000D01*
X113750000Y-125500000D02*
X111250000Y-120900000D01*
X113750000Y-127000000D02*
X113750000Y-125500000D01*
X113750000Y-127000000D02*
X117350000Y-127000000D01*
X113750000Y-133800000D02*
X113750000Y-134600000D01*
X113750000Y-133800000D02*
X117350000Y-133800000D01*
X114900000Y-137850000D02*
X121500000Y-137850000D01*
X115550000Y-128400000D02*
X111950000Y-132400000D01*
X115550000Y-128400000D02*
X115550000Y-132400000D01*
X115550000Y-130400000D02*
X119750000Y-130400000D01*
X115550000Y-132400000D02*
X111950000Y-132400000D01*
X117350000Y-127000000D02*
X117350000Y-133800000D01*
X117900000Y-122300000D02*
X115450000Y-122300000D01*
X119750000Y-132900000D02*
X119750000Y-130400000D01*
X121500000Y-118050000D02*
X121500000Y-137850000D01*
%TO.C,C8*%
X136684420Y-115590000D02*
X136965580Y-115590000D01*
X136684420Y-116610000D02*
X136965580Y-116610000D01*
%TO.C,R15*%
X212337258Y-115727500D02*
X211862742Y-115727500D01*
X212337258Y-116772500D02*
X211862742Y-116772500D01*
%TO.C,R18*%
X213165000Y-132727064D02*
X213165000Y-132272936D01*
X214635000Y-132727064D02*
X214635000Y-132272936D01*
%TO.C,C7*%
X151359420Y-116490000D02*
X151640580Y-116490000D01*
X151359420Y-117510000D02*
X151640580Y-117510000D01*
%TO.C,U18*%
X163243000Y-88167500D02*
X163243000Y-89407500D01*
X163243000Y-89407500D02*
X164483000Y-89407500D01*
X163483000Y-80547500D02*
X175203000Y-80547500D01*
X163483000Y-89167500D02*
X163483000Y-80547500D01*
X175203000Y-80547500D02*
X175203000Y-89167500D01*
X175203000Y-89167500D02*
X163483000Y-89167500D01*
%TO.C,C9*%
X190759420Y-116590000D02*
X191040580Y-116590000D01*
X190759420Y-117610000D02*
X191040580Y-117610000D01*
%TO.C,R7*%
X100615000Y-134314564D02*
X100615000Y-133860436D01*
X102085000Y-134314564D02*
X102085000Y-133860436D01*
%TO.C,R10*%
X103962742Y-116840000D02*
X104437258Y-116840000D01*
X103962742Y-117885000D02*
X104437258Y-117885000D01*
%TO.C,R17*%
X210865000Y-132727064D02*
X210865000Y-132272936D01*
X212335000Y-132727064D02*
X212335000Y-132272936D01*
%TO.C,R28*%
X193812258Y-102977500D02*
X193337742Y-102977500D01*
X193812258Y-104022500D02*
X193337742Y-104022500D01*
%TO.C,J3*%
X149490000Y-82790000D02*
X149490000Y-100510000D01*
X149490000Y-100510000D02*
X153510000Y-100510000D01*
X149990000Y-83290000D02*
X151200000Y-83290000D01*
X149990000Y-100010000D02*
X149990000Y-83290000D01*
X151200000Y-83290000D02*
X151200000Y-82790000D01*
X151200000Y-100010000D02*
X149990000Y-100010000D01*
X151200000Y-100510000D02*
X151200000Y-100010000D01*
X151310000Y-100810000D02*
X153810000Y-100810000D01*
X152010000Y-82790000D02*
X152010000Y-83790000D01*
X152010000Y-83790000D02*
X153510000Y-83790000D01*
X152010000Y-99510000D02*
X153510000Y-99510000D01*
X152010000Y-100510000D02*
X152010000Y-99510000D01*
X153510000Y-82790000D02*
X149490000Y-82790000D01*
X153510000Y-100510000D02*
X153510000Y-82790000D01*
X153810000Y-100810000D02*
X153810000Y-98310000D01*
%TO.C,U2*%
X178985000Y-106440000D02*
X179230000Y-106440000D01*
X178985000Y-110300000D02*
X178985000Y-106440000D01*
X178985000Y-110300000D02*
X178985000Y-114160000D01*
X178985000Y-114160000D02*
X179230000Y-114160000D01*
X197105000Y-106440000D02*
X196860000Y-106440000D01*
X197105000Y-110300000D02*
X197105000Y-106440000D01*
X197105000Y-110300000D02*
X197105000Y-114160000D01*
X197105000Y-114160000D02*
X196860000Y-114160000D01*
X179230000Y-115012500D02*
X178760000Y-115352500D01*
X178760000Y-114672500D01*
X179230000Y-115012500D01*
G36*
X179230000Y-115012500D02*
G01*
X178760000Y-115352500D01*
X178760000Y-114672500D01*
X179230000Y-115012500D01*
G37*
%TO.C,R33*%
X140365000Y-82572936D02*
X140365000Y-83027064D01*
X141835000Y-82572936D02*
X141835000Y-83027064D01*
%TO.C,K6*%
X188600000Y-118100000D02*
X204200000Y-118100000D01*
X188600000Y-137900000D02*
X188600000Y-118100000D01*
X188600000Y-137900000D02*
X195200000Y-137900000D01*
X190450000Y-130450000D02*
X190450000Y-132950000D01*
X190450000Y-130450000D02*
X194650000Y-130450000D01*
X192200000Y-122350000D02*
X194700000Y-122350000D01*
X194650000Y-128450000D02*
X198250000Y-128450000D01*
X194650000Y-132450000D02*
X194650000Y-128450000D01*
X196450000Y-125550000D02*
X193950000Y-120950000D01*
X196450000Y-127050000D02*
X196450000Y-125550000D01*
X196450000Y-127050000D02*
X200050000Y-127050000D01*
X196450000Y-133850000D02*
X196450000Y-134650000D01*
X196450000Y-133850000D02*
X200050000Y-133850000D01*
X197600000Y-137900000D02*
X204200000Y-137900000D01*
X198250000Y-128450000D02*
X194650000Y-132450000D01*
X198250000Y-128450000D02*
X198250000Y-132450000D01*
X198250000Y-130450000D02*
X202450000Y-130450000D01*
X198250000Y-132450000D02*
X194650000Y-132450000D01*
X200050000Y-127050000D02*
X200050000Y-133850000D01*
X200600000Y-122350000D02*
X198150000Y-122350000D01*
X202450000Y-132950000D02*
X202450000Y-130450000D01*
X204200000Y-118100000D02*
X204200000Y-137900000D01*
%TO.C,F2*%
X88600000Y-111300000D02*
X91800000Y-111300000D01*
X88600000Y-126162000D02*
X88600000Y-111300000D01*
X88600000Y-132500000D02*
X88600000Y-127838000D01*
X91800000Y-111300000D02*
X91800000Y-115962000D01*
X91800000Y-117638000D02*
X91800000Y-132500000D01*
X91800000Y-132500000D02*
X88600000Y-132500000D01*
%TO.C,R37*%
X170337258Y-91777500D02*
X169862742Y-91777500D01*
X170337258Y-92822500D02*
X169862742Y-92822500D01*
%TO.C,K7*%
X104600000Y-80500000D02*
X120200000Y-80500000D01*
X104600000Y-100300000D02*
X104600000Y-80500000D01*
X104600000Y-100300000D02*
X111200000Y-100300000D01*
X106450000Y-92850000D02*
X106450000Y-95350000D01*
X106450000Y-92850000D02*
X110650000Y-92850000D01*
X108200000Y-84750000D02*
X110700000Y-84750000D01*
X110650000Y-90850000D02*
X114250000Y-90850000D01*
X110650000Y-94850000D02*
X110650000Y-90850000D01*
X112450000Y-87950000D02*
X109950000Y-83350000D01*
X112450000Y-89450000D02*
X112450000Y-87950000D01*
X112450000Y-89450000D02*
X116050000Y-89450000D01*
X112450000Y-96250000D02*
X112450000Y-97050000D01*
X112450000Y-96250000D02*
X116050000Y-96250000D01*
X113600000Y-100300000D02*
X120200000Y-100300000D01*
X114250000Y-90850000D02*
X110650000Y-94850000D01*
X114250000Y-90850000D02*
X114250000Y-94850000D01*
X114250000Y-92850000D02*
X118450000Y-92850000D01*
X114250000Y-94850000D02*
X110650000Y-94850000D01*
X116050000Y-89450000D02*
X116050000Y-96250000D01*
X116600000Y-84750000D02*
X114150000Y-84750000D01*
X118450000Y-95350000D02*
X118450000Y-92850000D01*
X120200000Y-80500000D02*
X120200000Y-100300000D01*
%TO.C,R20*%
X208065000Y-132727064D02*
X208065000Y-132272936D01*
X209535000Y-132727064D02*
X209535000Y-132272936D01*
%TO.C,U1*%
X203250000Y-84365000D02*
X203250000Y-86600000D01*
X203250000Y-88600000D02*
X203250000Y-90835000D01*
X203250000Y-90835000D02*
X208450000Y-90835000D01*
X208450000Y-84365000D02*
X203250000Y-84365000D01*
X208450000Y-90835000D02*
X208450000Y-84365000D01*
X203250000Y-86600000D02*
G75*
G02*
X203250000Y-88600000I0J-1000000D01*
G01*
%TO.C,R29*%
X212327500Y-95737258D02*
X212327500Y-95262742D01*
X213372500Y-95737258D02*
X213372500Y-95262742D01*
%TO.C,R22*%
X208812742Y-115727500D02*
X209287258Y-115727500D01*
X208812742Y-116772500D02*
X209287258Y-116772500D01*
%TO.C,R36*%
X143565000Y-82585436D02*
X143565000Y-83039564D01*
X145035000Y-82585436D02*
X145035000Y-83039564D01*
%TO.C,C10*%
X168659420Y-115490000D02*
X168940580Y-115490000D01*
X168659420Y-116510000D02*
X168940580Y-116510000D01*
%TO.C,R31*%
X145862742Y-98877500D02*
X146337258Y-98877500D01*
X145862742Y-99922500D02*
X146337258Y-99922500D01*
%TO.C,R16*%
X206237258Y-115727500D02*
X205762742Y-115727500D01*
X206237258Y-116772500D02*
X205762742Y-116772500D01*
%TO.C,R4*%
X101412258Y-116840000D02*
X100937742Y-116840000D01*
X101412258Y-117885000D02*
X100937742Y-117885000D01*
%TO.C,R6*%
X98265000Y-134264564D02*
X98265000Y-133810436D01*
X99735000Y-134264564D02*
X99735000Y-133810436D01*
%TD*%
%LPC*%
D12*
%TO.C,J2*%
X180000000Y-86000000D03*
D13*
X180000000Y-88500000D03*
X180000000Y-91000000D03*
X180000000Y-93500000D03*
X180000000Y-96000000D03*
X180000000Y-98500000D03*
%TD*%
D14*
%TO.C,R40*%
X172350000Y-90800000D03*
X174000000Y-90800000D03*
%TD*%
D15*
%TO.C,U4*%
X140545000Y-114950000D03*
X141815000Y-114950000D03*
X143085000Y-114950000D03*
X144355000Y-114950000D03*
X145625000Y-114950000D03*
X146895000Y-114950000D03*
X148165000Y-114950000D03*
X149435000Y-114950000D03*
X150705000Y-114950000D03*
X151975000Y-114950000D03*
X153245000Y-114950000D03*
X154515000Y-114950000D03*
X155785000Y-114950000D03*
X157055000Y-114950000D03*
X157055000Y-105650000D03*
X155785000Y-105650000D03*
X154515000Y-105650000D03*
X153245000Y-105650000D03*
X151975000Y-105650000D03*
X150705000Y-105650000D03*
X149435000Y-105650000D03*
X148165000Y-105650000D03*
X146895000Y-105650000D03*
X145625000Y-105650000D03*
X144355000Y-105650000D03*
X143085000Y-105650000D03*
X141815000Y-105650000D03*
X140545000Y-105650000D03*
%TD*%
D16*
%TO.C,R34*%
X138000000Y-81875000D03*
X138000000Y-83700000D03*
%TD*%
D17*
%TO.C,K3*%
X163400000Y-136500000D03*
D18*
X169450000Y-134550000D03*
D17*
X169450000Y-122350000D03*
X157400000Y-122300000D03*
D18*
X157450000Y-134550000D03*
%TD*%
D19*
%TO.C,R5*%
X96650000Y-134912500D03*
X96650000Y-133087500D03*
%TD*%
%TO.C,R8*%
X103750000Y-135000000D03*
X103750000Y-133175000D03*
%TD*%
%TO.C,R19*%
X206300000Y-133412500D03*
X206300000Y-131587500D03*
%TD*%
D20*
%TO.C,U16*%
X141070000Y-85935000D03*
X138530000Y-85935000D03*
X138530000Y-95465000D03*
X141070000Y-95465000D03*
%TD*%
D21*
%TO.C,C4*%
X171347349Y-98700000D03*
D22*
X174847349Y-98700000D03*
%TD*%
D23*
%TO.C,R3*%
X96000000Y-117362500D03*
X94350000Y-117362500D03*
%TD*%
D24*
%TO.C,U5*%
X118520000Y-107150000D03*
X117250000Y-107150000D03*
X115980000Y-107150000D03*
X114710000Y-107150000D03*
X113440000Y-107150000D03*
X112170000Y-107150000D03*
X110900000Y-107150000D03*
X109630000Y-107150000D03*
X108360000Y-107150000D03*
X108360000Y-116450000D03*
X109630000Y-116450000D03*
X110900000Y-116450000D03*
X112170000Y-116450000D03*
X113440000Y-116450000D03*
X114710000Y-116450000D03*
X115980000Y-116450000D03*
X117250000Y-116450000D03*
X118520000Y-116450000D03*
%TD*%
D23*
%TO.C,R39*%
X170925000Y-93800000D03*
X169275000Y-93800000D03*
%TD*%
D25*
%TO.C,C1*%
X96000000Y-111300000D03*
D26*
X101000000Y-111300000D03*
%TD*%
D25*
%TO.C,C2*%
X96000000Y-100700000D03*
D26*
X101000000Y-100700000D03*
%TD*%
D17*
%TO.C,K1*%
X130200000Y-136450000D03*
D18*
X136250000Y-134500000D03*
D17*
X136250000Y-122300000D03*
X124200000Y-122250000D03*
D18*
X124250000Y-134500000D03*
%TD*%
D16*
%TO.C,R35*%
X146800000Y-81887500D03*
X146800000Y-83712500D03*
%TD*%
D27*
%TO.C,U15*%
X210280000Y-92365000D03*
X212820000Y-92365000D03*
X212820000Y-82835000D03*
X210280000Y-82835000D03*
%TD*%
%TO.C,U11*%
X206400000Y-128900000D03*
X208940000Y-128900000D03*
X208940000Y-119370000D03*
X206400000Y-119370000D03*
%TD*%
%TO.C,U6*%
X95460000Y-130500000D03*
X98000000Y-130500000D03*
X98000000Y-120970000D03*
X95460000Y-120970000D03*
%TD*%
D28*
%TO.C,D7*%
X90000000Y-107400000D03*
D29*
X90000000Y-102320000D03*
X90000000Y-97240000D03*
X90000000Y-92160000D03*
%TD*%
D14*
%TO.C,R27*%
X151600000Y-103600000D03*
X153250000Y-103600000D03*
%TD*%
D17*
%TO.C,K8*%
X128650000Y-98950000D03*
D18*
X134700000Y-97000000D03*
D17*
X134700000Y-84800000D03*
X122650000Y-84750000D03*
D18*
X122700000Y-97000000D03*
%TD*%
D30*
%TO.C,C6*%
X161400000Y-84750000D03*
X161400000Y-82850000D03*
%TD*%
D14*
%TO.C,R9*%
X97350000Y-117362500D03*
X99000000Y-117362500D03*
%TD*%
D27*
%TO.C,U7*%
X101230000Y-130565000D03*
X103770000Y-130565000D03*
X103770000Y-121035000D03*
X101230000Y-121035000D03*
%TD*%
%TO.C,U10*%
X212230000Y-128865000D03*
X214770000Y-128865000D03*
X214770000Y-119335000D03*
X212230000Y-119335000D03*
%TD*%
D17*
%TO.C,K2*%
X146700000Y-136450000D03*
D18*
X152750000Y-134500000D03*
D17*
X152750000Y-122300000D03*
X140700000Y-122250000D03*
D18*
X140750000Y-134500000D03*
%TD*%
D23*
%TO.C,R38*%
X170925000Y-90800000D03*
X169275000Y-90800000D03*
%TD*%
D31*
%TO.C,R30*%
X207050000Y-96250000D03*
X207050000Y-94600000D03*
%TD*%
D14*
%TO.C,R21*%
X214325000Y-116250000D03*
X215975000Y-116250000D03*
%TD*%
D32*
%TO.C,J4*%
X157050000Y-97900000D03*
D13*
X157050000Y-95400000D03*
X157050000Y-92900000D03*
X157050000Y-90400000D03*
X157050000Y-87900000D03*
X157050000Y-85400000D03*
%TD*%
D20*
%TO.C,U17*%
X146770000Y-85935000D03*
X144230000Y-85935000D03*
X144230000Y-95465000D03*
X146770000Y-95465000D03*
%TD*%
D33*
%TO.C,MOD1*%
X92430000Y-144950000D03*
D34*
X97430000Y-144950000D03*
X102430000Y-144950000D03*
X107430000Y-144950000D03*
X112430000Y-144950000D03*
X117430000Y-144950000D03*
X122430000Y-144950000D03*
X127430000Y-144950000D03*
X132430000Y-144950000D03*
X137430000Y-144950000D03*
X142430000Y-144950000D03*
X147430000Y-144950000D03*
D33*
X162670000Y-144950000D03*
D34*
X167670000Y-144950000D03*
X172670000Y-144950000D03*
X177670000Y-144950000D03*
X182670000Y-144950000D03*
X187670000Y-144950000D03*
X192670000Y-144950000D03*
X197670000Y-144950000D03*
X202670000Y-144950000D03*
X207670000Y-144950000D03*
X212670000Y-144950000D03*
X217670000Y-144950000D03*
D33*
X217670000Y-74331500D03*
D34*
X212670000Y-74331500D03*
X207670000Y-74331500D03*
X202670000Y-74331500D03*
X197670000Y-74331500D03*
X192670000Y-74331500D03*
X187670000Y-74331500D03*
X182670000Y-74331500D03*
X177670000Y-74331500D03*
X172670000Y-74331500D03*
X167670000Y-74331500D03*
X162670000Y-74331500D03*
D33*
X147430000Y-74331500D03*
D34*
X142430000Y-74331500D03*
X137430000Y-74331500D03*
X132430000Y-74331500D03*
X127430000Y-74331500D03*
X122430000Y-74331500D03*
X117430000Y-74331500D03*
X112430000Y-74331500D03*
X107430000Y-74331500D03*
X102430000Y-74331500D03*
X97430000Y-74331500D03*
X92430000Y-74331500D03*
D33*
X152510000Y-144950000D03*
D34*
X157590000Y-144950000D03*
D33*
X157590000Y-74331500D03*
D34*
X152510000Y-74331500D03*
D35*
X91875000Y-85075000D03*
X91875000Y-134825000D03*
X218225000Y-85075000D03*
X218225000Y-134825000D03*
%TD*%
D17*
%TO.C,K4*%
X179900000Y-136500000D03*
D18*
X185950000Y-134550000D03*
D17*
X185950000Y-122350000D03*
X173900000Y-122300000D03*
D18*
X173950000Y-134550000D03*
%TD*%
D30*
%TO.C,C3*%
X167800000Y-97650000D03*
X167800000Y-95750000D03*
%TD*%
D23*
%TO.C,R32*%
X143325000Y-99400000D03*
X141675000Y-99400000D03*
%TD*%
D17*
%TO.C,K5*%
X113700000Y-136450000D03*
D18*
X119750000Y-134500000D03*
D17*
X119750000Y-122300000D03*
X107700000Y-122250000D03*
D18*
X107750000Y-134500000D03*
%TD*%
D36*
%TO.C,C8*%
X136050000Y-116100000D03*
X137600000Y-116100000D03*
%TD*%
D23*
%TO.C,R15*%
X212925000Y-116250000D03*
X211275000Y-116250000D03*
%TD*%
D19*
%TO.C,R18*%
X213900000Y-133412500D03*
X213900000Y-131587500D03*
%TD*%
D36*
%TO.C,C7*%
X150725000Y-117000000D03*
X152275000Y-117000000D03*
%TD*%
D37*
%TO.C,U18*%
X166853000Y-87107500D03*
D38*
X169393000Y-87107500D03*
X171933000Y-87107500D03*
%TD*%
D36*
%TO.C,C9*%
X190125000Y-117100000D03*
X191675000Y-117100000D03*
%TD*%
D19*
%TO.C,R7*%
X101350000Y-135000000D03*
X101350000Y-133175000D03*
%TD*%
D14*
%TO.C,R10*%
X103375000Y-117362500D03*
X105025000Y-117362500D03*
%TD*%
D19*
%TO.C,R17*%
X211600000Y-133412500D03*
X211600000Y-131587500D03*
%TD*%
D23*
%TO.C,R28*%
X194400000Y-103500000D03*
X192750000Y-103500000D03*
%TD*%
D32*
%TO.C,J3*%
X151200000Y-97900000D03*
D13*
X151200000Y-95400000D03*
X151200000Y-92900000D03*
X151200000Y-90400000D03*
X151200000Y-87900000D03*
X151200000Y-85400000D03*
%TD*%
D15*
%TO.C,U2*%
X179790000Y-114950000D03*
X181060000Y-114950000D03*
X182330000Y-114950000D03*
X183600000Y-114950000D03*
X184870000Y-114950000D03*
X186140000Y-114950000D03*
X187410000Y-114950000D03*
X188680000Y-114950000D03*
X189950000Y-114950000D03*
X191220000Y-114950000D03*
X192490000Y-114950000D03*
X193760000Y-114950000D03*
X195030000Y-114950000D03*
X196300000Y-114950000D03*
X196300000Y-105650000D03*
X195030000Y-105650000D03*
X193760000Y-105650000D03*
X192490000Y-105650000D03*
X191220000Y-105650000D03*
X189950000Y-105650000D03*
X188680000Y-105650000D03*
X187410000Y-105650000D03*
X186140000Y-105650000D03*
X184870000Y-105650000D03*
X183600000Y-105650000D03*
X182330000Y-105650000D03*
X181060000Y-105650000D03*
X179790000Y-105650000D03*
%TD*%
D16*
%TO.C,R33*%
X141100000Y-81887500D03*
X141100000Y-83712500D03*
%TD*%
D17*
%TO.C,K6*%
X196400000Y-136500000D03*
D18*
X202450000Y-134550000D03*
D17*
X202450000Y-122350000D03*
X190400000Y-122300000D03*
D18*
X190450000Y-134550000D03*
%TD*%
D39*
%TO.C,F2*%
X90800000Y-116800000D03*
X89600000Y-127000000D03*
%TD*%
D23*
%TO.C,R37*%
X170925000Y-92300000D03*
X169275000Y-92300000D03*
%TD*%
D17*
%TO.C,K7*%
X112400000Y-98900000D03*
D18*
X118450000Y-96950000D03*
D17*
X118450000Y-84750000D03*
X106400000Y-84700000D03*
D18*
X106450000Y-96950000D03*
%TD*%
D19*
%TO.C,R20*%
X208800000Y-133412500D03*
X208800000Y-131587500D03*
%TD*%
D27*
%TO.C,U1*%
X204580000Y-92365000D03*
X207120000Y-92365000D03*
X207120000Y-82835000D03*
X204580000Y-82835000D03*
%TD*%
D31*
%TO.C,R29*%
X212850000Y-96325000D03*
X212850000Y-94675000D03*
%TD*%
D14*
%TO.C,R22*%
X208225000Y-116250000D03*
X209875000Y-116250000D03*
%TD*%
D16*
%TO.C,R36*%
X144300000Y-81900000D03*
X144300000Y-83725000D03*
%TD*%
D36*
%TO.C,C10*%
X168025000Y-116000000D03*
X169575000Y-116000000D03*
%TD*%
D14*
%TO.C,R31*%
X145275000Y-99400000D03*
X146925000Y-99400000D03*
%TD*%
D23*
%TO.C,R16*%
X206825000Y-116250000D03*
X205175000Y-116250000D03*
%TD*%
%TO.C,R4*%
X102000000Y-117362500D03*
X100350000Y-117362500D03*
%TD*%
D19*
%TO.C,R6*%
X99000000Y-134950000D03*
X99000000Y-133125000D03*
%TD*%
%LPD*%
M02*
