M48
; DRILL file {KiCad 9.0.3} date 2025-11-14T19:54:21+0100
; FORMAT={-:-/ absolute / inch / decimal}
; #@! TF.CreationDate,2025-11-14T19:54:21+01:00
; #@! TF.GenerationSoftware,Kicad,Pcbnew,9.0.3
; #@! TF.FileFunction,Plated,1,2,PTH
FMAT,2
INCH
; #@! TA.AperFunction,Plated,PTH,ViaDrill
T1C0.0079
; #@! TA.AperFunction,Plated,PTH,ViaDrill
T2C0.0118
; #@! TA.AperFunction,Plated,PTH,ViaDrill
T3C0.0157
; #@! TA.AperFunction,Plated,PTH,ComponentDrill
T4C0.0315
; #@! TA.AperFunction,Plated,PTH,ComponentDrill
T5C0.0374
; #@! TA.AperFunction,Plated,PTH,ComponentDrill
T6C0.0394
; #@! TA.AperFunction,Plated,PTH,ComponentDrill
T7C0.0398
; #@! TA.AperFunction,Plated,PTH,ComponentDrill
T8C0.0512
; #@! TA.AperFunction,Plated,PTH,ComponentDrill
T9C0.0630
; #@! TA.AperFunction,Plated,PTH,ComponentDrill
T10C0.1260
%
G90
G05
T1
X3.8189Y-4.6614
X3.8583Y-4.7008
X3.9213Y-4.6929
X3.9764Y-4.0472
X3.9764Y-4.0866
X3.9764Y-4.126
X3.9764Y-4.1654
X3.9764Y-4.2047
X3.9764Y-4.2441
X3.9764Y-4.2913
X4.0315Y-4.6772
X4.0866Y-4.378
X4.0866Y-4.7047
X4.126Y-3.9843
X4.2992Y-4.4409
X4.378Y-3.9843
X4.4803Y-3.9843
X4.8346Y-4.2126
X4.8425Y-4.247
X4.8425Y-4.3504
X5.2126Y-4.3504
X5.2323Y-4.3504
X5.2726Y-4.5277
X5.3189Y-4.5709
X5.3337Y-4.44
X5.3337Y-4.4902
X5.5059Y-4.5335
X5.6069Y-4.3707
X5.6457Y-4.3425
X5.6833Y-4.2087
X5.7039Y-4.3115
X5.7126Y-4.2874
X5.7625Y-4.37
X5.7697Y-4.3455
X5.8268Y-4.7165
X6.0827Y-4.0984
X6.0827Y-4.4488
X6.1339Y-4.0984
X6.1339Y-4.4252
X6.1811Y-4.1024
X6.4173Y-4.4173
X6.4488Y-4.7165
X6.4606Y-4.3898
X6.4961Y-3.8071
X6.5Y-3.9055
X6.5305Y-4.4488
X6.5315Y-3.6339
X6.5325Y-4.5197
X6.5354Y-4.6142
X6.5354Y-4.7165
X6.5551Y-3.5748
X6.5748Y-4.4478
X6.5866Y-3.9055
X6.6535Y-3.7717
X6.685Y-3.9055
X6.7047Y-3.7402
X6.7087Y-3.8071
X6.8031Y-3.622
X6.8071Y-3.8898
X6.9488Y-4.0315
X7.4646Y-4.0157
X7.4961Y-4.2244
X7.5315Y-4.2756
X7.6299Y-4.2205
X7.6299Y-4.4685
X7.6772Y-4.2165
X7.6783Y-4.4498
X7.6969Y-4.0748
X7.7283Y-4.2165
X7.748Y-4.2756
X7.752Y-4.4606
X7.7559Y-4.5827
X7.8337Y-4.2402
X7.8346Y-4.4302
X7.8386Y-4.4685
X7.8386Y-4.5079
X7.8543Y-4.2717
X7.8543Y-4.4094
X7.8898Y-4.2717
X7.8898Y-4.3898
X8.0104Y-3.6364
X8.0906Y-4.378
X8.1142Y-4.5079
X8.2126Y-4.3976
X8.2283Y-4.5039
X8.2323Y-3.6378
X8.2638Y-4.624
X8.3346Y-4.3425
X8.3504Y-4.5079
X8.4567Y-4.3583
X8.4685Y-4.5079
X8.4902Y-4.6299
T2
X3.7785Y-4.5891
X3.8337Y-4.5891
X3.8504Y-5.3622
X3.9409Y-5.3622
X4.0148Y-4.5891
X4.0315Y-5.3622
X4.0659Y-4.5891
X4.1634Y-4.7067
X4.1811Y-4.5827
X4.2677Y-4.6378
X4.3346Y-4.2953
X4.6496Y-4.6929
X4.6614Y-5.5472
X4.7803Y-4.5819
X4.874Y-4.4094
X4.874Y-4.689
X4.9331Y-5.5472
X5.4331Y-3.185
X5.4449Y-4.5709
X5.4539Y-3.8138
X5.6783Y-3.8122
X5.6811Y-3.189
X5.685Y-3.9134
X5.8976Y-4.6122
X5.937Y-4.0787
X6.0276Y-4.6063
X6.3386Y-3.3622
X6.5827Y-4.5669
X6.7008Y-5.0591
X6.7087Y-4.5669
X6.8504Y-3.4843
X6.935Y-5.0591
X7.2638Y-5.5591
X7.4567Y-4.6102
X7.5787Y-4.6102
X8.063Y-4.7008
X8.1427Y-4.5433
X8.1693Y-5.3071
X8.1988Y-4.5433
X8.2756Y-5.3071
X8.2913Y-4.7008
X8.3819Y-5.3071
X8.3839Y-4.5433
X8.435Y-4.5433
X8.5197Y-4.7008
T3
X4.5906Y-4.9409
X4.6142Y-4.9134
X4.6142Y-4.9685
X4.6378Y-4.9409
X6.437Y-5.1457
X6.4803Y-5.1457
X6.5197Y-5.1457
T4
X6.746Y-3.8858
X6.8838Y-3.8858
T5
X5.9528Y-3.3622
X5.9528Y-3.4606
X5.9528Y-3.5591
X5.9528Y-3.6575
X5.9528Y-3.7559
X5.9528Y-3.8543
X6.1831Y-3.3622
X6.1831Y-3.4606
X6.1831Y-3.5591
X6.1831Y-3.6575
X6.1831Y-3.7559
X6.1831Y-3.8543
X7.0866Y-3.3858
X7.0866Y-3.4843
X7.0866Y-3.5827
X7.0866Y-3.6811
X7.0866Y-3.7795
X7.0866Y-3.878
T6
X3.7795Y-3.9646
X3.7795Y-4.3819
X3.9764Y-3.9646
X3.9764Y-4.3819
X4.1909Y-3.8169
X4.2421Y-5.2953
X4.6634Y-3.8169
X4.7146Y-5.2953
X4.8307Y-3.8189
X4.8917Y-5.2953
X5.3031Y-3.8189
X5.3642Y-5.2953
X5.5413Y-5.2953
X6.0138Y-5.2953
X6.1988Y-5.2972
X6.569Y-3.4294
X6.669Y-3.4294
X6.6713Y-5.2972
X6.769Y-3.4294
X6.8484Y-5.2972
X7.3209Y-5.2972
X7.498Y-5.2972
X7.9705Y-5.2972
T7
X3.5276Y-5.0
X3.5748Y-4.5984
T8
X3.639Y-2.9264
X3.639Y-5.7067
X3.8358Y-2.9264
X3.8358Y-5.7067
X4.0327Y-2.9264
X4.0327Y-5.7067
X4.189Y-3.3346
X4.2295Y-2.9264
X4.2295Y-5.7067
X4.2402Y-4.813
X4.4252Y-3.8937
X4.4264Y-2.9264
X4.4264Y-5.7067
X4.4764Y-5.372
X4.6232Y-2.9264
X4.6232Y-5.7067
X4.6634Y-3.3366
X4.7146Y-4.815
X4.8201Y-2.9264
X4.8201Y-5.7067
X4.8287Y-3.3366
X4.8898Y-4.813
X5.0169Y-2.9264
X5.0169Y-5.7067
X5.065Y-3.8957
X5.126Y-5.372
X5.2138Y-2.9264
X5.2138Y-5.7067
X5.3031Y-3.3386
X5.3642Y-4.815
X5.4106Y-2.9264
X5.4106Y-5.7067
X5.5394Y-4.813
X5.6075Y-2.9264
X5.6075Y-5.7067
X5.7756Y-5.372
X5.8043Y-2.9264
X5.8043Y-5.7067
X6.0043Y-2.9264
X6.0043Y-5.7067
X6.0138Y-4.815
X6.1969Y-4.815
X6.2043Y-2.9264
X6.2043Y-5.7067
X6.4043Y-2.9264
X6.4043Y-5.7067
X6.4331Y-5.374
X6.6012Y-2.9264
X6.6012Y-5.7067
X6.6713Y-4.8169
X6.798Y-2.9264
X6.798Y-5.7067
X6.8465Y-4.815
X6.9949Y-2.9264
X6.9949Y-5.7067
X7.0827Y-5.374
X7.1917Y-2.9264
X7.1917Y-5.7067
X7.3209Y-4.8169
X7.3886Y-2.9264
X7.3886Y-5.7067
X7.4961Y-4.815
X7.5854Y-2.9264
X7.5854Y-5.7067
X7.7323Y-5.374
X7.7823Y-2.9264
X7.7823Y-5.7067
X7.9705Y-4.8169
X7.9791Y-2.9264
X7.9791Y-5.7067
X8.176Y-2.9264
X8.176Y-5.7067
X8.3728Y-2.9264
X8.3728Y-5.7067
X8.5697Y-2.9264
X8.5697Y-5.7067
T9
X3.5433Y-3.6283
X3.5433Y-3.8283
X3.5433Y-4.0283
X3.5433Y-4.2283
T10
X3.6171Y-3.3494
X3.6171Y-5.3081
X8.5915Y-3.3494
X8.5915Y-5.3081
M30
