%TF.GenerationSoftware,KiCad,Pcbnew,9.0.3*%
%TF.CreationDate,2025-11-14T19:54:21+01:00*%
%TF.ProjectId,ESPhome_greenhouse_controller,45535068-6f6d-4655-9f67-7265656e686f,rev?*%
%TF.SameCoordinates,Original*%
%TF.FileFunction,Legend,Bot*%
%TF.FilePolarity,Positive*%
%FSLAX46Y46*%
G04 Gerber Fmt 4.6, Leading zero omitted, Abs format (unit mm)*
G04 Created by KiCad (PCBNEW 9.0.3) date 2025-11-14 19:54:21*
%MOMM*%
%LPD*%
G01*
G04 APERTURE LIST*
G04 Aperture macros list*
%AMRoundRect*
0 Rectangle with rounded corners*
0 $1 Rounding radius*
0 $2 $3 $4 $5 $6 $7 $8 $9 X,Y pos of 4 corners*
0 Add a 4 corners polygon primitive as box body*
4,1,4,$2,$3,$4,$5,$6,$7,$8,$9,$2,$3,0*
0 Add four circle primitives for the rounded corners*
1,1,$1+$1,$2,$3*
1,1,$1+$1,$4,$5*
1,1,$1+$1,$6,$7*
1,1,$1+$1,$8,$9*
0 Add four rect primitives between the rounded corners*
20,1,$1+$1,$2,$3,$4,$5,0*
20,1,$1+$1,$4,$5,$6,$7,0*
20,1,$1+$1,$6,$7,$8,$9,0*
20,1,$1+$1,$8,$9,$2,$3,0*%
%AMFreePoly0*
4,1,23,0.500000,-0.750000,0.000000,-0.750000,0.000000,-0.745722,-0.065263,-0.745722,-0.191342,-0.711940,-0.304381,-0.646677,-0.396677,-0.554381,-0.461940,-0.441342,-0.495722,-0.315263,-0.495722,-0.250000,-0.500000,-0.250000,-0.500000,0.250000,-0.495722,0.250000,-0.495722,0.315263,-0.461940,0.441342,-0.396677,0.554381,-0.304381,0.646677,-0.191342,0.711940,-0.065263,0.745722,0.000000,0.745722,
0.000000,0.750000,0.500000,0.750000,0.500000,-0.750000,0.500000,-0.750000,$1*%
%AMFreePoly1*
4,1,23,0.000000,0.745722,0.065263,0.745722,0.191342,0.711940,0.304381,0.646677,0.396677,0.554381,0.461940,0.441342,0.495722,0.315263,0.495722,0.250000,0.500000,0.250000,0.500000,-0.250000,0.495722,-0.250000,0.495722,-0.315263,0.461940,-0.441342,0.396677,-0.554381,0.304381,-0.646677,0.191342,-0.711940,0.065263,-0.745722,0.000000,-0.745722,0.000000,-0.750000,-0.500000,-0.750000,
-0.500000,0.750000,0.000000,0.750000,0.000000,0.745722,0.000000,0.745722,$1*%
G04 Aperture macros list end*
%ADD10C,0.150000*%
%ADD11C,0.120000*%
%ADD12RoundRect,0.250000X-0.725000X0.600000X-0.725000X-0.600000X0.725000X-0.600000X0.725000X0.600000X0*%
%ADD13O,1.950000X1.700000*%
%ADD14C,3.000000*%
%ADD15C,2.500000*%
%ADD16RoundRect,0.250000X-0.550000X-0.550000X0.550000X-0.550000X0.550000X0.550000X-0.550000X0.550000X0*%
%ADD17C,1.600000*%
%ADD18RoundRect,0.250000X-0.750000X-0.750000X0.750000X-0.750000X0.750000X0.750000X-0.750000X0.750000X0*%
%ADD19C,2.000000*%
%ADD20R,3.200000X3.200000*%
%ADD21C,3.200000*%
%ADD22RoundRect,0.250000X0.725000X-0.600000X0.725000X0.600000X-0.725000X0.600000X-0.725000X-0.600000X0*%
%ADD23R,2.600000X2.600000*%
%ADD24C,2.600000*%
%ADD25C,5.600000*%
%ADD26R,1.500000X2.300000*%
%ADD27O,1.500000X2.300000*%
%ADD28C,2.010000*%
%ADD29RoundRect,0.250000X0.450000X-0.262500X0.450000X0.262500X-0.450000X0.262500X-0.450000X-0.262500X0*%
%ADD30RoundRect,0.250000X0.500000X1.100000X-0.500000X1.100000X-0.500000X-1.100000X0.500000X-1.100000X0*%
%ADD31RoundRect,0.250000X-0.500000X-1.100000X0.500000X-1.100000X0.500000X1.100000X-0.500000X1.100000X0*%
%ADD32RoundRect,0.249999X0.640001X-0.750001X0.640001X0.750001X-0.640001X0.750001X-0.640001X-0.750001X0*%
%ADD33FreePoly0,0.000000*%
%ADD34FreePoly1,0.000000*%
%ADD35RoundRect,0.075000X-0.075000X0.650000X-0.075000X-0.650000X0.075000X-0.650000X0.075000X0.650000X0*%
%ADD36RoundRect,0.250000X-0.312500X-0.625000X0.312500X-0.625000X0.312500X0.625000X-0.312500X0.625000X0*%
G04 APERTURE END LIST*
D10*
X206612295Y-135148214D02*
X206231342Y-134881547D01*
X206612295Y-134691071D02*
X205812295Y-134691071D01*
X205812295Y-134691071D02*
X205812295Y-134995833D01*
X205812295Y-134995833D02*
X205850390Y-135072023D01*
X205850390Y-135072023D02*
X205888485Y-135110118D01*
X205888485Y-135110118D02*
X205964676Y-135148214D01*
X205964676Y-135148214D02*
X206078961Y-135148214D01*
X206078961Y-135148214D02*
X206155152Y-135110118D01*
X206155152Y-135110118D02*
X206193247Y-135072023D01*
X206193247Y-135072023D02*
X206231342Y-134995833D01*
X206231342Y-134995833D02*
X206231342Y-134691071D01*
X205888485Y-135452975D02*
X205850390Y-135491071D01*
X205850390Y-135491071D02*
X205812295Y-135567261D01*
X205812295Y-135567261D02*
X205812295Y-135757737D01*
X205812295Y-135757737D02*
X205850390Y-135833928D01*
X205850390Y-135833928D02*
X205888485Y-135872023D01*
X205888485Y-135872023D02*
X205964676Y-135910118D01*
X205964676Y-135910118D02*
X206040866Y-135910118D01*
X206040866Y-135910118D02*
X206155152Y-135872023D01*
X206155152Y-135872023D02*
X206612295Y-135414880D01*
X206612295Y-135414880D02*
X206612295Y-135910118D01*
X205812295Y-136595833D02*
X205812295Y-136443452D01*
X205812295Y-136443452D02*
X205850390Y-136367261D01*
X205850390Y-136367261D02*
X205888485Y-136329166D01*
X205888485Y-136329166D02*
X206002771Y-136252976D01*
X206002771Y-136252976D02*
X206155152Y-136214880D01*
X206155152Y-136214880D02*
X206459914Y-136214880D01*
X206459914Y-136214880D02*
X206536104Y-136252976D01*
X206536104Y-136252976D02*
X206574200Y-136291071D01*
X206574200Y-136291071D02*
X206612295Y-136367261D01*
X206612295Y-136367261D02*
X206612295Y-136519642D01*
X206612295Y-136519642D02*
X206574200Y-136595833D01*
X206574200Y-136595833D02*
X206536104Y-136633928D01*
X206536104Y-136633928D02*
X206459914Y-136672023D01*
X206459914Y-136672023D02*
X206269438Y-136672023D01*
X206269438Y-136672023D02*
X206193247Y-136633928D01*
X206193247Y-136633928D02*
X206155152Y-136595833D01*
X206155152Y-136595833D02*
X206117057Y-136519642D01*
X206117057Y-136519642D02*
X206117057Y-136367261D01*
X206117057Y-136367261D02*
X206155152Y-136291071D01*
X206155152Y-136291071D02*
X206193247Y-136252976D01*
X206193247Y-136252976D02*
X206269438Y-136214880D01*
X108738094Y-103454819D02*
X108738094Y-102454819D01*
X108738094Y-102454819D02*
X108499999Y-102454819D01*
X108499999Y-102454819D02*
X108357142Y-102502438D01*
X108357142Y-102502438D02*
X108261904Y-102597676D01*
X108261904Y-102597676D02*
X108214285Y-102692914D01*
X108214285Y-102692914D02*
X108166666Y-102883390D01*
X108166666Y-102883390D02*
X108166666Y-103026247D01*
X108166666Y-103026247D02*
X108214285Y-103216723D01*
X108214285Y-103216723D02*
X108261904Y-103311961D01*
X108261904Y-103311961D02*
X108357142Y-103407200D01*
X108357142Y-103407200D02*
X108499999Y-103454819D01*
X108499999Y-103454819D02*
X108738094Y-103454819D01*
X107595237Y-102883390D02*
X107690475Y-102835771D01*
X107690475Y-102835771D02*
X107738094Y-102788152D01*
X107738094Y-102788152D02*
X107785713Y-102692914D01*
X107785713Y-102692914D02*
X107785713Y-102645295D01*
X107785713Y-102645295D02*
X107738094Y-102550057D01*
X107738094Y-102550057D02*
X107690475Y-102502438D01*
X107690475Y-102502438D02*
X107595237Y-102454819D01*
X107595237Y-102454819D02*
X107404761Y-102454819D01*
X107404761Y-102454819D02*
X107309523Y-102502438D01*
X107309523Y-102502438D02*
X107261904Y-102550057D01*
X107261904Y-102550057D02*
X107214285Y-102645295D01*
X107214285Y-102645295D02*
X107214285Y-102692914D01*
X107214285Y-102692914D02*
X107261904Y-102788152D01*
X107261904Y-102788152D02*
X107309523Y-102835771D01*
X107309523Y-102835771D02*
X107404761Y-102883390D01*
X107404761Y-102883390D02*
X107595237Y-102883390D01*
X107595237Y-102883390D02*
X107690475Y-102931009D01*
X107690475Y-102931009D02*
X107738094Y-102978628D01*
X107738094Y-102978628D02*
X107785713Y-103073866D01*
X107785713Y-103073866D02*
X107785713Y-103264342D01*
X107785713Y-103264342D02*
X107738094Y-103359580D01*
X107738094Y-103359580D02*
X107690475Y-103407200D01*
X107690475Y-103407200D02*
X107595237Y-103454819D01*
X107595237Y-103454819D02*
X107404761Y-103454819D01*
X107404761Y-103454819D02*
X107309523Y-103407200D01*
X107309523Y-103407200D02*
X107261904Y-103359580D01*
X107261904Y-103359580D02*
X107214285Y-103264342D01*
X107214285Y-103264342D02*
X107214285Y-103073866D01*
X107214285Y-103073866D02*
X107261904Y-102978628D01*
X107261904Y-102978628D02*
X107309523Y-102931009D01*
X107309523Y-102931009D02*
X107404761Y-102883390D01*
X124738094Y-103454819D02*
X124738094Y-102454819D01*
X124738094Y-102454819D02*
X124499999Y-102454819D01*
X124499999Y-102454819D02*
X124357142Y-102502438D01*
X124357142Y-102502438D02*
X124261904Y-102597676D01*
X124261904Y-102597676D02*
X124214285Y-102692914D01*
X124214285Y-102692914D02*
X124166666Y-102883390D01*
X124166666Y-102883390D02*
X124166666Y-103026247D01*
X124166666Y-103026247D02*
X124214285Y-103216723D01*
X124214285Y-103216723D02*
X124261904Y-103311961D01*
X124261904Y-103311961D02*
X124357142Y-103407200D01*
X124357142Y-103407200D02*
X124499999Y-103454819D01*
X124499999Y-103454819D02*
X124738094Y-103454819D01*
X123690475Y-103454819D02*
X123499999Y-103454819D01*
X123499999Y-103454819D02*
X123404761Y-103407200D01*
X123404761Y-103407200D02*
X123357142Y-103359580D01*
X123357142Y-103359580D02*
X123261904Y-103216723D01*
X123261904Y-103216723D02*
X123214285Y-103026247D01*
X123214285Y-103026247D02*
X123214285Y-102645295D01*
X123214285Y-102645295D02*
X123261904Y-102550057D01*
X123261904Y-102550057D02*
X123309523Y-102502438D01*
X123309523Y-102502438D02*
X123404761Y-102454819D01*
X123404761Y-102454819D02*
X123595237Y-102454819D01*
X123595237Y-102454819D02*
X123690475Y-102502438D01*
X123690475Y-102502438D02*
X123738094Y-102550057D01*
X123738094Y-102550057D02*
X123785713Y-102645295D01*
X123785713Y-102645295D02*
X123785713Y-102883390D01*
X123785713Y-102883390D02*
X123738094Y-102978628D01*
X123738094Y-102978628D02*
X123690475Y-103026247D01*
X123690475Y-103026247D02*
X123595237Y-103073866D01*
X123595237Y-103073866D02*
X123404761Y-103073866D01*
X123404761Y-103073866D02*
X123309523Y-103026247D01*
X123309523Y-103026247D02*
X123261904Y-102978628D01*
X123261904Y-102978628D02*
X123214285Y-102883390D01*
X139040475Y-140512295D02*
X139040475Y-139712295D01*
X139040475Y-139712295D02*
X138849999Y-139712295D01*
X138849999Y-139712295D02*
X138735713Y-139750390D01*
X138735713Y-139750390D02*
X138659523Y-139826580D01*
X138659523Y-139826580D02*
X138621428Y-139902771D01*
X138621428Y-139902771D02*
X138583332Y-140055152D01*
X138583332Y-140055152D02*
X138583332Y-140169438D01*
X138583332Y-140169438D02*
X138621428Y-140321819D01*
X138621428Y-140321819D02*
X138659523Y-140398009D01*
X138659523Y-140398009D02*
X138735713Y-140474200D01*
X138735713Y-140474200D02*
X138849999Y-140512295D01*
X138849999Y-140512295D02*
X139040475Y-140512295D01*
X138278571Y-139788485D02*
X138240475Y-139750390D01*
X138240475Y-139750390D02*
X138164285Y-139712295D01*
X138164285Y-139712295D02*
X137973809Y-139712295D01*
X137973809Y-139712295D02*
X137897618Y-139750390D01*
X137897618Y-139750390D02*
X137859523Y-139788485D01*
X137859523Y-139788485D02*
X137821428Y-139864676D01*
X137821428Y-139864676D02*
X137821428Y-139940866D01*
X137821428Y-139940866D02*
X137859523Y-140055152D01*
X137859523Y-140055152D02*
X138316666Y-140512295D01*
X138316666Y-140512295D02*
X137821428Y-140512295D01*
X211962295Y-135285714D02*
X211581342Y-135019047D01*
X211962295Y-134828571D02*
X211162295Y-134828571D01*
X211162295Y-134828571D02*
X211162295Y-135133333D01*
X211162295Y-135133333D02*
X211200390Y-135209523D01*
X211200390Y-135209523D02*
X211238485Y-135247618D01*
X211238485Y-135247618D02*
X211314676Y-135285714D01*
X211314676Y-135285714D02*
X211428961Y-135285714D01*
X211428961Y-135285714D02*
X211505152Y-135247618D01*
X211505152Y-135247618D02*
X211543247Y-135209523D01*
X211543247Y-135209523D02*
X211581342Y-135133333D01*
X211581342Y-135133333D02*
X211581342Y-134828571D01*
X211238485Y-135590475D02*
X211200390Y-135628571D01*
X211200390Y-135628571D02*
X211162295Y-135704761D01*
X211162295Y-135704761D02*
X211162295Y-135895237D01*
X211162295Y-135895237D02*
X211200390Y-135971428D01*
X211200390Y-135971428D02*
X211238485Y-136009523D01*
X211238485Y-136009523D02*
X211314676Y-136047618D01*
X211314676Y-136047618D02*
X211390866Y-136047618D01*
X211390866Y-136047618D02*
X211505152Y-136009523D01*
X211505152Y-136009523D02*
X211962295Y-135552380D01*
X211962295Y-135552380D02*
X211962295Y-136047618D01*
X211428961Y-136733333D02*
X211962295Y-136733333D01*
X211124200Y-136542857D02*
X211695628Y-136352380D01*
X211695628Y-136352380D02*
X211695628Y-136847619D01*
X189090475Y-128912295D02*
X189090475Y-128112295D01*
X189090475Y-128112295D02*
X188899999Y-128112295D01*
X188899999Y-128112295D02*
X188785713Y-128150390D01*
X188785713Y-128150390D02*
X188709523Y-128226580D01*
X188709523Y-128226580D02*
X188671428Y-128302771D01*
X188671428Y-128302771D02*
X188633332Y-128455152D01*
X188633332Y-128455152D02*
X188633332Y-128569438D01*
X188633332Y-128569438D02*
X188671428Y-128721819D01*
X188671428Y-128721819D02*
X188709523Y-128798009D01*
X188709523Y-128798009D02*
X188785713Y-128874200D01*
X188785713Y-128874200D02*
X188899999Y-128912295D01*
X188899999Y-128912295D02*
X189090475Y-128912295D01*
X187947618Y-128112295D02*
X188099999Y-128112295D01*
X188099999Y-128112295D02*
X188176190Y-128150390D01*
X188176190Y-128150390D02*
X188214285Y-128188485D01*
X188214285Y-128188485D02*
X188290475Y-128302771D01*
X188290475Y-128302771D02*
X188328571Y-128455152D01*
X188328571Y-128455152D02*
X188328571Y-128759914D01*
X188328571Y-128759914D02*
X188290475Y-128836104D01*
X188290475Y-128836104D02*
X188252380Y-128874200D01*
X188252380Y-128874200D02*
X188176190Y-128912295D01*
X188176190Y-128912295D02*
X188023809Y-128912295D01*
X188023809Y-128912295D02*
X187947618Y-128874200D01*
X187947618Y-128874200D02*
X187909523Y-128836104D01*
X187909523Y-128836104D02*
X187871428Y-128759914D01*
X187871428Y-128759914D02*
X187871428Y-128569438D01*
X187871428Y-128569438D02*
X187909523Y-128493247D01*
X187909523Y-128493247D02*
X187947618Y-128455152D01*
X187947618Y-128455152D02*
X188023809Y-128417057D01*
X188023809Y-128417057D02*
X188176190Y-128417057D01*
X188176190Y-128417057D02*
X188252380Y-128455152D01*
X188252380Y-128455152D02*
X188290475Y-128493247D01*
X188290475Y-128493247D02*
X188328571Y-128569438D01*
X216862295Y-124809524D02*
X217509914Y-124809524D01*
X217509914Y-124809524D02*
X217586104Y-124847619D01*
X217586104Y-124847619D02*
X217624200Y-124885714D01*
X217624200Y-124885714D02*
X217662295Y-124961905D01*
X217662295Y-124961905D02*
X217662295Y-125114286D01*
X217662295Y-125114286D02*
X217624200Y-125190476D01*
X217624200Y-125190476D02*
X217586104Y-125228571D01*
X217586104Y-125228571D02*
X217509914Y-125266667D01*
X217509914Y-125266667D02*
X216862295Y-125266667D01*
X217662295Y-126066666D02*
X217662295Y-125609523D01*
X217662295Y-125838095D02*
X216862295Y-125838095D01*
X216862295Y-125838095D02*
X216976580Y-125761904D01*
X216976580Y-125761904D02*
X217052771Y-125685714D01*
X217052771Y-125685714D02*
X217090866Y-125609523D01*
X216938485Y-126371428D02*
X216900390Y-126409524D01*
X216900390Y-126409524D02*
X216862295Y-126485714D01*
X216862295Y-126485714D02*
X216862295Y-126676190D01*
X216862295Y-126676190D02*
X216900390Y-126752381D01*
X216900390Y-126752381D02*
X216938485Y-126790476D01*
X216938485Y-126790476D02*
X217014676Y-126828571D01*
X217014676Y-126828571D02*
X217090866Y-126828571D01*
X217090866Y-126828571D02*
X217205152Y-126790476D01*
X217205152Y-126790476D02*
X217662295Y-126333333D01*
X217662295Y-126333333D02*
X217662295Y-126828571D01*
X201483333Y-71354819D02*
X201483333Y-72069104D01*
X201483333Y-72069104D02*
X201530952Y-72211961D01*
X201530952Y-72211961D02*
X201626190Y-72307200D01*
X201626190Y-72307200D02*
X201769047Y-72354819D01*
X201769047Y-72354819D02*
X201864285Y-72354819D01*
X201007142Y-72354819D02*
X201007142Y-71354819D01*
X201007142Y-71354819D02*
X200626190Y-71354819D01*
X200626190Y-71354819D02*
X200530952Y-71402438D01*
X200530952Y-71402438D02*
X200483333Y-71450057D01*
X200483333Y-71450057D02*
X200435714Y-71545295D01*
X200435714Y-71545295D02*
X200435714Y-71688152D01*
X200435714Y-71688152D02*
X200483333Y-71783390D01*
X200483333Y-71783390D02*
X200530952Y-71831009D01*
X200530952Y-71831009D02*
X200626190Y-71878628D01*
X200626190Y-71878628D02*
X201007142Y-71878628D01*
X199483333Y-72354819D02*
X200054761Y-72354819D01*
X199769047Y-72354819D02*
X199769047Y-71354819D01*
X199769047Y-71354819D02*
X199864285Y-71497676D01*
X199864285Y-71497676D02*
X199959523Y-71592914D01*
X199959523Y-71592914D02*
X200054761Y-71640533D01*
X92712295Y-125140476D02*
X93359914Y-125140476D01*
X93359914Y-125140476D02*
X93436104Y-125178571D01*
X93436104Y-125178571D02*
X93474200Y-125216666D01*
X93474200Y-125216666D02*
X93512295Y-125292857D01*
X93512295Y-125292857D02*
X93512295Y-125445238D01*
X93512295Y-125445238D02*
X93474200Y-125521428D01*
X93474200Y-125521428D02*
X93436104Y-125559523D01*
X93436104Y-125559523D02*
X93359914Y-125597619D01*
X93359914Y-125597619D02*
X92712295Y-125597619D01*
X93055152Y-126092856D02*
X93017057Y-126016666D01*
X93017057Y-126016666D02*
X92978961Y-125978571D01*
X92978961Y-125978571D02*
X92902771Y-125940475D01*
X92902771Y-125940475D02*
X92864676Y-125940475D01*
X92864676Y-125940475D02*
X92788485Y-125978571D01*
X92788485Y-125978571D02*
X92750390Y-126016666D01*
X92750390Y-126016666D02*
X92712295Y-126092856D01*
X92712295Y-126092856D02*
X92712295Y-126245237D01*
X92712295Y-126245237D02*
X92750390Y-126321428D01*
X92750390Y-126321428D02*
X92788485Y-126359523D01*
X92788485Y-126359523D02*
X92864676Y-126397618D01*
X92864676Y-126397618D02*
X92902771Y-126397618D01*
X92902771Y-126397618D02*
X92978961Y-126359523D01*
X92978961Y-126359523D02*
X93017057Y-126321428D01*
X93017057Y-126321428D02*
X93055152Y-126245237D01*
X93055152Y-126245237D02*
X93055152Y-126092856D01*
X93055152Y-126092856D02*
X93093247Y-126016666D01*
X93093247Y-126016666D02*
X93131342Y-125978571D01*
X93131342Y-125978571D02*
X93207533Y-125940475D01*
X93207533Y-125940475D02*
X93359914Y-125940475D01*
X93359914Y-125940475D02*
X93436104Y-125978571D01*
X93436104Y-125978571D02*
X93474200Y-126016666D01*
X93474200Y-126016666D02*
X93512295Y-126092856D01*
X93512295Y-126092856D02*
X93512295Y-126245237D01*
X93512295Y-126245237D02*
X93474200Y-126321428D01*
X93474200Y-126321428D02*
X93436104Y-126359523D01*
X93436104Y-126359523D02*
X93359914Y-126397618D01*
X93359914Y-126397618D02*
X93207533Y-126397618D01*
X93207533Y-126397618D02*
X93131342Y-126359523D01*
X93131342Y-126359523D02*
X93093247Y-126321428D01*
X93093247Y-126321428D02*
X93055152Y-126245237D01*
X172240475Y-140512295D02*
X172240475Y-139712295D01*
X172240475Y-139712295D02*
X172049999Y-139712295D01*
X172049999Y-139712295D02*
X171935713Y-139750390D01*
X171935713Y-139750390D02*
X171859523Y-139826580D01*
X171859523Y-139826580D02*
X171821428Y-139902771D01*
X171821428Y-139902771D02*
X171783332Y-140055152D01*
X171783332Y-140055152D02*
X171783332Y-140169438D01*
X171783332Y-140169438D02*
X171821428Y-140321819D01*
X171821428Y-140321819D02*
X171859523Y-140398009D01*
X171859523Y-140398009D02*
X171935713Y-140474200D01*
X171935713Y-140474200D02*
X172049999Y-140512295D01*
X172049999Y-140512295D02*
X172240475Y-140512295D01*
X171097618Y-139978961D02*
X171097618Y-140512295D01*
X171288094Y-139674200D02*
X171478571Y-140245628D01*
X171478571Y-140245628D02*
X170983332Y-140245628D01*
X209162295Y-135398214D02*
X208781342Y-135131547D01*
X209162295Y-134941071D02*
X208362295Y-134941071D01*
X208362295Y-134941071D02*
X208362295Y-135245833D01*
X208362295Y-135245833D02*
X208400390Y-135322023D01*
X208400390Y-135322023D02*
X208438485Y-135360118D01*
X208438485Y-135360118D02*
X208514676Y-135398214D01*
X208514676Y-135398214D02*
X208628961Y-135398214D01*
X208628961Y-135398214D02*
X208705152Y-135360118D01*
X208705152Y-135360118D02*
X208743247Y-135322023D01*
X208743247Y-135322023D02*
X208781342Y-135245833D01*
X208781342Y-135245833D02*
X208781342Y-134941071D01*
X208438485Y-135702975D02*
X208400390Y-135741071D01*
X208400390Y-135741071D02*
X208362295Y-135817261D01*
X208362295Y-135817261D02*
X208362295Y-136007737D01*
X208362295Y-136007737D02*
X208400390Y-136083928D01*
X208400390Y-136083928D02*
X208438485Y-136122023D01*
X208438485Y-136122023D02*
X208514676Y-136160118D01*
X208514676Y-136160118D02*
X208590866Y-136160118D01*
X208590866Y-136160118D02*
X208705152Y-136122023D01*
X208705152Y-136122023D02*
X209162295Y-135664880D01*
X209162295Y-135664880D02*
X209162295Y-136160118D01*
X208362295Y-136883928D02*
X208362295Y-136502976D01*
X208362295Y-136502976D02*
X208743247Y-136464880D01*
X208743247Y-136464880D02*
X208705152Y-136502976D01*
X208705152Y-136502976D02*
X208667057Y-136579166D01*
X208667057Y-136579166D02*
X208667057Y-136769642D01*
X208667057Y-136769642D02*
X208705152Y-136845833D01*
X208705152Y-136845833D02*
X208743247Y-136883928D01*
X208743247Y-136883928D02*
X208819438Y-136922023D01*
X208819438Y-136922023D02*
X209009914Y-136922023D01*
X209009914Y-136922023D02*
X209086104Y-136883928D01*
X209086104Y-136883928D02*
X209124200Y-136845833D01*
X209124200Y-136845833D02*
X209162295Y-136769642D01*
X209162295Y-136769642D02*
X209162295Y-136579166D01*
X209162295Y-136579166D02*
X209124200Y-136502976D01*
X209124200Y-136502976D02*
X209086104Y-136464880D01*
X122940475Y-129312295D02*
X122940475Y-128512295D01*
X122940475Y-128512295D02*
X122749999Y-128512295D01*
X122749999Y-128512295D02*
X122635713Y-128550390D01*
X122635713Y-128550390D02*
X122559523Y-128626580D01*
X122559523Y-128626580D02*
X122521428Y-128702771D01*
X122521428Y-128702771D02*
X122483332Y-128855152D01*
X122483332Y-128855152D02*
X122483332Y-128969438D01*
X122483332Y-128969438D02*
X122521428Y-129121819D01*
X122521428Y-129121819D02*
X122559523Y-129198009D01*
X122559523Y-129198009D02*
X122635713Y-129274200D01*
X122635713Y-129274200D02*
X122749999Y-129312295D01*
X122749999Y-129312295D02*
X122940475Y-129312295D01*
X121721428Y-129312295D02*
X122178571Y-129312295D01*
X121949999Y-129312295D02*
X121949999Y-128512295D01*
X121949999Y-128512295D02*
X122026190Y-128626580D01*
X122026190Y-128626580D02*
X122102380Y-128702771D01*
X122102380Y-128702771D02*
X122178571Y-128740866D01*
X114790475Y-130212295D02*
X114790475Y-129412295D01*
X114790475Y-129412295D02*
X114599999Y-129412295D01*
X114599999Y-129412295D02*
X114485713Y-129450390D01*
X114485713Y-129450390D02*
X114409523Y-129526580D01*
X114409523Y-129526580D02*
X114371428Y-129602771D01*
X114371428Y-129602771D02*
X114333332Y-129755152D01*
X114333332Y-129755152D02*
X114333332Y-129869438D01*
X114333332Y-129869438D02*
X114371428Y-130021819D01*
X114371428Y-130021819D02*
X114409523Y-130098009D01*
X114409523Y-130098009D02*
X114485713Y-130174200D01*
X114485713Y-130174200D02*
X114599999Y-130212295D01*
X114599999Y-130212295D02*
X114790475Y-130212295D01*
X113609523Y-129412295D02*
X113990475Y-129412295D01*
X113990475Y-129412295D02*
X114028571Y-129793247D01*
X114028571Y-129793247D02*
X113990475Y-129755152D01*
X113990475Y-129755152D02*
X113914285Y-129717057D01*
X113914285Y-129717057D02*
X113723809Y-129717057D01*
X113723809Y-129717057D02*
X113647618Y-129755152D01*
X113647618Y-129755152D02*
X113609523Y-129793247D01*
X113609523Y-129793247D02*
X113571428Y-129869438D01*
X113571428Y-129869438D02*
X113571428Y-130059914D01*
X113571428Y-130059914D02*
X113609523Y-130136104D01*
X113609523Y-130136104D02*
X113647618Y-130174200D01*
X113647618Y-130174200D02*
X113723809Y-130212295D01*
X113723809Y-130212295D02*
X113914285Y-130212295D01*
X113914285Y-130212295D02*
X113990475Y-130174200D01*
X113990475Y-130174200D02*
X114028571Y-130136104D01*
X162512295Y-113090476D02*
X163159914Y-113090476D01*
X163159914Y-113090476D02*
X163236104Y-113128571D01*
X163236104Y-113128571D02*
X163274200Y-113166666D01*
X163274200Y-113166666D02*
X163312295Y-113242857D01*
X163312295Y-113242857D02*
X163312295Y-113395238D01*
X163312295Y-113395238D02*
X163274200Y-113471428D01*
X163274200Y-113471428D02*
X163236104Y-113509523D01*
X163236104Y-113509523D02*
X163159914Y-113547619D01*
X163159914Y-113547619D02*
X162512295Y-113547619D01*
X162512295Y-113852380D02*
X162512295Y-114347618D01*
X162512295Y-114347618D02*
X162817057Y-114080952D01*
X162817057Y-114080952D02*
X162817057Y-114195237D01*
X162817057Y-114195237D02*
X162855152Y-114271428D01*
X162855152Y-114271428D02*
X162893247Y-114309523D01*
X162893247Y-114309523D02*
X162969438Y-114347618D01*
X162969438Y-114347618D02*
X163159914Y-114347618D01*
X163159914Y-114347618D02*
X163236104Y-114309523D01*
X163236104Y-114309523D02*
X163274200Y-114271428D01*
X163274200Y-114271428D02*
X163312295Y-114195237D01*
X163312295Y-114195237D02*
X163312295Y-113966666D01*
X163312295Y-113966666D02*
X163274200Y-113890475D01*
X163274200Y-113890475D02*
X163236104Y-113852380D01*
X165133332Y-124482295D02*
X165399999Y-124101342D01*
X165590475Y-124482295D02*
X165590475Y-123682295D01*
X165590475Y-123682295D02*
X165285713Y-123682295D01*
X165285713Y-123682295D02*
X165209523Y-123720390D01*
X165209523Y-123720390D02*
X165171428Y-123758485D01*
X165171428Y-123758485D02*
X165133332Y-123834676D01*
X165133332Y-123834676D02*
X165133332Y-123948961D01*
X165133332Y-123948961D02*
X165171428Y-124025152D01*
X165171428Y-124025152D02*
X165209523Y-124063247D01*
X165209523Y-124063247D02*
X165285713Y-124101342D01*
X165285713Y-124101342D02*
X165590475Y-124101342D01*
X164828571Y-123758485D02*
X164790475Y-123720390D01*
X164790475Y-123720390D02*
X164714285Y-123682295D01*
X164714285Y-123682295D02*
X164523809Y-123682295D01*
X164523809Y-123682295D02*
X164447618Y-123720390D01*
X164447618Y-123720390D02*
X164409523Y-123758485D01*
X164409523Y-123758485D02*
X164371428Y-123834676D01*
X164371428Y-123834676D02*
X164371428Y-123910866D01*
X164371428Y-123910866D02*
X164409523Y-124025152D01*
X164409523Y-124025152D02*
X164866666Y-124482295D01*
X164866666Y-124482295D02*
X164371428Y-124482295D01*
X97012295Y-136835714D02*
X96631342Y-136569047D01*
X97012295Y-136378571D02*
X96212295Y-136378571D01*
X96212295Y-136378571D02*
X96212295Y-136683333D01*
X96212295Y-136683333D02*
X96250390Y-136759523D01*
X96250390Y-136759523D02*
X96288485Y-136797618D01*
X96288485Y-136797618D02*
X96364676Y-136835714D01*
X96364676Y-136835714D02*
X96478961Y-136835714D01*
X96478961Y-136835714D02*
X96555152Y-136797618D01*
X96555152Y-136797618D02*
X96593247Y-136759523D01*
X96593247Y-136759523D02*
X96631342Y-136683333D01*
X96631342Y-136683333D02*
X96631342Y-136378571D01*
X97012295Y-137597618D02*
X97012295Y-137140475D01*
X97012295Y-137369047D02*
X96212295Y-137369047D01*
X96212295Y-137369047D02*
X96326580Y-137292856D01*
X96326580Y-137292856D02*
X96402771Y-137216666D01*
X96402771Y-137216666D02*
X96440866Y-137140475D01*
X96288485Y-137902380D02*
X96250390Y-137940476D01*
X96250390Y-137940476D02*
X96212295Y-138016666D01*
X96212295Y-138016666D02*
X96212295Y-138207142D01*
X96212295Y-138207142D02*
X96250390Y-138283333D01*
X96250390Y-138283333D02*
X96288485Y-138321428D01*
X96288485Y-138321428D02*
X96364676Y-138359523D01*
X96364676Y-138359523D02*
X96440866Y-138359523D01*
X96440866Y-138359523D02*
X96555152Y-138321428D01*
X96555152Y-138321428D02*
X97012295Y-137864285D01*
X97012295Y-137864285D02*
X97012295Y-138359523D01*
X101762295Y-136835714D02*
X101381342Y-136569047D01*
X101762295Y-136378571D02*
X100962295Y-136378571D01*
X100962295Y-136378571D02*
X100962295Y-136683333D01*
X100962295Y-136683333D02*
X101000390Y-136759523D01*
X101000390Y-136759523D02*
X101038485Y-136797618D01*
X101038485Y-136797618D02*
X101114676Y-136835714D01*
X101114676Y-136835714D02*
X101228961Y-136835714D01*
X101228961Y-136835714D02*
X101305152Y-136797618D01*
X101305152Y-136797618D02*
X101343247Y-136759523D01*
X101343247Y-136759523D02*
X101381342Y-136683333D01*
X101381342Y-136683333D02*
X101381342Y-136378571D01*
X101762295Y-137597618D02*
X101762295Y-137140475D01*
X101762295Y-137369047D02*
X100962295Y-137369047D01*
X100962295Y-137369047D02*
X101076580Y-137292856D01*
X101076580Y-137292856D02*
X101152771Y-137216666D01*
X101152771Y-137216666D02*
X101190866Y-137140475D01*
X101228961Y-138283333D02*
X101762295Y-138283333D01*
X100924200Y-138092857D02*
X101495628Y-137902380D01*
X101495628Y-137902380D02*
X101495628Y-138397619D01*
X203612295Y-124559524D02*
X204259914Y-124559524D01*
X204259914Y-124559524D02*
X204336104Y-124597619D01*
X204336104Y-124597619D02*
X204374200Y-124635714D01*
X204374200Y-124635714D02*
X204412295Y-124711905D01*
X204412295Y-124711905D02*
X204412295Y-124864286D01*
X204412295Y-124864286D02*
X204374200Y-124940476D01*
X204374200Y-124940476D02*
X204336104Y-124978571D01*
X204336104Y-124978571D02*
X204259914Y-125016667D01*
X204259914Y-125016667D02*
X203612295Y-125016667D01*
X204412295Y-125816666D02*
X204412295Y-125359523D01*
X204412295Y-125588095D02*
X203612295Y-125588095D01*
X203612295Y-125588095D02*
X203726580Y-125511904D01*
X203726580Y-125511904D02*
X203802771Y-125435714D01*
X203802771Y-125435714D02*
X203840866Y-125359523D01*
X203612295Y-126083333D02*
X203612295Y-126578571D01*
X203612295Y-126578571D02*
X203917057Y-126311905D01*
X203917057Y-126311905D02*
X203917057Y-126426190D01*
X203917057Y-126426190D02*
X203955152Y-126502381D01*
X203955152Y-126502381D02*
X203993247Y-126540476D01*
X203993247Y-126540476D02*
X204069438Y-126578571D01*
X204069438Y-126578571D02*
X204259914Y-126578571D01*
X204259914Y-126578571D02*
X204336104Y-126540476D01*
X204336104Y-126540476D02*
X204374200Y-126502381D01*
X204374200Y-126502381D02*
X204412295Y-126426190D01*
X204412295Y-126426190D02*
X204412295Y-126197619D01*
X204412295Y-126197619D02*
X204374200Y-126121428D01*
X204374200Y-126121428D02*
X204336104Y-126083333D01*
X132333332Y-124582295D02*
X132599999Y-124201342D01*
X132790475Y-124582295D02*
X132790475Y-123782295D01*
X132790475Y-123782295D02*
X132485713Y-123782295D01*
X132485713Y-123782295D02*
X132409523Y-123820390D01*
X132409523Y-123820390D02*
X132371428Y-123858485D01*
X132371428Y-123858485D02*
X132333332Y-123934676D01*
X132333332Y-123934676D02*
X132333332Y-124048961D01*
X132333332Y-124048961D02*
X132371428Y-124125152D01*
X132371428Y-124125152D02*
X132409523Y-124163247D01*
X132409523Y-124163247D02*
X132485713Y-124201342D01*
X132485713Y-124201342D02*
X132790475Y-124201342D01*
X131571428Y-124582295D02*
X132028571Y-124582295D01*
X131799999Y-124582295D02*
X131799999Y-123782295D01*
X131799999Y-123782295D02*
X131876190Y-123896580D01*
X131876190Y-123896580D02*
X131952380Y-123972771D01*
X131952380Y-123972771D02*
X132028571Y-124010866D01*
X214212295Y-135285714D02*
X213831342Y-135019047D01*
X214212295Y-134828571D02*
X213412295Y-134828571D01*
X213412295Y-134828571D02*
X213412295Y-135133333D01*
X213412295Y-135133333D02*
X213450390Y-135209523D01*
X213450390Y-135209523D02*
X213488485Y-135247618D01*
X213488485Y-135247618D02*
X213564676Y-135285714D01*
X213564676Y-135285714D02*
X213678961Y-135285714D01*
X213678961Y-135285714D02*
X213755152Y-135247618D01*
X213755152Y-135247618D02*
X213793247Y-135209523D01*
X213793247Y-135209523D02*
X213831342Y-135133333D01*
X213831342Y-135133333D02*
X213831342Y-134828571D01*
X213488485Y-135590475D02*
X213450390Y-135628571D01*
X213450390Y-135628571D02*
X213412295Y-135704761D01*
X213412295Y-135704761D02*
X213412295Y-135895237D01*
X213412295Y-135895237D02*
X213450390Y-135971428D01*
X213450390Y-135971428D02*
X213488485Y-136009523D01*
X213488485Y-136009523D02*
X213564676Y-136047618D01*
X213564676Y-136047618D02*
X213640866Y-136047618D01*
X213640866Y-136047618D02*
X213755152Y-136009523D01*
X213755152Y-136009523D02*
X214212295Y-135552380D01*
X214212295Y-135552380D02*
X214212295Y-136047618D01*
X213412295Y-136314285D02*
X213412295Y-136809523D01*
X213412295Y-136809523D02*
X213717057Y-136542857D01*
X213717057Y-136542857D02*
X213717057Y-136657142D01*
X213717057Y-136657142D02*
X213755152Y-136733333D01*
X213755152Y-136733333D02*
X213793247Y-136771428D01*
X213793247Y-136771428D02*
X213869438Y-136809523D01*
X213869438Y-136809523D02*
X214059914Y-136809523D01*
X214059914Y-136809523D02*
X214136104Y-136771428D01*
X214136104Y-136771428D02*
X214174200Y-136733333D01*
X214174200Y-136733333D02*
X214212295Y-136657142D01*
X214212295Y-136657142D02*
X214212295Y-136428571D01*
X214212295Y-136428571D02*
X214174200Y-136352380D01*
X214174200Y-136352380D02*
X214136104Y-136314285D01*
X155540475Y-140562295D02*
X155540475Y-139762295D01*
X155540475Y-139762295D02*
X155349999Y-139762295D01*
X155349999Y-139762295D02*
X155235713Y-139800390D01*
X155235713Y-139800390D02*
X155159523Y-139876580D01*
X155159523Y-139876580D02*
X155121428Y-139952771D01*
X155121428Y-139952771D02*
X155083332Y-140105152D01*
X155083332Y-140105152D02*
X155083332Y-140219438D01*
X155083332Y-140219438D02*
X155121428Y-140371819D01*
X155121428Y-140371819D02*
X155159523Y-140448009D01*
X155159523Y-140448009D02*
X155235713Y-140524200D01*
X155235713Y-140524200D02*
X155349999Y-140562295D01*
X155349999Y-140562295D02*
X155540475Y-140562295D01*
X154816666Y-139762295D02*
X154321428Y-139762295D01*
X154321428Y-139762295D02*
X154588094Y-140067057D01*
X154588094Y-140067057D02*
X154473809Y-140067057D01*
X154473809Y-140067057D02*
X154397618Y-140105152D01*
X154397618Y-140105152D02*
X154359523Y-140143247D01*
X154359523Y-140143247D02*
X154321428Y-140219438D01*
X154321428Y-140219438D02*
X154321428Y-140409914D01*
X154321428Y-140409914D02*
X154359523Y-140486104D01*
X154359523Y-140486104D02*
X154397618Y-140524200D01*
X154397618Y-140524200D02*
X154473809Y-140562295D01*
X154473809Y-140562295D02*
X154702380Y-140562295D01*
X154702380Y-140562295D02*
X154778571Y-140524200D01*
X154778571Y-140524200D02*
X154816666Y-140486104D01*
X130512295Y-112909524D02*
X131159914Y-112909524D01*
X131159914Y-112909524D02*
X131236104Y-112947619D01*
X131236104Y-112947619D02*
X131274200Y-112985714D01*
X131274200Y-112985714D02*
X131312295Y-113061905D01*
X131312295Y-113061905D02*
X131312295Y-113214286D01*
X131312295Y-113214286D02*
X131274200Y-113290476D01*
X131274200Y-113290476D02*
X131236104Y-113328571D01*
X131236104Y-113328571D02*
X131159914Y-113366667D01*
X131159914Y-113366667D02*
X130512295Y-113366667D01*
X131312295Y-114166666D02*
X131312295Y-113709523D01*
X131312295Y-113938095D02*
X130512295Y-113938095D01*
X130512295Y-113938095D02*
X130626580Y-113861904D01*
X130626580Y-113861904D02*
X130702771Y-113785714D01*
X130702771Y-113785714D02*
X130740866Y-113709523D01*
X130778961Y-114852381D02*
X131312295Y-114852381D01*
X130474200Y-114661905D02*
X131045628Y-114471428D01*
X131045628Y-114471428D02*
X131045628Y-114966667D01*
X105662295Y-125190476D02*
X106309914Y-125190476D01*
X106309914Y-125190476D02*
X106386104Y-125228571D01*
X106386104Y-125228571D02*
X106424200Y-125266666D01*
X106424200Y-125266666D02*
X106462295Y-125342857D01*
X106462295Y-125342857D02*
X106462295Y-125495238D01*
X106462295Y-125495238D02*
X106424200Y-125571428D01*
X106424200Y-125571428D02*
X106386104Y-125609523D01*
X106386104Y-125609523D02*
X106309914Y-125647619D01*
X106309914Y-125647619D02*
X105662295Y-125647619D01*
X106462295Y-126066666D02*
X106462295Y-126219047D01*
X106462295Y-126219047D02*
X106424200Y-126295237D01*
X106424200Y-126295237D02*
X106386104Y-126333333D01*
X106386104Y-126333333D02*
X106271819Y-126409523D01*
X106271819Y-126409523D02*
X106119438Y-126447618D01*
X106119438Y-126447618D02*
X105814676Y-126447618D01*
X105814676Y-126447618D02*
X105738485Y-126409523D01*
X105738485Y-126409523D02*
X105700390Y-126371428D01*
X105700390Y-126371428D02*
X105662295Y-126295237D01*
X105662295Y-126295237D02*
X105662295Y-126142856D01*
X105662295Y-126142856D02*
X105700390Y-126066666D01*
X105700390Y-126066666D02*
X105738485Y-126028571D01*
X105738485Y-126028571D02*
X105814676Y-125990475D01*
X105814676Y-125990475D02*
X106005152Y-125990475D01*
X106005152Y-125990475D02*
X106081342Y-126028571D01*
X106081342Y-126028571D02*
X106119438Y-126066666D01*
X106119438Y-126066666D02*
X106157533Y-126142856D01*
X106157533Y-126142856D02*
X106157533Y-126295237D01*
X106157533Y-126295237D02*
X106119438Y-126371428D01*
X106119438Y-126371428D02*
X106081342Y-126409523D01*
X106081342Y-126409523D02*
X106005152Y-126447618D01*
X158833333Y-141454819D02*
X158833333Y-142169104D01*
X158833333Y-142169104D02*
X158880952Y-142311961D01*
X158880952Y-142311961D02*
X158976190Y-142407200D01*
X158976190Y-142407200D02*
X159119047Y-142454819D01*
X159119047Y-142454819D02*
X159214285Y-142454819D01*
X158357142Y-142454819D02*
X158357142Y-141454819D01*
X158357142Y-141454819D02*
X157976190Y-141454819D01*
X157976190Y-141454819D02*
X157880952Y-141502438D01*
X157880952Y-141502438D02*
X157833333Y-141550057D01*
X157833333Y-141550057D02*
X157785714Y-141645295D01*
X157785714Y-141645295D02*
X157785714Y-141788152D01*
X157785714Y-141788152D02*
X157833333Y-141883390D01*
X157833333Y-141883390D02*
X157880952Y-141931009D01*
X157880952Y-141931009D02*
X157976190Y-141978628D01*
X157976190Y-141978628D02*
X158357142Y-141978628D01*
X157404761Y-141550057D02*
X157357142Y-141502438D01*
X157357142Y-141502438D02*
X157261904Y-141454819D01*
X157261904Y-141454819D02*
X157023809Y-141454819D01*
X157023809Y-141454819D02*
X156928571Y-141502438D01*
X156928571Y-141502438D02*
X156880952Y-141550057D01*
X156880952Y-141550057D02*
X156833333Y-141645295D01*
X156833333Y-141645295D02*
X156833333Y-141740533D01*
X156833333Y-141740533D02*
X156880952Y-141883390D01*
X156880952Y-141883390D02*
X157452380Y-142454819D01*
X157452380Y-142454819D02*
X156833333Y-142454819D01*
X104162295Y-136835714D02*
X103781342Y-136569047D01*
X104162295Y-136378571D02*
X103362295Y-136378571D01*
X103362295Y-136378571D02*
X103362295Y-136683333D01*
X103362295Y-136683333D02*
X103400390Y-136759523D01*
X103400390Y-136759523D02*
X103438485Y-136797618D01*
X103438485Y-136797618D02*
X103514676Y-136835714D01*
X103514676Y-136835714D02*
X103628961Y-136835714D01*
X103628961Y-136835714D02*
X103705152Y-136797618D01*
X103705152Y-136797618D02*
X103743247Y-136759523D01*
X103743247Y-136759523D02*
X103781342Y-136683333D01*
X103781342Y-136683333D02*
X103781342Y-136378571D01*
X104162295Y-137597618D02*
X104162295Y-137140475D01*
X104162295Y-137369047D02*
X103362295Y-137369047D01*
X103362295Y-137369047D02*
X103476580Y-137292856D01*
X103476580Y-137292856D02*
X103552771Y-137216666D01*
X103552771Y-137216666D02*
X103590866Y-137140475D01*
X103362295Y-137864285D02*
X103362295Y-138359523D01*
X103362295Y-138359523D02*
X103667057Y-138092857D01*
X103667057Y-138092857D02*
X103667057Y-138207142D01*
X103667057Y-138207142D02*
X103705152Y-138283333D01*
X103705152Y-138283333D02*
X103743247Y-138321428D01*
X103743247Y-138321428D02*
X103819438Y-138359523D01*
X103819438Y-138359523D02*
X104009914Y-138359523D01*
X104009914Y-138359523D02*
X104086104Y-138321428D01*
X104086104Y-138321428D02*
X104124200Y-138283333D01*
X104124200Y-138283333D02*
X104162295Y-138207142D01*
X104162295Y-138207142D02*
X104162295Y-137978571D01*
X104162295Y-137978571D02*
X104124200Y-137902380D01*
X104124200Y-137902380D02*
X104086104Y-137864285D01*
X99412295Y-136935714D02*
X99031342Y-136669047D01*
X99412295Y-136478571D02*
X98612295Y-136478571D01*
X98612295Y-136478571D02*
X98612295Y-136783333D01*
X98612295Y-136783333D02*
X98650390Y-136859523D01*
X98650390Y-136859523D02*
X98688485Y-136897618D01*
X98688485Y-136897618D02*
X98764676Y-136935714D01*
X98764676Y-136935714D02*
X98878961Y-136935714D01*
X98878961Y-136935714D02*
X98955152Y-136897618D01*
X98955152Y-136897618D02*
X98993247Y-136859523D01*
X98993247Y-136859523D02*
X99031342Y-136783333D01*
X99031342Y-136783333D02*
X99031342Y-136478571D01*
X99412295Y-137697618D02*
X99412295Y-137240475D01*
X99412295Y-137469047D02*
X98612295Y-137469047D01*
X98612295Y-137469047D02*
X98726580Y-137392856D01*
X98726580Y-137392856D02*
X98802771Y-137316666D01*
X98802771Y-137316666D02*
X98840866Y-137240475D01*
X99412295Y-138459523D02*
X99412295Y-138002380D01*
X99412295Y-138230952D02*
X98612295Y-138230952D01*
X98612295Y-138230952D02*
X98726580Y-138154761D01*
X98726580Y-138154761D02*
X98802771Y-138078571D01*
X98802771Y-138078571D02*
X98840866Y-138002380D01*
D11*
%TO.C,R26*%
X205515000Y-132727064D02*
X205515000Y-132272936D01*
X206985000Y-132727064D02*
X206985000Y-132272936D01*
%TO.C,D8*%
X110100000Y-101390000D02*
X115910000Y-101390000D01*
X115910000Y-101390000D02*
X115910000Y-104610000D01*
X115910000Y-104610000D02*
X110100000Y-104610000D01*
%TO.C,D9*%
X126500000Y-101590000D02*
X132310000Y-101590000D01*
X132310000Y-101590000D02*
X132310000Y-104810000D01*
X132310000Y-104810000D02*
X126500000Y-104810000D01*
%TO.C,D2*%
X135040000Y-136040000D02*
X140850000Y-136040000D01*
X135040000Y-139260000D02*
X135040000Y-136040000D01*
X140850000Y-139260000D02*
X135040000Y-139260000D01*
%TO.C,R24*%
X210865000Y-132727064D02*
X210865000Y-132272936D01*
X212335000Y-132727064D02*
X212335000Y-132272936D01*
%TO.C,D6*%
X184990000Y-129890000D02*
X190800000Y-129890000D01*
X184990000Y-133110000D02*
X184990000Y-129890000D01*
X190800000Y-133110000D02*
X184990000Y-133110000D01*
%TO.C,U12*%
X210900000Y-120865000D02*
X216100000Y-120865000D01*
X210900000Y-127335000D02*
X210900000Y-120865000D01*
X216100000Y-120865000D02*
X216100000Y-123100000D01*
X216100000Y-125100000D02*
X216100000Y-127335000D01*
X216100000Y-127335000D02*
X210900000Y-127335000D01*
X216100000Y-125100000D02*
G75*
G02*
X216100000Y-123100000I0J1000000D01*
G01*
%TO.C,JP1*%
X199250000Y-69800000D02*
X199250000Y-70400000D01*
X199950000Y-71100000D02*
X201350000Y-71100000D01*
X201350000Y-69100000D02*
X199950000Y-69100000D01*
X202050000Y-70400000D02*
X202050000Y-69800000D01*
X199250000Y-69800000D02*
G75*
G02*
X199950000Y-69100000I699999J1D01*
G01*
X199950000Y-71100000D02*
G75*
G02*
X199250000Y-70400000I-1J699999D01*
G01*
X201350000Y-69100000D02*
G75*
G02*
X202050000Y-69800000I0J-700000D01*
G01*
X202050000Y-70400000D02*
G75*
G02*
X201350000Y-71100000I-700000J0D01*
G01*
%TO.C,U8*%
X94130000Y-122500000D02*
X99330000Y-122500000D01*
X94130000Y-128970000D02*
X94130000Y-122500000D01*
X99330000Y-122500000D02*
X99330000Y-124735000D01*
X99330000Y-126735000D02*
X99330000Y-128970000D01*
X99330000Y-128970000D02*
X94130000Y-128970000D01*
X99330000Y-126735000D02*
G75*
G02*
X99330000Y-124735000I0J1000000D01*
G01*
%TO.C,D4*%
X168240000Y-136040000D02*
X174050000Y-136040000D01*
X168240000Y-139260000D02*
X168240000Y-136040000D01*
X174050000Y-139260000D02*
X168240000Y-139260000D01*
%TO.C,R25*%
X208015000Y-132727064D02*
X208015000Y-132272936D01*
X209485000Y-132727064D02*
X209485000Y-132272936D01*
%TO.C,D1*%
X118790000Y-129890000D02*
X124600000Y-129890000D01*
X118790000Y-133110000D02*
X118790000Y-129890000D01*
X124600000Y-133110000D02*
X118790000Y-133110000D01*
%TO.C,D5*%
X111800000Y-130740000D02*
X117610000Y-130740000D01*
X117610000Y-130740000D02*
X117610000Y-133960000D01*
X117610000Y-133960000D02*
X111800000Y-133960000D01*
%TO.C,U3*%
X163790000Y-113700000D02*
X163790000Y-112200000D01*
X163790000Y-113700000D02*
X163790000Y-115200000D01*
X167010000Y-113700000D02*
X167010000Y-112200000D01*
X167010000Y-113700000D02*
X167010000Y-115200000D01*
X163990000Y-111487500D02*
X163660000Y-111727500D01*
X163660000Y-111247500D01*
X163990000Y-111487500D01*
G36*
X163990000Y-111487500D02*
G01*
X163660000Y-111727500D01*
X163660000Y-111247500D01*
X163990000Y-111487500D01*
G37*
%TO.C,R2*%
X164272936Y-121390000D02*
X165727064Y-121390000D01*
X164272936Y-123210000D02*
X165727064Y-123210000D01*
%TO.C,R12*%
X95915000Y-134227064D02*
X95915000Y-133772936D01*
X97385000Y-134227064D02*
X97385000Y-133772936D01*
%TO.C,R14*%
X100615000Y-134314564D02*
X100615000Y-133860436D01*
X102085000Y-134314564D02*
X102085000Y-133860436D01*
%TO.C,U13*%
X205100000Y-120865000D02*
X210300000Y-120865000D01*
X205100000Y-127335000D02*
X205100000Y-120865000D01*
X210300000Y-120865000D02*
X210300000Y-123100000D01*
X210300000Y-125100000D02*
X210300000Y-127335000D01*
X210300000Y-127335000D02*
X205100000Y-127335000D01*
X210300000Y-125100000D02*
G75*
G02*
X210300000Y-123100000I0J1000000D01*
G01*
%TO.C,R1*%
X131472936Y-121490000D02*
X132927064Y-121490000D01*
X131472936Y-123310000D02*
X132927064Y-123310000D01*
%TO.C,R23*%
X213165000Y-132727064D02*
X213165000Y-132272936D01*
X214635000Y-132727064D02*
X214635000Y-132272936D01*
%TO.C,D3*%
X151540000Y-136090000D02*
X157350000Y-136090000D01*
X151540000Y-139310000D02*
X151540000Y-136090000D01*
X157350000Y-139310000D02*
X151540000Y-139310000D01*
%TO.C,U14*%
X131790000Y-113900000D02*
X131790000Y-112400000D01*
X131790000Y-113900000D02*
X131790000Y-115400000D01*
X135010000Y-113900000D02*
X135010000Y-112400000D01*
X135010000Y-113900000D02*
X135010000Y-115400000D01*
X131990000Y-111687500D02*
X131660000Y-111927500D01*
X131660000Y-111447500D01*
X131990000Y-111687500D01*
G36*
X131990000Y-111687500D02*
G01*
X131660000Y-111927500D01*
X131660000Y-111447500D01*
X131990000Y-111687500D01*
G37*
%TO.C,U9*%
X99900000Y-122565000D02*
X105100000Y-122565000D01*
X99900000Y-129035000D02*
X99900000Y-122565000D01*
X105100000Y-122565000D02*
X105100000Y-124800000D01*
X105100000Y-126800000D02*
X105100000Y-129035000D01*
X105100000Y-129035000D02*
X99900000Y-129035000D01*
X105100000Y-126800000D02*
G75*
G02*
X105100000Y-124800000I0J1000000D01*
G01*
%TO.C,JP2*%
X153700000Y-141900000D02*
X153700000Y-142500000D01*
X154400000Y-143200000D02*
X155800000Y-143200000D01*
X155800000Y-141200000D02*
X154400000Y-141200000D01*
X156500000Y-142500000D02*
X156500000Y-141900000D01*
X153700000Y-141900000D02*
G75*
G02*
X154400000Y-141200000I699999J1D01*
G01*
X154400000Y-143200000D02*
G75*
G02*
X153700000Y-142500000I-1J699999D01*
G01*
X155800000Y-141200000D02*
G75*
G02*
X156500000Y-141900000I0J-700000D01*
G01*
X156500000Y-142500000D02*
G75*
G02*
X155800000Y-143200000I-700000J0D01*
G01*
%TO.C,R13*%
X103015000Y-134314564D02*
X103015000Y-133860436D01*
X104485000Y-134314564D02*
X104485000Y-133860436D01*
%TO.C,R11*%
X98265000Y-134264564D02*
X98265000Y-133810436D01*
X99735000Y-134264564D02*
X99735000Y-133810436D01*
%TD*%
%LPC*%
%TO.C,JP1*%
G36*
X200500000Y-70850000D02*
G01*
X200800000Y-70850000D01*
X200800000Y-69350000D01*
X200500000Y-69350000D01*
X200500000Y-70850000D01*
G37*
%TO.C,JP2*%
G36*
X154950000Y-142950000D02*
G01*
X155250000Y-142950000D01*
X155250000Y-141450000D01*
X154950000Y-141450000D01*
X154950000Y-142950000D01*
G37*
%TD*%
D12*
%TO.C,J2*%
X180000000Y-86000000D03*
D13*
X180000000Y-88500000D03*
X180000000Y-91000000D03*
X180000000Y-93500000D03*
X180000000Y-96000000D03*
X180000000Y-98500000D03*
%TD*%
D14*
%TO.C,K3*%
X163400000Y-136500000D03*
D15*
X169450000Y-134550000D03*
D14*
X169450000Y-122350000D03*
X157400000Y-122300000D03*
D15*
X157450000Y-134550000D03*
%TD*%
D16*
%TO.C,C4*%
X171347349Y-98700000D03*
D17*
X174847349Y-98700000D03*
%TD*%
D18*
%TO.C,C1*%
X96000000Y-111300000D03*
D19*
X101000000Y-111300000D03*
%TD*%
D18*
%TO.C,C2*%
X96000000Y-100700000D03*
D19*
X101000000Y-100700000D03*
%TD*%
D14*
%TO.C,K1*%
X130200000Y-136450000D03*
D15*
X136250000Y-134500000D03*
D14*
X136250000Y-122300000D03*
X124200000Y-122250000D03*
D15*
X124250000Y-134500000D03*
%TD*%
D20*
%TO.C,D7*%
X90000000Y-107400000D03*
D21*
X90000000Y-102320000D03*
X90000000Y-97240000D03*
X90000000Y-92160000D03*
%TD*%
D14*
%TO.C,K8*%
X128650000Y-98950000D03*
D15*
X134700000Y-97000000D03*
D14*
X134700000Y-84800000D03*
X122650000Y-84750000D03*
D15*
X122700000Y-97000000D03*
%TD*%
D14*
%TO.C,K2*%
X146700000Y-136450000D03*
D15*
X152750000Y-134500000D03*
D14*
X152750000Y-122300000D03*
X140700000Y-122250000D03*
D15*
X140750000Y-134500000D03*
%TD*%
D22*
%TO.C,J4*%
X157050000Y-97900000D03*
D13*
X157050000Y-95400000D03*
X157050000Y-92900000D03*
X157050000Y-90400000D03*
X157050000Y-87900000D03*
X157050000Y-85400000D03*
%TD*%
D23*
%TO.C,MOD1*%
X92430000Y-144950000D03*
D24*
X97430000Y-144950000D03*
X102430000Y-144950000D03*
X107430000Y-144950000D03*
X112430000Y-144950000D03*
X117430000Y-144950000D03*
X122430000Y-144950000D03*
X127430000Y-144950000D03*
X132430000Y-144950000D03*
X137430000Y-144950000D03*
X142430000Y-144950000D03*
X147430000Y-144950000D03*
D23*
X162670000Y-144950000D03*
D24*
X167670000Y-144950000D03*
X172670000Y-144950000D03*
X177670000Y-144950000D03*
X182670000Y-144950000D03*
X187670000Y-144950000D03*
X192670000Y-144950000D03*
X197670000Y-144950000D03*
X202670000Y-144950000D03*
X207670000Y-144950000D03*
X212670000Y-144950000D03*
X217670000Y-144950000D03*
D23*
X217670000Y-74331500D03*
D24*
X212670000Y-74331500D03*
X207670000Y-74331500D03*
X202670000Y-74331500D03*
X197670000Y-74331500D03*
X192670000Y-74331500D03*
X187670000Y-74331500D03*
X182670000Y-74331500D03*
X177670000Y-74331500D03*
X172670000Y-74331500D03*
X167670000Y-74331500D03*
X162670000Y-74331500D03*
D23*
X147430000Y-74331500D03*
D24*
X142430000Y-74331500D03*
X137430000Y-74331500D03*
X132430000Y-74331500D03*
X127430000Y-74331500D03*
X122430000Y-74331500D03*
X117430000Y-74331500D03*
X112430000Y-74331500D03*
X107430000Y-74331500D03*
X102430000Y-74331500D03*
X97430000Y-74331500D03*
X92430000Y-74331500D03*
D23*
X152510000Y-144950000D03*
D24*
X157590000Y-144950000D03*
D23*
X157590000Y-74331500D03*
D24*
X152510000Y-74331500D03*
D25*
X91875000Y-85075000D03*
X91875000Y-134825000D03*
X218225000Y-85075000D03*
X218225000Y-134825000D03*
%TD*%
D14*
%TO.C,K4*%
X179900000Y-136500000D03*
D15*
X185950000Y-134550000D03*
D14*
X185950000Y-122350000D03*
X173900000Y-122300000D03*
D15*
X173950000Y-134550000D03*
%TD*%
D14*
%TO.C,K5*%
X113700000Y-136450000D03*
D15*
X119750000Y-134500000D03*
D14*
X119750000Y-122300000D03*
X107700000Y-122250000D03*
D15*
X107750000Y-134500000D03*
%TD*%
D26*
%TO.C,U18*%
X166853000Y-87107500D03*
D27*
X169393000Y-87107500D03*
X171933000Y-87107500D03*
%TD*%
D22*
%TO.C,J3*%
X151200000Y-97900000D03*
D13*
X151200000Y-95400000D03*
X151200000Y-92900000D03*
X151200000Y-90400000D03*
X151200000Y-87900000D03*
X151200000Y-85400000D03*
%TD*%
D14*
%TO.C,K6*%
X196400000Y-136500000D03*
D15*
X202450000Y-134550000D03*
D14*
X202450000Y-122350000D03*
X190400000Y-122300000D03*
D15*
X190450000Y-134550000D03*
%TD*%
D28*
%TO.C,F2*%
X90800000Y-116800000D03*
X89600000Y-127000000D03*
%TD*%
D14*
%TO.C,K7*%
X112400000Y-98900000D03*
D15*
X118450000Y-96950000D03*
D14*
X118450000Y-84750000D03*
X106400000Y-84700000D03*
D15*
X106450000Y-96950000D03*
%TD*%
D29*
%TO.C,R26*%
X206250000Y-133412500D03*
X206250000Y-131587500D03*
%TD*%
D30*
%TO.C,D8*%
X114900000Y-103000000D03*
X110100000Y-103000000D03*
%TD*%
%TO.C,D9*%
X131300000Y-103200000D03*
X126500000Y-103200000D03*
%TD*%
D31*
%TO.C,D2*%
X136050000Y-137650000D03*
X140850000Y-137650000D03*
%TD*%
D29*
%TO.C,R24*%
X211600000Y-133412500D03*
X211600000Y-131587500D03*
%TD*%
D31*
%TO.C,D6*%
X186000000Y-131500000D03*
X190800000Y-131500000D03*
%TD*%
D32*
%TO.C,U12*%
X214770000Y-128865000D03*
X212230000Y-128865000D03*
X212230000Y-119335000D03*
X214770000Y-119335000D03*
%TD*%
D33*
%TO.C,JP1*%
X200000000Y-70100000D03*
D34*
X201300000Y-70100000D03*
%TD*%
D32*
%TO.C,U8*%
X98000000Y-130500000D03*
X95460000Y-130500000D03*
X95460000Y-120970000D03*
X98000000Y-120970000D03*
%TD*%
D31*
%TO.C,D4*%
X169250000Y-137650000D03*
X174050000Y-137650000D03*
%TD*%
D29*
%TO.C,R25*%
X208750000Y-133412500D03*
X208750000Y-131587500D03*
%TD*%
D31*
%TO.C,D1*%
X119800000Y-131500000D03*
X124600000Y-131500000D03*
%TD*%
D30*
%TO.C,D5*%
X116600000Y-132350000D03*
X111800000Y-132350000D03*
%TD*%
D35*
%TO.C,U3*%
X164400000Y-111500000D03*
X164900000Y-111500000D03*
X165400000Y-111500000D03*
X165900000Y-111500000D03*
X166400000Y-111500000D03*
X166400000Y-115900000D03*
X165900000Y-115900000D03*
X165400000Y-115900000D03*
X164900000Y-115900000D03*
X164400000Y-115900000D03*
%TD*%
D36*
%TO.C,R2*%
X163537500Y-122300000D03*
X166462500Y-122300000D03*
%TD*%
D29*
%TO.C,R12*%
X96650000Y-134912500D03*
X96650000Y-133087500D03*
%TD*%
%TO.C,R14*%
X101350000Y-135000000D03*
X101350000Y-133175000D03*
%TD*%
D32*
%TO.C,U13*%
X208970000Y-128865000D03*
X206430000Y-128865000D03*
X206430000Y-119335000D03*
X208970000Y-119335000D03*
%TD*%
D36*
%TO.C,R1*%
X130737500Y-122400000D03*
X133662500Y-122400000D03*
%TD*%
D29*
%TO.C,R23*%
X213900000Y-133412500D03*
X213900000Y-131587500D03*
%TD*%
D31*
%TO.C,D3*%
X152550000Y-137700000D03*
X157350000Y-137700000D03*
%TD*%
D35*
%TO.C,U14*%
X132400000Y-111700000D03*
X132900000Y-111700000D03*
X133400000Y-111700000D03*
X133900000Y-111700000D03*
X134400000Y-111700000D03*
X134400000Y-116100000D03*
X133900000Y-116100000D03*
X133400000Y-116100000D03*
X132900000Y-116100000D03*
X132400000Y-116100000D03*
%TD*%
D32*
%TO.C,U9*%
X103770000Y-130565000D03*
X101230000Y-130565000D03*
X101230000Y-121035000D03*
X103770000Y-121035000D03*
%TD*%
D33*
%TO.C,JP2*%
X154450000Y-142200000D03*
D34*
X155750000Y-142200000D03*
%TD*%
D29*
%TO.C,R13*%
X103750000Y-135000000D03*
X103750000Y-133175000D03*
%TD*%
%TO.C,R11*%
X99000000Y-134950000D03*
X99000000Y-133125000D03*
%TD*%
%LPD*%
M02*
