%TF.GenerationSoftware,KiCad,Pcbnew,9.0.3*%
%TF.CreationDate,2025-11-14T19:54:21+01:00*%
%TF.ProjectId,ESPhome_greenhouse_controller,45535068-6f6d-4655-9f67-7265656e686f,rev?*%
%TF.SameCoordinates,Original*%
%TF.FileFunction,Copper,L2,Bot*%
%TF.FilePolarity,Positive*%
%FSLAX46Y46*%
G04 Gerber Fmt 4.6, Leading zero omitted, Abs format (unit mm)*
G04 Created by KiCad (PCBNEW 9.0.3) date 2025-11-14 19:54:21*
%MOMM*%
%LPD*%
G01*
G04 APERTURE LIST*
G04 Aperture macros list*
%AMRoundRect*
0 Rectangle with rounded corners*
0 $1 Rounding radius*
0 $2 $3 $4 $5 $6 $7 $8 $9 X,Y pos of 4 corners*
0 Add a 4 corners polygon primitive as box body*
4,1,4,$2,$3,$4,$5,$6,$7,$8,$9,$2,$3,0*
0 Add four circle primitives for the rounded corners*
1,1,$1+$1,$2,$3*
1,1,$1+$1,$4,$5*
1,1,$1+$1,$6,$7*
1,1,$1+$1,$8,$9*
0 Add four rect primitives between the rounded corners*
20,1,$1+$1,$2,$3,$4,$5,0*
20,1,$1+$1,$4,$5,$6,$7,0*
20,1,$1+$1,$6,$7,$8,$9,0*
20,1,$1+$1,$8,$9,$2,$3,0*%
%AMFreePoly0*
4,1,23,0.500000,-0.750000,0.000000,-0.750000,0.000000,-0.745722,-0.065263,-0.745722,-0.191342,-0.711940,-0.304381,-0.646677,-0.396677,-0.554381,-0.461940,-0.441342,-0.495722,-0.315263,-0.495722,-0.250000,-0.500000,-0.250000,-0.500000,0.250000,-0.495722,0.250000,-0.495722,0.315263,-0.461940,0.441342,-0.396677,0.554381,-0.304381,0.646677,-0.191342,0.711940,-0.065263,0.745722,0.000000,0.745722,
0.000000,0.750000,0.500000,0.750000,0.500000,-0.750000,0.500000,-0.750000,$1*%
%AMFreePoly1*
4,1,23,0.000000,0.745722,0.065263,0.745722,0.191342,0.711940,0.304381,0.646677,0.396677,0.554381,0.461940,0.441342,0.495722,0.315263,0.495722,0.250000,0.500000,0.250000,0.500000,-0.250000,0.495722,-0.250000,0.495722,-0.315263,0.461940,-0.441342,0.396677,-0.554381,0.304381,-0.646677,0.191342,-0.711940,0.065263,-0.745722,0.000000,-0.745722,0.000000,-0.750000,-0.500000,-0.750000,
-0.500000,0.750000,0.000000,0.750000,0.000000,0.745722,0.000000,0.745722,$1*%
G04 Aperture macros list end*
%TA.AperFunction,ComponentPad*%
%ADD10RoundRect,0.250000X-0.725000X0.600000X-0.725000X-0.600000X0.725000X-0.600000X0.725000X0.600000X0*%
%TD*%
%TA.AperFunction,ComponentPad*%
%ADD11O,1.950000X1.700000*%
%TD*%
%TA.AperFunction,ComponentPad*%
%ADD12C,3.000000*%
%TD*%
%TA.AperFunction,ComponentPad*%
%ADD13C,2.500000*%
%TD*%
%TA.AperFunction,ComponentPad*%
%ADD14RoundRect,0.250000X-0.550000X-0.550000X0.550000X-0.550000X0.550000X0.550000X-0.550000X0.550000X0*%
%TD*%
%TA.AperFunction,ComponentPad*%
%ADD15C,1.600000*%
%TD*%
%TA.AperFunction,ComponentPad*%
%ADD16RoundRect,0.250000X-0.750000X-0.750000X0.750000X-0.750000X0.750000X0.750000X-0.750000X0.750000X0*%
%TD*%
%TA.AperFunction,ComponentPad*%
%ADD17C,2.000000*%
%TD*%
%TA.AperFunction,ComponentPad*%
%ADD18R,3.200000X3.200000*%
%TD*%
%TA.AperFunction,ComponentPad*%
%ADD19C,3.200000*%
%TD*%
%TA.AperFunction,ComponentPad*%
%ADD20RoundRect,0.250000X0.725000X-0.600000X0.725000X0.600000X-0.725000X0.600000X-0.725000X-0.600000X0*%
%TD*%
%TA.AperFunction,ComponentPad*%
%ADD21R,2.600000X2.600000*%
%TD*%
%TA.AperFunction,ComponentPad*%
%ADD22C,2.600000*%
%TD*%
%TA.AperFunction,ComponentPad*%
%ADD23C,5.600000*%
%TD*%
%TA.AperFunction,ComponentPad*%
%ADD24R,1.500000X2.300000*%
%TD*%
%TA.AperFunction,ComponentPad*%
%ADD25O,1.500000X2.300000*%
%TD*%
%TA.AperFunction,ComponentPad*%
%ADD26C,2.010000*%
%TD*%
%TA.AperFunction,SMDPad,CuDef*%
%ADD27RoundRect,0.250000X0.450000X-0.262500X0.450000X0.262500X-0.450000X0.262500X-0.450000X-0.262500X0*%
%TD*%
%TA.AperFunction,SMDPad,CuDef*%
%ADD28RoundRect,0.250000X0.500000X1.100000X-0.500000X1.100000X-0.500000X-1.100000X0.500000X-1.100000X0*%
%TD*%
%TA.AperFunction,SMDPad,CuDef*%
%ADD29RoundRect,0.250000X-0.500000X-1.100000X0.500000X-1.100000X0.500000X1.100000X-0.500000X1.100000X0*%
%TD*%
%TA.AperFunction,SMDPad,CuDef*%
%ADD30RoundRect,0.249999X0.640001X-0.750001X0.640001X0.750001X-0.640001X0.750001X-0.640001X-0.750001X0*%
%TD*%
%TA.AperFunction,SMDPad,CuDef*%
%ADD31FreePoly0,0.000000*%
%TD*%
%TA.AperFunction,SMDPad,CuDef*%
%ADD32FreePoly1,0.000000*%
%TD*%
%TA.AperFunction,SMDPad,CuDef*%
%ADD33RoundRect,0.075000X-0.075000X0.650000X-0.075000X-0.650000X0.075000X-0.650000X0.075000X0.650000X0*%
%TD*%
%TA.AperFunction,SMDPad,CuDef*%
%ADD34RoundRect,0.250000X-0.312500X-0.625000X0.312500X-0.625000X0.312500X0.625000X-0.312500X0.625000X0*%
%TD*%
%TA.AperFunction,ViaPad*%
%ADD35C,0.600000*%
%TD*%
%TA.AperFunction,ViaPad*%
%ADD36C,0.650000*%
%TD*%
%TA.AperFunction,ViaPad*%
%ADD37C,0.450000*%
%TD*%
%TA.AperFunction,ViaPad*%
%ADD38C,0.800000*%
%TD*%
%TA.AperFunction,Conductor*%
%ADD39C,0.200000*%
%TD*%
%TA.AperFunction,Conductor*%
%ADD40C,1.000000*%
%TD*%
%TA.AperFunction,Conductor*%
%ADD41C,2.000000*%
%TD*%
%TA.AperFunction,Conductor*%
%ADD42C,0.500000*%
%TD*%
%TA.AperFunction,Conductor*%
%ADD43C,0.300000*%
%TD*%
G04 APERTURE END LIST*
D10*
%TO.P,J2,1,Pin_1*%
%TO.N,+3V3*%
X180000000Y-86000000D03*
D11*
%TO.P,J2,2,Pin_2*%
%TO.N,/OWIRE*%
X180000000Y-88500000D03*
%TO.P,J2,3,Pin_3*%
%TO.N,/6*%
X180000000Y-91000000D03*
%TO.P,J2,4,Pin_4*%
%TO.N,/7*%
X180000000Y-93500000D03*
%TO.P,J2,5,Pin_5*%
%TO.N,/8*%
X180000000Y-96000000D03*
%TO.P,J2,6,Pin_6*%
%TO.N,GND*%
X180000000Y-98500000D03*
%TD*%
D12*
%TO.P,K3,1*%
%TO.N,/M2-*%
X163400000Y-136500000D03*
D13*
%TO.P,K3,2*%
%TO.N,+24V*%
X169450000Y-134550000D03*
D12*
%TO.P,K3,3*%
%TO.N,Net-(U3-Vin-)*%
X169450000Y-122350000D03*
%TO.P,K3,4*%
%TO.N,GND*%
X157400000Y-122300000D03*
D13*
%TO.P,K3,5*%
%TO.N,/nREV2*%
X157450000Y-134550000D03*
%TD*%
D14*
%TO.P,C4,1*%
%TO.N,+3V3*%
X171347349Y-98700000D03*
D15*
%TO.P,C4,2*%
%TO.N,GND*%
X174847349Y-98700000D03*
%TD*%
D16*
%TO.P,C1,1*%
%TO.N,VBUS*%
X96000000Y-111300000D03*
D17*
%TO.P,C1,2*%
%TO.N,GND*%
X101000000Y-111300000D03*
%TD*%
D16*
%TO.P,C2,1*%
%TO.N,VBUS*%
X96000000Y-100700000D03*
D17*
%TO.P,C2,2*%
%TO.N,GND*%
X101000000Y-100700000D03*
%TD*%
D12*
%TO.P,K1,1*%
%TO.N,/M1+*%
X130200000Y-136450000D03*
D13*
%TO.P,K1,2*%
%TO.N,+24V*%
X136250000Y-134500000D03*
D12*
%TO.P,K1,3*%
%TO.N,Net-(U14-Vin-)*%
X136250000Y-122300000D03*
%TO.P,K1,4*%
%TO.N,GND*%
X124200000Y-122250000D03*
D13*
%TO.P,K1,5*%
%TO.N,/nFWD1*%
X124250000Y-134500000D03*
%TD*%
D18*
%TO.P,D7,1,+*%
%TO.N,VBUS*%
X90000000Y-107400000D03*
D19*
%TO.P,D7,2*%
%TO.N,Net-(D7-Pad2)*%
X90000000Y-102320000D03*
%TO.P,D7,3*%
%TO.N,Net-(D7-Pad3)*%
X90000000Y-97240000D03*
%TO.P,D7,4,-*%
%TO.N,GND*%
X90000000Y-92160000D03*
%TD*%
D12*
%TO.P,K8,1*%
%TO.N,/COM2*%
X128650000Y-98950000D03*
D13*
%TO.P,K8,2*%
%TO.N,+24V*%
X134700000Y-97000000D03*
D12*
%TO.P,K8,3*%
%TO.N,/NO2*%
X134700000Y-84800000D03*
%TO.P,K8,4*%
%TO.N,/NC2*%
X122650000Y-84750000D03*
D13*
%TO.P,K8,5*%
%TO.N,/nREL2*%
X122700000Y-97000000D03*
%TD*%
D12*
%TO.P,K2,1*%
%TO.N,/M1-*%
X146700000Y-136450000D03*
D13*
%TO.P,K2,2*%
%TO.N,+24V*%
X152750000Y-134500000D03*
D12*
%TO.P,K2,3*%
%TO.N,Net-(U14-Vin-)*%
X152750000Y-122300000D03*
%TO.P,K2,4*%
%TO.N,GND*%
X140700000Y-122250000D03*
D13*
%TO.P,K2,5*%
%TO.N,/nREV1*%
X140750000Y-134500000D03*
%TD*%
D20*
%TO.P,J4,1,Pin_1*%
%TO.N,+3V3*%
X157050000Y-97900000D03*
D11*
%TO.P,J4,2,Pin_2*%
%TO.N,/INT*%
X157050000Y-95400000D03*
%TO.P,J4,3,Pin_3*%
%TO.N,/SDA*%
X157050000Y-92900000D03*
%TO.P,J4,4,Pin_4*%
%TO.N,/SCL*%
X157050000Y-90400000D03*
%TO.P,J4,5,Pin_5*%
%TO.N,GND*%
X157050000Y-87900000D03*
%TO.P,J4,6,Pin_6*%
%TO.N,+24V*%
X157050000Y-85400000D03*
%TD*%
D21*
%TO.P,MOD1,A1,A1*%
%TO.N,+24V*%
X92430000Y-144950000D03*
D22*
%TO.P,MOD1,A2,A2*%
%TO.N,/IN1_1_P*%
X97430000Y-144950000D03*
%TO.P,MOD1,A3,A3*%
%TO.N,+24V*%
X102430000Y-144950000D03*
%TO.P,MOD1,A4,A*%
%TO.N,/IN1_2_P*%
X107430000Y-144950000D03*
%TO.P,MOD1,A5,A5*%
%TO.N,+24V*%
X112430000Y-144950000D03*
%TO.P,MOD1,A6,A6*%
%TO.N,/IN2_1_P*%
X117430000Y-144950000D03*
%TO.P,MOD1,A7,A7*%
%TO.N,+24V*%
X122430000Y-144950000D03*
%TO.P,MOD1,A8,A8*%
%TO.N,/IN2_2_P*%
X127430000Y-144950000D03*
%TO.P,MOD1,A9,A9*%
%TO.N,/SOUND+*%
X132430000Y-144950000D03*
%TO.P,MOD1,A10,A10*%
%TO.N,GND*%
X137430000Y-144950000D03*
%TO.P,MOD1,A11,A11*%
%TO.N,/M1+*%
X142430000Y-144950000D03*
%TO.P,MOD1,A12,A12*%
%TO.N,/M1-*%
X147430000Y-144950000D03*
D21*
%TO.P,MOD1,B1,B1*%
%TO.N,/M2-*%
X162670000Y-144950000D03*
D22*
%TO.P,MOD1,B2,B2*%
%TO.N,/M2+*%
X167670000Y-144950000D03*
%TO.P,MOD1,B3,B3*%
%TO.N,GND*%
X172670000Y-144950000D03*
%TO.P,MOD1,B4,B4*%
%TO.N,/LIGHT+*%
X177670000Y-144950000D03*
%TO.P,MOD1,B5,B5*%
%TO.N,/IN4_2_P*%
X182670000Y-144950000D03*
%TO.P,MOD1,B6,B6*%
%TO.N,+24V*%
X187670000Y-144950000D03*
%TO.P,MOD1,B7,B7*%
%TO.N,/IN4_1_P*%
X192670000Y-144950000D03*
%TO.P,MOD1,B8,B8*%
%TO.N,+24V*%
X197670000Y-144950000D03*
%TO.P,MOD1,B9,B9*%
%TO.N,/IN3_2_P*%
X202670000Y-144950000D03*
%TO.P,MOD1,B10,B10*%
%TO.N,+24V*%
X207670000Y-144950000D03*
%TO.P,MOD1,B11,B11*%
%TO.N,/IN3_1_P*%
X212670000Y-144950000D03*
%TO.P,MOD1,B12,B12*%
%TO.N,+24V*%
X217670000Y-144950000D03*
D21*
%TO.P,MOD1,C1,C1*%
%TO.N,GND2*%
X217670000Y-74331500D03*
D22*
%TO.P,MOD1,C2,C2*%
%TO.N,/SIG_CLOSE*%
X212670000Y-74331500D03*
%TO.P,MOD1,C3,C3*%
%TO.N,GND2*%
X207670000Y-74331500D03*
%TO.P,MOD1,C4,C4*%
%TO.N,/SIG_OPEN*%
X202670000Y-74331500D03*
%TO.P,MOD1,C5,C5*%
%TO.N,/1*%
X197670000Y-74331500D03*
%TO.P,MOD1,C6,C6*%
%TO.N,/2*%
X192670000Y-74331500D03*
%TO.P,MOD1,C7,C7*%
%TO.N,/3*%
X187670000Y-74331500D03*
%TO.P,MOD1,C8,C8*%
%TO.N,/4*%
X182670000Y-74331500D03*
%TO.P,MOD1,C9,C9*%
%TO.N,/5*%
X177670000Y-74331500D03*
%TO.P,MOD1,C10,C10*%
%TO.N,GND*%
X172670000Y-74331500D03*
%TO.P,MOD1,C11,C11*%
%TO.N,/OWIRE*%
X167670000Y-74331500D03*
%TO.P,MOD1,C12,C12*%
%TO.N,+3V3*%
X162670000Y-74331500D03*
D21*
%TO.P,MOD1,D1,D1*%
%TO.N,+24V*%
X147430000Y-74331500D03*
D22*
%TO.P,MOD1,D2,D2*%
%TO.N,/IN5_2_P*%
X142430000Y-74331500D03*
%TO.P,MOD1,D3,D3*%
%TO.N,+24V*%
X137430000Y-74331500D03*
%TO.P,MOD1,D4,D4*%
%TO.N,/IN5_1_P*%
X132430000Y-74331500D03*
%TO.P,MOD1,D5,D5*%
%TO.N,/NO2*%
X127430000Y-74331500D03*
%TO.P,MOD1,D6,D6*%
%TO.N,/COM2*%
X122430000Y-74331500D03*
%TO.P,MOD1,D7,D7*%
%TO.N,/NC2*%
X117430000Y-74331500D03*
%TO.P,MOD1,D8,D8*%
%TO.N,/NO1*%
X112430000Y-74331500D03*
%TO.P,MOD1,D9,D9*%
%TO.N,/COM1*%
X107430000Y-74331500D03*
%TO.P,MOD1,D10,D10*%
%TO.N,/NC1*%
X102430000Y-74331500D03*
%TO.P,MOD1,D11,D11*%
%TO.N,Net-(D7-Pad2)*%
X97430000Y-74331500D03*
%TO.P,MOD1,D12,D12*%
%TO.N,Net-(D7-Pad3)*%
X92430000Y-74331500D03*
D21*
%TO.P,MOD1,E1,E1*%
%TO.N,+24V*%
X152510000Y-144950000D03*
D22*
%TO.P,MOD1,E2,E2*%
%TO.N,MOTOR*%
X157590000Y-144950000D03*
D21*
%TO.P,MOD1,F1*%
%TO.N,N/C*%
X157590000Y-74331500D03*
D22*
%TO.P,MOD1,F2*%
X152510000Y-74331500D03*
D23*
%TO.P,MOD1,MH1*%
X91875000Y-85075000D03*
X91875000Y-134825000D03*
%TO.P,MOD1,MH2*%
X218225000Y-85075000D03*
X218225000Y-134825000D03*
%TD*%
D12*
%TO.P,K4,1*%
%TO.N,/M2+*%
X179900000Y-136500000D03*
D13*
%TO.P,K4,2*%
%TO.N,+24V*%
X185950000Y-134550000D03*
D12*
%TO.P,K4,3*%
%TO.N,Net-(U3-Vin-)*%
X185950000Y-122350000D03*
%TO.P,K4,4*%
%TO.N,GND*%
X173900000Y-122300000D03*
D13*
%TO.P,K4,5*%
%TO.N,/nFWD2*%
X173950000Y-134550000D03*
%TD*%
D12*
%TO.P,K5,1*%
%TO.N,/SOUND+*%
X113700000Y-136450000D03*
D13*
%TO.P,K5,2*%
%TO.N,+24V*%
X119750000Y-134500000D03*
D12*
%TO.P,K5,3*%
X119750000Y-122300000D03*
%TO.P,K5,4*%
%TO.N,unconnected-(K5-Pad4)*%
X107700000Y-122250000D03*
D13*
%TO.P,K5,5*%
%TO.N,/nSOUND*%
X107750000Y-134500000D03*
%TD*%
D24*
%TO.P,U18,1,IN*%
%TO.N,+24V*%
X166853000Y-87107500D03*
D25*
%TO.P,U18,2,GND*%
%TO.N,GND*%
X169393000Y-87107500D03*
%TO.P,U18,3,OUT*%
%TO.N,+3V3*%
X171933000Y-87107500D03*
%TD*%
D20*
%TO.P,J3,1,Pin_1*%
%TO.N,+3V3*%
X151200000Y-97900000D03*
D11*
%TO.P,J3,2,Pin_2*%
%TO.N,/INT*%
X151200000Y-95400000D03*
%TO.P,J3,3,Pin_3*%
%TO.N,/SDA*%
X151200000Y-92900000D03*
%TO.P,J3,4,Pin_4*%
%TO.N,/SCL*%
X151200000Y-90400000D03*
%TO.P,J3,5,Pin_5*%
%TO.N,GND*%
X151200000Y-87900000D03*
%TO.P,J3,6,Pin_6*%
%TO.N,+24V*%
X151200000Y-85400000D03*
%TD*%
D12*
%TO.P,K6,1*%
%TO.N,/LIGHT+*%
X196400000Y-136500000D03*
D13*
%TO.P,K6,2*%
%TO.N,+24V*%
X202450000Y-134550000D03*
D12*
%TO.P,K6,3*%
X202450000Y-122350000D03*
%TO.P,K6,4*%
%TO.N,unconnected-(K6-Pad4)*%
X190400000Y-122300000D03*
D13*
%TO.P,K6,5*%
%TO.N,/nLIGHT*%
X190450000Y-134550000D03*
%TD*%
D26*
%TO.P,F2,1*%
%TO.N,VBUS*%
X90800000Y-116800000D03*
%TO.P,F2,2*%
%TO.N,+24V*%
X89600000Y-127000000D03*
%TD*%
D12*
%TO.P,K7,1*%
%TO.N,/COM1*%
X112400000Y-98900000D03*
D13*
%TO.P,K7,2*%
%TO.N,+24V*%
X118450000Y-96950000D03*
D12*
%TO.P,K7,3*%
%TO.N,/NO1*%
X118450000Y-84750000D03*
%TO.P,K7,4*%
%TO.N,/NC1*%
X106400000Y-84700000D03*
D13*
%TO.P,K7,5*%
%TO.N,/nREL1*%
X106450000Y-96950000D03*
%TD*%
D27*
%TO.P,R26,1*%
%TO.N,GND*%
X206250000Y-133412500D03*
%TO.P,R26,2*%
%TO.N,Net-(R26-Pad2)*%
X206250000Y-131587500D03*
%TD*%
D28*
%TO.P,D8,1,K*%
%TO.N,+24V*%
X114900000Y-103000000D03*
%TO.P,D8,2,A*%
%TO.N,/nREL1*%
X110100000Y-103000000D03*
%TD*%
%TO.P,D9,1,K*%
%TO.N,+24V*%
X131300000Y-103200000D03*
%TO.P,D9,2,A*%
%TO.N,/nREL2*%
X126500000Y-103200000D03*
%TD*%
D29*
%TO.P,D2,1,K*%
%TO.N,+24V*%
X136050000Y-137650000D03*
%TO.P,D2,2,A*%
%TO.N,/nREV1*%
X140850000Y-137650000D03*
%TD*%
D27*
%TO.P,R24,1*%
%TO.N,GND*%
X211600000Y-133412500D03*
%TO.P,R24,2*%
%TO.N,Net-(R24-Pad2)*%
X211600000Y-131587500D03*
%TD*%
D29*
%TO.P,D6,1,K*%
%TO.N,+24V*%
X186000000Y-131500000D03*
%TO.P,D6,2,A*%
%TO.N,/nLIGHT*%
X190800000Y-131500000D03*
%TD*%
D30*
%TO.P,U12,1*%
%TO.N,Net-(R23-Pad2)*%
X214770000Y-128865000D03*
%TO.P,U12,2*%
%TO.N,Net-(R24-Pad2)*%
X212230000Y-128865000D03*
%TO.P,U12,3*%
%TO.N,GND*%
X212230000Y-119335000D03*
%TO.P,U12,4*%
%TO.N,/IN4_1_L*%
X214770000Y-119335000D03*
%TD*%
D31*
%TO.P,JP1,1,A*%
%TO.N,GND*%
X200000000Y-70100000D03*
D32*
%TO.P,JP1,2,B*%
%TO.N,GND2*%
X201300000Y-70100000D03*
%TD*%
D30*
%TO.P,U8,1*%
%TO.N,Net-(R11-Pad2)*%
X98000000Y-130500000D03*
%TO.P,U8,2*%
%TO.N,Net-(R12-Pad2)*%
X95460000Y-130500000D03*
%TO.P,U8,3*%
%TO.N,GND*%
X95460000Y-120970000D03*
%TO.P,U8,4*%
%TO.N,/IN2_1_L*%
X98000000Y-120970000D03*
%TD*%
D29*
%TO.P,D4,1,K*%
%TO.N,+24V*%
X169250000Y-137650000D03*
%TO.P,D4,2,A*%
%TO.N,/nFWD2*%
X174050000Y-137650000D03*
%TD*%
D27*
%TO.P,R25,1*%
%TO.N,/IN4_2_P*%
X208750000Y-133412500D03*
%TO.P,R25,2*%
%TO.N,Net-(R25-Pad2)*%
X208750000Y-131587500D03*
%TD*%
D29*
%TO.P,D1,1,K*%
%TO.N,+24V*%
X119800000Y-131500000D03*
%TO.P,D1,2,A*%
%TO.N,/nFWD1*%
X124600000Y-131500000D03*
%TD*%
D28*
%TO.P,D5,1,K*%
%TO.N,+24V*%
X116600000Y-132350000D03*
%TO.P,D5,2,A*%
%TO.N,/nSOUND*%
X111800000Y-132350000D03*
%TD*%
D33*
%TO.P,U3,1,A1*%
%TO.N,GND*%
X164400000Y-111500000D03*
%TO.P,U3,2,A0*%
%TO.N,+3V3*%
X164900000Y-111500000D03*
%TO.P,U3,3,~{Alert}*%
%TO.N,/M2_A*%
X165400000Y-111500000D03*
%TO.P,U3,4,SDA*%
%TO.N,/SDA*%
X165900000Y-111500000D03*
%TO.P,U3,5,SCL*%
%TO.N,/SCL*%
X166400000Y-111500000D03*
%TO.P,U3,6,VS*%
%TO.N,+3V3*%
X166400000Y-115900000D03*
%TO.P,U3,7,GND*%
%TO.N,GND*%
X165900000Y-115900000D03*
%TO.P,U3,8,Vbus*%
%TO.N,MOTOR*%
X165400000Y-115900000D03*
%TO.P,U3,9,Vin-*%
%TO.N,Net-(U3-Vin-)*%
X164900000Y-115900000D03*
%TO.P,U3,10,Vin+*%
%TO.N,MOTOR*%
X164400000Y-115900000D03*
%TD*%
D34*
%TO.P,R2,1*%
%TO.N,MOTOR*%
X163537500Y-122300000D03*
%TO.P,R2,2*%
%TO.N,Net-(U3-Vin-)*%
X166462500Y-122300000D03*
%TD*%
D27*
%TO.P,R12,1*%
%TO.N,GND*%
X96650000Y-134912500D03*
%TO.P,R12,2*%
%TO.N,Net-(R12-Pad2)*%
X96650000Y-133087500D03*
%TD*%
%TO.P,R14,1*%
%TO.N,GND*%
X101350000Y-135000000D03*
%TO.P,R14,2*%
%TO.N,Net-(R14-Pad2)*%
X101350000Y-133175000D03*
%TD*%
D30*
%TO.P,U13,1*%
%TO.N,Net-(R25-Pad2)*%
X208970000Y-128865000D03*
%TO.P,U13,2*%
%TO.N,Net-(R26-Pad2)*%
X206430000Y-128865000D03*
%TO.P,U13,3*%
%TO.N,GND*%
X206430000Y-119335000D03*
%TO.P,U13,4*%
%TO.N,/IN4_2_L*%
X208970000Y-119335000D03*
%TD*%
D34*
%TO.P,R1,1*%
%TO.N,MOTOR*%
X130737500Y-122400000D03*
%TO.P,R1,2*%
%TO.N,Net-(U14-Vin-)*%
X133662500Y-122400000D03*
%TD*%
D27*
%TO.P,R23,1*%
%TO.N,/IN4_1_P*%
X213900000Y-133412500D03*
%TO.P,R23,2*%
%TO.N,Net-(R23-Pad2)*%
X213900000Y-131587500D03*
%TD*%
D29*
%TO.P,D3,1,K*%
%TO.N,+24V*%
X152550000Y-137700000D03*
%TO.P,D3,2,A*%
%TO.N,/nREV2*%
X157350000Y-137700000D03*
%TD*%
D33*
%TO.P,U14,1,A1*%
%TO.N,GND*%
X132400000Y-111700000D03*
%TO.P,U14,2,A0*%
X132900000Y-111700000D03*
%TO.P,U14,3,~{Alert}*%
%TO.N,/M1_A*%
X133400000Y-111700000D03*
%TO.P,U14,4,SDA*%
%TO.N,/SDA*%
X133900000Y-111700000D03*
%TO.P,U14,5,SCL*%
%TO.N,/SCL*%
X134400000Y-111700000D03*
%TO.P,U14,6,VS*%
%TO.N,+3V3*%
X134400000Y-116100000D03*
%TO.P,U14,7,GND*%
%TO.N,GND*%
X133900000Y-116100000D03*
%TO.P,U14,8,Vbus*%
%TO.N,MOTOR*%
X133400000Y-116100000D03*
%TO.P,U14,9,Vin-*%
%TO.N,Net-(U14-Vin-)*%
X132900000Y-116100000D03*
%TO.P,U14,10,Vin+*%
%TO.N,MOTOR*%
X132400000Y-116100000D03*
%TD*%
D30*
%TO.P,U9,1*%
%TO.N,Net-(R13-Pad2)*%
X103770000Y-130565000D03*
%TO.P,U9,2*%
%TO.N,Net-(R14-Pad2)*%
X101230000Y-130565000D03*
%TO.P,U9,3*%
%TO.N,GND*%
X101230000Y-121035000D03*
%TO.P,U9,4*%
%TO.N,/IN2_2_L*%
X103770000Y-121035000D03*
%TD*%
D31*
%TO.P,JP2,1,A*%
%TO.N,+24V*%
X154450000Y-142200000D03*
D32*
%TO.P,JP2,2,B*%
%TO.N,MOTOR*%
X155750000Y-142200000D03*
%TD*%
D27*
%TO.P,R13,1*%
%TO.N,/IN2_2_P*%
X103750000Y-135000000D03*
%TO.P,R13,2*%
%TO.N,Net-(R13-Pad2)*%
X103750000Y-133175000D03*
%TD*%
%TO.P,R11,1*%
%TO.N,/IN2_1_P*%
X99000000Y-134950000D03*
%TO.P,R11,2*%
%TO.N,Net-(R11-Pad2)*%
X99000000Y-133125000D03*
%TD*%
D35*
%TO.N,/OWIRE*%
X174000000Y-88500000D03*
D36*
%TO.N,/nLIGHT*%
X176150000Y-128500000D03*
X170200000Y-128500000D03*
D37*
%TO.N,+3V3*%
X195500000Y-103500000D03*
D36*
X212950000Y-115400000D03*
X123800000Y-112000000D03*
X189400000Y-117100000D03*
D37*
X135100000Y-116100000D03*
X209100000Y-92400000D03*
D35*
X144400000Y-99400000D03*
D37*
X203465000Y-92365000D03*
D36*
X123800000Y-119100000D03*
X97375000Y-116562500D03*
X167200000Y-116000000D03*
X103275000Y-116562500D03*
D37*
X157000000Y-104200000D03*
D36*
X149800000Y-117150000D03*
X95975000Y-116562500D03*
X208250000Y-115400000D03*
X101975000Y-116562500D03*
D35*
X150800000Y-103600000D03*
D37*
X163000000Y-112200000D03*
D36*
X118100000Y-119200000D03*
X206825000Y-115400000D03*
X214250000Y-115400000D03*
D37*
%TO.N,/nSIG_CLOSE*%
X200400000Y-111500000D03*
X200400000Y-108500000D03*
%TO.N,/nSIG_OPEN*%
X199500000Y-108500000D03*
X199500000Y-112000000D03*
%TO.N,GND*%
X104800000Y-101200000D03*
X170400000Y-96700000D03*
D36*
X210200000Y-134800000D03*
D38*
X117200000Y-124800000D03*
D37*
X209000000Y-114400000D03*
X166000000Y-119800000D03*
X148000000Y-119800000D03*
X97000000Y-118400000D03*
D36*
X105750000Y-119550000D03*
D37*
X99600000Y-119200000D03*
X191300000Y-108600000D03*
X101000000Y-105800000D03*
X113800000Y-101200000D03*
X215100000Y-114500000D03*
X167300000Y-99200000D03*
X165100000Y-99200000D03*
X172800000Y-92000000D03*
X212100000Y-114500000D03*
X101000000Y-103800000D03*
D36*
X97800000Y-136200000D03*
D37*
X102400000Y-118800000D03*
X101000000Y-109000000D03*
X111200000Y-101200000D03*
D36*
X170400000Y-116000000D03*
D37*
X193800000Y-107200000D03*
D36*
X138530000Y-96870000D03*
D37*
X166000000Y-117200000D03*
X165925000Y-114800000D03*
D36*
X184500000Y-141200000D03*
D37*
X132400000Y-110500000D03*
X154500000Y-104100000D03*
X211700000Y-110300000D03*
X196300000Y-107100000D03*
X208600000Y-111700000D03*
D36*
X216400000Y-119400000D03*
D37*
X165000000Y-96700000D03*
X195000000Y-107100000D03*
X101000000Y-102800000D03*
X196900000Y-113300000D03*
X206100000Y-114500000D03*
X199100000Y-113500000D03*
D36*
X102400000Y-136200000D03*
D37*
X133925000Y-115002961D03*
X197000000Y-116400000D03*
X169000000Y-95800000D03*
X170300000Y-95000000D03*
X172900000Y-98800000D03*
X101000000Y-104800000D03*
X109200000Y-112800000D03*
X155800000Y-104100000D03*
X169800000Y-99200000D03*
D38*
X117800000Y-125500000D03*
D37*
X164100000Y-111500000D03*
D36*
X192500000Y-117100000D03*
D37*
X103800000Y-111200000D03*
D36*
X100100000Y-136200000D03*
D37*
X196800000Y-108600000D03*
X101000000Y-106800000D03*
X199100000Y-114500000D03*
D36*
X153100000Y-117000000D03*
X144300000Y-81000000D03*
X210600000Y-119400000D03*
X144230000Y-96830000D03*
X207500000Y-134800000D03*
D38*
X116600000Y-125500000D03*
D36*
X212900000Y-134800000D03*
D38*
X117200000Y-126200000D03*
D37*
X101000000Y-107800000D03*
D36*
X138300000Y-116100000D03*
X106200000Y-116400000D03*
D37*
X132900000Y-110500000D03*
X190400000Y-107300000D03*
X176500000Y-102400000D03*
D36*
X204800000Y-119400000D03*
X125300000Y-140900000D03*
X118400000Y-140900000D03*
D37*
X214800000Y-110700000D03*
X122800000Y-107000000D03*
X205500000Y-111200000D03*
D36*
X138000000Y-80900000D03*
D37*
X163800000Y-119800000D03*
%TO.N,/SDA*%
X167000000Y-112975000D03*
X155800000Y-112400000D03*
X195030000Y-113025000D03*
X165900000Y-92300000D03*
X165875000Y-113000000D03*
%TO.N,/SCL*%
X166500000Y-90800000D03*
X154500000Y-113000000D03*
X193800000Y-113500000D03*
X135475000Y-112775000D03*
X135475000Y-114050000D03*
D36*
%TO.N,+24V*%
X108400000Y-117800000D03*
X161000000Y-85400000D03*
D35*
%TO.N,/nREL1*%
X110100000Y-109100000D03*
D37*
%TO.N,/8*%
X198975000Y-107700000D03*
X199000000Y-112526000D03*
X189600000Y-102000000D03*
%TO.N,/IN2_1_L*%
X98000000Y-119400000D03*
%TO.N,/IN2_2_L*%
X103800000Y-119500000D03*
%TO.N,/IN4_1_L*%
X215650000Y-117600000D03*
%TO.N,/IN4_2_L*%
X209900000Y-117450000D03*
%TO.N,/M2_A*%
X144355000Y-106900000D03*
%TO.N,/M1_A*%
X139850000Y-115150000D03*
%TO.N,/SOUND*%
X123000000Y-110500000D03*
X123000000Y-107875000D03*
%TO.N,/REL2*%
X143400000Y-110300000D03*
X142416000Y-111016000D03*
%TO.N,/IN5_2_L*%
X146550001Y-110375000D03*
X145100000Y-108900000D03*
D35*
%TO.N,/nREL2*%
X121420000Y-116380000D03*
D37*
%TO.N,/IN5_1_L*%
X144880000Y-109511638D03*
X146367576Y-110998879D03*
D38*
%TO.N,MOTOR*%
X163500000Y-130700000D03*
X165600000Y-130700000D03*
X164600000Y-130700000D03*
%TD*%
D39*
%TO.N,/OWIRE*%
X180000000Y-88500000D02*
X174000000Y-88500000D01*
D40*
%TO.N,+3V3*%
X175500000Y-86000000D02*
X180000000Y-86000000D01*
X174392500Y-87107500D02*
X175500000Y-86000000D01*
X171933000Y-87107500D02*
X174392500Y-87107500D01*
D41*
%TO.N,/nFWD1*%
X124600000Y-131500000D02*
X124600000Y-134150000D01*
X124600000Y-134150000D02*
X124250000Y-134500000D01*
%TO.N,/nREV1*%
X140850000Y-137650000D02*
X140850000Y-134600000D01*
X140850000Y-134600000D02*
X140750000Y-134500000D01*
%TO.N,/nREV2*%
X157350000Y-137700000D02*
X157350000Y-134650000D01*
X157350000Y-134650000D02*
X157450000Y-134550000D01*
%TO.N,/nFWD2*%
X174050000Y-134650000D02*
X173950000Y-134550000D01*
X174050000Y-137650000D02*
X174050000Y-134650000D01*
%TO.N,/M2-*%
X162670000Y-140830000D02*
X163400000Y-140100000D01*
X163400000Y-140100000D02*
X163400000Y-136500000D01*
X162670000Y-145000000D02*
X162670000Y-140830000D01*
%TO.N,/M2+*%
X174850000Y-141550000D02*
X179900000Y-136500000D01*
X167670000Y-145000000D02*
X167670000Y-144950000D01*
X167670000Y-144950000D02*
X171070000Y-141550000D01*
X171070000Y-141550000D02*
X174850000Y-141550000D01*
%TO.N,/nSOUND*%
X111800000Y-132350000D02*
X109900000Y-132350000D01*
X109900000Y-132350000D02*
X107750000Y-134500000D01*
%TO.N,/nLIGHT*%
X190800000Y-134200000D02*
X190450000Y-134550000D01*
D42*
X170200000Y-128500000D02*
X176150000Y-128500000D01*
D41*
X190800000Y-131500000D02*
X190800000Y-134200000D01*
D40*
%TO.N,+3V3*%
X162670000Y-79470000D02*
X166900000Y-83700000D01*
D42*
X140600000Y-116200000D02*
X139500000Y-116200000D01*
X203465000Y-92365000D02*
X195500000Y-100330000D01*
X149800000Y-116300000D02*
X148800000Y-115300000D01*
X167500000Y-117100000D02*
X167200000Y-116800000D01*
X195500000Y-103500000D02*
X176147349Y-103500000D01*
X157000000Y-103200000D02*
X155900000Y-102100000D01*
D39*
X164900000Y-111500000D02*
X164900000Y-112300000D01*
D42*
X150800000Y-103600000D02*
X150800000Y-102500000D01*
X144400000Y-99400000D02*
X146900000Y-99400000D01*
X104437500Y-116562500D02*
X103275000Y-116562500D01*
X167200000Y-116800000D02*
X167200000Y-116000000D01*
X138550000Y-117150000D02*
X136150000Y-117150000D01*
X139500000Y-116200000D02*
X138550000Y-117150000D01*
X144800000Y-104100000D02*
X150300000Y-104100000D01*
X149800000Y-117150000D02*
X149800000Y-116300000D01*
X118100000Y-119200000D02*
X107075000Y-119200000D01*
X198100000Y-115400000D02*
X198100000Y-106100000D01*
X214250000Y-115400000D02*
X206825000Y-115400000D01*
X97375000Y-116562500D02*
X101975000Y-116562500D01*
X151200000Y-102100000D02*
X151200000Y-97900000D01*
X123800000Y-112000000D02*
X123800000Y-107575000D01*
X141500000Y-115300000D02*
X140600000Y-116200000D01*
X195500000Y-100330000D02*
X195500000Y-103500000D01*
D39*
X164900000Y-112300000D02*
X164674000Y-112526000D01*
D42*
X142400000Y-106500000D02*
X144800000Y-104100000D01*
D43*
X167100000Y-115900000D02*
X167200000Y-116000000D01*
D42*
X198100000Y-115400000D02*
X206825000Y-115400000D01*
X124875000Y-106500000D02*
X142400000Y-106500000D01*
X209065000Y-92365000D02*
X209100000Y-92400000D01*
X176147349Y-103500000D02*
X171347349Y-98700000D01*
D40*
X162670000Y-74331500D02*
X162670000Y-79470000D01*
D42*
X155900000Y-102100000D02*
X151200000Y-102100000D01*
X146900000Y-99400000D02*
X148400000Y-97900000D01*
D40*
X171933000Y-85533000D02*
X171933000Y-87107500D01*
D42*
X123800000Y-119100000D02*
X123800000Y-112000000D01*
X148400000Y-97900000D02*
X151200000Y-97900000D01*
D39*
X164674000Y-112526000D02*
X163326000Y-112526000D01*
D42*
X189400000Y-117100000D02*
X167500000Y-117100000D01*
X136150000Y-117150000D02*
X135100000Y-116100000D01*
X203465000Y-92365000D02*
X209065000Y-92365000D01*
X191200000Y-115400000D02*
X198100000Y-115400000D01*
D39*
X134400000Y-116100000D02*
X135100000Y-116100000D01*
D42*
X198100000Y-106100000D02*
X195500000Y-103500000D01*
D40*
X166900000Y-83700000D02*
X170100000Y-83700000D01*
D42*
X150800000Y-102500000D02*
X151200000Y-102100000D01*
X95975000Y-116562500D02*
X97375000Y-116562500D01*
X189400000Y-117100000D02*
X189500000Y-117100000D01*
X103275000Y-116562500D02*
X101975000Y-116562500D01*
X123800000Y-107575000D02*
X124875000Y-106500000D01*
X189500000Y-117100000D02*
X191200000Y-115400000D01*
X148800000Y-115300000D02*
X141500000Y-115300000D01*
D39*
X163326000Y-112526000D02*
X163000000Y-112200000D01*
D42*
X150300000Y-104100000D02*
X150800000Y-103600000D01*
X107075000Y-119200000D02*
X104437500Y-116562500D01*
X157000000Y-104200000D02*
X157000000Y-103200000D01*
D43*
X166400000Y-115900000D02*
X167100000Y-115900000D01*
D40*
X170100000Y-83700000D02*
X171933000Y-85533000D01*
D39*
%TO.N,/nSIG_CLOSE*%
X200400000Y-108500000D02*
X200400000Y-111500000D01*
%TO.N,/nSIG_OPEN*%
X199500000Y-108500000D02*
X199500000Y-112000000D01*
D41*
%TO.N,GND*%
X94500000Y-125500000D02*
X93000000Y-124000000D01*
X90000000Y-92160000D02*
X93860000Y-92160000D01*
D42*
X206250000Y-134750000D02*
X206250000Y-133412500D01*
D43*
X132900000Y-111700000D02*
X132900000Y-110500000D01*
D41*
X94000000Y-117500000D02*
X94000000Y-115000000D01*
D42*
X95460000Y-118740000D02*
X95460000Y-120970000D01*
D41*
X116000000Y-125500000D02*
X94500000Y-125500000D01*
X101000000Y-107800000D02*
X101000000Y-109000000D01*
D42*
X97100000Y-136200000D02*
X97800000Y-136200000D01*
X206250000Y-133412500D02*
X206250000Y-137650000D01*
D41*
X116000000Y-125500000D02*
X116500000Y-125500000D01*
D42*
X102000000Y-118800000D02*
X102400000Y-118800000D01*
D41*
X101000000Y-100700000D02*
X101000000Y-102800000D01*
D42*
X101350000Y-136100000D02*
X101350000Y-135000000D01*
X97000000Y-118400000D02*
X95800000Y-118400000D01*
D43*
X133900000Y-117300000D02*
X133800000Y-117400000D01*
X133900000Y-116100000D02*
X133900000Y-115027961D01*
D42*
X100100000Y-136200000D02*
X102400000Y-136200000D01*
X101250000Y-136200000D02*
X101350000Y-136100000D01*
X185700000Y-140000000D02*
X184500000Y-141200000D01*
D41*
X94000000Y-115000000D02*
X94500000Y-114500000D01*
D42*
X101200000Y-119000000D02*
X101800000Y-119000000D01*
X118400000Y-140900000D02*
X125300000Y-140900000D01*
D43*
X164400000Y-111500000D02*
X164100000Y-111500000D01*
D42*
X101230000Y-119030000D02*
X101200000Y-119000000D01*
X206300000Y-134800000D02*
X206250000Y-134750000D01*
X206250000Y-137650000D02*
X205200000Y-138700000D01*
D41*
X101000000Y-99300000D02*
X101000000Y-100700000D01*
X101000000Y-112500000D02*
X101000000Y-111300000D01*
D42*
X212900000Y-134800000D02*
X211600000Y-134800000D01*
X198400000Y-140000000D02*
X185700000Y-140000000D01*
X96650000Y-134912500D02*
X96650000Y-135750000D01*
D41*
X116500000Y-125500000D02*
X117500000Y-125500000D01*
D43*
X165900000Y-114825000D02*
X165925000Y-114800000D01*
D42*
X211600000Y-133412500D02*
X211600000Y-134800000D01*
D41*
X99000000Y-114500000D02*
X101000000Y-112500000D01*
X94500000Y-114500000D02*
X99000000Y-114500000D01*
D42*
X101230000Y-121035000D02*
X101230000Y-119030000D01*
D41*
X101000000Y-109000000D02*
X101000000Y-111300000D01*
X93000000Y-118500000D02*
X94000000Y-117500000D01*
D42*
X207500000Y-134800000D02*
X206300000Y-134800000D01*
X199700000Y-138700000D02*
X198400000Y-140000000D01*
D41*
X93000000Y-124000000D02*
X93000000Y-118500000D01*
X101000000Y-105800000D02*
X101000000Y-106800000D01*
D43*
X133900000Y-115027961D02*
X133925000Y-115002961D01*
D41*
X101000000Y-103800000D02*
X101000000Y-104800000D01*
D42*
X96650000Y-135750000D02*
X97100000Y-136200000D01*
D43*
X133900000Y-116100000D02*
X133900000Y-117300000D01*
D42*
X211600000Y-134800000D02*
X210200000Y-134800000D01*
D43*
X165900000Y-115900000D02*
X165900000Y-114825000D01*
X132400000Y-111700000D02*
X132400000Y-110500000D01*
D42*
X100100000Y-136200000D02*
X101250000Y-136200000D01*
D41*
X101000000Y-102800000D02*
X101000000Y-103800000D01*
D42*
X95800000Y-118400000D02*
X95460000Y-118740000D01*
X101800000Y-119000000D02*
X102000000Y-118800000D01*
X205200000Y-138700000D02*
X199700000Y-138700000D01*
D41*
X93860000Y-92160000D02*
X101000000Y-99300000D01*
X101000000Y-104800000D02*
X101000000Y-105800000D01*
X101000000Y-106800000D02*
X101000000Y-107800000D01*
D39*
%TO.N,/SDA*%
X155800000Y-112400000D02*
X157700000Y-112400000D01*
X165900000Y-111500000D02*
X165900000Y-92300000D01*
X165375000Y-113500000D02*
X165900000Y-112975000D01*
X152800000Y-113500000D02*
X153900000Y-112400000D01*
X134500000Y-113500000D02*
X152800000Y-113500000D01*
X195030000Y-113025000D02*
X194980000Y-112975000D01*
X133900000Y-111700000D02*
X133900000Y-112900000D01*
X194980000Y-112975000D02*
X167000000Y-112975000D01*
X165900000Y-112975000D02*
X165900000Y-112000000D01*
X157700000Y-112400000D02*
X158800000Y-113500000D01*
X133900000Y-112900000D02*
X134500000Y-113500000D01*
X158800000Y-113500000D02*
X165375000Y-113500000D01*
X153900000Y-112400000D02*
X155800000Y-112400000D01*
%TO.N,/SCL*%
X166500000Y-93300000D02*
X166400000Y-93400000D01*
X134775000Y-112775000D02*
X134400000Y-112400000D01*
X154500000Y-113000000D02*
X157400000Y-113000000D01*
X153150000Y-114050000D02*
X154200000Y-113000000D01*
X166400000Y-93400000D02*
X166400000Y-111500000D01*
X166400000Y-113300000D02*
X166400000Y-112000000D01*
X166500000Y-90800000D02*
X166500000Y-93300000D01*
X135475000Y-112775000D02*
X134775000Y-112775000D01*
X166600000Y-113500000D02*
X166400000Y-113300000D01*
X193800000Y-113500000D02*
X166600000Y-113500000D01*
X135475000Y-114050000D02*
X153150000Y-114050000D01*
X165650000Y-114050000D02*
X166400000Y-113300000D01*
X154200000Y-113000000D02*
X154500000Y-113000000D01*
X134400000Y-112400000D02*
X134400000Y-111700000D01*
X158450000Y-114050000D02*
X165650000Y-114050000D01*
X157400000Y-113000000D02*
X158450000Y-114050000D01*
D41*
%TO.N,VBUS*%
X96000000Y-111300000D02*
X96000000Y-107400000D01*
X96000000Y-107400000D02*
X90000000Y-107400000D01*
X90000000Y-107400000D02*
X90000000Y-112500000D01*
X96000000Y-100700000D02*
X96000000Y-111300000D01*
X90000000Y-112500000D02*
X90800000Y-113300000D01*
X90800000Y-113300000D02*
X90800000Y-116800000D01*
%TO.N,+24V*%
X137700000Y-78000000D02*
X137430000Y-77730000D01*
X147430000Y-77070000D02*
X146500000Y-78000000D01*
X152750000Y-132250000D02*
X152000000Y-131500000D01*
X136050000Y-134700000D02*
X136250000Y-134500000D01*
X202450000Y-126050000D02*
X201300000Y-127200000D01*
X201300000Y-127200000D02*
X189700000Y-127200000D01*
X125300000Y-127200000D02*
X129600000Y-131500000D01*
X134700000Y-97000000D02*
X134700000Y-102100000D01*
X133600000Y-103200000D02*
X131600000Y-103200000D01*
X185950000Y-130950000D02*
X185950000Y-132350000D01*
X136050000Y-137650000D02*
X136050000Y-134700000D01*
X166853000Y-87107500D02*
X162707500Y-87107500D01*
X119750000Y-122300000D02*
X119750000Y-125400000D01*
X136850000Y-131500000D02*
X136250000Y-132100000D01*
X119150000Y-132350000D02*
X119750000Y-131750000D01*
X152550000Y-137700000D02*
X152550000Y-134700000D01*
X153400000Y-131600000D02*
X152750000Y-132250000D01*
X152560000Y-142200000D02*
X153800000Y-142200000D01*
X131300000Y-80500000D02*
X131300000Y-93600000D01*
X169450000Y-134550000D02*
X169450000Y-132350000D01*
X151200000Y-85400000D02*
X151200000Y-80840000D01*
X151200000Y-80840000D02*
X147430000Y-77070000D01*
X118450000Y-96950000D02*
X118450000Y-95350000D01*
X160700000Y-133100000D02*
X159200000Y-131600000D01*
X159200000Y-131600000D02*
X153400000Y-131600000D01*
X119750000Y-131750000D02*
X119750000Y-127200000D01*
X118450000Y-96950000D02*
X118450000Y-102050000D01*
X118450000Y-102050000D02*
X117500000Y-103000000D01*
X152510000Y-144950000D02*
X152560000Y-144900000D01*
X170100000Y-131700000D02*
X169450000Y-132350000D01*
X90600000Y-128000000D02*
X118950000Y-128000000D01*
X118950000Y-128000000D02*
X119750000Y-127200000D01*
X137160000Y-78000000D02*
X133800000Y-78000000D01*
X202450000Y-134550000D02*
X202450000Y-128350000D01*
X202450000Y-122350000D02*
X202450000Y-126050000D01*
X189700000Y-127200000D02*
X185950000Y-130950000D01*
X119750000Y-105250000D02*
X119750000Y-122300000D01*
X118450000Y-95350000D02*
X120200000Y-93600000D01*
X117500000Y-103000000D02*
X119750000Y-105250000D01*
X119750000Y-134500000D02*
X119750000Y-131750000D01*
X152000000Y-131500000D02*
X136850000Y-131500000D01*
X169450000Y-132350000D02*
X168700000Y-133100000D01*
X137430000Y-77730000D02*
X137160000Y-78000000D01*
X119750000Y-127200000D02*
X125300000Y-127200000D01*
X161000000Y-85400000D02*
X151200000Y-85400000D01*
X152550000Y-134700000D02*
X152750000Y-134500000D01*
X168700000Y-133100000D02*
X160700000Y-133100000D01*
X185950000Y-130950000D02*
X185200000Y-131700000D01*
X116600000Y-132350000D02*
X119150000Y-132350000D01*
X202450000Y-128350000D02*
X201300000Y-127200000D01*
X147430000Y-74331500D02*
X147430000Y-77070000D01*
X169250000Y-134750000D02*
X169450000Y-134550000D01*
X146500000Y-78000000D02*
X137700000Y-78000000D01*
X89600000Y-127000000D02*
X90600000Y-128000000D01*
X131300000Y-93600000D02*
X134700000Y-97000000D01*
X152550000Y-137700000D02*
X152550000Y-144910000D01*
X117500000Y-103000000D02*
X115200000Y-103000000D01*
X119750000Y-125400000D02*
X119750000Y-127200000D01*
D42*
X108400000Y-117800000D02*
X119650000Y-117800000D01*
X119650000Y-117800000D02*
X119750000Y-117900000D01*
D41*
X129600000Y-131500000D02*
X135650000Y-131500000D01*
X134700000Y-102100000D02*
X133600000Y-103200000D01*
X162707500Y-87107500D02*
X161000000Y-85400000D01*
X120200000Y-93600000D02*
X131300000Y-93600000D01*
X136250000Y-132100000D02*
X136250000Y-134500000D01*
X133800000Y-78000000D02*
X131300000Y-80500000D01*
X185200000Y-131700000D02*
X170100000Y-131700000D01*
X185950000Y-134550000D02*
X185950000Y-132350000D01*
X169250000Y-137650000D02*
X169250000Y-134750000D01*
X137430000Y-77730000D02*
X137430000Y-74331500D01*
X135650000Y-131500000D02*
X136250000Y-132100000D01*
X152750000Y-134500000D02*
X152750000Y-132250000D01*
D42*
%TO.N,/IN2_1_P*%
X114680000Y-142200000D02*
X103650000Y-142200000D01*
X117430000Y-144950000D02*
X114680000Y-142200000D01*
X103650000Y-142200000D02*
X99000000Y-137550000D01*
X99000000Y-137550000D02*
X99000000Y-134950000D01*
%TO.N,/IN2_2_P*%
X103750000Y-138000000D02*
X103750000Y-135000000D01*
X127430000Y-144950000D02*
X124780000Y-142300000D01*
X115800000Y-141200000D02*
X106950000Y-141200000D01*
X106950000Y-141200000D02*
X103750000Y-138000000D01*
X116900000Y-142300000D02*
X115800000Y-141200000D01*
X124780000Y-142300000D02*
X116900000Y-142300000D01*
%TO.N,Net-(R11-Pad2)*%
X99000000Y-131500000D02*
X98000000Y-130500000D01*
X99000000Y-133125000D02*
X99000000Y-131500000D01*
%TO.N,Net-(R12-Pad2)*%
X96637500Y-133087500D02*
X96650000Y-133087500D01*
X95460000Y-130500000D02*
X95460000Y-131910000D01*
X95460000Y-131910000D02*
X96637500Y-133087500D01*
%TO.N,Net-(R13-Pad2)*%
X103750000Y-133175000D02*
X103750000Y-130585000D01*
X103750000Y-130585000D02*
X103770000Y-130565000D01*
%TO.N,Net-(R14-Pad2)*%
X101350000Y-130685000D02*
X101230000Y-130565000D01*
X101350000Y-133175000D02*
X101350000Y-130685000D01*
D41*
%TO.N,/SOUND+*%
X126500000Y-138200000D02*
X115450000Y-138200000D01*
X132430000Y-144130000D02*
X126500000Y-138200000D01*
X115450000Y-138200000D02*
X113700000Y-136450000D01*
X132430000Y-145000000D02*
X132430000Y-144130000D01*
%TO.N,/nREL1*%
X106450000Y-96950000D02*
X106450000Y-100550000D01*
D42*
X110100000Y-109100000D02*
X110100000Y-103000000D01*
D41*
X106450000Y-100550000D02*
X108900000Y-103000000D01*
X108900000Y-103000000D02*
X109800000Y-103000000D01*
D42*
%TO.N,Net-(R23-Pad2)*%
X214770000Y-128865000D02*
X214770000Y-130717500D01*
X214770000Y-130717500D02*
X213900000Y-131587500D01*
%TO.N,/IN4_1_P*%
X213900000Y-138400000D02*
X213900000Y-133412500D01*
X192670000Y-144950000D02*
X195320000Y-142300000D01*
X195320000Y-142300000D02*
X200250000Y-142300000D01*
X200250000Y-142300000D02*
X201250000Y-141300000D01*
X211000000Y-141300000D02*
X213900000Y-138400000D01*
X201250000Y-141300000D02*
X211000000Y-141300000D01*
%TO.N,Net-(R24-Pad2)*%
X212100000Y-128995000D02*
X212230000Y-128865000D01*
X211600000Y-131587500D02*
X212100000Y-131087500D01*
X212100000Y-131087500D02*
X212100000Y-128995000D01*
%TO.N,/IN4_2_P*%
X206500000Y-140000000D02*
X200500000Y-140000000D01*
X208750000Y-137750000D02*
X206500000Y-140000000D01*
X200500000Y-140000000D02*
X199400000Y-141100000D01*
X208750000Y-133412500D02*
X208750000Y-137750000D01*
X186520000Y-141100000D02*
X182670000Y-144950000D01*
X199400000Y-141100000D02*
X186520000Y-141100000D01*
%TO.N,Net-(R25-Pad2)*%
X208750000Y-131587500D02*
X208900000Y-131437500D01*
X208900000Y-128935000D02*
X208970000Y-128865000D01*
X208900000Y-131437500D02*
X208900000Y-128935000D01*
%TO.N,Net-(R26-Pad2)*%
X206250000Y-131587500D02*
X206250000Y-129045000D01*
X206250000Y-129045000D02*
X206430000Y-128865000D01*
D41*
%TO.N,/LIGHT+*%
X177670000Y-144330000D02*
X177670000Y-144950000D01*
X196400000Y-136500000D02*
X195150000Y-137750000D01*
X184250000Y-137750000D02*
X177670000Y-144330000D01*
X195150000Y-137750000D02*
X184250000Y-137750000D01*
%TO.N,/M1+*%
X130200000Y-136450000D02*
X135050000Y-141300000D01*
X138780000Y-141300000D02*
X142430000Y-144950000D01*
X135050000Y-141300000D02*
X138780000Y-141300000D01*
X142430000Y-144950000D02*
X142430000Y-145000000D01*
%TO.N,/M1-*%
X147430000Y-145000000D02*
X147430000Y-140930000D01*
X147430000Y-140930000D02*
X146700000Y-140200000D01*
X146700000Y-140200000D02*
X146700000Y-136450000D01*
D39*
%TO.N,/8*%
X198974000Y-107701000D02*
X198975000Y-107700000D01*
X189600000Y-102000000D02*
X188100000Y-102000000D01*
X198974000Y-112500000D02*
X198974000Y-107701000D01*
X182060000Y-95960000D02*
X180000000Y-95960000D01*
X188100000Y-102000000D02*
X182060000Y-95960000D01*
X199000000Y-112526000D02*
X198974000Y-112500000D01*
%TO.N,/IN2_1_L*%
X98000000Y-120970000D02*
X98000000Y-119400000D01*
%TO.N,/IN2_2_L*%
X103770000Y-121035000D02*
X103770000Y-119530000D01*
X103770000Y-119530000D02*
X103800000Y-119500000D01*
%TO.N,/IN4_1_L*%
X215650000Y-118455000D02*
X214770000Y-119335000D01*
X215650000Y-117600000D02*
X215650000Y-118455000D01*
%TO.N,/IN4_2_L*%
X209900000Y-118405000D02*
X208970000Y-119335000D01*
X209900000Y-117450000D02*
X209900000Y-118405000D01*
D41*
%TO.N,Net-(U14-Vin-)*%
X152750000Y-123650000D02*
X150900000Y-125500000D01*
D39*
X132500000Y-118200000D02*
X132500000Y-122000000D01*
X132900000Y-117800000D02*
X132500000Y-118200000D01*
D41*
X150900000Y-125500000D02*
X138000000Y-125500000D01*
D39*
X132900000Y-122400000D02*
X133662500Y-122400000D01*
D41*
X138000000Y-125500000D02*
X136250000Y-123750000D01*
D39*
X132900000Y-116100000D02*
X132900000Y-117800000D01*
X132500000Y-122000000D02*
X132900000Y-122400000D01*
D41*
X136250000Y-123750000D02*
X136250000Y-122300000D01*
X152750000Y-122300000D02*
X152750000Y-123650000D01*
D39*
%TO.N,Net-(U3-Vin-)*%
X165200000Y-118900000D02*
X165200000Y-122000000D01*
X165500000Y-122300000D02*
X166462500Y-122300000D01*
X164900000Y-118600000D02*
X165200000Y-118900000D01*
D41*
X184450000Y-126250000D02*
X185950000Y-124750000D01*
X185950000Y-124750000D02*
X185950000Y-122350000D01*
X169450000Y-122350000D02*
X169450000Y-124850000D01*
X169450000Y-124850000D02*
X170850000Y-126250000D01*
X170850000Y-126250000D02*
X184450000Y-126250000D01*
D39*
X164900000Y-115900000D02*
X164900000Y-118600000D01*
X165200000Y-122000000D02*
X165500000Y-122300000D01*
%TO.N,/M2_A*%
X146150000Y-111850000D02*
X158000000Y-111850000D01*
X165400000Y-112650000D02*
X165400000Y-111500000D01*
X144355000Y-106900000D02*
X144355000Y-110055000D01*
X144355000Y-110055000D02*
X146150000Y-111850000D01*
X159150000Y-113000000D02*
X165050000Y-113000000D01*
X158000000Y-111850000D02*
X159150000Y-113000000D01*
X165050000Y-113000000D02*
X165400000Y-112650000D01*
%TO.N,/M1_A*%
X138200000Y-114600000D02*
X134600000Y-114600000D01*
X138750000Y-115150000D02*
X138200000Y-114600000D01*
X139850000Y-115150000D02*
X138750000Y-115150000D01*
X133400000Y-113400000D02*
X133400000Y-111700000D01*
X134600000Y-114600000D02*
X133400000Y-113400000D01*
%TO.N,/SOUND*%
X123000000Y-107875000D02*
X123000000Y-110500000D01*
%TO.N,/REL2*%
X142484000Y-111016000D02*
X143200000Y-110300000D01*
X142416000Y-111016000D02*
X142484000Y-111016000D01*
X143200000Y-110300000D02*
X143300000Y-110300000D01*
%TO.N,/IN5_2_L*%
X145100000Y-108924999D02*
X145100000Y-108900000D01*
X146550001Y-110375000D02*
X145100000Y-108924999D01*
D41*
%TO.N,/nREL2*%
X124600000Y-103200000D02*
X126200000Y-103200000D01*
X122700000Y-101300000D02*
X124600000Y-103200000D01*
D42*
X121420000Y-106380000D02*
X124600000Y-103200000D01*
X121420000Y-116380000D02*
X121420000Y-106380000D01*
D41*
X122700000Y-97000000D02*
X122700000Y-101300000D01*
D39*
%TO.N,/IN5_1_L*%
X144880335Y-109511638D02*
X146367576Y-110998879D01*
X144880000Y-109511638D02*
X144880335Y-109511638D01*
D41*
%TO.N,MOTOR*%
X157590000Y-144950000D02*
X157590000Y-142790000D01*
D39*
X133300000Y-114800000D02*
X132500000Y-114800000D01*
X164700000Y-119100000D02*
X164400000Y-118800000D01*
D41*
X163400000Y-130600000D02*
X163600000Y-130800000D01*
D39*
X132400000Y-117450000D02*
X132400000Y-115900000D01*
D41*
X157590000Y-142790000D02*
X157000000Y-142200000D01*
D39*
X132000000Y-117850000D02*
X132400000Y-117450000D01*
D41*
X163537500Y-127362500D02*
X163400000Y-127500000D01*
X163400000Y-127500000D02*
X163400000Y-130600000D01*
D39*
X165400000Y-114800000D02*
X165400000Y-115900000D01*
X133400000Y-114900000D02*
X133300000Y-114800000D01*
X132000000Y-122000000D02*
X132000000Y-117850000D01*
X164700000Y-122100000D02*
X164700000Y-119100000D01*
X164500000Y-122300000D02*
X164700000Y-122100000D01*
D41*
X130737500Y-126537500D02*
X132700000Y-128500000D01*
D39*
X130737500Y-122300000D02*
X131700000Y-122300000D01*
D41*
X163600000Y-130800000D02*
X165700000Y-130800000D01*
X130737500Y-123837500D02*
X130737500Y-126537500D01*
X162400000Y-128500000D02*
X163537500Y-127362500D01*
D39*
X164400000Y-115900000D02*
X164400000Y-114800000D01*
X163537500Y-122300000D02*
X164500000Y-122300000D01*
X132500000Y-114800000D02*
X132400000Y-114900000D01*
X164400000Y-114800000D02*
X164500000Y-114700000D01*
X132400000Y-114900000D02*
X132400000Y-116100000D01*
X164400000Y-118800000D02*
X164400000Y-115900000D01*
D41*
X132700000Y-128500000D02*
X162400000Y-128500000D01*
D39*
X131700000Y-122300000D02*
X132000000Y-122000000D01*
D41*
X157000000Y-142200000D02*
X156400000Y-142200000D01*
D39*
X165300000Y-114700000D02*
X165400000Y-114800000D01*
X164500000Y-114700000D02*
X165300000Y-114700000D01*
D41*
X130700000Y-123800000D02*
X130737500Y-123837500D01*
D39*
X133400000Y-116100000D02*
X133400000Y-114900000D01*
D41*
X163537500Y-127362500D02*
X163537500Y-123500000D01*
%TD*%
%TA.AperFunction,Conductor*%
%TO.N,GND*%
G36*
X97052520Y-117322439D02*
G01*
X97117415Y-117349319D01*
X97134211Y-117356276D01*
X97134215Y-117356276D01*
X97134216Y-117356277D01*
X97293692Y-117388000D01*
X97293695Y-117388000D01*
X97456307Y-117388000D01*
X97563598Y-117366657D01*
X97615789Y-117356276D01*
X97672743Y-117332685D01*
X97697480Y-117322439D01*
X97744932Y-117313000D01*
X101605068Y-117313000D01*
X101652520Y-117322439D01*
X101717415Y-117349319D01*
X101734211Y-117356276D01*
X101734215Y-117356276D01*
X101734216Y-117356277D01*
X101893692Y-117388000D01*
X101893695Y-117388000D01*
X102056307Y-117388000D01*
X102163598Y-117366657D01*
X102215789Y-117356276D01*
X102272743Y-117332685D01*
X102297480Y-117322439D01*
X102344932Y-117313000D01*
X102905068Y-117313000D01*
X102952520Y-117322439D01*
X103017415Y-117349319D01*
X103034211Y-117356276D01*
X103034215Y-117356276D01*
X103034216Y-117356277D01*
X103193692Y-117388000D01*
X103193695Y-117388000D01*
X103356307Y-117388000D01*
X103463598Y-117366657D01*
X103515789Y-117356276D01*
X103572743Y-117332685D01*
X103597480Y-117322439D01*
X103644932Y-117313000D01*
X104075270Y-117313000D01*
X104142309Y-117332685D01*
X104162951Y-117349319D01*
X106596580Y-119782948D01*
X106596584Y-119782951D01*
X106719505Y-119865085D01*
X106719657Y-119865166D01*
X106719721Y-119865229D01*
X106724570Y-119868469D01*
X106723955Y-119869388D01*
X106769504Y-119914125D01*
X106784969Y-119982262D01*
X106761140Y-120047943D01*
X106705585Y-120090315D01*
X106661422Y-120098527D01*
X105800000Y-120100000D01*
X105228869Y-120100000D01*
X105161830Y-120080315D01*
X105116075Y-120027511D01*
X105111163Y-120015004D01*
X105110146Y-120011934D01*
X105094814Y-119965665D01*
X105002712Y-119816344D01*
X104878656Y-119692288D01*
X104760275Y-119619270D01*
X104729337Y-119600187D01*
X104729336Y-119600186D01*
X104729335Y-119600186D01*
X104661616Y-119577746D01*
X104610495Y-119560806D01*
X104553051Y-119521033D01*
X104526228Y-119456517D01*
X104525500Y-119443100D01*
X104525500Y-119428542D01*
X104497620Y-119288385D01*
X104497619Y-119288384D01*
X104497619Y-119288380D01*
X104448053Y-119168717D01*
X104442930Y-119156349D01*
X104442925Y-119156340D01*
X104363532Y-119037521D01*
X104363529Y-119037517D01*
X104262482Y-118936470D01*
X104262478Y-118936467D01*
X104143659Y-118857074D01*
X104143650Y-118857069D01*
X104011620Y-118802381D01*
X104011614Y-118802379D01*
X103871457Y-118774500D01*
X103871455Y-118774500D01*
X103728545Y-118774500D01*
X103728543Y-118774500D01*
X103588385Y-118802379D01*
X103588379Y-118802381D01*
X103456349Y-118857069D01*
X103456340Y-118857074D01*
X103337521Y-118936467D01*
X103337517Y-118936470D01*
X103236470Y-119037517D01*
X103236467Y-119037521D01*
X103157074Y-119156340D01*
X103157069Y-119156349D01*
X103102381Y-119288379D01*
X103102379Y-119288385D01*
X103074499Y-119428542D01*
X103073903Y-119434605D01*
X103071430Y-119434361D01*
X103054815Y-119490946D01*
X103002011Y-119536701D01*
X102983602Y-119542796D01*
X102983628Y-119542872D01*
X102977203Y-119545000D01*
X102977202Y-119545001D01*
X102929506Y-119560806D01*
X102810667Y-119600185D01*
X102810662Y-119600187D01*
X102661345Y-119692287D01*
X102587327Y-119766305D01*
X102526003Y-119799789D01*
X102456312Y-119794804D01*
X102411965Y-119766304D01*
X102338344Y-119692683D01*
X102338340Y-119692680D01*
X102189130Y-119600645D01*
X102189119Y-119600640D01*
X102022697Y-119545494D01*
X101919986Y-119535000D01*
X101480000Y-119535000D01*
X101480000Y-120100000D01*
X100980000Y-120100000D01*
X100980000Y-119535000D01*
X100540028Y-119535000D01*
X100540012Y-119535001D01*
X100437303Y-119545494D01*
X100437301Y-119545494D01*
X100270880Y-119600640D01*
X100270869Y-119600645D01*
X100121659Y-119692680D01*
X100121655Y-119692683D01*
X99997683Y-119816655D01*
X99997680Y-119816659D01*
X99905645Y-119965869D01*
X99905639Y-119965882D01*
X99889363Y-120015003D01*
X99849591Y-120072448D01*
X99785075Y-120099272D01*
X99771657Y-120100000D01*
X99480408Y-120100000D01*
X99413369Y-120080315D01*
X99367614Y-120027511D01*
X99362702Y-120015004D01*
X99361685Y-120011934D01*
X99324814Y-119900665D01*
X99232712Y-119751344D01*
X99108656Y-119627288D01*
X98969069Y-119541190D01*
X98959337Y-119535187D01*
X98959336Y-119535186D01*
X98959335Y-119535186D01*
X98869234Y-119505329D01*
X98810495Y-119485865D01*
X98753051Y-119446092D01*
X98726228Y-119381576D01*
X98725500Y-119368159D01*
X98725500Y-119328542D01*
X98697620Y-119188385D01*
X98697619Y-119188384D01*
X98697619Y-119188380D01*
X98642929Y-119056347D01*
X98642928Y-119056346D01*
X98642925Y-119056340D01*
X98563532Y-118937521D01*
X98563529Y-118937517D01*
X98462482Y-118836470D01*
X98462478Y-118836467D01*
X98343659Y-118757074D01*
X98343650Y-118757069D01*
X98211620Y-118702381D01*
X98211614Y-118702379D01*
X98071457Y-118674500D01*
X98071455Y-118674500D01*
X97928545Y-118674500D01*
X97928543Y-118674500D01*
X97788385Y-118702379D01*
X97788379Y-118702381D01*
X97656349Y-118757069D01*
X97656340Y-118757074D01*
X97537521Y-118836467D01*
X97537517Y-118836470D01*
X97436470Y-118937517D01*
X97436467Y-118937521D01*
X97357074Y-119056340D01*
X97357069Y-119056349D01*
X97302381Y-119188379D01*
X97302379Y-119188385D01*
X97274500Y-119328542D01*
X97274500Y-119368159D01*
X97254815Y-119435198D01*
X97202011Y-119480953D01*
X97189505Y-119485865D01*
X97040665Y-119535186D01*
X97040662Y-119535187D01*
X96891342Y-119627289D01*
X96811681Y-119706951D01*
X96750358Y-119740436D01*
X96680666Y-119735452D01*
X96624733Y-119693580D01*
X96600316Y-119628116D01*
X96600000Y-119619270D01*
X96600000Y-117437000D01*
X96619685Y-117369961D01*
X96672489Y-117324206D01*
X96724000Y-117313000D01*
X97005068Y-117313000D01*
X97052520Y-117322439D01*
G37*
%TD.AperFunction*%
%TA.AperFunction,Conductor*%
G36*
X143619399Y-106444481D02*
G01*
X143675333Y-106486352D01*
X143699750Y-106551817D01*
X143690627Y-106608115D01*
X143657382Y-106688375D01*
X143657379Y-106688385D01*
X143629500Y-106828542D01*
X143629500Y-106828545D01*
X143629500Y-106971455D01*
X143629500Y-106971457D01*
X143629499Y-106971457D01*
X143657379Y-107111614D01*
X143657380Y-107111618D01*
X143657381Y-107111620D01*
X143674393Y-107152690D01*
X143712070Y-107243651D01*
X143733601Y-107275874D01*
X143754480Y-107342551D01*
X143754500Y-107344766D01*
X143754500Y-109479707D01*
X143734815Y-109546746D01*
X143682011Y-109592501D01*
X143612853Y-109602445D01*
X143606308Y-109601324D01*
X143471457Y-109574500D01*
X143471455Y-109574500D01*
X143328545Y-109574500D01*
X143328543Y-109574500D01*
X143188385Y-109602379D01*
X143188379Y-109602381D01*
X143056349Y-109657069D01*
X143056340Y-109657074D01*
X142937524Y-109736465D01*
X142937519Y-109736469D01*
X142897778Y-109776210D01*
X142872100Y-109795914D01*
X142831287Y-109819478D01*
X142831281Y-109819482D01*
X142390766Y-110259998D01*
X142329443Y-110293483D01*
X142327277Y-110293934D01*
X142204385Y-110318379D01*
X142204379Y-110318381D01*
X142072349Y-110373069D01*
X142072340Y-110373074D01*
X141953521Y-110452467D01*
X141953517Y-110452470D01*
X141852470Y-110553517D01*
X141852467Y-110553521D01*
X141773074Y-110672340D01*
X141773069Y-110672349D01*
X141718381Y-110804379D01*
X141718379Y-110804385D01*
X141690500Y-110944542D01*
X141690500Y-110944545D01*
X141690500Y-111087455D01*
X141690500Y-111087457D01*
X141690499Y-111087457D01*
X141718379Y-111227614D01*
X141718381Y-111227620D01*
X141773069Y-111359650D01*
X141773074Y-111359659D01*
X141852467Y-111478478D01*
X141852470Y-111478482D01*
X141953517Y-111579529D01*
X141953521Y-111579532D01*
X142072340Y-111658925D01*
X142072346Y-111658928D01*
X142072347Y-111658929D01*
X142204380Y-111713619D01*
X142204384Y-111713619D01*
X142204385Y-111713620D01*
X142344542Y-111741500D01*
X142344545Y-111741500D01*
X142487457Y-111741500D01*
X142603891Y-111718339D01*
X142627620Y-111713619D01*
X142759653Y-111658929D01*
X142878479Y-111579532D01*
X142979532Y-111478479D01*
X143058929Y-111359653D01*
X143098526Y-111264053D01*
X143103157Y-111257123D01*
X143104254Y-111252082D01*
X143125399Y-111223834D01*
X143287417Y-111061816D01*
X143348738Y-111028334D01*
X143375096Y-111025500D01*
X143471457Y-111025500D01*
X143565751Y-111006742D01*
X143611620Y-110997619D01*
X143743653Y-110942929D01*
X143862479Y-110863532D01*
X143963532Y-110762479D01*
X143979608Y-110738418D01*
X144033218Y-110693613D01*
X144102543Y-110684904D01*
X144165571Y-110715057D01*
X144170392Y-110719627D01*
X145665139Y-112214374D01*
X145665149Y-112214385D01*
X145669479Y-112218715D01*
X145669480Y-112218716D01*
X145781284Y-112330520D01*
X145781286Y-112330521D01*
X145781290Y-112330524D01*
X145870579Y-112382074D01*
X145918216Y-112409577D01*
X146001098Y-112431785D01*
X146070942Y-112450500D01*
X146070943Y-112450500D01*
X152700903Y-112450500D01*
X152767942Y-112470185D01*
X152813697Y-112522989D01*
X152823641Y-112592147D01*
X152794616Y-112655703D01*
X152788584Y-112662181D01*
X152587584Y-112863181D01*
X152526261Y-112896666D01*
X152499903Y-112899500D01*
X136324500Y-112899500D01*
X136257461Y-112879815D01*
X136211706Y-112827011D01*
X136200500Y-112775500D01*
X136200500Y-112703542D01*
X136172620Y-112563385D01*
X136172619Y-112563384D01*
X136172619Y-112563380D01*
X136130318Y-112461258D01*
X136117930Y-112431349D01*
X136117925Y-112431340D01*
X136038532Y-112312521D01*
X136038529Y-112312517D01*
X135937482Y-112211470D01*
X135937478Y-112211467D01*
X135818659Y-112132074D01*
X135818650Y-112132069D01*
X135686620Y-112077381D01*
X135686614Y-112077379D01*
X135546457Y-112049500D01*
X135546455Y-112049500D01*
X135403545Y-112049500D01*
X135403543Y-112049500D01*
X135263385Y-112077379D01*
X135263380Y-112077381D01*
X135221951Y-112094541D01*
X135152482Y-112102008D01*
X135090003Y-112070733D01*
X135054351Y-112010643D01*
X135050500Y-111979979D01*
X135050500Y-111012286D01*
X135050499Y-111012272D01*
X135043944Y-110962482D01*
X135035687Y-110899764D01*
X134977698Y-110759767D01*
X134885451Y-110639549D01*
X134765233Y-110547302D01*
X134765229Y-110547300D01*
X134649998Y-110499570D01*
X134625236Y-110489313D01*
X134610698Y-110487399D01*
X134512727Y-110474500D01*
X134512720Y-110474500D01*
X134287280Y-110474500D01*
X134287272Y-110474500D01*
X134200393Y-110485938D01*
X134174764Y-110489313D01*
X134174762Y-110489313D01*
X134166708Y-110490374D01*
X134166316Y-110487399D01*
X134133684Y-110487399D01*
X134133292Y-110490374D01*
X134125237Y-110489313D01*
X134125236Y-110489313D01*
X134096271Y-110485499D01*
X134012727Y-110474500D01*
X134012720Y-110474500D01*
X133787280Y-110474500D01*
X133787272Y-110474500D01*
X133700393Y-110485938D01*
X133674764Y-110489313D01*
X133674762Y-110489313D01*
X133666708Y-110490374D01*
X133666316Y-110487399D01*
X133633684Y-110487399D01*
X133633292Y-110490374D01*
X133625237Y-110489313D01*
X133625236Y-110489313D01*
X133596271Y-110485499D01*
X133512727Y-110474500D01*
X133512720Y-110474500D01*
X133287280Y-110474500D01*
X133287272Y-110474500D01*
X133185265Y-110487930D01*
X133185263Y-110487930D01*
X133174764Y-110489313D01*
X133034767Y-110547302D01*
X132991200Y-110580731D01*
X132991196Y-110580734D01*
X132949486Y-110612740D01*
X132884317Y-110637934D01*
X132815872Y-110623896D01*
X132765883Y-110575082D01*
X132750000Y-110514364D01*
X132750000Y-110479911D01*
X132749999Y-110479911D01*
X132666839Y-110490861D01*
X132666451Y-110487915D01*
X132633549Y-110487915D01*
X132633161Y-110490861D01*
X132550000Y-110479911D01*
X132550000Y-112920086D01*
X132550001Y-112920087D01*
X132631122Y-112909408D01*
X132631315Y-112909319D01*
X132631658Y-112909338D01*
X132633164Y-112909140D01*
X132633201Y-112909424D01*
X132647741Y-112910234D01*
X132666608Y-112909020D01*
X132692107Y-112912466D01*
X132723750Y-112926594D01*
X132755581Y-112940675D01*
X132755704Y-112940861D01*
X132755906Y-112940952D01*
X132774808Y-112969824D01*
X132794053Y-112998999D01*
X132794095Y-112999283D01*
X132794177Y-112999408D01*
X132794180Y-112999851D01*
X132799500Y-113035349D01*
X132799500Y-113313330D01*
X132799499Y-113313348D01*
X132799499Y-113479054D01*
X132799498Y-113479054D01*
X132837639Y-113621398D01*
X132840423Y-113631785D01*
X132863999Y-113672619D01*
X132884490Y-113708110D01*
X132919479Y-113768714D01*
X132919481Y-113768717D01*
X133038349Y-113887585D01*
X133038355Y-113887590D01*
X133138584Y-113987819D01*
X133172069Y-114049142D01*
X133167085Y-114118834D01*
X133125213Y-114174767D01*
X133059749Y-114199184D01*
X133050903Y-114199500D01*
X132420940Y-114199500D01*
X132380019Y-114210464D01*
X132380019Y-114210465D01*
X132342751Y-114220451D01*
X132268214Y-114240423D01*
X132268209Y-114240426D01*
X132131290Y-114319475D01*
X132131282Y-114319481D01*
X131919481Y-114531282D01*
X131919477Y-114531287D01*
X131876214Y-114606223D01*
X131876214Y-114606224D01*
X131840423Y-114668214D01*
X131831097Y-114703021D01*
X131799499Y-114820943D01*
X131799499Y-114820945D01*
X131799499Y-114989046D01*
X131799500Y-114989059D01*
X131799500Y-115190149D01*
X131790061Y-115237601D01*
X131764314Y-115299760D01*
X131764313Y-115299764D01*
X131749500Y-115412272D01*
X131749500Y-116787727D01*
X131759685Y-116865084D01*
X131764313Y-116900236D01*
X131787856Y-116957074D01*
X131790061Y-116962396D01*
X131791687Y-116970573D01*
X131794477Y-116974914D01*
X131799500Y-117009849D01*
X131799500Y-117149902D01*
X131779815Y-117216941D01*
X131763181Y-117237583D01*
X131519481Y-117481282D01*
X131519475Y-117481290D01*
X131474489Y-117559210D01*
X131474489Y-117559211D01*
X131440423Y-117618215D01*
X131399499Y-117770943D01*
X131399499Y-117770944D01*
X131399499Y-117939046D01*
X131399500Y-117939059D01*
X131399500Y-119932450D01*
X131379815Y-119999489D01*
X131327011Y-120045244D01*
X131275712Y-120056450D01*
X124242635Y-120068473D01*
X124175562Y-120048903D01*
X124129717Y-119996177D01*
X124119655Y-119927036D01*
X124148571Y-119863431D01*
X124186508Y-119836031D01*
X124185647Y-119834421D01*
X124191023Y-119831547D01*
X124272815Y-119776895D01*
X124326225Y-119741208D01*
X124441208Y-119626225D01*
X124486680Y-119558169D01*
X124531547Y-119491023D01*
X124531549Y-119491019D01*
X124569210Y-119400097D01*
X124593776Y-119340789D01*
X124605764Y-119280521D01*
X124625500Y-119181307D01*
X124625500Y-119018692D01*
X124593777Y-118859216D01*
X124593776Y-118859215D01*
X124593776Y-118859211D01*
X124592889Y-118857069D01*
X124559939Y-118777519D01*
X124550500Y-118730067D01*
X124550500Y-112387697D01*
X131750000Y-112387697D01*
X131764800Y-112500104D01*
X131764801Y-112500108D01*
X131822736Y-112639978D01*
X131914905Y-112760094D01*
X132035021Y-112852263D01*
X132174896Y-112910200D01*
X132174901Y-112910201D01*
X132249998Y-112920087D01*
X132250000Y-112920086D01*
X132250000Y-111850000D01*
X131750000Y-111850000D01*
X131750000Y-112387697D01*
X124550500Y-112387697D01*
X124550500Y-112369931D01*
X124559939Y-112322478D01*
X124571569Y-112294401D01*
X124593776Y-112240789D01*
X124621382Y-112102008D01*
X124625500Y-112081307D01*
X124625500Y-111918692D01*
X124607778Y-111829604D01*
X124593776Y-111759211D01*
X124557917Y-111672641D01*
X124556319Y-111667608D01*
X124556114Y-111658291D01*
X124550500Y-111630067D01*
X124550500Y-111012302D01*
X131750000Y-111012302D01*
X131750000Y-111550000D01*
X132250000Y-111550000D01*
X132250000Y-110479911D01*
X132249999Y-110479911D01*
X132174896Y-110489800D01*
X132174891Y-110489801D01*
X132035021Y-110547736D01*
X131914905Y-110639905D01*
X131822736Y-110760021D01*
X131764801Y-110899891D01*
X131764800Y-110899895D01*
X131750000Y-111012302D01*
X124550500Y-111012302D01*
X124550500Y-107937229D01*
X124570185Y-107870190D01*
X124586819Y-107849548D01*
X125149548Y-107286819D01*
X125210871Y-107253334D01*
X125237229Y-107250500D01*
X142473920Y-107250500D01*
X142571462Y-107231096D01*
X142618913Y-107221658D01*
X142755495Y-107165084D01*
X142835510Y-107111620D01*
X142878416Y-107082952D01*
X143488386Y-106472981D01*
X143549708Y-106439497D01*
X143619399Y-106444481D01*
G37*
%TD.AperFunction*%
%TA.AperFunction,Conductor*%
G36*
X157166942Y-113620185D02*
G01*
X157187584Y-113636819D01*
X157965139Y-114414374D01*
X157965149Y-114414385D01*
X157969479Y-114418715D01*
X157969480Y-114418716D01*
X158081284Y-114530520D01*
X158164115Y-114578342D01*
X158218215Y-114609577D01*
X158370942Y-114650500D01*
X158370943Y-114650500D01*
X163675499Y-114650500D01*
X163684184Y-114653050D01*
X163693145Y-114651762D01*
X163717186Y-114662740D01*
X163742538Y-114670185D01*
X163748464Y-114677024D01*
X163756701Y-114680786D01*
X163770991Y-114703021D01*
X163788293Y-114722989D01*
X163790580Y-114733501D01*
X163794476Y-114739564D01*
X163799498Y-114774497D01*
X163799499Y-114774499D01*
X163799499Y-114879057D01*
X163799499Y-114879059D01*
X163799500Y-114889053D01*
X163799500Y-114990149D01*
X163790061Y-115037601D01*
X163764314Y-115099760D01*
X163764313Y-115099764D01*
X163749500Y-115212272D01*
X163749500Y-116587727D01*
X163759309Y-116662229D01*
X163764313Y-116700236D01*
X163788725Y-116759172D01*
X163790061Y-116762396D01*
X163799500Y-116809849D01*
X163799500Y-118713330D01*
X163799499Y-118713348D01*
X163799499Y-118879054D01*
X163799498Y-118879054D01*
X163799499Y-118879057D01*
X163836915Y-119018695D01*
X163840424Y-119031787D01*
X163854114Y-119055498D01*
X163854115Y-119055500D01*
X163919477Y-119168712D01*
X163919481Y-119168717D01*
X164038349Y-119287585D01*
X164038355Y-119287590D01*
X164063181Y-119312416D01*
X164096666Y-119373739D01*
X164099500Y-119400097D01*
X164099500Y-119876553D01*
X164079815Y-119943592D01*
X164027011Y-119989347D01*
X163975712Y-120000553D01*
X133224712Y-120053119D01*
X133157639Y-120033549D01*
X133111794Y-119980823D01*
X133100500Y-119929119D01*
X133100500Y-118500097D01*
X133109145Y-118470653D01*
X133115668Y-118440671D01*
X133119422Y-118435655D01*
X133120185Y-118433058D01*
X133136814Y-118412420D01*
X133258505Y-118290728D01*
X133258510Y-118290725D01*
X133268714Y-118280520D01*
X133268716Y-118280520D01*
X133380520Y-118168716D01*
X133459577Y-118031784D01*
X133491545Y-117912479D01*
X133500500Y-117879058D01*
X133500500Y-117720943D01*
X133500500Y-117435853D01*
X133500569Y-117435616D01*
X133500501Y-117435381D01*
X133510440Y-117401999D01*
X133520185Y-117368814D01*
X133520369Y-117368654D01*
X133520440Y-117368417D01*
X133546952Y-117345619D01*
X133572989Y-117323059D01*
X133573293Y-117322970D01*
X133573418Y-117322863D01*
X133584373Y-117319739D01*
X133607320Y-117313049D01*
X133607722Y-117312992D01*
X133625236Y-117310687D01*
X133625762Y-117310468D01*
X133633904Y-117309330D01*
X133643567Y-117310756D01*
X133667269Y-117309195D01*
X133749999Y-117320086D01*
X133750551Y-117319602D01*
X133750220Y-117318161D01*
X133760839Y-117288621D01*
X133769685Y-117258497D01*
X133772941Y-117254956D01*
X133773857Y-117252411D01*
X133798512Y-117227161D01*
X133824515Y-117207208D01*
X133889684Y-117182016D01*
X133958129Y-117196055D01*
X133975484Y-117207208D01*
X134001486Y-117227160D01*
X134042689Y-117283587D01*
X134048878Y-117319102D01*
X134050000Y-117320086D01*
X134132730Y-117309195D01*
X134166469Y-117311415D01*
X134166705Y-117309626D01*
X134174763Y-117310686D01*
X134174764Y-117310687D01*
X134287280Y-117325500D01*
X134287287Y-117325500D01*
X134512713Y-117325500D01*
X134512720Y-117325500D01*
X134625236Y-117310687D01*
X134765233Y-117252698D01*
X134885451Y-117160451D01*
X134892127Y-117151749D01*
X134948552Y-117110546D01*
X135018298Y-117106389D01*
X135078185Y-117139553D01*
X135671580Y-117732948D01*
X135671584Y-117732951D01*
X135794498Y-117815080D01*
X135794511Y-117815087D01*
X135931082Y-117871656D01*
X135931087Y-117871658D01*
X135931091Y-117871658D01*
X135931092Y-117871659D01*
X136076079Y-117900500D01*
X136076082Y-117900500D01*
X138623920Y-117900500D01*
X138721462Y-117881096D01*
X138768913Y-117871658D01*
X138905495Y-117815084D01*
X138971557Y-117770943D01*
X139028416Y-117732952D01*
X139774549Y-116986819D01*
X139835872Y-116953334D01*
X139862230Y-116950500D01*
X140673920Y-116950500D01*
X140799598Y-116925500D01*
X140818913Y-116921658D01*
X140955495Y-116865084D01*
X141014737Y-116825500D01*
X141014737Y-116825499D01*
X141014739Y-116825499D01*
X141047979Y-116803289D01*
X141078416Y-116782952D01*
X141774548Y-116086818D01*
X141835871Y-116053334D01*
X141862229Y-116050500D01*
X148437770Y-116050500D01*
X148504809Y-116070185D01*
X148525451Y-116086819D01*
X149013181Y-116574548D01*
X149027884Y-116601475D01*
X149044477Y-116627294D01*
X149045368Y-116633494D01*
X149046666Y-116635871D01*
X149049500Y-116662229D01*
X149049500Y-116780067D01*
X149040061Y-116827519D01*
X149006225Y-116909206D01*
X149006222Y-116909216D01*
X148974500Y-117068692D01*
X148974500Y-117068695D01*
X148974500Y-117231305D01*
X148974500Y-117231307D01*
X148974499Y-117231307D01*
X149006222Y-117390783D01*
X149006225Y-117390793D01*
X149068450Y-117541019D01*
X149068452Y-117541023D01*
X149158788Y-117676220D01*
X149158794Y-117676228D01*
X149273771Y-117791205D01*
X149273779Y-117791211D01*
X149408976Y-117881547D01*
X149408980Y-117881549D01*
X149547823Y-117939059D01*
X149559211Y-117943776D01*
X149559215Y-117943776D01*
X149559216Y-117943777D01*
X149718692Y-117975500D01*
X149718695Y-117975500D01*
X149881307Y-117975500D01*
X149988598Y-117954157D01*
X150040789Y-117943776D01*
X150191021Y-117881548D01*
X150191023Y-117881547D01*
X150274343Y-117825874D01*
X150326225Y-117791208D01*
X150441208Y-117676225D01*
X150531548Y-117541021D01*
X150539653Y-117521455D01*
X150586241Y-117408979D01*
X150593776Y-117390789D01*
X150606763Y-117325499D01*
X150625500Y-117231307D01*
X150625500Y-117068692D01*
X150593777Y-116909216D01*
X150593776Y-116909215D01*
X150593776Y-116909211D01*
X150590946Y-116902379D01*
X150559939Y-116827519D01*
X150550500Y-116780067D01*
X150550500Y-116226080D01*
X150541146Y-116179058D01*
X150541146Y-116179056D01*
X150522799Y-116086819D01*
X150521659Y-116081088D01*
X150473608Y-115965084D01*
X150465084Y-115944505D01*
X150395819Y-115840842D01*
X150382952Y-115821585D01*
X150382947Y-115821579D01*
X149423550Y-114862181D01*
X149390065Y-114800858D01*
X149395049Y-114731166D01*
X149436921Y-114675233D01*
X149502385Y-114650816D01*
X149511231Y-114650500D01*
X153063331Y-114650500D01*
X153063347Y-114650501D01*
X153070943Y-114650501D01*
X153229054Y-114650501D01*
X153229057Y-114650501D01*
X153381785Y-114609577D01*
X153435885Y-114578342D01*
X153518716Y-114530520D01*
X153630520Y-114418716D01*
X153630520Y-114418714D01*
X153640724Y-114408511D01*
X153640728Y-114408506D01*
X154294258Y-113754975D01*
X154355579Y-113721492D01*
X154406129Y-113721041D01*
X154428545Y-113725500D01*
X154571457Y-113725500D01*
X154665751Y-113706742D01*
X154711620Y-113697619D01*
X154843653Y-113642929D01*
X154875876Y-113621397D01*
X154942554Y-113600520D01*
X154944767Y-113600500D01*
X157099903Y-113600500D01*
X157166942Y-113620185D01*
G37*
%TD.AperFunction*%
%TA.AperFunction,Conductor*%
G36*
X200268968Y-68963906D02*
G01*
X200304548Y-68974346D01*
X200304556Y-68974355D01*
X200304567Y-68974359D01*
X200325455Y-68998465D01*
X200350313Y-69027142D01*
X200350314Y-69027154D01*
X200350322Y-69027163D01*
X200355158Y-69060800D01*
X200360269Y-69096298D01*
X200360264Y-69096312D01*
X200360266Y-69096321D01*
X200350322Y-69130185D01*
X200314977Y-69207577D01*
X200314975Y-69207585D01*
X200294500Y-69349999D01*
X200294500Y-70850004D01*
X200295090Y-70858253D01*
X200280238Y-70926526D01*
X200243987Y-70965480D01*
X200244997Y-70966829D01*
X200241444Y-70969487D01*
X200188659Y-71015226D01*
X200094433Y-71123967D01*
X200094430Y-71123971D01*
X200034664Y-71254837D01*
X200034662Y-71254844D01*
X200014977Y-71321883D01*
X200014976Y-71321887D01*
X199994500Y-71464303D01*
X199994500Y-74246614D01*
X199994500Y-86864636D01*
X199994501Y-86864645D01*
X200006052Y-86972086D01*
X200006054Y-86972098D01*
X200017260Y-87023608D01*
X200051383Y-87126133D01*
X200051386Y-87126139D01*
X200129171Y-87247173D01*
X200129179Y-87247184D01*
X200174923Y-87299976D01*
X200174926Y-87299979D01*
X200174930Y-87299983D01*
X200283664Y-87394203D01*
X200283667Y-87394204D01*
X200283668Y-87394205D01*
X200316256Y-87409088D01*
X200414541Y-87453974D01*
X200481580Y-87473659D01*
X200481584Y-87473660D01*
X200624000Y-87494136D01*
X200624003Y-87494136D01*
X215302181Y-87494136D01*
X215302186Y-87494136D01*
X215414043Y-87481605D01*
X215449058Y-87473660D01*
X215467547Y-87469465D01*
X215467549Y-87469464D01*
X215467559Y-87469462D01*
X215573862Y-87432493D01*
X215693495Y-87352559D01*
X215693496Y-87352557D01*
X215693677Y-87352437D01*
X215760355Y-87331560D01*
X215827735Y-87350045D01*
X215850244Y-87367855D01*
X216005847Y-87523458D01*
X216256524Y-87729183D01*
X216526158Y-87909347D01*
X216526167Y-87909352D01*
X216526169Y-87909353D01*
X216812145Y-88062211D01*
X216812147Y-88062211D01*
X216812153Y-88062215D01*
X217111754Y-88186314D01*
X217422077Y-88280449D01*
X217422083Y-88280450D01*
X217422086Y-88280451D01*
X217422097Y-88280454D01*
X217621528Y-88320122D01*
X217740132Y-88343714D01*
X218062857Y-88375500D01*
X218062860Y-88375500D01*
X218387140Y-88375500D01*
X218387143Y-88375500D01*
X218709868Y-88343714D01*
X218867295Y-88312399D01*
X219027902Y-88280454D01*
X219027913Y-88280451D01*
X219027913Y-88280450D01*
X219027923Y-88280449D01*
X219338246Y-88186314D01*
X219637847Y-88062215D01*
X219923842Y-87909347D01*
X220193476Y-87729183D01*
X220444153Y-87523458D01*
X220600441Y-87367169D01*
X220661760Y-87333687D01*
X220731452Y-87338671D01*
X220769322Y-87361140D01*
X220807478Y-87394203D01*
X220807482Y-87394205D01*
X220840070Y-87409088D01*
X220938355Y-87453974D01*
X221005394Y-87473659D01*
X221005398Y-87473660D01*
X221147814Y-87494136D01*
X221147817Y-87494136D01*
X222275500Y-87494136D01*
X222342539Y-87513821D01*
X222388294Y-87566625D01*
X222399500Y-87618136D01*
X222399500Y-119776895D01*
X222379815Y-119843934D01*
X222327011Y-119889689D01*
X222275712Y-119900895D01*
X216284712Y-119911136D01*
X216217639Y-119891566D01*
X216171794Y-119838840D01*
X216160500Y-119787136D01*
X216160500Y-118805013D01*
X216164649Y-118789526D01*
X216163994Y-118775785D01*
X216177110Y-118743018D01*
X216183885Y-118731284D01*
X216209577Y-118686785D01*
X216250501Y-118534057D01*
X216250501Y-118375943D01*
X216250501Y-118368348D01*
X216250500Y-118368330D01*
X216250500Y-118044766D01*
X216270185Y-117977727D01*
X216271399Y-117975874D01*
X216271649Y-117975500D01*
X216292929Y-117943653D01*
X216347619Y-117811620D01*
X216358703Y-117755900D01*
X216375500Y-117671457D01*
X216375500Y-117528542D01*
X216347620Y-117388385D01*
X216347619Y-117388384D01*
X216347619Y-117388380D01*
X216292929Y-117256347D01*
X216292928Y-117256346D01*
X216292925Y-117256340D01*
X216213532Y-117137521D01*
X216213529Y-117137517D01*
X216112482Y-117036470D01*
X216112478Y-117036467D01*
X215993659Y-116957074D01*
X215993650Y-116957069D01*
X215861620Y-116902381D01*
X215861614Y-116902379D01*
X215721457Y-116874500D01*
X215721455Y-116874500D01*
X215578545Y-116874500D01*
X215578543Y-116874500D01*
X215438385Y-116902379D01*
X215438379Y-116902381D01*
X215306349Y-116957069D01*
X215306340Y-116957074D01*
X215187521Y-117036467D01*
X215187517Y-117036470D01*
X215086470Y-117137517D01*
X215086467Y-117137521D01*
X215007074Y-117256340D01*
X215007069Y-117256349D01*
X214952381Y-117388379D01*
X214952379Y-117388385D01*
X214924500Y-117528542D01*
X214924500Y-117671459D01*
X214927454Y-117686309D01*
X214921227Y-117755900D01*
X214878364Y-117811077D01*
X214812474Y-117834322D01*
X214805837Y-117834500D01*
X214079982Y-117834500D01*
X213977203Y-117845000D01*
X213977202Y-117845001D01*
X213896763Y-117871656D01*
X213810667Y-117900185D01*
X213810662Y-117900187D01*
X213661345Y-117992287D01*
X213587327Y-118066305D01*
X213526003Y-118099789D01*
X213456312Y-118094804D01*
X213411965Y-118066304D01*
X213338344Y-117992683D01*
X213338340Y-117992680D01*
X213189130Y-117900645D01*
X213189119Y-117900640D01*
X213022697Y-117845494D01*
X212919986Y-117835000D01*
X212480000Y-117835000D01*
X212480000Y-119211000D01*
X212460315Y-119278039D01*
X212407511Y-119323794D01*
X212356000Y-119335000D01*
X212230000Y-119335000D01*
X212230000Y-119461000D01*
X212210315Y-119528039D01*
X212157511Y-119573794D01*
X212106000Y-119585000D01*
X210840000Y-119585000D01*
X210840000Y-119796655D01*
X210837479Y-119805238D01*
X210838768Y-119814093D01*
X210827787Y-119838244D01*
X210820315Y-119863694D01*
X210813554Y-119869552D01*
X210809851Y-119877698D01*
X210787556Y-119892079D01*
X210767511Y-119909449D01*
X210757106Y-119911721D01*
X210751138Y-119915572D01*
X210716212Y-119920655D01*
X210484712Y-119921050D01*
X210417639Y-119901480D01*
X210371794Y-119848754D01*
X210360500Y-119797050D01*
X210360500Y-118841617D01*
X210377113Y-118779617D01*
X210405015Y-118731289D01*
X210459577Y-118636784D01*
X210486847Y-118535013D01*
X210840000Y-118535013D01*
X210840000Y-119085000D01*
X211980000Y-119085000D01*
X211980000Y-117835000D01*
X211540028Y-117835000D01*
X211540012Y-117835001D01*
X211437303Y-117845494D01*
X211437301Y-117845494D01*
X211270880Y-117900640D01*
X211270869Y-117900645D01*
X211121659Y-117992680D01*
X211121655Y-117992683D01*
X210997683Y-118116655D01*
X210997680Y-118116659D01*
X210905645Y-118265869D01*
X210905640Y-118265880D01*
X210850494Y-118432302D01*
X210840000Y-118535013D01*
X210486847Y-118535013D01*
X210500501Y-118484057D01*
X210500501Y-118325942D01*
X210500501Y-118318347D01*
X210500500Y-118318329D01*
X210500500Y-117894766D01*
X210520185Y-117827727D01*
X210521399Y-117825874D01*
X210542929Y-117793653D01*
X210597619Y-117661620D01*
X210621608Y-117541021D01*
X210625500Y-117521457D01*
X210625500Y-117378542D01*
X210597620Y-117238385D01*
X210597619Y-117238384D01*
X210597619Y-117238380D01*
X210555318Y-117136258D01*
X210542930Y-117106349D01*
X210542925Y-117106340D01*
X210463532Y-116987521D01*
X210463529Y-116987517D01*
X210362482Y-116886470D01*
X210362478Y-116886467D01*
X210243659Y-116807074D01*
X210243650Y-116807069D01*
X210111620Y-116752381D01*
X210111614Y-116752379D01*
X209971457Y-116724500D01*
X209971455Y-116724500D01*
X209828545Y-116724500D01*
X209828543Y-116724500D01*
X209688385Y-116752379D01*
X209688379Y-116752381D01*
X209556349Y-116807069D01*
X209556340Y-116807074D01*
X209437521Y-116886467D01*
X209437517Y-116886470D01*
X209336470Y-116987517D01*
X209336467Y-116987521D01*
X209257074Y-117106340D01*
X209257069Y-117106349D01*
X209202381Y-117238379D01*
X209202379Y-117238385D01*
X209174500Y-117378542D01*
X209174500Y-117378545D01*
X209174500Y-117521455D01*
X209174500Y-117521457D01*
X209174499Y-117521457D01*
X209202379Y-117661614D01*
X209202381Y-117661619D01*
X209202974Y-117663051D01*
X209203061Y-117663860D01*
X209204149Y-117667447D01*
X209203468Y-117667653D01*
X209210440Y-117732521D01*
X209179163Y-117794999D01*
X209119073Y-117830649D01*
X209088411Y-117834500D01*
X208279982Y-117834500D01*
X208177203Y-117845000D01*
X208177202Y-117845001D01*
X208096763Y-117871656D01*
X208010667Y-117900185D01*
X208010662Y-117900187D01*
X207861345Y-117992287D01*
X207787327Y-118066305D01*
X207726003Y-118099789D01*
X207656312Y-118094804D01*
X207611965Y-118066304D01*
X207538344Y-117992683D01*
X207538340Y-117992680D01*
X207389130Y-117900645D01*
X207389119Y-117900640D01*
X207222697Y-117845494D01*
X207119986Y-117835000D01*
X206680000Y-117835000D01*
X206680000Y-119211000D01*
X206660315Y-119278039D01*
X206607511Y-119323794D01*
X206556000Y-119335000D01*
X206430000Y-119335000D01*
X206430000Y-119461000D01*
X206410315Y-119528039D01*
X206357511Y-119573794D01*
X206306000Y-119585000D01*
X205040000Y-119585000D01*
X205040000Y-119806569D01*
X205020315Y-119873608D01*
X204967511Y-119919363D01*
X204916212Y-119930569D01*
X165924712Y-119997221D01*
X165857639Y-119977651D01*
X165811794Y-119924925D01*
X165800500Y-119873221D01*
X165800500Y-118820945D01*
X165800500Y-118820943D01*
X165773705Y-118720943D01*
X165759577Y-118668215D01*
X165759575Y-118668211D01*
X165759573Y-118668207D01*
X165730037Y-118617050D01*
X165730036Y-118617049D01*
X165716650Y-118593864D01*
X165682673Y-118535013D01*
X205040000Y-118535013D01*
X205040000Y-119085000D01*
X206180000Y-119085000D01*
X206180000Y-117835000D01*
X205740028Y-117835000D01*
X205740012Y-117835001D01*
X205637303Y-117845494D01*
X205637301Y-117845494D01*
X205470880Y-117900640D01*
X205470869Y-117900645D01*
X205321659Y-117992680D01*
X205321655Y-117992683D01*
X205197683Y-118116655D01*
X205197680Y-118116659D01*
X205105645Y-118265869D01*
X205105640Y-118265880D01*
X205050494Y-118432302D01*
X205040000Y-118535013D01*
X165682673Y-118535013D01*
X165680520Y-118531284D01*
X165568716Y-118419480D01*
X165568715Y-118419479D01*
X165564385Y-118415149D01*
X165564374Y-118415139D01*
X165536819Y-118387584D01*
X165503334Y-118326261D01*
X165500500Y-118299903D01*
X165500500Y-117235853D01*
X165520185Y-117168814D01*
X165572989Y-117123059D01*
X165608309Y-117112915D01*
X165625236Y-117110687D01*
X165625238Y-117110685D01*
X165633298Y-117109625D01*
X165633534Y-117111418D01*
X165667269Y-117109195D01*
X165749999Y-117120086D01*
X165750551Y-117119602D01*
X165750220Y-117118161D01*
X165760839Y-117088621D01*
X165769685Y-117058497D01*
X165772941Y-117054956D01*
X165773857Y-117052411D01*
X165798512Y-117027161D01*
X165824515Y-117007208D01*
X165889684Y-116982016D01*
X165958129Y-116996055D01*
X165975484Y-117007208D01*
X166001486Y-117027160D01*
X166042689Y-117083587D01*
X166048878Y-117119102D01*
X166050000Y-117120086D01*
X166132730Y-117109195D01*
X166166469Y-117111415D01*
X166166705Y-117109626D01*
X166174763Y-117110686D01*
X166174764Y-117110687D01*
X166287280Y-117125500D01*
X166287287Y-117125500D01*
X166448594Y-117125500D01*
X166515633Y-117145185D01*
X166551696Y-117180609D01*
X166617049Y-117278418D01*
X166617052Y-117278421D01*
X167021584Y-117682952D01*
X167021586Y-117682954D01*
X167059490Y-117708279D01*
X167078443Y-117720943D01*
X167144505Y-117765084D01*
X167144506Y-117765084D01*
X167144507Y-117765085D01*
X167256853Y-117811620D01*
X167281087Y-117821658D01*
X167281091Y-117821658D01*
X167281092Y-117821659D01*
X167426079Y-117850500D01*
X167426082Y-117850500D01*
X167426083Y-117850500D01*
X167573917Y-117850500D01*
X189030068Y-117850500D01*
X189077520Y-117859939D01*
X189129692Y-117881549D01*
X189159211Y-117893776D01*
X189159215Y-117893776D01*
X189159216Y-117893777D01*
X189318692Y-117925500D01*
X189318695Y-117925500D01*
X189481307Y-117925500D01*
X189608569Y-117900185D01*
X189640789Y-117893776D01*
X189782687Y-117835000D01*
X189791019Y-117831549D01*
X189791023Y-117831547D01*
X189890492Y-117765084D01*
X189926225Y-117741208D01*
X190041208Y-117626225D01*
X190046637Y-117618098D01*
X190062054Y-117599312D01*
X191474549Y-116186819D01*
X191535872Y-116153334D01*
X191562230Y-116150500D01*
X198026082Y-116150500D01*
X206455068Y-116150500D01*
X206502520Y-116159939D01*
X206548676Y-116179057D01*
X206584211Y-116193776D01*
X206584215Y-116193776D01*
X206584216Y-116193777D01*
X206743692Y-116225500D01*
X206743695Y-116225500D01*
X206906307Y-116225500D01*
X207027924Y-116201308D01*
X207065789Y-116193776D01*
X207119619Y-116171479D01*
X207147480Y-116159939D01*
X207194932Y-116150500D01*
X207880068Y-116150500D01*
X207927520Y-116159939D01*
X207973676Y-116179057D01*
X208009211Y-116193776D01*
X208009215Y-116193776D01*
X208009216Y-116193777D01*
X208168692Y-116225500D01*
X208168695Y-116225500D01*
X208331307Y-116225500D01*
X208452924Y-116201308D01*
X208490789Y-116193776D01*
X208544619Y-116171479D01*
X208572480Y-116159939D01*
X208619932Y-116150500D01*
X212580068Y-116150500D01*
X212627520Y-116159939D01*
X212673676Y-116179057D01*
X212709211Y-116193776D01*
X212709215Y-116193776D01*
X212709216Y-116193777D01*
X212868692Y-116225500D01*
X212868695Y-116225500D01*
X213031307Y-116225500D01*
X213152924Y-116201308D01*
X213190789Y-116193776D01*
X213244619Y-116171479D01*
X213272480Y-116159939D01*
X213319932Y-116150500D01*
X213880068Y-116150500D01*
X213927520Y-116159939D01*
X213973676Y-116179057D01*
X214009211Y-116193776D01*
X214009215Y-116193776D01*
X214009216Y-116193777D01*
X214168692Y-116225500D01*
X214168695Y-116225500D01*
X214331307Y-116225500D01*
X214452924Y-116201308D01*
X214490789Y-116193776D01*
X214641021Y-116131548D01*
X214641023Y-116131547D01*
X214725059Y-116075396D01*
X214776225Y-116041208D01*
X214891208Y-115926225D01*
X214961130Y-115821579D01*
X214981547Y-115791023D01*
X214981549Y-115791019D01*
X215015283Y-115709577D01*
X215043776Y-115640789D01*
X215054157Y-115588598D01*
X215075500Y-115481307D01*
X215075500Y-115318692D01*
X215043777Y-115159216D01*
X215043776Y-115159215D01*
X215043776Y-115159211D01*
X215020083Y-115102011D01*
X214981549Y-115008980D01*
X214981547Y-115008976D01*
X214891211Y-114873779D01*
X214891205Y-114873771D01*
X214776228Y-114758794D01*
X214776220Y-114758788D01*
X214641023Y-114668452D01*
X214641019Y-114668450D01*
X214490793Y-114606225D01*
X214490783Y-114606222D01*
X214331307Y-114574500D01*
X214331305Y-114574500D01*
X214168695Y-114574500D01*
X214168693Y-114574500D01*
X214009216Y-114606222D01*
X214009206Y-114606225D01*
X213927520Y-114640061D01*
X213880068Y-114649500D01*
X213319932Y-114649500D01*
X213272480Y-114640061D01*
X213190793Y-114606225D01*
X213190783Y-114606222D01*
X213031307Y-114574500D01*
X213031305Y-114574500D01*
X212868695Y-114574500D01*
X212868693Y-114574500D01*
X212709216Y-114606222D01*
X212709206Y-114606225D01*
X212627520Y-114640061D01*
X212580068Y-114649500D01*
X208619932Y-114649500D01*
X208572480Y-114640061D01*
X208490793Y-114606225D01*
X208490783Y-114606222D01*
X208331307Y-114574500D01*
X208331305Y-114574500D01*
X208168695Y-114574500D01*
X208168693Y-114574500D01*
X208009216Y-114606222D01*
X208009206Y-114606225D01*
X207927520Y-114640061D01*
X207880068Y-114649500D01*
X207194932Y-114649500D01*
X207147480Y-114640061D01*
X207065793Y-114606225D01*
X207065783Y-114606222D01*
X206906307Y-114574500D01*
X206906305Y-114574500D01*
X206743695Y-114574500D01*
X206743693Y-114574500D01*
X206584216Y-114606222D01*
X206584206Y-114606225D01*
X206502520Y-114640061D01*
X206455068Y-114649500D01*
X198974500Y-114649500D01*
X198907461Y-114629815D01*
X198861706Y-114577011D01*
X198850500Y-114525500D01*
X198850500Y-113375500D01*
X198870185Y-113308461D01*
X198922989Y-113262706D01*
X198974500Y-113251500D01*
X199071457Y-113251500D01*
X199165751Y-113232742D01*
X199211620Y-113223619D01*
X199343653Y-113168929D01*
X199462479Y-113089532D01*
X199563532Y-112988479D01*
X199642929Y-112869653D01*
X199695066Y-112743782D01*
X199738903Y-112689385D01*
X199762163Y-112676683D01*
X199843653Y-112642929D01*
X199962479Y-112563532D01*
X200063532Y-112462479D01*
X200142929Y-112343653D01*
X200142932Y-112343646D01*
X200163330Y-112294401D01*
X200207170Y-112239997D01*
X200273464Y-112217932D01*
X200302080Y-112220235D01*
X200328545Y-112225500D01*
X200471457Y-112225500D01*
X200565751Y-112206742D01*
X200611620Y-112197619D01*
X200743653Y-112142929D01*
X200862479Y-112063532D01*
X200963532Y-111962479D01*
X201042929Y-111843653D01*
X201097619Y-111711620D01*
X201121207Y-111593039D01*
X201125500Y-111571457D01*
X201125500Y-111428542D01*
X201097620Y-111288385D01*
X201097619Y-111288384D01*
X201097619Y-111288380D01*
X201042929Y-111156347D01*
X201021396Y-111124121D01*
X201000520Y-111057444D01*
X201000500Y-111055232D01*
X201000500Y-108944766D01*
X201020185Y-108877727D01*
X201021399Y-108875874D01*
X201042929Y-108843653D01*
X201097619Y-108711620D01*
X201125500Y-108571455D01*
X201125500Y-108428545D01*
X201125500Y-108428542D01*
X201097620Y-108288385D01*
X201097619Y-108288384D01*
X201097619Y-108288380D01*
X201042929Y-108156347D01*
X201042928Y-108156346D01*
X201042925Y-108156340D01*
X200963532Y-108037521D01*
X200963529Y-108037517D01*
X200862482Y-107936470D01*
X200862478Y-107936467D01*
X200743659Y-107857074D01*
X200743650Y-107857069D01*
X200611620Y-107802381D01*
X200611614Y-107802379D01*
X200471457Y-107774500D01*
X200471455Y-107774500D01*
X200328545Y-107774500D01*
X200328543Y-107774500D01*
X200188385Y-107802379D01*
X200188379Y-107802381D01*
X200056349Y-107857069D01*
X200018889Y-107882099D01*
X200006614Y-107885941D01*
X199996539Y-107893930D01*
X199973911Y-107896180D01*
X199952211Y-107902975D01*
X199938187Y-107899734D01*
X199927013Y-107900846D01*
X199906180Y-107892337D01*
X199893615Y-107889434D01*
X199887142Y-107886129D01*
X199843653Y-107857071D01*
X199772506Y-107827600D01*
X199768115Y-107825359D01*
X199746168Y-107804597D01*
X199722643Y-107785639D01*
X199721041Y-107780827D01*
X199717358Y-107777343D01*
X199710119Y-107748010D01*
X199700579Y-107719345D01*
X199700500Y-107714920D01*
X199700500Y-107628542D01*
X199672620Y-107488385D01*
X199672619Y-107488384D01*
X199672619Y-107488380D01*
X199617929Y-107356347D01*
X199617928Y-107356346D01*
X199617925Y-107356340D01*
X199538532Y-107237521D01*
X199538529Y-107237517D01*
X199437482Y-107136470D01*
X199437478Y-107136467D01*
X199318659Y-107057074D01*
X199318650Y-107057069D01*
X199186620Y-107002381D01*
X199186614Y-107002379D01*
X199046457Y-106974500D01*
X199046455Y-106974500D01*
X198974500Y-106974500D01*
X198907461Y-106954815D01*
X198861706Y-106902011D01*
X198850500Y-106850500D01*
X198850500Y-106026079D01*
X198821659Y-105881092D01*
X198821658Y-105881091D01*
X198821658Y-105881087D01*
X198817698Y-105871527D01*
X198765087Y-105744511D01*
X198765080Y-105744498D01*
X198682952Y-105621585D01*
X198682951Y-105621584D01*
X198578416Y-105517049D01*
X196286819Y-103225451D01*
X196253334Y-103164128D01*
X196250500Y-103137770D01*
X196250500Y-100692230D01*
X196270185Y-100625191D01*
X196286819Y-100604549D01*
X203739549Y-93151819D01*
X203800872Y-93118334D01*
X203827230Y-93115500D01*
X208842394Y-93115500D01*
X208878394Y-93120841D01*
X208881085Y-93121657D01*
X208881087Y-93121658D01*
X208881089Y-93121658D01*
X208881091Y-93121659D01*
X209026077Y-93150498D01*
X209026081Y-93150499D01*
X209026082Y-93150499D01*
X209173918Y-93150499D01*
X209173919Y-93150498D01*
X209318912Y-93121658D01*
X209455494Y-93065084D01*
X209578415Y-92982951D01*
X209682951Y-92878415D01*
X209765084Y-92755494D01*
X209821658Y-92618912D01*
X209850499Y-92473917D01*
X209850499Y-92326082D01*
X209821658Y-92181087D01*
X209821656Y-92181082D01*
X209765087Y-92044511D01*
X209765080Y-92044498D01*
X209682953Y-91921587D01*
X209682951Y-91921584D01*
X209543416Y-91782048D01*
X209446431Y-91717246D01*
X209446431Y-91717245D01*
X209420495Y-91699916D01*
X209420490Y-91699913D01*
X209283917Y-91643343D01*
X209283907Y-91643340D01*
X209138920Y-91614500D01*
X209138918Y-91614500D01*
X203391082Y-91614500D01*
X203391080Y-91614500D01*
X203246092Y-91643340D01*
X203246082Y-91643343D01*
X203109509Y-91699913D01*
X203109504Y-91699916D01*
X203083568Y-91717245D01*
X203083569Y-91717246D01*
X202986579Y-91782051D01*
X194917049Y-99851581D01*
X194875632Y-99913566D01*
X194875633Y-99913567D01*
X194834914Y-99974508D01*
X194778343Y-100111082D01*
X194778340Y-100111092D01*
X194749500Y-100256079D01*
X194749500Y-102625500D01*
X194729815Y-102692539D01*
X194677011Y-102738294D01*
X194625500Y-102749500D01*
X190175874Y-102749500D01*
X190108835Y-102729815D01*
X190063080Y-102677011D01*
X190053136Y-102607853D01*
X190082161Y-102544297D01*
X190088193Y-102537819D01*
X190163529Y-102462482D01*
X190163532Y-102462479D01*
X190242929Y-102343653D01*
X190297619Y-102211620D01*
X190321791Y-102090102D01*
X190325500Y-102071457D01*
X190325500Y-101928542D01*
X190297620Y-101788385D01*
X190297619Y-101788384D01*
X190297619Y-101788380D01*
X190245760Y-101663181D01*
X190242930Y-101656349D01*
X190242925Y-101656340D01*
X190163532Y-101537521D01*
X190163529Y-101537517D01*
X190062482Y-101436470D01*
X190062478Y-101436467D01*
X189943659Y-101357074D01*
X189943650Y-101357069D01*
X189811620Y-101302381D01*
X189811614Y-101302379D01*
X189671457Y-101274500D01*
X189671455Y-101274500D01*
X189528545Y-101274500D01*
X189528543Y-101274500D01*
X189388385Y-101302379D01*
X189388379Y-101302381D01*
X189256348Y-101357069D01*
X189228766Y-101375500D01*
X189224512Y-101378343D01*
X189224124Y-101378602D01*
X189157446Y-101399480D01*
X189155233Y-101399500D01*
X188400097Y-101399500D01*
X188333058Y-101379815D01*
X188312416Y-101363181D01*
X182547590Y-95598355D01*
X182547588Y-95598352D01*
X182428717Y-95479481D01*
X182428716Y-95479480D01*
X182337221Y-95426656D01*
X182337220Y-95426655D01*
X182291783Y-95400422D01*
X182235881Y-95385443D01*
X182139057Y-95359499D01*
X181980943Y-95359499D01*
X181973347Y-95359499D01*
X181973331Y-95359500D01*
X181390337Y-95359500D01*
X181323298Y-95339815D01*
X181283471Y-95295793D01*
X181282592Y-95296332D01*
X181280057Y-95292196D01*
X181280051Y-95292184D01*
X181270801Y-95279452D01*
X181155109Y-95120213D01*
X181004792Y-94969896D01*
X181004784Y-94969890D01*
X180840204Y-94850316D01*
X180797540Y-94794989D01*
X180791561Y-94725376D01*
X180824166Y-94663580D01*
X180840199Y-94649686D01*
X181004792Y-94530104D01*
X181155104Y-94379792D01*
X181155106Y-94379788D01*
X181155109Y-94379786D01*
X181280048Y-94207820D01*
X181280047Y-94207820D01*
X181280051Y-94207816D01*
X181376557Y-94018412D01*
X181442246Y-93816243D01*
X181475500Y-93606287D01*
X181475500Y-93393713D01*
X181442246Y-93183757D01*
X181376557Y-92981588D01*
X181280051Y-92792184D01*
X181280049Y-92792181D01*
X181280048Y-92792179D01*
X181155109Y-92620213D01*
X181004792Y-92469896D01*
X180984953Y-92455482D01*
X180840204Y-92350316D01*
X180797540Y-92294989D01*
X180791561Y-92225376D01*
X180824166Y-92163580D01*
X180840199Y-92149686D01*
X181004792Y-92030104D01*
X181155104Y-91879792D01*
X181155106Y-91879788D01*
X181155109Y-91879786D01*
X181280048Y-91707820D01*
X181280047Y-91707820D01*
X181280051Y-91707816D01*
X181376557Y-91518412D01*
X181442246Y-91316243D01*
X181475500Y-91106287D01*
X181475500Y-90893713D01*
X181442246Y-90683757D01*
X181376557Y-90481588D01*
X181280051Y-90292184D01*
X181280049Y-90292181D01*
X181280048Y-90292179D01*
X181155109Y-90120213D01*
X181004792Y-89969896D01*
X181004784Y-89969890D01*
X180840204Y-89850316D01*
X180797540Y-89794989D01*
X180791561Y-89725376D01*
X180824166Y-89663580D01*
X180840199Y-89649686D01*
X181004792Y-89530104D01*
X181155104Y-89379792D01*
X181155106Y-89379788D01*
X181155109Y-89379786D01*
X181278902Y-89209397D01*
X181280051Y-89207816D01*
X181376557Y-89018412D01*
X181442246Y-88816243D01*
X181475500Y-88606287D01*
X181475500Y-88393713D01*
X181442246Y-88183757D01*
X181376557Y-87981588D01*
X181280051Y-87792184D01*
X181280049Y-87792181D01*
X181280048Y-87792179D01*
X181155109Y-87620213D01*
X181016294Y-87481398D01*
X180982809Y-87420075D01*
X180987793Y-87350383D01*
X181029665Y-87294450D01*
X181038879Y-87288178D01*
X181044331Y-87284814D01*
X181044334Y-87284814D01*
X181193656Y-87192712D01*
X181317712Y-87068656D01*
X181409814Y-86919334D01*
X181464999Y-86752797D01*
X181475500Y-86650009D01*
X181475499Y-85349992D01*
X181464999Y-85247203D01*
X181409814Y-85080666D01*
X181317712Y-84931344D01*
X181193656Y-84807288D01*
X181044334Y-84715186D01*
X180877797Y-84660001D01*
X180877795Y-84660000D01*
X180775010Y-84649500D01*
X179224998Y-84649500D01*
X179224981Y-84649501D01*
X179122203Y-84660000D01*
X179122200Y-84660001D01*
X178955668Y-84715185D01*
X178955663Y-84715187D01*
X178806342Y-84807289D01*
X178682287Y-84931344D01*
X178676580Y-84940598D01*
X178624632Y-84987322D01*
X178571042Y-84999500D01*
X175604675Y-84999500D01*
X175604655Y-84999499D01*
X175598541Y-84999499D01*
X175401460Y-84999499D01*
X175401457Y-84999499D01*
X175208172Y-85037946D01*
X175208164Y-85037948D01*
X175026088Y-85113366D01*
X175026079Y-85113371D01*
X174862219Y-85222859D01*
X174862215Y-85222862D01*
X174014399Y-86070681D01*
X173953076Y-86104166D01*
X173926718Y-86107000D01*
X173105596Y-86107000D01*
X173100346Y-86105458D01*
X173094984Y-86106545D01*
X173067176Y-86095718D01*
X173038557Y-86087315D01*
X173033623Y-86082655D01*
X173029875Y-86081196D01*
X173005278Y-86055885D01*
X172957182Y-85989686D01*
X172933702Y-85923880D01*
X172933500Y-85916801D01*
X172933500Y-85434458D01*
X172927241Y-85402995D01*
X172927241Y-85402993D01*
X172896252Y-85247203D01*
X172895051Y-85241164D01*
X172842116Y-85113368D01*
X172819632Y-85059086D01*
X172734278Y-84931344D01*
X172710140Y-84895219D01*
X172646041Y-84831120D01*
X172570782Y-84755861D01*
X172570781Y-84755860D01*
X170884208Y-83069288D01*
X170884206Y-83069285D01*
X170884206Y-83069286D01*
X170877139Y-83062219D01*
X170877139Y-83062218D01*
X170737782Y-82922861D01*
X170737781Y-82922860D01*
X170737780Y-82922859D01*
X170573920Y-82813371D01*
X170573907Y-82813364D01*
X170427878Y-82752878D01*
X170427876Y-82752877D01*
X170419722Y-82749500D01*
X170391836Y-82737949D01*
X170295188Y-82718724D01*
X170291884Y-82718066D01*
X170291881Y-82718066D01*
X170198544Y-82699500D01*
X170198541Y-82699500D01*
X167365783Y-82699500D01*
X167298744Y-82679815D01*
X167278102Y-82663181D01*
X163706819Y-79091898D01*
X163673334Y-79030575D01*
X163670500Y-79004217D01*
X163670500Y-75894419D01*
X163690185Y-75827380D01*
X163719014Y-75796043D01*
X163793376Y-75738983D01*
X163859699Y-75688092D01*
X164026592Y-75521199D01*
X164170273Y-75333950D01*
X164288284Y-75129549D01*
X164378606Y-74911493D01*
X164439693Y-74683514D01*
X164470500Y-74449511D01*
X164470500Y-74213495D01*
X165869500Y-74213495D01*
X165869500Y-74449504D01*
X165869501Y-74449520D01*
X165900306Y-74683510D01*
X165961394Y-74911493D01*
X166051714Y-75129545D01*
X166051719Y-75129556D01*
X166122677Y-75252457D01*
X166169727Y-75333950D01*
X166169729Y-75333953D01*
X166169730Y-75333954D01*
X166313406Y-75521197D01*
X166313412Y-75521204D01*
X166480295Y-75688087D01*
X166480302Y-75688093D01*
X166590306Y-75772501D01*
X166667550Y-75831773D01*
X166740397Y-75873831D01*
X166871943Y-75949780D01*
X166871948Y-75949782D01*
X166871951Y-75949784D01*
X167090007Y-76040106D01*
X167317986Y-76101193D01*
X167551989Y-76132000D01*
X167551996Y-76132000D01*
X167788004Y-76132000D01*
X167788011Y-76132000D01*
X168022014Y-76101193D01*
X168249993Y-76040106D01*
X168468049Y-75949784D01*
X168672450Y-75831773D01*
X168859699Y-75688092D01*
X168868427Y-75679364D01*
X168914648Y-75633144D01*
X169026587Y-75521204D01*
X169026592Y-75521199D01*
X169170273Y-75333950D01*
X169288284Y-75129549D01*
X169378606Y-74911493D01*
X169439693Y-74683514D01*
X169470500Y-74449511D01*
X169470500Y-74213514D01*
X170870000Y-74213514D01*
X170870000Y-74449485D01*
X170900799Y-74683414D01*
X170961870Y-74911337D01*
X171052160Y-75129319D01*
X171052165Y-75129328D01*
X171170144Y-75333671D01*
X171170145Y-75333672D01*
X171232721Y-75415223D01*
X172068958Y-74578987D01*
X172093978Y-74639390D01*
X172165112Y-74745851D01*
X172255649Y-74836388D01*
X172362110Y-74907522D01*
X172422511Y-74932541D01*
X171586275Y-75768777D01*
X171667827Y-75831354D01*
X171667828Y-75831355D01*
X171872171Y-75949334D01*
X171872180Y-75949339D01*
X172090163Y-76039629D01*
X172090161Y-76039629D01*
X172318085Y-76100700D01*
X172552014Y-76131499D01*
X172552029Y-76131500D01*
X172787971Y-76131500D01*
X172787985Y-76131499D01*
X173021914Y-76100700D01*
X173249837Y-76039629D01*
X173467819Y-75949339D01*
X173467828Y-75949334D01*
X173672181Y-75831350D01*
X173753723Y-75768779D01*
X173753723Y-75768776D01*
X172917487Y-74932541D01*
X172977890Y-74907522D01*
X173084351Y-74836388D01*
X173174888Y-74745851D01*
X173246022Y-74639390D01*
X173271041Y-74578987D01*
X174107276Y-75415223D01*
X174107279Y-75415223D01*
X174169850Y-75333681D01*
X174287834Y-75129328D01*
X174287839Y-75129319D01*
X174378129Y-74911337D01*
X174439200Y-74683414D01*
X174469999Y-74449485D01*
X174470000Y-74449471D01*
X174470000Y-74213521D01*
X174469997Y-74213495D01*
X175869500Y-74213495D01*
X175869500Y-74449504D01*
X175869501Y-74449520D01*
X175900306Y-74683510D01*
X175961394Y-74911493D01*
X176051714Y-75129545D01*
X176051719Y-75129556D01*
X176122677Y-75252457D01*
X176169727Y-75333950D01*
X176169729Y-75333953D01*
X176169730Y-75333954D01*
X176313406Y-75521197D01*
X176313412Y-75521204D01*
X176480295Y-75688087D01*
X176480302Y-75688093D01*
X176590306Y-75772501D01*
X176667550Y-75831773D01*
X176740397Y-75873831D01*
X176871943Y-75949780D01*
X176871948Y-75949782D01*
X176871951Y-75949784D01*
X177090007Y-76040106D01*
X177317986Y-76101193D01*
X177551989Y-76132000D01*
X177551996Y-76132000D01*
X177788004Y-76132000D01*
X177788011Y-76132000D01*
X178022014Y-76101193D01*
X178249993Y-76040106D01*
X178468049Y-75949784D01*
X178672450Y-75831773D01*
X178859699Y-75688092D01*
X179026592Y-75521199D01*
X179170273Y-75333950D01*
X179288284Y-75129549D01*
X179378606Y-74911493D01*
X179439693Y-74683514D01*
X179470500Y-74449511D01*
X179470500Y-74213495D01*
X180869500Y-74213495D01*
X180869500Y-74449504D01*
X180869501Y-74449520D01*
X180900306Y-74683510D01*
X180961394Y-74911493D01*
X181051714Y-75129545D01*
X181051719Y-75129556D01*
X181122677Y-75252457D01*
X181169727Y-75333950D01*
X181169729Y-75333953D01*
X181169730Y-75333954D01*
X181313406Y-75521197D01*
X181313412Y-75521204D01*
X181480295Y-75688087D01*
X181480302Y-75688093D01*
X181590306Y-75772501D01*
X181667550Y-75831773D01*
X181740397Y-75873831D01*
X181871943Y-75949780D01*
X181871948Y-75949782D01*
X181871951Y-75949784D01*
X182090007Y-76040106D01*
X182317986Y-76101193D01*
X182551989Y-76132000D01*
X182551996Y-76132000D01*
X182788004Y-76132000D01*
X182788011Y-76132000D01*
X183022014Y-76101193D01*
X183249993Y-76040106D01*
X183468049Y-75949784D01*
X183672450Y-75831773D01*
X183859699Y-75688092D01*
X184026592Y-75521199D01*
X184170273Y-75333950D01*
X184288284Y-75129549D01*
X184378606Y-74911493D01*
X184439693Y-74683514D01*
X184470500Y-74449511D01*
X184470500Y-74213495D01*
X185869500Y-74213495D01*
X185869500Y-74449504D01*
X185869501Y-74449520D01*
X185900306Y-74683510D01*
X185961394Y-74911493D01*
X186051714Y-75129545D01*
X186051719Y-75129556D01*
X186122677Y-75252457D01*
X186169727Y-75333950D01*
X186169729Y-75333953D01*
X186169730Y-75333954D01*
X186313406Y-75521197D01*
X186313412Y-75521204D01*
X186480295Y-75688087D01*
X186480302Y-75688093D01*
X186590306Y-75772501D01*
X186667550Y-75831773D01*
X186740397Y-75873831D01*
X186871943Y-75949780D01*
X186871948Y-75949782D01*
X186871951Y-75949784D01*
X187090007Y-76040106D01*
X187317986Y-76101193D01*
X187551989Y-76132000D01*
X187551996Y-76132000D01*
X187788004Y-76132000D01*
X187788011Y-76132000D01*
X188022014Y-76101193D01*
X188249993Y-76040106D01*
X188468049Y-75949784D01*
X188672450Y-75831773D01*
X188859699Y-75688092D01*
X189026592Y-75521199D01*
X189170273Y-75333950D01*
X189288284Y-75129549D01*
X189378606Y-74911493D01*
X189439693Y-74683514D01*
X189470500Y-74449511D01*
X189470500Y-74213495D01*
X190869500Y-74213495D01*
X190869500Y-74449504D01*
X190869501Y-74449520D01*
X190900306Y-74683510D01*
X190961394Y-74911493D01*
X191051714Y-75129545D01*
X191051719Y-75129556D01*
X191122677Y-75252457D01*
X191169727Y-75333950D01*
X191169729Y-75333953D01*
X191169730Y-75333954D01*
X191313406Y-75521197D01*
X191313412Y-75521204D01*
X191480295Y-75688087D01*
X191480302Y-75688093D01*
X191590306Y-75772501D01*
X191667550Y-75831773D01*
X191740397Y-75873831D01*
X191871943Y-75949780D01*
X191871948Y-75949782D01*
X191871951Y-75949784D01*
X192090007Y-76040106D01*
X192317986Y-76101193D01*
X192551989Y-76132000D01*
X192551996Y-76132000D01*
X192788004Y-76132000D01*
X192788011Y-76132000D01*
X193022014Y-76101193D01*
X193249993Y-76040106D01*
X193468049Y-75949784D01*
X193672450Y-75831773D01*
X193859699Y-75688092D01*
X194026592Y-75521199D01*
X194170273Y-75333950D01*
X194288284Y-75129549D01*
X194378606Y-74911493D01*
X194439693Y-74683514D01*
X194470500Y-74449511D01*
X194470500Y-74213495D01*
X195869500Y-74213495D01*
X195869500Y-74449504D01*
X195869501Y-74449520D01*
X195900306Y-74683510D01*
X195961394Y-74911493D01*
X196051714Y-75129545D01*
X196051719Y-75129556D01*
X196122677Y-75252457D01*
X196169727Y-75333950D01*
X196169729Y-75333953D01*
X196169730Y-75333954D01*
X196313406Y-75521197D01*
X196313412Y-75521204D01*
X196480295Y-75688087D01*
X196480302Y-75688093D01*
X196590306Y-75772501D01*
X196667550Y-75831773D01*
X196740397Y-75873831D01*
X196871943Y-75949780D01*
X196871948Y-75949782D01*
X196871951Y-75949784D01*
X197090007Y-76040106D01*
X197317986Y-76101193D01*
X197551989Y-76132000D01*
X197551996Y-76132000D01*
X197788004Y-76132000D01*
X197788011Y-76132000D01*
X198022014Y-76101193D01*
X198249993Y-76040106D01*
X198468049Y-75949784D01*
X198672450Y-75831773D01*
X198859699Y-75688092D01*
X199026592Y-75521199D01*
X199170273Y-75333950D01*
X199288284Y-75129549D01*
X199378606Y-74911493D01*
X199439693Y-74683514D01*
X199470500Y-74449511D01*
X199470500Y-74213489D01*
X199439693Y-73979486D01*
X199378606Y-73751507D01*
X199288284Y-73533451D01*
X199288282Y-73533448D01*
X199288280Y-73533443D01*
X199246118Y-73460418D01*
X199170273Y-73329050D01*
X199026592Y-73141801D01*
X199026587Y-73141795D01*
X198859704Y-72974912D01*
X198859697Y-72974906D01*
X198672454Y-72831230D01*
X198672453Y-72831229D01*
X198672450Y-72831227D01*
X198590957Y-72784177D01*
X198468056Y-72713219D01*
X198468045Y-72713214D01*
X198249993Y-72622894D01*
X198118670Y-72587706D01*
X198022014Y-72561807D01*
X198022013Y-72561806D01*
X198022010Y-72561806D01*
X197788020Y-72531001D01*
X197788017Y-72531000D01*
X197788011Y-72531000D01*
X197551989Y-72531000D01*
X197551983Y-72531000D01*
X197551979Y-72531001D01*
X197317989Y-72561806D01*
X197090006Y-72622894D01*
X196871954Y-72713214D01*
X196871943Y-72713219D01*
X196667545Y-72831230D01*
X196480302Y-72974906D01*
X196480295Y-72974912D01*
X196313412Y-73141795D01*
X196313406Y-73141802D01*
X196169730Y-73329045D01*
X196169727Y-73329049D01*
X196169727Y-73329050D01*
X196162014Y-73342409D01*
X196051719Y-73533443D01*
X196051714Y-73533454D01*
X195961394Y-73751506D01*
X195900306Y-73979489D01*
X195869501Y-74213479D01*
X195869500Y-74213495D01*
X194470500Y-74213495D01*
X194470500Y-74213489D01*
X194439693Y-73979486D01*
X194378606Y-73751507D01*
X194288284Y-73533451D01*
X194288282Y-73533448D01*
X194288280Y-73533443D01*
X194246118Y-73460418D01*
X194170273Y-73329050D01*
X194026592Y-73141801D01*
X194026587Y-73141795D01*
X193859704Y-72974912D01*
X193859697Y-72974906D01*
X193672454Y-72831230D01*
X193672453Y-72831229D01*
X193672450Y-72831227D01*
X193590957Y-72784177D01*
X193468056Y-72713219D01*
X193468045Y-72713214D01*
X193249993Y-72622894D01*
X193118670Y-72587706D01*
X193022014Y-72561807D01*
X193022013Y-72561806D01*
X193022010Y-72561806D01*
X192788020Y-72531001D01*
X192788017Y-72531000D01*
X192788011Y-72531000D01*
X192551989Y-72531000D01*
X192551983Y-72531000D01*
X192551979Y-72531001D01*
X192317989Y-72561806D01*
X192090006Y-72622894D01*
X191871954Y-72713214D01*
X191871943Y-72713219D01*
X191667545Y-72831230D01*
X191480302Y-72974906D01*
X191480295Y-72974912D01*
X191313412Y-73141795D01*
X191313406Y-73141802D01*
X191169730Y-73329045D01*
X191169727Y-73329049D01*
X191169727Y-73329050D01*
X191162014Y-73342409D01*
X191051719Y-73533443D01*
X191051714Y-73533454D01*
X190961394Y-73751506D01*
X190900306Y-73979489D01*
X190869501Y-74213479D01*
X190869500Y-74213495D01*
X189470500Y-74213495D01*
X189470500Y-74213489D01*
X189439693Y-73979486D01*
X189378606Y-73751507D01*
X189288284Y-73533451D01*
X189288282Y-73533448D01*
X189288280Y-73533443D01*
X189246118Y-73460418D01*
X189170273Y-73329050D01*
X189026592Y-73141801D01*
X189026587Y-73141795D01*
X188859704Y-72974912D01*
X188859697Y-72974906D01*
X188672454Y-72831230D01*
X188672453Y-72831229D01*
X188672450Y-72831227D01*
X188590957Y-72784177D01*
X188468056Y-72713219D01*
X188468045Y-72713214D01*
X188249993Y-72622894D01*
X188118670Y-72587706D01*
X188022014Y-72561807D01*
X188022013Y-72561806D01*
X188022010Y-72561806D01*
X187788020Y-72531001D01*
X187788017Y-72531000D01*
X187788011Y-72531000D01*
X187551989Y-72531000D01*
X187551983Y-72531000D01*
X187551979Y-72531001D01*
X187317989Y-72561806D01*
X187090006Y-72622894D01*
X186871954Y-72713214D01*
X186871943Y-72713219D01*
X186667545Y-72831230D01*
X186480302Y-72974906D01*
X186480295Y-72974912D01*
X186313412Y-73141795D01*
X186313406Y-73141802D01*
X186169730Y-73329045D01*
X186169727Y-73329049D01*
X186169727Y-73329050D01*
X186162014Y-73342409D01*
X186051719Y-73533443D01*
X186051714Y-73533454D01*
X185961394Y-73751506D01*
X185900306Y-73979489D01*
X185869501Y-74213479D01*
X185869500Y-74213495D01*
X184470500Y-74213495D01*
X184470500Y-74213489D01*
X184439693Y-73979486D01*
X184378606Y-73751507D01*
X184288284Y-73533451D01*
X184288282Y-73533448D01*
X184288280Y-73533443D01*
X184246118Y-73460418D01*
X184170273Y-73329050D01*
X184026592Y-73141801D01*
X184026587Y-73141795D01*
X183859704Y-72974912D01*
X183859697Y-72974906D01*
X183672454Y-72831230D01*
X183672453Y-72831229D01*
X183672450Y-72831227D01*
X183590957Y-72784177D01*
X183468056Y-72713219D01*
X183468045Y-72713214D01*
X183249993Y-72622894D01*
X183118670Y-72587706D01*
X183022014Y-72561807D01*
X183022013Y-72561806D01*
X183022010Y-72561806D01*
X182788020Y-72531001D01*
X182788017Y-72531000D01*
X182788011Y-72531000D01*
X182551989Y-72531000D01*
X182551983Y-72531000D01*
X182551979Y-72531001D01*
X182317989Y-72561806D01*
X182090006Y-72622894D01*
X181871954Y-72713214D01*
X181871943Y-72713219D01*
X181667545Y-72831230D01*
X181480302Y-72974906D01*
X181480295Y-72974912D01*
X181313412Y-73141795D01*
X181313406Y-73141802D01*
X181169730Y-73329045D01*
X181169727Y-73329049D01*
X181169727Y-73329050D01*
X181162014Y-73342409D01*
X181051719Y-73533443D01*
X181051714Y-73533454D01*
X180961394Y-73751506D01*
X180900306Y-73979489D01*
X180869501Y-74213479D01*
X180869500Y-74213495D01*
X179470500Y-74213495D01*
X179470500Y-74213489D01*
X179439693Y-73979486D01*
X179378606Y-73751507D01*
X179288284Y-73533451D01*
X179288282Y-73533448D01*
X179288280Y-73533443D01*
X179246118Y-73460418D01*
X179170273Y-73329050D01*
X179026592Y-73141801D01*
X179026587Y-73141795D01*
X178859704Y-72974912D01*
X178859697Y-72974906D01*
X178672454Y-72831230D01*
X178672453Y-72831229D01*
X178672450Y-72831227D01*
X178590957Y-72784177D01*
X178468056Y-72713219D01*
X178468045Y-72713214D01*
X178249993Y-72622894D01*
X178118670Y-72587706D01*
X178022014Y-72561807D01*
X178022013Y-72561806D01*
X178022010Y-72561806D01*
X177788020Y-72531001D01*
X177788017Y-72531000D01*
X177788011Y-72531000D01*
X177551989Y-72531000D01*
X177551983Y-72531000D01*
X177551979Y-72531001D01*
X177317989Y-72561806D01*
X177090006Y-72622894D01*
X176871954Y-72713214D01*
X176871943Y-72713219D01*
X176667545Y-72831230D01*
X176480302Y-72974906D01*
X176480295Y-72974912D01*
X176313412Y-73141795D01*
X176313406Y-73141802D01*
X176169730Y-73329045D01*
X176169727Y-73329049D01*
X176169727Y-73329050D01*
X176162014Y-73342409D01*
X176051719Y-73533443D01*
X176051714Y-73533454D01*
X175961394Y-73751506D01*
X175900306Y-73979489D01*
X175869501Y-74213479D01*
X175869500Y-74213495D01*
X174469997Y-74213495D01*
X174439200Y-73979585D01*
X174378129Y-73751662D01*
X174287839Y-73533680D01*
X174287834Y-73533671D01*
X174169855Y-73329328D01*
X174169854Y-73329327D01*
X174107277Y-73247775D01*
X173271041Y-74084011D01*
X173246022Y-74023610D01*
X173174888Y-73917149D01*
X173084351Y-73826612D01*
X172977890Y-73755478D01*
X172917488Y-73730458D01*
X173753723Y-72894221D01*
X173672172Y-72831645D01*
X173672171Y-72831644D01*
X173467828Y-72713665D01*
X173467819Y-72713660D01*
X173249836Y-72623370D01*
X173249838Y-72623370D01*
X173021914Y-72562299D01*
X172787985Y-72531500D01*
X172552014Y-72531500D01*
X172318085Y-72562299D01*
X172090162Y-72623370D01*
X171872180Y-72713660D01*
X171872171Y-72713665D01*
X171667828Y-72831644D01*
X171667818Y-72831650D01*
X171586275Y-72894220D01*
X171586275Y-72894221D01*
X172422512Y-73730458D01*
X172362110Y-73755478D01*
X172255649Y-73826612D01*
X172165112Y-73917149D01*
X172093978Y-74023610D01*
X172068958Y-74084012D01*
X171232721Y-73247775D01*
X171232720Y-73247775D01*
X171170150Y-73329318D01*
X171170144Y-73329328D01*
X171052165Y-73533671D01*
X171052160Y-73533680D01*
X170961870Y-73751662D01*
X170900799Y-73979585D01*
X170870000Y-74213514D01*
X169470500Y-74213514D01*
X169470500Y-74213489D01*
X169439693Y-73979486D01*
X169378606Y-73751507D01*
X169288284Y-73533451D01*
X169288282Y-73533448D01*
X169288280Y-73533443D01*
X169246118Y-73460418D01*
X169170273Y-73329050D01*
X169026592Y-73141801D01*
X169026587Y-73141795D01*
X168859704Y-72974912D01*
X168859697Y-72974906D01*
X168672454Y-72831230D01*
X168672453Y-72831229D01*
X168672450Y-72831227D01*
X168590957Y-72784177D01*
X168468056Y-72713219D01*
X168468045Y-72713214D01*
X168249993Y-72622894D01*
X168118670Y-72587706D01*
X168022014Y-72561807D01*
X168022013Y-72561806D01*
X168022010Y-72561806D01*
X167788020Y-72531001D01*
X167788017Y-72531000D01*
X167788011Y-72531000D01*
X167551989Y-72531000D01*
X167551983Y-72531000D01*
X167551979Y-72531001D01*
X167317989Y-72561806D01*
X167090006Y-72622894D01*
X166871954Y-72713214D01*
X166871943Y-72713219D01*
X166667545Y-72831230D01*
X166480302Y-72974906D01*
X166480295Y-72974912D01*
X166313412Y-73141795D01*
X166313406Y-73141802D01*
X166169730Y-73329045D01*
X166169727Y-73329049D01*
X166169727Y-73329050D01*
X166162014Y-73342409D01*
X166051719Y-73533443D01*
X166051714Y-73533454D01*
X165961394Y-73751506D01*
X165900306Y-73979489D01*
X165869501Y-74213479D01*
X165869500Y-74213495D01*
X164470500Y-74213495D01*
X164470500Y-74213489D01*
X164439693Y-73979486D01*
X164378606Y-73751507D01*
X164288284Y-73533451D01*
X164288282Y-73533448D01*
X164288280Y-73533443D01*
X164246118Y-73460418D01*
X164170273Y-73329050D01*
X164026592Y-73141801D01*
X164026587Y-73141795D01*
X163859704Y-72974912D01*
X163859697Y-72974906D01*
X163672454Y-72831230D01*
X163672453Y-72831229D01*
X163672450Y-72831227D01*
X163590957Y-72784177D01*
X163468056Y-72713219D01*
X163468045Y-72713214D01*
X163249993Y-72622894D01*
X163118670Y-72587706D01*
X163022014Y-72561807D01*
X163022013Y-72561806D01*
X163022010Y-72561806D01*
X162788020Y-72531001D01*
X162788017Y-72531000D01*
X162788011Y-72531000D01*
X162551989Y-72531000D01*
X162551983Y-72531000D01*
X162551979Y-72531001D01*
X162317989Y-72561806D01*
X162090006Y-72622894D01*
X161871954Y-72713214D01*
X161871943Y-72713219D01*
X161667545Y-72831230D01*
X161480302Y-72974906D01*
X161480295Y-72974912D01*
X161313412Y-73141795D01*
X161313406Y-73141802D01*
X161169730Y-73329045D01*
X161169727Y-73329049D01*
X161169727Y-73329050D01*
X161162014Y-73342409D01*
X161051719Y-73533443D01*
X161051714Y-73533454D01*
X160961394Y-73751506D01*
X160900306Y-73979489D01*
X160869501Y-74213479D01*
X160869500Y-74213495D01*
X160869500Y-74449504D01*
X160869501Y-74449520D01*
X160900306Y-74683510D01*
X160961394Y-74911493D01*
X161051714Y-75129545D01*
X161051719Y-75129556D01*
X161122677Y-75252457D01*
X161169727Y-75333950D01*
X161169729Y-75333953D01*
X161169730Y-75333954D01*
X161313406Y-75521197D01*
X161313412Y-75521204D01*
X161480295Y-75688087D01*
X161480302Y-75688093D01*
X161620986Y-75796043D01*
X161662189Y-75852471D01*
X161669500Y-75894419D01*
X161669500Y-79568544D01*
X161698347Y-79713566D01*
X161707947Y-79761829D01*
X161707949Y-79761837D01*
X161783364Y-79943907D01*
X161783371Y-79943920D01*
X161892859Y-80107780D01*
X161892860Y-80107781D01*
X161892861Y-80107782D01*
X162032218Y-80247139D01*
X162032219Y-80247139D01*
X162039286Y-80254206D01*
X162039285Y-80254206D01*
X162039288Y-80254208D01*
X166122860Y-84337781D01*
X166122861Y-84337782D01*
X166262218Y-84477139D01*
X166426086Y-84586632D01*
X166532745Y-84630811D01*
X166608164Y-84662051D01*
X166801454Y-84700499D01*
X166801457Y-84700500D01*
X166801459Y-84700500D01*
X169634218Y-84700500D01*
X169701257Y-84720185D01*
X169721899Y-84736819D01*
X170861682Y-85876602D01*
X170874062Y-85899274D01*
X170889748Y-85919801D01*
X170890533Y-85929439D01*
X170895167Y-85937925D01*
X170893324Y-85963693D01*
X170895422Y-85989440D01*
X170890722Y-86000068D01*
X170890183Y-86007617D01*
X170883417Y-86022629D01*
X170879368Y-86030220D01*
X170863476Y-86052095D01*
X170774116Y-86227475D01*
X170774011Y-86227795D01*
X170772135Y-86231315D01*
X170748450Y-86255473D01*
X170725229Y-86280060D01*
X170724062Y-86280348D01*
X170723221Y-86281207D01*
X170690227Y-86288727D01*
X170657408Y-86296855D01*
X170656271Y-86296467D01*
X170655099Y-86296735D01*
X170623300Y-86285231D01*
X170591274Y-86274318D01*
X170590426Y-86273339D01*
X170589396Y-86272967D01*
X170584114Y-86266055D01*
X170552234Y-86229264D01*
X170462095Y-86052356D01*
X170346444Y-85893178D01*
X170207321Y-85754055D01*
X170048143Y-85638404D01*
X169872835Y-85549081D01*
X169685705Y-85488278D01*
X169643000Y-85481514D01*
X169643000Y-86674488D01*
X169585993Y-86641575D01*
X169458826Y-86607500D01*
X169327174Y-86607500D01*
X169200007Y-86641575D01*
X169143000Y-86674488D01*
X169143000Y-85481514D01*
X169142999Y-85481514D01*
X169100294Y-85488278D01*
X168913164Y-85549081D01*
X168737856Y-85638404D01*
X168578678Y-85754055D01*
X168439555Y-85893178D01*
X168327817Y-86046971D01*
X168272486Y-86089637D01*
X168202873Y-86095615D01*
X168141078Y-86063009D01*
X168106721Y-86002170D01*
X168103499Y-85974085D01*
X168103499Y-85909629D01*
X168103498Y-85909623D01*
X168101730Y-85893178D01*
X168097091Y-85850017D01*
X168060297Y-85751368D01*
X168046797Y-85715171D01*
X168046793Y-85715164D01*
X167960547Y-85599955D01*
X167960544Y-85599952D01*
X167845335Y-85513706D01*
X167845328Y-85513702D01*
X167710482Y-85463408D01*
X167710483Y-85463408D01*
X167650883Y-85457001D01*
X167650881Y-85457000D01*
X167650873Y-85457000D01*
X167650864Y-85457000D01*
X166055129Y-85457000D01*
X166055123Y-85457001D01*
X165995516Y-85463408D01*
X165860671Y-85513702D01*
X165860668Y-85513704D01*
X165769080Y-85582267D01*
X165703615Y-85606684D01*
X165694769Y-85607000D01*
X163380390Y-85607000D01*
X163313351Y-85587315D01*
X163292709Y-85570681D01*
X161977512Y-84255485D01*
X161977511Y-84255484D01*
X161786434Y-84116657D01*
X161575996Y-84009433D01*
X161351368Y-83936446D01*
X161118097Y-83899500D01*
X161118092Y-83899500D01*
X152824500Y-83899500D01*
X152757461Y-83879815D01*
X152711706Y-83827011D01*
X152700500Y-83775500D01*
X152700500Y-80721902D01*
X152663553Y-80488635D01*
X152663553Y-80488634D01*
X152663553Y-80488632D01*
X152620663Y-80356632D01*
X152590568Y-80264008D01*
X152483343Y-80053566D01*
X152344517Y-79862490D01*
X150036319Y-77554292D01*
X150002834Y-77492969D01*
X150000000Y-77466611D01*
X150000000Y-74213495D01*
X150709500Y-74213495D01*
X150709500Y-74449504D01*
X150709501Y-74449520D01*
X150740306Y-74683510D01*
X150801394Y-74911493D01*
X150891714Y-75129545D01*
X150891719Y-75129556D01*
X150962677Y-75252457D01*
X151009727Y-75333950D01*
X151009729Y-75333953D01*
X151009730Y-75333954D01*
X151153406Y-75521197D01*
X151153412Y-75521204D01*
X151320295Y-75688087D01*
X151320302Y-75688093D01*
X151430306Y-75772501D01*
X151507550Y-75831773D01*
X151580397Y-75873831D01*
X151711943Y-75949780D01*
X151711948Y-75949782D01*
X151711951Y-75949784D01*
X151930007Y-76040106D01*
X152157986Y-76101193D01*
X152391989Y-76132000D01*
X152391996Y-76132000D01*
X152628004Y-76132000D01*
X152628011Y-76132000D01*
X152862014Y-76101193D01*
X153089993Y-76040106D01*
X153308049Y-75949784D01*
X153512450Y-75831773D01*
X153699699Y-75688092D01*
X153866592Y-75521199D01*
X154010273Y-75333950D01*
X154128284Y-75129549D01*
X154218606Y-74911493D01*
X154279693Y-74683514D01*
X154310500Y-74449511D01*
X154310500Y-74213489D01*
X154279693Y-73979486D01*
X154218606Y-73751507D01*
X154128284Y-73533451D01*
X154128282Y-73533448D01*
X154128280Y-73533443D01*
X154086118Y-73460418D01*
X154010273Y-73329050D01*
X153866592Y-73141801D01*
X153866587Y-73141795D01*
X153708427Y-72983635D01*
X155789500Y-72983635D01*
X155789500Y-75679370D01*
X155789501Y-75679376D01*
X155795908Y-75738983D01*
X155846202Y-75873828D01*
X155846206Y-75873835D01*
X155932452Y-75989044D01*
X155932455Y-75989047D01*
X156047664Y-76075293D01*
X156047671Y-76075297D01*
X156182517Y-76125591D01*
X156182516Y-76125591D01*
X156189444Y-76126335D01*
X156242127Y-76132000D01*
X158937872Y-76131999D01*
X158997483Y-76125591D01*
X159132331Y-76075296D01*
X159247546Y-75989046D01*
X159333796Y-75873831D01*
X159384091Y-75738983D01*
X159390500Y-75679373D01*
X159390499Y-72983628D01*
X159384091Y-72924017D01*
X159372977Y-72894220D01*
X159333797Y-72789171D01*
X159333793Y-72789164D01*
X159247547Y-72673955D01*
X159247544Y-72673952D01*
X159132335Y-72587706D01*
X159132328Y-72587702D01*
X158997482Y-72537408D01*
X158997483Y-72537408D01*
X158937883Y-72531001D01*
X158937881Y-72531000D01*
X158937873Y-72531000D01*
X158937864Y-72531000D01*
X156242129Y-72531000D01*
X156242123Y-72531001D01*
X156182516Y-72537408D01*
X156047671Y-72587702D01*
X156047664Y-72587706D01*
X155932455Y-72673952D01*
X155932452Y-72673955D01*
X155846206Y-72789164D01*
X155846202Y-72789171D01*
X155795908Y-72924017D01*
X155790437Y-72974908D01*
X155789501Y-72983623D01*
X155789500Y-72983635D01*
X153708427Y-72983635D01*
X153699704Y-72974912D01*
X153699697Y-72974906D01*
X153512454Y-72831230D01*
X153512453Y-72831229D01*
X153512450Y-72831227D01*
X153430957Y-72784177D01*
X153308056Y-72713219D01*
X153308045Y-72713214D01*
X153089993Y-72622894D01*
X152958670Y-72587706D01*
X152862014Y-72561807D01*
X152862013Y-72561806D01*
X152862010Y-72561806D01*
X152628020Y-72531001D01*
X152628017Y-72531000D01*
X152628011Y-72531000D01*
X152391989Y-72531000D01*
X152391983Y-72531000D01*
X152391979Y-72531001D01*
X152157989Y-72561806D01*
X151930006Y-72622894D01*
X151711954Y-72713214D01*
X151711943Y-72713219D01*
X151507545Y-72831230D01*
X151320302Y-72974906D01*
X151320295Y-72974912D01*
X151153412Y-73141795D01*
X151153406Y-73141802D01*
X151009730Y-73329045D01*
X151009727Y-73329049D01*
X151009727Y-73329050D01*
X151002014Y-73342409D01*
X150891719Y-73533443D01*
X150891714Y-73533454D01*
X150801394Y-73751506D01*
X150740306Y-73979489D01*
X150709501Y-74213479D01*
X150709500Y-74213495D01*
X150000000Y-74213495D01*
X150000000Y-69087906D01*
X150019685Y-69020867D01*
X150072489Y-68975112D01*
X150123972Y-68963906D01*
X200237505Y-68954674D01*
X200237516Y-68954677D01*
X200237526Y-68954674D01*
X200237528Y-68954674D01*
X200268968Y-68963906D01*
G37*
%TD.AperFunction*%
%TA.AperFunction,Conductor*%
G36*
X102222658Y-101569105D02*
G01*
X102222658Y-101569104D01*
X102282914Y-101486169D01*
X102282918Y-101486163D01*
X102390102Y-101275804D01*
X102451878Y-101085681D01*
X102491316Y-101028006D01*
X102555675Y-101000808D01*
X102569809Y-101000000D01*
X104928403Y-101000000D01*
X104995442Y-101019685D01*
X105041197Y-101072489D01*
X105046334Y-101085682D01*
X105059430Y-101125989D01*
X105059432Y-101125992D01*
X105166657Y-101336434D01*
X105305483Y-101527510D01*
X107922490Y-104144517D01*
X108113566Y-104283343D01*
X108183920Y-104319190D01*
X108244404Y-104350008D01*
X108324003Y-104390566D01*
X108324005Y-104390566D01*
X108324008Y-104390568D01*
X108412547Y-104419336D01*
X108548631Y-104463553D01*
X108781903Y-104500500D01*
X108781908Y-104500500D01*
X108896042Y-104500500D01*
X108963081Y-104520185D01*
X109001580Y-104559402D01*
X109007288Y-104568656D01*
X109131344Y-104692712D01*
X109280666Y-104784814D01*
X109280667Y-104784814D01*
X109286813Y-104788605D01*
X109285706Y-104790399D01*
X109330337Y-104829687D01*
X109349500Y-104895908D01*
X109349500Y-108795396D01*
X109340062Y-108842844D01*
X109339728Y-108843653D01*
X109330262Y-108866506D01*
X109330260Y-108866511D01*
X109299500Y-109021153D01*
X109299500Y-109178846D01*
X109330261Y-109333489D01*
X109330264Y-109333501D01*
X109390602Y-109479172D01*
X109390609Y-109479185D01*
X109478210Y-109610288D01*
X109478213Y-109610292D01*
X109589707Y-109721786D01*
X109589711Y-109721789D01*
X109720814Y-109809390D01*
X109720827Y-109809397D01*
X109866498Y-109869735D01*
X109866503Y-109869737D01*
X110021153Y-109900499D01*
X110021156Y-109900500D01*
X110021158Y-109900500D01*
X110178844Y-109900500D01*
X110178845Y-109900499D01*
X110333497Y-109869737D01*
X110474172Y-109811468D01*
X110479172Y-109809397D01*
X110479172Y-109809396D01*
X110479179Y-109809394D01*
X110610289Y-109721789D01*
X110721789Y-109610289D01*
X110809394Y-109479179D01*
X110869737Y-109333497D01*
X110900500Y-109178842D01*
X110900500Y-109021158D01*
X110900500Y-109021155D01*
X110900499Y-109021153D01*
X110869739Y-108866511D01*
X110869738Y-108866508D01*
X110869737Y-108866503D01*
X110859937Y-108842844D01*
X110850500Y-108795396D01*
X110850500Y-104895908D01*
X110870185Y-104828869D01*
X110914271Y-104790363D01*
X110913187Y-104788605D01*
X110919332Y-104784814D01*
X110919334Y-104784814D01*
X111068656Y-104692712D01*
X111192712Y-104568656D01*
X111284814Y-104419334D01*
X111339999Y-104252797D01*
X111350500Y-104150009D01*
X111350499Y-101849992D01*
X111343417Y-101780668D01*
X111339999Y-101747203D01*
X111339998Y-101747200D01*
X111324192Y-101699500D01*
X111284814Y-101580666D01*
X111192712Y-101431344D01*
X111068656Y-101307288D01*
X111068655Y-101307287D01*
X110942604Y-101229539D01*
X110895879Y-101177591D01*
X110884656Y-101108629D01*
X110912500Y-101044546D01*
X110970568Y-101005690D01*
X111007700Y-101000000D01*
X113992300Y-101000000D01*
X114059339Y-101019685D01*
X114105094Y-101072489D01*
X114115038Y-101141647D01*
X114086013Y-101205203D01*
X114057396Y-101229539D01*
X113931344Y-101307287D01*
X113807289Y-101431342D01*
X113715187Y-101580663D01*
X113715185Y-101580668D01*
X113691758Y-101651368D01*
X113660001Y-101747203D01*
X113660001Y-101747204D01*
X113660000Y-101747204D01*
X113649500Y-101849983D01*
X113649500Y-104150001D01*
X113649501Y-104150018D01*
X113660000Y-104252796D01*
X113660001Y-104252799D01*
X113715046Y-104418913D01*
X113715186Y-104419334D01*
X113807288Y-104568656D01*
X113931344Y-104692712D01*
X114080666Y-104784814D01*
X114247203Y-104839999D01*
X114349991Y-104850500D01*
X115450008Y-104850499D01*
X115450016Y-104850498D01*
X115450019Y-104850498D01*
X115506302Y-104844748D01*
X115552797Y-104839999D01*
X115719334Y-104784814D01*
X115868656Y-104692712D01*
X115992712Y-104568656D01*
X115998420Y-104559402D01*
X116050368Y-104512678D01*
X116103958Y-104500500D01*
X116827111Y-104500500D01*
X116894150Y-104520185D01*
X116914792Y-104536819D01*
X118213181Y-105835208D01*
X118246666Y-105896531D01*
X118249500Y-105922889D01*
X118249500Y-116925500D01*
X118229815Y-116992539D01*
X118177011Y-117038294D01*
X118125500Y-117049500D01*
X108769932Y-117049500D01*
X108722480Y-117040061D01*
X108640793Y-117006225D01*
X108640783Y-117006222D01*
X108481307Y-116974500D01*
X108481305Y-116974500D01*
X108318695Y-116974500D01*
X108318693Y-116974500D01*
X108159216Y-117006222D01*
X108159206Y-117006225D01*
X108008980Y-117068450D01*
X108008976Y-117068452D01*
X107873779Y-117158788D01*
X107873771Y-117158794D01*
X107758794Y-117273771D01*
X107758788Y-117273779D01*
X107668452Y-117408976D01*
X107668450Y-117408980D01*
X107606225Y-117559206D01*
X107606222Y-117559216D01*
X107574500Y-117718692D01*
X107574500Y-117718695D01*
X107574500Y-117881305D01*
X107574500Y-117881307D01*
X107574499Y-117881307D01*
X107606222Y-118040783D01*
X107606225Y-118040793D01*
X107668449Y-118191017D01*
X107712277Y-118256610D01*
X107715314Y-118266310D01*
X107721968Y-118273989D01*
X107725576Y-118299086D01*
X107733154Y-118323287D01*
X107730465Y-118333086D01*
X107731912Y-118343147D01*
X107721377Y-118366215D01*
X107714669Y-118390667D01*
X107707109Y-118397457D01*
X107702887Y-118406703D01*
X107681552Y-118420413D01*
X107662690Y-118437357D01*
X107651093Y-118439988D01*
X107644109Y-118444477D01*
X107609174Y-118449500D01*
X107437229Y-118449500D01*
X107370190Y-118429815D01*
X107349548Y-118413181D01*
X104915921Y-115979552D01*
X104915920Y-115979551D01*
X104894268Y-115965084D01*
X104824841Y-115918695D01*
X104792995Y-115897416D01*
X104792993Y-115897415D01*
X104792990Y-115897413D01*
X104656417Y-115840843D01*
X104656407Y-115840840D01*
X104511420Y-115812000D01*
X104511418Y-115812000D01*
X103644932Y-115812000D01*
X103597480Y-115802561D01*
X103515793Y-115768725D01*
X103515783Y-115768722D01*
X103356307Y-115737000D01*
X103356305Y-115737000D01*
X103193695Y-115737000D01*
X103193693Y-115737000D01*
X103034216Y-115768722D01*
X103034206Y-115768725D01*
X102952520Y-115802561D01*
X102905068Y-115812000D01*
X102344932Y-115812000D01*
X102297480Y-115802561D01*
X102215793Y-115768725D01*
X102215783Y-115768722D01*
X102056307Y-115737000D01*
X102056305Y-115737000D01*
X101893695Y-115737000D01*
X101893693Y-115737000D01*
X101734216Y-115768722D01*
X101734206Y-115768725D01*
X101652520Y-115802561D01*
X101605068Y-115812000D01*
X97744932Y-115812000D01*
X97697480Y-115802561D01*
X97615793Y-115768725D01*
X97615783Y-115768722D01*
X97456307Y-115737000D01*
X97456305Y-115737000D01*
X97293695Y-115737000D01*
X97293693Y-115737000D01*
X97134216Y-115768722D01*
X97134206Y-115768725D01*
X97052520Y-115802561D01*
X97005068Y-115812000D01*
X96724000Y-115812000D01*
X96656961Y-115792315D01*
X96611206Y-115739511D01*
X96600000Y-115688000D01*
X96600000Y-114124000D01*
X96619685Y-114056961D01*
X96672489Y-114011206D01*
X96724000Y-114000000D01*
X100000000Y-114000000D01*
X100000000Y-112670923D01*
X100019685Y-112603884D01*
X100072489Y-112558129D01*
X100141647Y-112548185D01*
X100196886Y-112570605D01*
X100213828Y-112582914D01*
X100424197Y-112690102D01*
X100648752Y-112763065D01*
X100648751Y-112763065D01*
X100881948Y-112800000D01*
X101118052Y-112800000D01*
X101351247Y-112763065D01*
X101575802Y-112690102D01*
X101786163Y-112582918D01*
X101786169Y-112582914D01*
X101869104Y-112522658D01*
X101869105Y-112522658D01*
X101129409Y-111782962D01*
X101192993Y-111765925D01*
X101307007Y-111700099D01*
X101400099Y-111607007D01*
X101465925Y-111492993D01*
X101482962Y-111429408D01*
X102222658Y-112169105D01*
X102222658Y-112169104D01*
X102282914Y-112086169D01*
X102282918Y-112086163D01*
X102390102Y-111875802D01*
X102463065Y-111651247D01*
X102500000Y-111418052D01*
X102500000Y-111181947D01*
X102463065Y-110948752D01*
X102390102Y-110724197D01*
X102282914Y-110513828D01*
X102222658Y-110430894D01*
X102222658Y-110430893D01*
X101482962Y-111170590D01*
X101465925Y-111107007D01*
X101400099Y-110992993D01*
X101307007Y-110899901D01*
X101192993Y-110834075D01*
X101129408Y-110817037D01*
X101869105Y-110077340D01*
X101869104Y-110077338D01*
X101786174Y-110017087D01*
X101575802Y-109909897D01*
X101351247Y-109836934D01*
X101351248Y-109836934D01*
X101118052Y-109800000D01*
X100881948Y-109800000D01*
X100648752Y-109836934D01*
X100424197Y-109909897D01*
X100213826Y-110017086D01*
X100196883Y-110029396D01*
X100131076Y-110052874D01*
X100063022Y-110037047D01*
X100014329Y-109986940D01*
X100000000Y-109929076D01*
X100000000Y-102070923D01*
X100019685Y-102003884D01*
X100072489Y-101958129D01*
X100141647Y-101948185D01*
X100196886Y-101970605D01*
X100213828Y-101982914D01*
X100424197Y-102090102D01*
X100648752Y-102163065D01*
X100648751Y-102163065D01*
X100881948Y-102200000D01*
X101118052Y-102200000D01*
X101351247Y-102163065D01*
X101575802Y-102090102D01*
X101786163Y-101982918D01*
X101786169Y-101982914D01*
X101869104Y-101922658D01*
X101869105Y-101922658D01*
X101129409Y-101182962D01*
X101192993Y-101165925D01*
X101307007Y-101100099D01*
X101400099Y-101007007D01*
X101404144Y-101000000D01*
X101653553Y-101000000D01*
X102222658Y-101569105D01*
G37*
%TD.AperFunction*%
%TA.AperFunction,Conductor*%
G36*
X137966942Y-115220185D02*
G01*
X137987584Y-115236819D01*
X138265139Y-115514374D01*
X138265149Y-115514385D01*
X138269479Y-115518715D01*
X138269480Y-115518716D01*
X138381284Y-115630520D01*
X138381286Y-115630521D01*
X138381290Y-115630524D01*
X138480843Y-115688000D01*
X138518216Y-115709577D01*
X138620560Y-115737000D01*
X138620559Y-115737000D01*
X138623882Y-115737890D01*
X138634773Y-115740808D01*
X138694434Y-115777168D01*
X138724967Y-115840013D01*
X138716676Y-115909389D01*
X138690366Y-115948265D01*
X138275451Y-116363181D01*
X138214128Y-116396666D01*
X138187770Y-116399500D01*
X136512229Y-116399500D01*
X136445190Y-116379815D01*
X136424548Y-116363181D01*
X135578421Y-115517052D01*
X135578417Y-115517049D01*
X135578416Y-115517048D01*
X135455494Y-115434916D01*
X135455492Y-115434915D01*
X135455489Y-115434913D01*
X135453517Y-115433859D01*
X135452677Y-115433034D01*
X135450429Y-115431532D01*
X135450713Y-115431105D01*
X135403672Y-115384898D01*
X135388210Y-115316761D01*
X135412040Y-115251080D01*
X135467597Y-115208711D01*
X135511968Y-115200500D01*
X137899903Y-115200500D01*
X137966942Y-115220185D01*
G37*
%TD.AperFunction*%
%TA.AperFunction,Conductor*%
G36*
X155806163Y-86920185D02*
G01*
X155851918Y-86972989D01*
X155861862Y-87042147D01*
X155839442Y-87097385D01*
X155770379Y-87192442D01*
X155673904Y-87381782D01*
X155608242Y-87583870D01*
X155608242Y-87583873D01*
X155597769Y-87650000D01*
X156645854Y-87650000D01*
X156607370Y-87716657D01*
X156575000Y-87837465D01*
X156575000Y-87962535D01*
X156607370Y-88083343D01*
X156645854Y-88150000D01*
X155597769Y-88150000D01*
X155608242Y-88216126D01*
X155608242Y-88216129D01*
X155673904Y-88418217D01*
X155770379Y-88607557D01*
X155895272Y-88779459D01*
X155895276Y-88779464D01*
X156045535Y-88929723D01*
X156045540Y-88929727D01*
X156210218Y-89049372D01*
X156252884Y-89104701D01*
X156258863Y-89174315D01*
X156226258Y-89236110D01*
X156210218Y-89250008D01*
X156045214Y-89369890D01*
X156045209Y-89369894D01*
X155894890Y-89520213D01*
X155769951Y-89692179D01*
X155673444Y-89881585D01*
X155607753Y-90083760D01*
X155574500Y-90293713D01*
X155574500Y-90506286D01*
X155602608Y-90683757D01*
X155607754Y-90716243D01*
X155658186Y-90871457D01*
X155673444Y-90918414D01*
X155769951Y-91107820D01*
X155894890Y-91279786D01*
X156045209Y-91430105D01*
X156045214Y-91430109D01*
X156209793Y-91549682D01*
X156252459Y-91605011D01*
X156258438Y-91674625D01*
X156225833Y-91736420D01*
X156209793Y-91750318D01*
X156045214Y-91869890D01*
X156045209Y-91869894D01*
X155894890Y-92020213D01*
X155769951Y-92192179D01*
X155673444Y-92381585D01*
X155607753Y-92583760D01*
X155574500Y-92793713D01*
X155574500Y-93006286D01*
X155607753Y-93216239D01*
X155673443Y-93418412D01*
X155769951Y-93607820D01*
X155894890Y-93779786D01*
X156045209Y-93930105D01*
X156045214Y-93930109D01*
X156209793Y-94049682D01*
X156252459Y-94105011D01*
X156258438Y-94174625D01*
X156225833Y-94236420D01*
X156209793Y-94250318D01*
X156045214Y-94369890D01*
X156045209Y-94369894D01*
X155894890Y-94520213D01*
X155769951Y-94692179D01*
X155673444Y-94881585D01*
X155607753Y-95083760D01*
X155574500Y-95293713D01*
X155574500Y-95506286D01*
X155602608Y-95683757D01*
X155607754Y-95716243D01*
X155649050Y-95843339D01*
X155673444Y-95918414D01*
X155769951Y-96107820D01*
X155894890Y-96279786D01*
X156033705Y-96418601D01*
X156067190Y-96479924D01*
X156062206Y-96549616D01*
X156020334Y-96605549D01*
X156011121Y-96611821D01*
X155856342Y-96707289D01*
X155732289Y-96831342D01*
X155640187Y-96980663D01*
X155640185Y-96980668D01*
X155623802Y-97030109D01*
X155585001Y-97147203D01*
X155585001Y-97147204D01*
X155585000Y-97147204D01*
X155574500Y-97249983D01*
X155574500Y-98550001D01*
X155574501Y-98550018D01*
X155585000Y-98652796D01*
X155585001Y-98652799D01*
X155623467Y-98768880D01*
X155640186Y-98819334D01*
X155732288Y-98968656D01*
X155856344Y-99092712D01*
X156005666Y-99184814D01*
X156172203Y-99239999D01*
X156274991Y-99250500D01*
X157825008Y-99250499D01*
X157927797Y-99239999D01*
X158094334Y-99184814D01*
X158243656Y-99092712D01*
X158367712Y-98968656D01*
X158459814Y-98819334D01*
X158514999Y-98652797D01*
X158525500Y-98550009D01*
X158525499Y-97249992D01*
X158516703Y-97163889D01*
X158514999Y-97147203D01*
X158514998Y-97147200D01*
X158483320Y-97051602D01*
X158459814Y-96980666D01*
X158367712Y-96831344D01*
X158243656Y-96707288D01*
X158094334Y-96615186D01*
X158094333Y-96615185D01*
X158088878Y-96611821D01*
X158042154Y-96559873D01*
X158030931Y-96490910D01*
X158058775Y-96426828D01*
X158066272Y-96418623D01*
X158205104Y-96279792D01*
X158330051Y-96107816D01*
X158426557Y-95918412D01*
X158492246Y-95716243D01*
X158525500Y-95506287D01*
X158525500Y-95293713D01*
X158492246Y-95083757D01*
X158426557Y-94881588D01*
X158330051Y-94692184D01*
X158330049Y-94692181D01*
X158330048Y-94692179D01*
X158205109Y-94520213D01*
X158054792Y-94369896D01*
X158054784Y-94369890D01*
X157890204Y-94250316D01*
X157847540Y-94194989D01*
X157841561Y-94125376D01*
X157874166Y-94063580D01*
X157890199Y-94049686D01*
X158054792Y-93930104D01*
X158205104Y-93779792D01*
X158205106Y-93779788D01*
X158205109Y-93779786D01*
X158330048Y-93607820D01*
X158330047Y-93607820D01*
X158330051Y-93607816D01*
X158426557Y-93418412D01*
X158492246Y-93216243D01*
X158525500Y-93006287D01*
X158525500Y-92793713D01*
X158492246Y-92583757D01*
X158426557Y-92381588D01*
X158330051Y-92192184D01*
X158330049Y-92192181D01*
X158330048Y-92192179D01*
X158205109Y-92020213D01*
X158054792Y-91869896D01*
X158010231Y-91837521D01*
X157890204Y-91750316D01*
X157847540Y-91694989D01*
X157841561Y-91625376D01*
X157874166Y-91563580D01*
X157890199Y-91549686D01*
X158054792Y-91430104D01*
X158205104Y-91279792D01*
X158205106Y-91279788D01*
X158205109Y-91279786D01*
X158330048Y-91107820D01*
X158330047Y-91107820D01*
X158330051Y-91107816D01*
X158426557Y-90918412D01*
X158492246Y-90716243D01*
X158525500Y-90506287D01*
X158525500Y-90293713D01*
X158492246Y-90083757D01*
X158426557Y-89881588D01*
X158330051Y-89692184D01*
X158330049Y-89692181D01*
X158330048Y-89692179D01*
X158205109Y-89520213D01*
X158054790Y-89369894D01*
X158054785Y-89369890D01*
X157889781Y-89250008D01*
X157847115Y-89194678D01*
X157841136Y-89125065D01*
X157873741Y-89063270D01*
X157889781Y-89049371D01*
X158054466Y-88929721D01*
X158204723Y-88779464D01*
X158204727Y-88779459D01*
X158329620Y-88607557D01*
X158426095Y-88418217D01*
X158491757Y-88216129D01*
X158491757Y-88216126D01*
X158502231Y-88150000D01*
X157454146Y-88150000D01*
X157492630Y-88083343D01*
X157525000Y-87962535D01*
X157525000Y-87837465D01*
X157492630Y-87716657D01*
X157454146Y-87650000D01*
X158502231Y-87650000D01*
X158491757Y-87583873D01*
X158491757Y-87583870D01*
X158426095Y-87381782D01*
X158329620Y-87192442D01*
X158260558Y-87097385D01*
X158237078Y-87031579D01*
X158252904Y-86963525D01*
X158303009Y-86914830D01*
X158360876Y-86900500D01*
X160327111Y-86900500D01*
X160394150Y-86920185D01*
X160414791Y-86936818D01*
X161083889Y-87605917D01*
X161729991Y-88252019D01*
X161729996Y-88252023D01*
X161885474Y-88364983D01*
X161921067Y-88390843D01*
X162055159Y-88459166D01*
X162131503Y-88498066D01*
X162131505Y-88498066D01*
X162131508Y-88498068D01*
X162251912Y-88537189D01*
X162356131Y-88571053D01*
X162589403Y-88608000D01*
X162589408Y-88608000D01*
X162825592Y-88608000D01*
X165694769Y-88608000D01*
X165761808Y-88627685D01*
X165769080Y-88632733D01*
X165860668Y-88701295D01*
X165860671Y-88701297D01*
X165995517Y-88751591D01*
X165995516Y-88751591D01*
X166002444Y-88752335D01*
X166055127Y-88758000D01*
X167650872Y-88757999D01*
X167710483Y-88751591D01*
X167845331Y-88701296D01*
X167960546Y-88615046D01*
X168046796Y-88499831D01*
X168097091Y-88364983D01*
X168103500Y-88305373D01*
X168103499Y-88240914D01*
X168123183Y-88173877D01*
X168175986Y-88128121D01*
X168245144Y-88118177D01*
X168308700Y-88147201D01*
X168327817Y-88168029D01*
X168439555Y-88321821D01*
X168578678Y-88460944D01*
X168737856Y-88576595D01*
X168913162Y-88665918D01*
X169100283Y-88726718D01*
X169143000Y-88733484D01*
X169143000Y-87540512D01*
X169200007Y-87573425D01*
X169327174Y-87607500D01*
X169458826Y-87607500D01*
X169585993Y-87573425D01*
X169643000Y-87540512D01*
X169643000Y-88733483D01*
X169685716Y-88726718D01*
X169872837Y-88665918D01*
X170048143Y-88576595D01*
X170207321Y-88460944D01*
X170346444Y-88321821D01*
X170462097Y-88162641D01*
X170552234Y-87985736D01*
X170600208Y-87934939D01*
X170668029Y-87918144D01*
X170734164Y-87940681D01*
X170773204Y-87985735D01*
X170774115Y-87987524D01*
X170774116Y-87987525D01*
X170863476Y-88162905D01*
X170979172Y-88322146D01*
X171118354Y-88461328D01*
X171277595Y-88577024D01*
X171337520Y-88607557D01*
X171452970Y-88666382D01*
X171452972Y-88666382D01*
X171452975Y-88666384D01*
X171553317Y-88698987D01*
X171640173Y-88727209D01*
X171834578Y-88758000D01*
X171834583Y-88758000D01*
X172031422Y-88758000D01*
X172225826Y-88727209D01*
X172305574Y-88701297D01*
X172413025Y-88666384D01*
X172588405Y-88577024D01*
X172747646Y-88461328D01*
X172886828Y-88322146D01*
X173002524Y-88162905D01*
X173002524Y-88162903D01*
X173005278Y-88159114D01*
X173009610Y-88155773D01*
X173011883Y-88150797D01*
X173036982Y-88134666D01*
X173060608Y-88116449D01*
X173067279Y-88115196D01*
X173070661Y-88113023D01*
X173105596Y-88108000D01*
X173111150Y-88108000D01*
X173178189Y-88127685D01*
X173223944Y-88180489D01*
X173233888Y-88249647D01*
X173231291Y-88261331D01*
X173199500Y-88421153D01*
X173199500Y-88578846D01*
X173230261Y-88733489D01*
X173230264Y-88733501D01*
X173290602Y-88879172D01*
X173290609Y-88879185D01*
X173378210Y-89010288D01*
X173378213Y-89010292D01*
X173489707Y-89121786D01*
X173489711Y-89121789D01*
X173620814Y-89209390D01*
X173620827Y-89209397D01*
X173766498Y-89269735D01*
X173766503Y-89269737D01*
X173921153Y-89300499D01*
X173921156Y-89300500D01*
X173921158Y-89300500D01*
X174078844Y-89300500D01*
X174078845Y-89300499D01*
X174233497Y-89269737D01*
X174379179Y-89209394D01*
X174401203Y-89194678D01*
X174510875Y-89121398D01*
X174577553Y-89100520D01*
X174579766Y-89100500D01*
X178589281Y-89100500D01*
X178656320Y-89120185D01*
X178699765Y-89168205D01*
X178719947Y-89207814D01*
X178719948Y-89207815D01*
X178844890Y-89379786D01*
X178995209Y-89530105D01*
X178995214Y-89530109D01*
X179159793Y-89649682D01*
X179202459Y-89705011D01*
X179208438Y-89774625D01*
X179175833Y-89836420D01*
X179159793Y-89850318D01*
X178995214Y-89969890D01*
X178995209Y-89969894D01*
X178844890Y-90120213D01*
X178719951Y-90292179D01*
X178623444Y-90481585D01*
X178557753Y-90683760D01*
X178524500Y-90893713D01*
X178524500Y-91106286D01*
X178551980Y-91279792D01*
X178557754Y-91316243D01*
X178594751Y-91430109D01*
X178623444Y-91518414D01*
X178719951Y-91707820D01*
X178844890Y-91879786D01*
X178995209Y-92030105D01*
X178995214Y-92030109D01*
X179159793Y-92149682D01*
X179202459Y-92205011D01*
X179208438Y-92274625D01*
X179175833Y-92336420D01*
X179159793Y-92350318D01*
X178995214Y-92469890D01*
X178995209Y-92469894D01*
X178844890Y-92620213D01*
X178719951Y-92792179D01*
X178623444Y-92981585D01*
X178557753Y-93183760D01*
X178524500Y-93393713D01*
X178524500Y-93606286D01*
X178551980Y-93779792D01*
X178557754Y-93816243D01*
X178594751Y-93930109D01*
X178623444Y-94018414D01*
X178719951Y-94207820D01*
X178844890Y-94379786D01*
X178995209Y-94530105D01*
X178995214Y-94530109D01*
X179159793Y-94649682D01*
X179202459Y-94705011D01*
X179208438Y-94774625D01*
X179175833Y-94836420D01*
X179159793Y-94850318D01*
X178995214Y-94969890D01*
X178995209Y-94969894D01*
X178844890Y-95120213D01*
X178719951Y-95292179D01*
X178623444Y-95481585D01*
X178557753Y-95683760D01*
X178524500Y-95893713D01*
X178524500Y-96106286D01*
X178551980Y-96279792D01*
X178557754Y-96316243D01*
X178610937Y-96479924D01*
X178623444Y-96518414D01*
X178719951Y-96707820D01*
X178844890Y-96879786D01*
X178995209Y-97030105D01*
X178995214Y-97030109D01*
X179160218Y-97149991D01*
X179202884Y-97205320D01*
X179208863Y-97274934D01*
X179176258Y-97336729D01*
X179160218Y-97350627D01*
X178995540Y-97470272D01*
X178995535Y-97470276D01*
X178845276Y-97620535D01*
X178845272Y-97620540D01*
X178720379Y-97792442D01*
X178623904Y-97981782D01*
X178558242Y-98183870D01*
X178558242Y-98183873D01*
X178547769Y-98250000D01*
X179595854Y-98250000D01*
X179557370Y-98316657D01*
X179525000Y-98437465D01*
X179525000Y-98562535D01*
X179557370Y-98683343D01*
X179595854Y-98750000D01*
X178547769Y-98750000D01*
X178558242Y-98816126D01*
X178558242Y-98816129D01*
X178623904Y-99018217D01*
X178720379Y-99207557D01*
X178845272Y-99379459D01*
X178845276Y-99379464D01*
X178995535Y-99529723D01*
X178995540Y-99529727D01*
X179167442Y-99654620D01*
X179356782Y-99751095D01*
X179558872Y-99816757D01*
X179750000Y-99847029D01*
X179750000Y-98904145D01*
X179816657Y-98942630D01*
X179937465Y-98975000D01*
X180062535Y-98975000D01*
X180183343Y-98942630D01*
X180250000Y-98904145D01*
X180250000Y-99847028D01*
X180441127Y-99816757D01*
X180643217Y-99751095D01*
X180832557Y-99654620D01*
X181004459Y-99529727D01*
X181004464Y-99529723D01*
X181154723Y-99379464D01*
X181154727Y-99379459D01*
X181279620Y-99207557D01*
X181376095Y-99018217D01*
X181441757Y-98816129D01*
X181441757Y-98816126D01*
X181452231Y-98750000D01*
X180404146Y-98750000D01*
X180442630Y-98683343D01*
X180475000Y-98562535D01*
X180475000Y-98437465D01*
X180442630Y-98316657D01*
X180404146Y-98250000D01*
X181452231Y-98250000D01*
X181441757Y-98183873D01*
X181441757Y-98183870D01*
X181376095Y-97981782D01*
X181279620Y-97792442D01*
X181154727Y-97620540D01*
X181154723Y-97620535D01*
X181004464Y-97470276D01*
X181004459Y-97470272D01*
X180839781Y-97350627D01*
X180797115Y-97295297D01*
X180791136Y-97225684D01*
X180823741Y-97163889D01*
X180839776Y-97149994D01*
X181004792Y-97030104D01*
X181155104Y-96879792D01*
X181155106Y-96879788D01*
X181155109Y-96879786D01*
X181209899Y-96804371D01*
X181280051Y-96707816D01*
X181320615Y-96628205D01*
X181368590Y-96577409D01*
X181431100Y-96560500D01*
X181759903Y-96560500D01*
X181826942Y-96580185D01*
X181847584Y-96596819D01*
X187615139Y-102364374D01*
X187615149Y-102364385D01*
X187619479Y-102368715D01*
X187619480Y-102368716D01*
X187731284Y-102480520D01*
X187731286Y-102480521D01*
X187731287Y-102480522D01*
X187796397Y-102518113D01*
X187844612Y-102568679D01*
X187857836Y-102637286D01*
X187831868Y-102702151D01*
X187774954Y-102742680D01*
X187734397Y-102749500D01*
X176509578Y-102749500D01*
X176442539Y-102729815D01*
X176421897Y-102713181D01*
X173528613Y-99819896D01*
X172684167Y-98975450D01*
X172650682Y-98914127D01*
X172647848Y-98887769D01*
X172647848Y-98597682D01*
X173547349Y-98597682D01*
X173547349Y-98802317D01*
X173579358Y-99004417D01*
X173642593Y-99199031D01*
X173735490Y-99381350D01*
X173735496Y-99381359D01*
X173767872Y-99425921D01*
X173767873Y-99425922D01*
X174447349Y-98746446D01*
X174447349Y-98752661D01*
X174474608Y-98854394D01*
X174527269Y-98945606D01*
X174601743Y-99020080D01*
X174692955Y-99072741D01*
X174794688Y-99100000D01*
X174800902Y-99100000D01*
X174121425Y-99779474D01*
X174165999Y-99811859D01*
X174348317Y-99904755D01*
X174542931Y-99967990D01*
X174745032Y-100000000D01*
X174949666Y-100000000D01*
X175151766Y-99967990D01*
X175346380Y-99904755D01*
X175528698Y-99811859D01*
X175573270Y-99779474D01*
X174893796Y-99100000D01*
X174900010Y-99100000D01*
X175001743Y-99072741D01*
X175092955Y-99020080D01*
X175167429Y-98945606D01*
X175220090Y-98854394D01*
X175247349Y-98752661D01*
X175247349Y-98746448D01*
X175926823Y-99425922D01*
X175926823Y-99425921D01*
X175959208Y-99381349D01*
X176052104Y-99199031D01*
X176115339Y-99004417D01*
X176147349Y-98802317D01*
X176147349Y-98597682D01*
X176115339Y-98395582D01*
X176052104Y-98200968D01*
X175959208Y-98018650D01*
X175926823Y-97974077D01*
X175926823Y-97974076D01*
X175247349Y-98653551D01*
X175247349Y-98647339D01*
X175220090Y-98545606D01*
X175167429Y-98454394D01*
X175092955Y-98379920D01*
X175001743Y-98327259D01*
X174900010Y-98300000D01*
X174893795Y-98300000D01*
X175573271Y-97620524D01*
X175573270Y-97620523D01*
X175528708Y-97588147D01*
X175528699Y-97588141D01*
X175346380Y-97495244D01*
X175151766Y-97432009D01*
X174949666Y-97400000D01*
X174745032Y-97400000D01*
X174542931Y-97432009D01*
X174348317Y-97495244D01*
X174165993Y-97588143D01*
X174121426Y-97620523D01*
X174121426Y-97620524D01*
X174800903Y-98300000D01*
X174794688Y-98300000D01*
X174692955Y-98327259D01*
X174601743Y-98379920D01*
X174527269Y-98454394D01*
X174474608Y-98545606D01*
X174447349Y-98647339D01*
X174447349Y-98653553D01*
X173767873Y-97974077D01*
X173767872Y-97974077D01*
X173735492Y-98018644D01*
X173642593Y-98200968D01*
X173579358Y-98395582D01*
X173547349Y-98597682D01*
X172647848Y-98597682D01*
X172647848Y-98099998D01*
X172647847Y-98099981D01*
X172637348Y-97997203D01*
X172637347Y-97997200D01*
X172629684Y-97974076D01*
X172582163Y-97830666D01*
X172558586Y-97792442D01*
X172521849Y-97732881D01*
X172521848Y-97732880D01*
X172490061Y-97681344D01*
X172366005Y-97557288D01*
X172265415Y-97495244D01*
X172216685Y-97465187D01*
X172216680Y-97465185D01*
X172215211Y-97464698D01*
X172050146Y-97410001D01*
X172050144Y-97410000D01*
X171947359Y-97399500D01*
X170747347Y-97399500D01*
X170747330Y-97399501D01*
X170644552Y-97410000D01*
X170644549Y-97410001D01*
X170478017Y-97465185D01*
X170478012Y-97465187D01*
X170328691Y-97557289D01*
X170204638Y-97681342D01*
X170112536Y-97830663D01*
X170112534Y-97830668D01*
X170088878Y-97902057D01*
X170057350Y-97997203D01*
X170057350Y-97997204D01*
X170057349Y-97997204D01*
X170046849Y-98099983D01*
X170046849Y-99300001D01*
X170046850Y-99300018D01*
X170057349Y-99402796D01*
X170057350Y-99402799D01*
X170104279Y-99544419D01*
X170112535Y-99569334D01*
X170204637Y-99718656D01*
X170328693Y-99842712D01*
X170478015Y-99934814D01*
X170644552Y-99989999D01*
X170747340Y-100000500D01*
X171535118Y-100000499D01*
X171602157Y-100020183D01*
X171622799Y-100036818D01*
X173607566Y-102021584D01*
X175564398Y-103978416D01*
X175668933Y-104082951D01*
X175668934Y-104082952D01*
X175791847Y-104165080D01*
X175791860Y-104165087D01*
X175928431Y-104221656D01*
X175928436Y-104221658D01*
X175928440Y-104221658D01*
X175928441Y-104221659D01*
X176073428Y-104250500D01*
X176073431Y-104250500D01*
X176073432Y-104250500D01*
X176221266Y-104250500D01*
X195137770Y-104250500D01*
X195204809Y-104270185D01*
X195225451Y-104286819D01*
X197313181Y-106374548D01*
X197346666Y-106435871D01*
X197349500Y-106462229D01*
X197349500Y-114525500D01*
X197329815Y-114592539D01*
X197277011Y-114638294D01*
X197225500Y-114649500D01*
X191126080Y-114649500D01*
X190981092Y-114678340D01*
X190981082Y-114678343D01*
X190844511Y-114734912D01*
X190844499Y-114734919D01*
X190808773Y-114758791D01*
X190808772Y-114758791D01*
X190721585Y-114817046D01*
X190721578Y-114817052D01*
X189277180Y-116261450D01*
X189265758Y-116268445D01*
X189259449Y-116276156D01*
X189239446Y-116284562D01*
X189227769Y-116291715D01*
X189220829Y-116293966D01*
X189159211Y-116306224D01*
X189073003Y-116341932D01*
X189068338Y-116343446D01*
X189059210Y-116343703D01*
X189030068Y-116349500D01*
X168123247Y-116349500D01*
X168056208Y-116329815D01*
X168010453Y-116277011D01*
X168000509Y-116207853D01*
X168001630Y-116201308D01*
X168025500Y-116081307D01*
X168025500Y-115918692D01*
X167993777Y-115759216D01*
X167993776Y-115759215D01*
X167993776Y-115759211D01*
X167973217Y-115709576D01*
X167931549Y-115608980D01*
X167931547Y-115608976D01*
X167841211Y-115473779D01*
X167841205Y-115473771D01*
X167726228Y-115358794D01*
X167726220Y-115358788D01*
X167591023Y-115268452D01*
X167591019Y-115268450D01*
X167440793Y-115206225D01*
X167440783Y-115206222D01*
X167281307Y-115174500D01*
X167281305Y-115174500D01*
X167149498Y-115174500D01*
X167082459Y-115154815D01*
X167036704Y-115102011D01*
X167034937Y-115097953D01*
X166977699Y-114959770D01*
X166977698Y-114959767D01*
X166885451Y-114839549D01*
X166765233Y-114747302D01*
X166765229Y-114747300D01*
X166692194Y-114717048D01*
X166625236Y-114689313D01*
X166611171Y-114687461D01*
X166512727Y-114674500D01*
X166512720Y-114674500D01*
X166287280Y-114674500D01*
X166287274Y-114674500D01*
X166287269Y-114674501D01*
X166174355Y-114689366D01*
X166144737Y-114684747D01*
X166114838Y-114682609D01*
X166110577Y-114679420D01*
X166105319Y-114678600D01*
X166082899Y-114658700D01*
X166058904Y-114640739D01*
X166057044Y-114635752D01*
X166053064Y-114632220D01*
X166044962Y-114603362D01*
X166034486Y-114575275D01*
X166035617Y-114570074D01*
X166034179Y-114564951D01*
X166042965Y-114536292D01*
X166049337Y-114507002D01*
X166053755Y-114501098D01*
X166054660Y-114498150D01*
X166070483Y-114478752D01*
X166130520Y-114418716D01*
X166130521Y-114418713D01*
X166413895Y-114135338D01*
X166475216Y-114101855D01*
X166517760Y-114100082D01*
X166520942Y-114100501D01*
X166520943Y-114100501D01*
X166686654Y-114100501D01*
X166686670Y-114100500D01*
X193355233Y-114100500D01*
X193422272Y-114120185D01*
X193424124Y-114121398D01*
X193456348Y-114142930D01*
X193522363Y-114170274D01*
X193588380Y-114197619D01*
X193588384Y-114197619D01*
X193588385Y-114197620D01*
X193728542Y-114225500D01*
X193728545Y-114225500D01*
X193871457Y-114225500D01*
X193965751Y-114206742D01*
X194011620Y-114197619D01*
X194143653Y-114142929D01*
X194262479Y-114063532D01*
X194363532Y-113962479D01*
X194442929Y-113843653D01*
X194442930Y-113843650D01*
X194442932Y-113843647D01*
X194464978Y-113790421D01*
X194494883Y-113718224D01*
X194538722Y-113663822D01*
X194605016Y-113641757D01*
X194672716Y-113659036D01*
X194678331Y-113662574D01*
X194686339Y-113667924D01*
X194686349Y-113667930D01*
X194697672Y-113672620D01*
X194818380Y-113722619D01*
X194818384Y-113722619D01*
X194818385Y-113722620D01*
X194958542Y-113750500D01*
X194958545Y-113750500D01*
X195101457Y-113750500D01*
X195227136Y-113725500D01*
X195241620Y-113722619D01*
X195373653Y-113667929D01*
X195492479Y-113588532D01*
X195593532Y-113487479D01*
X195672929Y-113368653D01*
X195727619Y-113236620D01*
X195755500Y-113096455D01*
X195755500Y-112953545D01*
X195755500Y-112953542D01*
X195727620Y-112813385D01*
X195727619Y-112813384D01*
X195727619Y-112813380D01*
X195682124Y-112703545D01*
X195672930Y-112681349D01*
X195672925Y-112681340D01*
X195593532Y-112562521D01*
X195593529Y-112562517D01*
X195492482Y-112461470D01*
X195492478Y-112461467D01*
X195373659Y-112382074D01*
X195373650Y-112382069D01*
X195241620Y-112327381D01*
X195241614Y-112327379D01*
X195101457Y-112299500D01*
X195101455Y-112299500D01*
X194958545Y-112299500D01*
X194958543Y-112299500D01*
X194818385Y-112327379D01*
X194818379Y-112327381D01*
X194775202Y-112345266D01*
X194731952Y-112363181D01*
X194727413Y-112365061D01*
X194679960Y-112374500D01*
X167444767Y-112374500D01*
X167377728Y-112354815D01*
X167375876Y-112353602D01*
X167343651Y-112332069D01*
X167211620Y-112277381D01*
X167211615Y-112277379D01*
X167150307Y-112265184D01*
X167088396Y-112232798D01*
X167053823Y-112172082D01*
X167050500Y-112143567D01*
X167050500Y-110812286D01*
X167050499Y-110812272D01*
X167048883Y-110800000D01*
X167035687Y-110699764D01*
X167024328Y-110672340D01*
X167009939Y-110637601D01*
X167000500Y-110590149D01*
X167000500Y-93667334D01*
X167017113Y-93605334D01*
X167059577Y-93531784D01*
X167089955Y-93418412D01*
X167100500Y-93379058D01*
X167100500Y-93220943D01*
X167100500Y-91244766D01*
X167120185Y-91177727D01*
X167121399Y-91175874D01*
X167142929Y-91143653D01*
X167197619Y-91011620D01*
X167225500Y-90871455D01*
X167225500Y-90728545D01*
X167225500Y-90728542D01*
X167197620Y-90588385D01*
X167197619Y-90588384D01*
X167197619Y-90588380D01*
X167142929Y-90456347D01*
X167142928Y-90456346D01*
X167142925Y-90456340D01*
X167063532Y-90337521D01*
X167063529Y-90337517D01*
X166962482Y-90236470D01*
X166962478Y-90236467D01*
X166843659Y-90157074D01*
X166843650Y-90157069D01*
X166711620Y-90102381D01*
X166711614Y-90102379D01*
X166571457Y-90074500D01*
X166571455Y-90074500D01*
X166428545Y-90074500D01*
X166428543Y-90074500D01*
X166288385Y-90102379D01*
X166288379Y-90102381D01*
X166156349Y-90157069D01*
X166156340Y-90157074D01*
X166037521Y-90236467D01*
X166037517Y-90236470D01*
X165936470Y-90337517D01*
X165936467Y-90337521D01*
X165857074Y-90456340D01*
X165857069Y-90456349D01*
X165802381Y-90588379D01*
X165802379Y-90588385D01*
X165774500Y-90728542D01*
X165774500Y-90728545D01*
X165774500Y-90871455D01*
X165774500Y-90871457D01*
X165774499Y-90871457D01*
X165802379Y-91011614D01*
X165802381Y-91011620D01*
X165857070Y-91143651D01*
X165878601Y-91175874D01*
X165884252Y-91193920D01*
X165894477Y-91209831D01*
X165898928Y-91240788D01*
X165899480Y-91242551D01*
X165899500Y-91244766D01*
X165899500Y-91458621D01*
X165879815Y-91525660D01*
X165827011Y-91571415D01*
X165799693Y-91580238D01*
X165688384Y-91602380D01*
X165688379Y-91602381D01*
X165556349Y-91657069D01*
X165556340Y-91657074D01*
X165437521Y-91736467D01*
X165437517Y-91736470D01*
X165336470Y-91837517D01*
X165336467Y-91837521D01*
X165257074Y-91956340D01*
X165257069Y-91956349D01*
X165202381Y-92088379D01*
X165202379Y-92088385D01*
X165174500Y-92228542D01*
X165174500Y-92228545D01*
X165174500Y-92371455D01*
X165174500Y-92371457D01*
X165174499Y-92371457D01*
X165202379Y-92511614D01*
X165202381Y-92511620D01*
X165257070Y-92643651D01*
X165278601Y-92675874D01*
X165299480Y-92742551D01*
X165299500Y-92744766D01*
X165299500Y-110164146D01*
X165299333Y-110164713D01*
X165299495Y-110165283D01*
X165289497Y-110198209D01*
X165279815Y-110231185D01*
X165279368Y-110231572D01*
X165279196Y-110232139D01*
X165252964Y-110254451D01*
X165227011Y-110276940D01*
X165226275Y-110277152D01*
X165225975Y-110277408D01*
X165199773Y-110284802D01*
X165192021Y-110287041D01*
X165191994Y-110287044D01*
X165174764Y-110289313D01*
X165174592Y-110289383D01*
X165166521Y-110290469D01*
X165146477Y-110287399D01*
X165133684Y-110287399D01*
X165133292Y-110290374D01*
X165125237Y-110289313D01*
X165125236Y-110289313D01*
X165090972Y-110284802D01*
X165012727Y-110274500D01*
X165012720Y-110274500D01*
X164787280Y-110274500D01*
X164787272Y-110274500D01*
X164685265Y-110287930D01*
X164685263Y-110287930D01*
X164674764Y-110289313D01*
X164534767Y-110347302D01*
X164491200Y-110380731D01*
X164491196Y-110380734D01*
X164449486Y-110412740D01*
X164384317Y-110437934D01*
X164315872Y-110423896D01*
X164265883Y-110375082D01*
X164250000Y-110314364D01*
X164250000Y-110279911D01*
X164249999Y-110279911D01*
X164174896Y-110289800D01*
X164174891Y-110289801D01*
X164035021Y-110347736D01*
X163914905Y-110439905D01*
X163822736Y-110560021D01*
X163764801Y-110699891D01*
X163764800Y-110699895D01*
X163750000Y-110812302D01*
X163750000Y-111350000D01*
X164125500Y-111350000D01*
X164134185Y-111352550D01*
X164143147Y-111351262D01*
X164167187Y-111362240D01*
X164192539Y-111369685D01*
X164198466Y-111376525D01*
X164206703Y-111380287D01*
X164220992Y-111402521D01*
X164238294Y-111422489D01*
X164240581Y-111433003D01*
X164244477Y-111439065D01*
X164249500Y-111474000D01*
X164249500Y-111526000D01*
X164229815Y-111593039D01*
X164177011Y-111638794D01*
X164125500Y-111650000D01*
X163750000Y-111650000D01*
X163739452Y-111660547D01*
X163730315Y-111691665D01*
X163677511Y-111737420D01*
X163608353Y-111747364D01*
X163544797Y-111718339D01*
X163538319Y-111712307D01*
X163462482Y-111636470D01*
X163462478Y-111636467D01*
X163343659Y-111557074D01*
X163343650Y-111557069D01*
X163211620Y-111502381D01*
X163211614Y-111502379D01*
X163071457Y-111474500D01*
X163071455Y-111474500D01*
X162928545Y-111474500D01*
X162928543Y-111474500D01*
X162788385Y-111502379D01*
X162788379Y-111502381D01*
X162656349Y-111557069D01*
X162656340Y-111557074D01*
X162537521Y-111636467D01*
X162537517Y-111636470D01*
X162436470Y-111737517D01*
X162436467Y-111737521D01*
X162357074Y-111856340D01*
X162357069Y-111856349D01*
X162302381Y-111988379D01*
X162302379Y-111988385D01*
X162274500Y-112128542D01*
X162274500Y-112275500D01*
X162254815Y-112342539D01*
X162202011Y-112388294D01*
X162150500Y-112399500D01*
X159450098Y-112399500D01*
X159383059Y-112379815D01*
X159362417Y-112363181D01*
X158487590Y-111488355D01*
X158487588Y-111488352D01*
X158368717Y-111369481D01*
X158368716Y-111369480D01*
X158281904Y-111319360D01*
X158281904Y-111319359D01*
X158281900Y-111319358D01*
X158231785Y-111290423D01*
X158079057Y-111249499D01*
X157920943Y-111249499D01*
X157913347Y-111249499D01*
X157913331Y-111249500D01*
X147208532Y-111249500D01*
X147141493Y-111229815D01*
X147095738Y-111177011D01*
X147084598Y-111121464D01*
X147084929Y-111111289D01*
X147093076Y-111070334D01*
X147093076Y-110927424D01*
X147091221Y-110918098D01*
X147091685Y-110903853D01*
X147098323Y-110883697D01*
X147100202Y-110862559D01*
X147112517Y-110838997D01*
X147113527Y-110837484D01*
X147113533Y-110837479D01*
X147192930Y-110718653D01*
X147247620Y-110586620D01*
X147261993Y-110514364D01*
X147275501Y-110446457D01*
X147275501Y-110303542D01*
X147247621Y-110163385D01*
X147247620Y-110163384D01*
X147247620Y-110163380D01*
X147192930Y-110031347D01*
X147192929Y-110031346D01*
X147192926Y-110031340D01*
X147113533Y-109912521D01*
X147113530Y-109912517D01*
X147012483Y-109811470D01*
X147012479Y-109811467D01*
X146893660Y-109732074D01*
X146893651Y-109732069D01*
X146761619Y-109677380D01*
X146761615Y-109677379D01*
X146723608Y-109669819D01*
X146661697Y-109637434D01*
X146660119Y-109635883D01*
X145845323Y-108821087D01*
X145811838Y-108759764D01*
X145811400Y-108757665D01*
X145797619Y-108688380D01*
X145742929Y-108556347D01*
X145742928Y-108556346D01*
X145742925Y-108556340D01*
X145663532Y-108437521D01*
X145663529Y-108437517D01*
X145562482Y-108336470D01*
X145562478Y-108336467D01*
X145443659Y-108257074D01*
X145443650Y-108257069D01*
X145311620Y-108202381D01*
X145311614Y-108202379D01*
X145171457Y-108174500D01*
X145171455Y-108174500D01*
X145079500Y-108174500D01*
X145012461Y-108154815D01*
X144966706Y-108102011D01*
X144955500Y-108050500D01*
X144955500Y-107344766D01*
X144975185Y-107277727D01*
X144976399Y-107275874D01*
X144997929Y-107243653D01*
X145052619Y-107111620D01*
X145065148Y-107048632D01*
X145080500Y-106971457D01*
X145080500Y-106828542D01*
X145052620Y-106688385D01*
X145052619Y-106688384D01*
X145052619Y-106688380D01*
X144997929Y-106556347D01*
X144997928Y-106556346D01*
X144997925Y-106556340D01*
X144918532Y-106437521D01*
X144918529Y-106437517D01*
X144817482Y-106336470D01*
X144817478Y-106336467D01*
X144698659Y-106257074D01*
X144698650Y-106257069D01*
X144566620Y-106202381D01*
X144566614Y-106202379D01*
X144426457Y-106174500D01*
X144426455Y-106174500D01*
X144283545Y-106174500D01*
X144283543Y-106174500D01*
X144143385Y-106202379D01*
X144143375Y-106202382D01*
X144063115Y-106235627D01*
X143993646Y-106243096D01*
X143931167Y-106211820D01*
X143895515Y-106151731D01*
X143898009Y-106081906D01*
X143927981Y-106033386D01*
X145074548Y-104886818D01*
X145135871Y-104853334D01*
X145162229Y-104850500D01*
X150373920Y-104850500D01*
X150482662Y-104828869D01*
X150518913Y-104821658D01*
X150655495Y-104765084D01*
X150704729Y-104732186D01*
X150778416Y-104682952D01*
X151115297Y-104346069D01*
X151155524Y-104319191D01*
X151179179Y-104309394D01*
X151310289Y-104221789D01*
X151421789Y-104110289D01*
X151509394Y-103979179D01*
X151569737Y-103833497D01*
X151600500Y-103678842D01*
X151600500Y-103521158D01*
X151600500Y-103521155D01*
X151600499Y-103521153D01*
X151569739Y-103366511D01*
X151569738Y-103366508D01*
X151569737Y-103366503D01*
X151559937Y-103342844D01*
X151550500Y-103295396D01*
X151550500Y-102974500D01*
X151570185Y-102907461D01*
X151622989Y-102861706D01*
X151674500Y-102850500D01*
X155537770Y-102850500D01*
X155604809Y-102870185D01*
X155625451Y-102886819D01*
X156213181Y-103474549D01*
X156246666Y-103535872D01*
X156249500Y-103562230D01*
X156249500Y-104273918D01*
X156249500Y-104273920D01*
X156249499Y-104273920D01*
X156278340Y-104418907D01*
X156278343Y-104418917D01*
X156334912Y-104555488D01*
X156334919Y-104555501D01*
X156417048Y-104678415D01*
X156417051Y-104678419D01*
X156521580Y-104782948D01*
X156521584Y-104782951D01*
X156644498Y-104865080D01*
X156644511Y-104865087D01*
X156725497Y-104898632D01*
X156781087Y-104921658D01*
X156781091Y-104921658D01*
X156781092Y-104921659D01*
X156926079Y-104950500D01*
X156926082Y-104950500D01*
X157073920Y-104950500D01*
X157171462Y-104931096D01*
X157218913Y-104921658D01*
X157355495Y-104865084D01*
X157478416Y-104782951D01*
X157582951Y-104678416D01*
X157665084Y-104555495D01*
X157721658Y-104418913D01*
X157743443Y-104309394D01*
X157750500Y-104273920D01*
X157750500Y-103126079D01*
X157721659Y-102981092D01*
X157721658Y-102981091D01*
X157721658Y-102981087D01*
X157665084Y-102844505D01*
X157622710Y-102781087D01*
X157622710Y-102781086D01*
X157582950Y-102721581D01*
X156378421Y-101517052D01*
X156378414Y-101517046D01*
X156304729Y-101467812D01*
X156304729Y-101467813D01*
X156255491Y-101434913D01*
X156118917Y-101378343D01*
X156118907Y-101378340D01*
X155973920Y-101349500D01*
X155973918Y-101349500D01*
X152074500Y-101349500D01*
X152007461Y-101329815D01*
X151961706Y-101277011D01*
X151950500Y-101225500D01*
X151950500Y-99364981D01*
X151970185Y-99297942D01*
X152022989Y-99252187D01*
X152061899Y-99241623D01*
X152062391Y-99241572D01*
X152077797Y-99239999D01*
X152244334Y-99184814D01*
X152393656Y-99092712D01*
X152517712Y-98968656D01*
X152609814Y-98819334D01*
X152664999Y-98652797D01*
X152675500Y-98550009D01*
X152675499Y-97249992D01*
X152666703Y-97163889D01*
X152664999Y-97147203D01*
X152664998Y-97147200D01*
X152633320Y-97051602D01*
X152609814Y-96980666D01*
X152517712Y-96831344D01*
X152393656Y-96707288D01*
X152244334Y-96615186D01*
X152244333Y-96615185D01*
X152238878Y-96611821D01*
X152192154Y-96559873D01*
X152180931Y-96490910D01*
X152208775Y-96426828D01*
X152216272Y-96418623D01*
X152355104Y-96279792D01*
X152480051Y-96107816D01*
X152576557Y-95918412D01*
X152642246Y-95716243D01*
X152675500Y-95506287D01*
X152675500Y-95293713D01*
X152642246Y-95083757D01*
X152576557Y-94881588D01*
X152480051Y-94692184D01*
X152480049Y-94692181D01*
X152480048Y-94692179D01*
X152355109Y-94520213D01*
X152204792Y-94369896D01*
X152204784Y-94369890D01*
X152040204Y-94250316D01*
X151997540Y-94194989D01*
X151991561Y-94125376D01*
X152024166Y-94063580D01*
X152040199Y-94049686D01*
X152204792Y-93930104D01*
X152355104Y-93779792D01*
X152355106Y-93779788D01*
X152355109Y-93779786D01*
X152480048Y-93607820D01*
X152480047Y-93607820D01*
X152480051Y-93607816D01*
X152576557Y-93418412D01*
X152642246Y-93216243D01*
X152675500Y-93006287D01*
X152675500Y-92793713D01*
X152642246Y-92583757D01*
X152576557Y-92381588D01*
X152480051Y-92192184D01*
X152480049Y-92192181D01*
X152480048Y-92192179D01*
X152355109Y-92020213D01*
X152204792Y-91869896D01*
X152160231Y-91837521D01*
X152040204Y-91750316D01*
X151997540Y-91694989D01*
X151991561Y-91625376D01*
X152024166Y-91563580D01*
X152040199Y-91549686D01*
X152204792Y-91430104D01*
X152355104Y-91279792D01*
X152355106Y-91279788D01*
X152355109Y-91279786D01*
X152480048Y-91107820D01*
X152480047Y-91107820D01*
X152480051Y-91107816D01*
X152576557Y-90918412D01*
X152642246Y-90716243D01*
X152675500Y-90506287D01*
X152675500Y-90293713D01*
X152642246Y-90083757D01*
X152576557Y-89881588D01*
X152480051Y-89692184D01*
X152480049Y-89692181D01*
X152480048Y-89692179D01*
X152355109Y-89520213D01*
X152204790Y-89369894D01*
X152204785Y-89369890D01*
X152039781Y-89250008D01*
X151997115Y-89194678D01*
X151991136Y-89125065D01*
X152023741Y-89063270D01*
X152039781Y-89049371D01*
X152204466Y-88929721D01*
X152354723Y-88779464D01*
X152354727Y-88779459D01*
X152479620Y-88607557D01*
X152576095Y-88418217D01*
X152641757Y-88216129D01*
X152641757Y-88216126D01*
X152652231Y-88150000D01*
X151604146Y-88150000D01*
X151642630Y-88083343D01*
X151675000Y-87962535D01*
X151675000Y-87837465D01*
X151642630Y-87716657D01*
X151604146Y-87650000D01*
X152652231Y-87650000D01*
X152641757Y-87583873D01*
X152641757Y-87583870D01*
X152576095Y-87381782D01*
X152479620Y-87192442D01*
X152410558Y-87097385D01*
X152387078Y-87031579D01*
X152402904Y-86963525D01*
X152453009Y-86914830D01*
X152510876Y-86900500D01*
X155739124Y-86900500D01*
X155806163Y-86920185D01*
G37*
%TD.AperFunction*%
%TA.AperFunction,Conductor*%
G36*
X148253650Y-80019685D02*
G01*
X148274292Y-80036319D01*
X149663181Y-81425208D01*
X149696666Y-81486531D01*
X149699500Y-81512889D01*
X149699500Y-85518097D01*
X149736446Y-85751368D01*
X149809433Y-85975996D01*
X149883751Y-86121851D01*
X149916657Y-86186433D01*
X150055483Y-86377510D01*
X150222490Y-86544517D01*
X150295122Y-86597287D01*
X150337787Y-86652617D01*
X150343766Y-86722231D01*
X150311160Y-86784026D01*
X150295121Y-86797923D01*
X150195540Y-86870272D01*
X150195535Y-86870276D01*
X150045276Y-87020535D01*
X150045272Y-87020540D01*
X149920379Y-87192442D01*
X149823904Y-87381782D01*
X149758242Y-87583870D01*
X149758242Y-87583873D01*
X149747769Y-87650000D01*
X150795854Y-87650000D01*
X150757370Y-87716657D01*
X150725000Y-87837465D01*
X150725000Y-87962535D01*
X150757370Y-88083343D01*
X150795854Y-88150000D01*
X149747769Y-88150000D01*
X149758242Y-88216126D01*
X149758242Y-88216129D01*
X149823904Y-88418217D01*
X149920379Y-88607557D01*
X150045272Y-88779459D01*
X150045276Y-88779464D01*
X150195535Y-88929723D01*
X150195540Y-88929727D01*
X150360218Y-89049372D01*
X150402884Y-89104701D01*
X150408863Y-89174315D01*
X150376258Y-89236110D01*
X150360218Y-89250008D01*
X150195214Y-89369890D01*
X150195209Y-89369894D01*
X150044890Y-89520213D01*
X149919951Y-89692179D01*
X149823444Y-89881585D01*
X149757753Y-90083760D01*
X149724500Y-90293713D01*
X149724500Y-90506286D01*
X149752608Y-90683757D01*
X149757754Y-90716243D01*
X149808186Y-90871457D01*
X149823444Y-90918414D01*
X149919951Y-91107820D01*
X150044890Y-91279786D01*
X150195209Y-91430105D01*
X150195214Y-91430109D01*
X150359793Y-91549682D01*
X150402459Y-91605011D01*
X150408438Y-91674625D01*
X150375833Y-91736420D01*
X150359793Y-91750318D01*
X150195214Y-91869890D01*
X150195209Y-91869894D01*
X150044890Y-92020213D01*
X149919951Y-92192179D01*
X149823444Y-92381585D01*
X149757753Y-92583760D01*
X149724500Y-92793713D01*
X149724500Y-93006286D01*
X149757753Y-93216239D01*
X149823443Y-93418412D01*
X149919951Y-93607820D01*
X150044890Y-93779786D01*
X150195209Y-93930105D01*
X150195214Y-93930109D01*
X150359793Y-94049682D01*
X150402459Y-94105011D01*
X150408438Y-94174625D01*
X150375833Y-94236420D01*
X150359793Y-94250318D01*
X150195214Y-94369890D01*
X150195209Y-94369894D01*
X150044890Y-94520213D01*
X149919951Y-94692179D01*
X149823444Y-94881585D01*
X149757753Y-95083760D01*
X149724500Y-95293713D01*
X149724500Y-95506286D01*
X149752608Y-95683757D01*
X149757754Y-95716243D01*
X149799050Y-95843339D01*
X149823444Y-95918414D01*
X149919951Y-96107820D01*
X150044890Y-96279786D01*
X150183705Y-96418601D01*
X150217190Y-96479924D01*
X150212206Y-96549616D01*
X150170334Y-96605549D01*
X150161121Y-96611821D01*
X150006342Y-96707289D01*
X149882289Y-96831342D01*
X149790187Y-96980663D01*
X149790185Y-96980668D01*
X149762405Y-97064504D01*
X149722632Y-97121949D01*
X149658116Y-97148772D01*
X149644699Y-97149500D01*
X148326080Y-97149500D01*
X148181092Y-97178340D01*
X148181082Y-97178343D01*
X148044511Y-97234912D01*
X148044498Y-97234919D01*
X147921584Y-97317048D01*
X147921580Y-97317051D01*
X146625451Y-98613181D01*
X146564128Y-98646666D01*
X146537770Y-98649500D01*
X144704604Y-98649500D01*
X144657155Y-98640062D01*
X144633497Y-98630263D01*
X144633493Y-98630262D01*
X144633488Y-98630260D01*
X144478845Y-98599500D01*
X144478842Y-98599500D01*
X144321158Y-98599500D01*
X144321155Y-98599500D01*
X144166510Y-98630261D01*
X144166498Y-98630264D01*
X144020827Y-98690602D01*
X144020814Y-98690609D01*
X143889711Y-98778210D01*
X143889707Y-98778213D01*
X143778213Y-98889707D01*
X143778210Y-98889711D01*
X143690609Y-99020814D01*
X143690602Y-99020827D01*
X143630264Y-99166498D01*
X143630261Y-99166510D01*
X143599500Y-99321153D01*
X143599500Y-99478846D01*
X143630261Y-99633489D01*
X143630264Y-99633501D01*
X143690602Y-99779172D01*
X143690609Y-99779185D01*
X143778210Y-99910288D01*
X143778213Y-99910292D01*
X143889707Y-100021786D01*
X143889711Y-100021789D01*
X144020814Y-100109390D01*
X144020827Y-100109397D01*
X144120060Y-100150500D01*
X144166503Y-100169737D01*
X144318644Y-100200000D01*
X144321153Y-100200499D01*
X144321156Y-100200500D01*
X144321158Y-100200500D01*
X144478844Y-100200500D01*
X144478845Y-100200499D01*
X144555152Y-100185320D01*
X144633488Y-100169739D01*
X144633489Y-100169738D01*
X144633497Y-100169737D01*
X144657155Y-100159937D01*
X144704604Y-100150500D01*
X146973920Y-100150500D01*
X147071462Y-100131096D01*
X147118913Y-100121658D01*
X147255495Y-100065084D01*
X147320291Y-100021789D01*
X147320294Y-100021786D01*
X147320296Y-100021786D01*
X147367869Y-99989999D01*
X147378416Y-99982952D01*
X148674548Y-98686818D01*
X148735871Y-98653334D01*
X148762229Y-98650500D01*
X149644699Y-98650500D01*
X149711738Y-98670185D01*
X149757493Y-98722989D01*
X149762403Y-98735492D01*
X149790186Y-98819334D01*
X149882288Y-98968656D01*
X150006344Y-99092712D01*
X150155666Y-99184814D01*
X150322203Y-99239999D01*
X150338101Y-99241623D01*
X150402793Y-99268018D01*
X150442945Y-99325198D01*
X150449500Y-99364981D01*
X150449500Y-101737770D01*
X150429815Y-101804809D01*
X150413181Y-101825451D01*
X150217047Y-102021584D01*
X150217043Y-102021589D01*
X150194398Y-102055482D01*
X150194398Y-102055483D01*
X150134914Y-102144508D01*
X150078343Y-102281082D01*
X150078340Y-102281092D01*
X150049500Y-102426079D01*
X150049500Y-103225500D01*
X150029815Y-103292539D01*
X149977011Y-103338294D01*
X149925500Y-103349500D01*
X144726076Y-103349500D01*
X144697242Y-103355234D01*
X144697243Y-103355235D01*
X144581092Y-103378339D01*
X144581086Y-103378341D01*
X144504039Y-103410256D01*
X144444509Y-103434914D01*
X144444501Y-103434918D01*
X144362372Y-103489795D01*
X144321585Y-103517047D01*
X144321581Y-103517050D01*
X142125451Y-105713181D01*
X142064128Y-105746666D01*
X142037770Y-105749500D01*
X124801076Y-105749500D01*
X124772242Y-105755234D01*
X124772243Y-105755235D01*
X124656092Y-105778339D01*
X124656086Y-105778341D01*
X124610923Y-105797049D01*
X124519508Y-105834914D01*
X124519498Y-105834919D01*
X124450406Y-105881086D01*
X124396582Y-105917049D01*
X123217047Y-107096584D01*
X123217040Y-107096593D01*
X123214783Y-107099971D01*
X123161168Y-107144772D01*
X123091842Y-107153475D01*
X123087494Y-107152690D01*
X123071457Y-107149500D01*
X123071455Y-107149500D01*
X122928545Y-107149500D01*
X122928543Y-107149500D01*
X122788385Y-107177379D01*
X122788379Y-107177381D01*
X122656349Y-107232069D01*
X122656340Y-107232074D01*
X122537521Y-107311467D01*
X122537517Y-107311470D01*
X122436470Y-107412517D01*
X122436467Y-107412521D01*
X122397602Y-107470687D01*
X122343989Y-107515492D01*
X122274664Y-107524199D01*
X122211637Y-107494044D01*
X122174918Y-107434601D01*
X122170500Y-107401796D01*
X122170500Y-106742228D01*
X122190185Y-106675189D01*
X122206814Y-106654552D01*
X124160087Y-104701278D01*
X124221408Y-104667795D01*
X124267163Y-104666488D01*
X124302789Y-104672130D01*
X124481903Y-104700500D01*
X124481908Y-104700500D01*
X124718092Y-104700500D01*
X125296042Y-104700500D01*
X125363081Y-104720185D01*
X125401580Y-104759402D01*
X125407288Y-104768656D01*
X125531344Y-104892712D01*
X125680666Y-104984814D01*
X125847203Y-105039999D01*
X125949991Y-105050500D01*
X127050008Y-105050499D01*
X127050016Y-105050498D01*
X127050019Y-105050498D01*
X127106302Y-105044748D01*
X127152797Y-105039999D01*
X127319334Y-104984814D01*
X127468656Y-104892712D01*
X127592712Y-104768656D01*
X127684814Y-104619334D01*
X127739999Y-104452797D01*
X127750500Y-104350009D01*
X127750499Y-102049992D01*
X127739999Y-101947203D01*
X127684814Y-101780666D01*
X127592712Y-101631344D01*
X127468656Y-101507288D01*
X127351317Y-101434913D01*
X127319336Y-101415187D01*
X127319331Y-101415185D01*
X127317862Y-101414698D01*
X127152797Y-101360001D01*
X127152795Y-101360000D01*
X127050010Y-101349500D01*
X125949998Y-101349500D01*
X125949980Y-101349501D01*
X125847203Y-101360000D01*
X125847200Y-101360001D01*
X125680668Y-101415185D01*
X125680663Y-101415187D01*
X125531342Y-101507289D01*
X125407287Y-101631344D01*
X125401580Y-101640598D01*
X125393993Y-101647421D01*
X125389755Y-101656703D01*
X125368456Y-101670390D01*
X125349632Y-101687322D01*
X125337995Y-101689966D01*
X125330977Y-101694477D01*
X125296042Y-101699500D01*
X125272890Y-101699500D01*
X125205851Y-101679815D01*
X125185209Y-101663181D01*
X124733709Y-101211681D01*
X124700224Y-101150358D01*
X124705208Y-101080666D01*
X124747080Y-101024733D01*
X124812544Y-101000316D01*
X124821390Y-101000000D01*
X133075500Y-101000000D01*
X133142539Y-101019685D01*
X133188294Y-101072489D01*
X133199500Y-101124000D01*
X133199500Y-101427111D01*
X133190855Y-101456551D01*
X133184332Y-101486538D01*
X133180577Y-101491553D01*
X133179815Y-101494150D01*
X133163181Y-101514792D01*
X133014792Y-101663181D01*
X132953469Y-101696666D01*
X132927111Y-101699500D01*
X132503958Y-101699500D01*
X132436919Y-101679815D01*
X132398420Y-101640598D01*
X132392712Y-101631344D01*
X132268657Y-101507289D01*
X132268656Y-101507288D01*
X132151317Y-101434913D01*
X132119336Y-101415187D01*
X132119331Y-101415185D01*
X132117862Y-101414698D01*
X131952797Y-101360001D01*
X131952795Y-101360000D01*
X131850010Y-101349500D01*
X130749998Y-101349500D01*
X130749980Y-101349501D01*
X130647203Y-101360000D01*
X130647200Y-101360001D01*
X130480668Y-101415185D01*
X130480663Y-101415187D01*
X130331342Y-101507289D01*
X130207289Y-101631342D01*
X130115187Y-101780663D01*
X130115185Y-101780668D01*
X130107186Y-101804809D01*
X130060001Y-101947203D01*
X130060001Y-101947204D01*
X130060000Y-101947204D01*
X130049500Y-102049983D01*
X130049500Y-104350001D01*
X130049501Y-104350008D01*
X130060000Y-104452796D01*
X130060001Y-104452799D01*
X130098393Y-104568656D01*
X130115186Y-104619334D01*
X130207288Y-104768656D01*
X130331344Y-104892712D01*
X130480666Y-104984814D01*
X130647203Y-105039999D01*
X130749991Y-105050500D01*
X131850008Y-105050499D01*
X131850016Y-105050498D01*
X131850019Y-105050498D01*
X131906302Y-105044748D01*
X131952797Y-105039999D01*
X132119334Y-104984814D01*
X132268656Y-104892712D01*
X132392712Y-104768656D01*
X132398420Y-104759402D01*
X132450368Y-104712678D01*
X132503958Y-104700500D01*
X133718097Y-104700500D01*
X133951368Y-104663553D01*
X133989725Y-104651090D01*
X134175992Y-104590568D01*
X134386434Y-104483343D01*
X134577510Y-104344517D01*
X135844517Y-103077510D01*
X135983343Y-102886433D01*
X136090568Y-102675992D01*
X136163553Y-102451368D01*
X136177330Y-102364385D01*
X136200500Y-102218097D01*
X136200500Y-101124000D01*
X136220185Y-101056961D01*
X136272989Y-101011206D01*
X136324500Y-101000000D01*
X137000000Y-101000000D01*
X137000000Y-80124000D01*
X137019685Y-80056961D01*
X137072489Y-80011206D01*
X137124000Y-80000000D01*
X148186611Y-80000000D01*
X148253650Y-80019685D01*
G37*
%TD.AperFunction*%
%TD*%
%TA.AperFunction,Conductor*%
%TO.N,GND2*%
G36*
X222342520Y-68970286D02*
G01*
X222388285Y-69023082D01*
X222399500Y-69074614D01*
X222399500Y-86864636D01*
X222379815Y-86931675D01*
X222327011Y-86977430D01*
X222275500Y-86988636D01*
X221147814Y-86988636D01*
X221080775Y-86968951D01*
X221035020Y-86916147D01*
X221025076Y-86846989D01*
X221044711Y-86795746D01*
X221059347Y-86773842D01*
X221212215Y-86487847D01*
X221336314Y-86188246D01*
X221430449Y-85877923D01*
X221430451Y-85877913D01*
X221430454Y-85877902D01*
X221462399Y-85717295D01*
X221493714Y-85559868D01*
X221525500Y-85237143D01*
X221525500Y-84912857D01*
X221493714Y-84590132D01*
X221470122Y-84471528D01*
X221430454Y-84272097D01*
X221430451Y-84272086D01*
X221430450Y-84272083D01*
X221430449Y-84272077D01*
X221336314Y-83961754D01*
X221212215Y-83662153D01*
X221059347Y-83376158D01*
X220879183Y-83106524D01*
X220673458Y-82855847D01*
X220673457Y-82855846D01*
X220673453Y-82855841D01*
X220444158Y-82626546D01*
X220193481Y-82420821D01*
X220193480Y-82420820D01*
X220193476Y-82420817D01*
X219923842Y-82240653D01*
X219923837Y-82240650D01*
X219923830Y-82240646D01*
X219637854Y-82087788D01*
X219637849Y-82087786D01*
X219338247Y-81963686D01*
X219027913Y-81869548D01*
X219027902Y-81869545D01*
X218709874Y-81806287D01*
X218709857Y-81806284D01*
X218465812Y-81782248D01*
X218387143Y-81774500D01*
X218062857Y-81774500D01*
X217990099Y-81781666D01*
X217740142Y-81806284D01*
X217740125Y-81806287D01*
X217422097Y-81869545D01*
X217422086Y-81869548D01*
X217111752Y-81963686D01*
X216812150Y-82087786D01*
X216812145Y-82087788D01*
X216526169Y-82240646D01*
X216526151Y-82240657D01*
X216256532Y-82420811D01*
X216256518Y-82420821D01*
X216005841Y-82626546D01*
X215776546Y-82855841D01*
X215570821Y-83106518D01*
X215570811Y-83106532D01*
X215390657Y-83376151D01*
X215390646Y-83376169D01*
X215237788Y-83662145D01*
X215237786Y-83662150D01*
X215113686Y-83961752D01*
X215019548Y-84272086D01*
X215019545Y-84272097D01*
X214956287Y-84590125D01*
X214956284Y-84590142D01*
X214924500Y-84912860D01*
X214924500Y-85237139D01*
X214956284Y-85559857D01*
X214956287Y-85559874D01*
X215019545Y-85877902D01*
X215019548Y-85877913D01*
X215113686Y-86188247D01*
X215237786Y-86487849D01*
X215237788Y-86487854D01*
X215390646Y-86773830D01*
X215390654Y-86773843D01*
X215405289Y-86795746D01*
X215426166Y-86862424D01*
X215407681Y-86929804D01*
X215355702Y-86976493D01*
X215302186Y-86988636D01*
X200624000Y-86988636D01*
X200556961Y-86968951D01*
X200511206Y-86916147D01*
X200500000Y-86864636D01*
X200500000Y-74213495D01*
X200869500Y-74213495D01*
X200869500Y-74449504D01*
X200869501Y-74449520D01*
X200900306Y-74683510D01*
X200961394Y-74911493D01*
X201051714Y-75129545D01*
X201051719Y-75129556D01*
X201122677Y-75252457D01*
X201169727Y-75333950D01*
X201169729Y-75333953D01*
X201169730Y-75333954D01*
X201313406Y-75521197D01*
X201313412Y-75521204D01*
X201480295Y-75688087D01*
X201480302Y-75688093D01*
X201590306Y-75772501D01*
X201667550Y-75831773D01*
X201798918Y-75907618D01*
X201871943Y-75949780D01*
X201871948Y-75949782D01*
X201871951Y-75949784D01*
X202090007Y-76040106D01*
X202317986Y-76101193D01*
X202551989Y-76132000D01*
X202551996Y-76132000D01*
X202788004Y-76132000D01*
X202788011Y-76132000D01*
X203022014Y-76101193D01*
X203249993Y-76040106D01*
X203468049Y-75949784D01*
X203672450Y-75831773D01*
X203859699Y-75688092D01*
X203868464Y-75679327D01*
X203914648Y-75633144D01*
X204026587Y-75521204D01*
X204026592Y-75521199D01*
X204170273Y-75333950D01*
X204288284Y-75129549D01*
X204378606Y-74911493D01*
X204439693Y-74683514D01*
X204470500Y-74449511D01*
X204470500Y-74213514D01*
X205870000Y-74213514D01*
X205870000Y-74449485D01*
X205900799Y-74683414D01*
X205961870Y-74911337D01*
X206052160Y-75129319D01*
X206052165Y-75129328D01*
X206170144Y-75333671D01*
X206170145Y-75333672D01*
X206232721Y-75415223D01*
X207068958Y-74578987D01*
X207093978Y-74639390D01*
X207165112Y-74745851D01*
X207255649Y-74836388D01*
X207362110Y-74907522D01*
X207422511Y-74932541D01*
X206586275Y-75768777D01*
X206667827Y-75831354D01*
X206667828Y-75831355D01*
X206872171Y-75949334D01*
X206872180Y-75949339D01*
X207090163Y-76039629D01*
X207090161Y-76039629D01*
X207318085Y-76100700D01*
X207552014Y-76131499D01*
X207552029Y-76131500D01*
X207787971Y-76131500D01*
X207787985Y-76131499D01*
X208021914Y-76100700D01*
X208249837Y-76039629D01*
X208467819Y-75949339D01*
X208467828Y-75949334D01*
X208672181Y-75831350D01*
X208753723Y-75768779D01*
X208753723Y-75768776D01*
X207917487Y-74932541D01*
X207977890Y-74907522D01*
X208084351Y-74836388D01*
X208174888Y-74745851D01*
X208246022Y-74639390D01*
X208271041Y-74578988D01*
X209107276Y-75415223D01*
X209107279Y-75415223D01*
X209169850Y-75333681D01*
X209287834Y-75129328D01*
X209287839Y-75129319D01*
X209378129Y-74911337D01*
X209439200Y-74683414D01*
X209469999Y-74449485D01*
X209470000Y-74449471D01*
X209470000Y-74213521D01*
X209469997Y-74213495D01*
X210869500Y-74213495D01*
X210869500Y-74449504D01*
X210869501Y-74449520D01*
X210900306Y-74683510D01*
X210961394Y-74911493D01*
X211051714Y-75129545D01*
X211051719Y-75129556D01*
X211122677Y-75252457D01*
X211169727Y-75333950D01*
X211169729Y-75333953D01*
X211169730Y-75333954D01*
X211313406Y-75521197D01*
X211313412Y-75521204D01*
X211480295Y-75688087D01*
X211480302Y-75688093D01*
X211590306Y-75772501D01*
X211667550Y-75831773D01*
X211798918Y-75907618D01*
X211871943Y-75949780D01*
X211871948Y-75949782D01*
X211871951Y-75949784D01*
X212090007Y-76040106D01*
X212317986Y-76101193D01*
X212551989Y-76132000D01*
X212551996Y-76132000D01*
X212788004Y-76132000D01*
X212788011Y-76132000D01*
X213022014Y-76101193D01*
X213249993Y-76040106D01*
X213468049Y-75949784D01*
X213672450Y-75831773D01*
X213859699Y-75688092D01*
X214026592Y-75521199D01*
X214170273Y-75333950D01*
X214288284Y-75129549D01*
X214378606Y-74911493D01*
X214439693Y-74683514D01*
X214470500Y-74449511D01*
X214470500Y-74213489D01*
X214439693Y-73979486D01*
X214378606Y-73751507D01*
X214288284Y-73533451D01*
X214288282Y-73533448D01*
X214288280Y-73533443D01*
X214246118Y-73460418D01*
X214170273Y-73329050D01*
X214026592Y-73141801D01*
X214026587Y-73141795D01*
X213868447Y-72983655D01*
X215870000Y-72983655D01*
X215870000Y-74081500D01*
X217069999Y-74081500D01*
X217044979Y-74141902D01*
X217020000Y-74267481D01*
X217020000Y-74395519D01*
X217044979Y-74521098D01*
X217069999Y-74581500D01*
X215870000Y-74581500D01*
X215870000Y-75679344D01*
X215876401Y-75738872D01*
X215876403Y-75738879D01*
X215926645Y-75873586D01*
X215926649Y-75873593D01*
X216012809Y-75988687D01*
X216012812Y-75988690D01*
X216127906Y-76074850D01*
X216127913Y-76074854D01*
X216262620Y-76125096D01*
X216262627Y-76125098D01*
X216322155Y-76131499D01*
X216322172Y-76131500D01*
X217420000Y-76131500D01*
X217420000Y-74931501D01*
X217480402Y-74956521D01*
X217605981Y-74981500D01*
X217734019Y-74981500D01*
X217859598Y-74956521D01*
X217920000Y-74931501D01*
X217920000Y-76131500D01*
X219017828Y-76131500D01*
X219017844Y-76131499D01*
X219077372Y-76125098D01*
X219077379Y-76125096D01*
X219212086Y-76074854D01*
X219212093Y-76074850D01*
X219327187Y-75988690D01*
X219327190Y-75988687D01*
X219413350Y-75873593D01*
X219413354Y-75873586D01*
X219463596Y-75738879D01*
X219463598Y-75738872D01*
X219469999Y-75679344D01*
X219470000Y-75679327D01*
X219470000Y-74581500D01*
X218270001Y-74581500D01*
X218295021Y-74521098D01*
X218320000Y-74395519D01*
X218320000Y-74267481D01*
X218295021Y-74141902D01*
X218270001Y-74081500D01*
X219470000Y-74081500D01*
X219470000Y-72983672D01*
X219469999Y-72983655D01*
X219463598Y-72924127D01*
X219463596Y-72924120D01*
X219413354Y-72789413D01*
X219413350Y-72789406D01*
X219327190Y-72674312D01*
X219327187Y-72674309D01*
X219212093Y-72588149D01*
X219212086Y-72588145D01*
X219077379Y-72537903D01*
X219077372Y-72537901D01*
X219017844Y-72531500D01*
X217920000Y-72531500D01*
X217920000Y-73731498D01*
X217859598Y-73706479D01*
X217734019Y-73681500D01*
X217605981Y-73681500D01*
X217480402Y-73706479D01*
X217420000Y-73731498D01*
X217420000Y-72531500D01*
X216322155Y-72531500D01*
X216262627Y-72537901D01*
X216262620Y-72537903D01*
X216127913Y-72588145D01*
X216127906Y-72588149D01*
X216012812Y-72674309D01*
X216012809Y-72674312D01*
X215926649Y-72789406D01*
X215926645Y-72789413D01*
X215876403Y-72924120D01*
X215876401Y-72924127D01*
X215870000Y-72983655D01*
X213868447Y-72983655D01*
X213859704Y-72974912D01*
X213859697Y-72974906D01*
X213672454Y-72831230D01*
X213672453Y-72831229D01*
X213672450Y-72831227D01*
X213590957Y-72784177D01*
X213468056Y-72713219D01*
X213468045Y-72713214D01*
X213249993Y-72622894D01*
X213022010Y-72561806D01*
X212788020Y-72531001D01*
X212788017Y-72531000D01*
X212788011Y-72531000D01*
X212551989Y-72531000D01*
X212551983Y-72531000D01*
X212551979Y-72531001D01*
X212317989Y-72561806D01*
X212090006Y-72622894D01*
X211871954Y-72713214D01*
X211871943Y-72713219D01*
X211667545Y-72831230D01*
X211480302Y-72974906D01*
X211480295Y-72974912D01*
X211313412Y-73141795D01*
X211313406Y-73141802D01*
X211169730Y-73329045D01*
X211169727Y-73329049D01*
X211169727Y-73329050D01*
X211162014Y-73342409D01*
X211051719Y-73533443D01*
X211051714Y-73533454D01*
X210961394Y-73751506D01*
X210900306Y-73979489D01*
X210869501Y-74213479D01*
X210869500Y-74213495D01*
X209469997Y-74213495D01*
X209439200Y-73979585D01*
X209378129Y-73751662D01*
X209287839Y-73533680D01*
X209287834Y-73533671D01*
X209169855Y-73329328D01*
X209169854Y-73329327D01*
X209107277Y-73247775D01*
X208271041Y-74084011D01*
X208246022Y-74023610D01*
X208174888Y-73917149D01*
X208084351Y-73826612D01*
X207977890Y-73755478D01*
X207917488Y-73730458D01*
X208753723Y-72894221D01*
X208672172Y-72831645D01*
X208672171Y-72831644D01*
X208467828Y-72713665D01*
X208467819Y-72713660D01*
X208249836Y-72623370D01*
X208249838Y-72623370D01*
X208021914Y-72562299D01*
X207787985Y-72531500D01*
X207552014Y-72531500D01*
X207318085Y-72562299D01*
X207090162Y-72623370D01*
X206872180Y-72713660D01*
X206872171Y-72713665D01*
X206667828Y-72831644D01*
X206667818Y-72831650D01*
X206586275Y-72894220D01*
X206586275Y-72894221D01*
X207422512Y-73730458D01*
X207362110Y-73755478D01*
X207255649Y-73826612D01*
X207165112Y-73917149D01*
X207093978Y-74023610D01*
X207068958Y-74084011D01*
X206232721Y-73247775D01*
X206232720Y-73247775D01*
X206170150Y-73329318D01*
X206170144Y-73329328D01*
X206052165Y-73533671D01*
X206052160Y-73533680D01*
X205961870Y-73751662D01*
X205900799Y-73979585D01*
X205870000Y-74213514D01*
X204470500Y-74213514D01*
X204470500Y-74213489D01*
X204439693Y-73979486D01*
X204378606Y-73751507D01*
X204288284Y-73533451D01*
X204288282Y-73533448D01*
X204288280Y-73533443D01*
X204246118Y-73460418D01*
X204170273Y-73329050D01*
X204026592Y-73141801D01*
X204026587Y-73141795D01*
X203859704Y-72974912D01*
X203859697Y-72974906D01*
X203672454Y-72831230D01*
X203672453Y-72831229D01*
X203672450Y-72831227D01*
X203590957Y-72784177D01*
X203468056Y-72713219D01*
X203468045Y-72713214D01*
X203249993Y-72622894D01*
X203022010Y-72561806D01*
X202788020Y-72531001D01*
X202788017Y-72531000D01*
X202788011Y-72531000D01*
X202551989Y-72531000D01*
X202551983Y-72531000D01*
X202551979Y-72531001D01*
X202317989Y-72561806D01*
X202090006Y-72622894D01*
X201871954Y-72713214D01*
X201871943Y-72713219D01*
X201667545Y-72831230D01*
X201480302Y-72974906D01*
X201480295Y-72974912D01*
X201313412Y-73141795D01*
X201313406Y-73141802D01*
X201169730Y-73329045D01*
X201169727Y-73329049D01*
X201169727Y-73329050D01*
X201162014Y-73342409D01*
X201051719Y-73533443D01*
X201051714Y-73533454D01*
X200961394Y-73751506D01*
X200900306Y-73979489D01*
X200869501Y-74213479D01*
X200869500Y-74213495D01*
X200500000Y-74213495D01*
X200500000Y-71464303D01*
X200519685Y-71397264D01*
X200572489Y-71351509D01*
X200589057Y-71345328D01*
X200709992Y-71309819D01*
X200831032Y-71232031D01*
X200925254Y-71123294D01*
X200985024Y-70992416D01*
X201005500Y-70850000D01*
X201005500Y-69350000D01*
X201000355Y-69278060D01*
X200959819Y-69140008D01*
X200959816Y-69140004D01*
X200956133Y-69131937D01*
X200959005Y-69130625D01*
X200943703Y-69078542D01*
X200963376Y-69011500D01*
X201016173Y-68965736D01*
X201067679Y-68954522D01*
X222275479Y-68950614D01*
X222342520Y-68970286D01*
G37*
%TD.AperFunction*%
%TD*%
%TA.AperFunction,Conductor*%
%TO.N,Net-(U14-Vin-)*%
G36*
X136143039Y-121519685D02*
G01*
X136188794Y-121572489D01*
X136200000Y-121624000D01*
X136200000Y-123176000D01*
X136180315Y-123243039D01*
X136127511Y-123288794D01*
X136076000Y-123300000D01*
X133424000Y-123300000D01*
X133356961Y-123280315D01*
X133311206Y-123227511D01*
X133300000Y-123176000D01*
X133300000Y-121624000D01*
X133319685Y-121556961D01*
X133372489Y-121511206D01*
X133424000Y-121500000D01*
X136076000Y-121500000D01*
X136143039Y-121519685D01*
G37*
%TD.AperFunction*%
%TD*%
%TA.AperFunction,Conductor*%
%TO.N,Net-(U3-Vin-)*%
G36*
X169443039Y-121519685D02*
G01*
X169488794Y-121572489D01*
X169500000Y-121624000D01*
X169500000Y-122976000D01*
X169480315Y-123043039D01*
X169427511Y-123088794D01*
X169376000Y-123100000D01*
X166324000Y-123100000D01*
X166256961Y-123080315D01*
X166211206Y-123027511D01*
X166200000Y-122976000D01*
X166200000Y-121624000D01*
X166219685Y-121556961D01*
X166272489Y-121511206D01*
X166324000Y-121500000D01*
X169376000Y-121500000D01*
X169443039Y-121519685D01*
G37*
%TD.AperFunction*%
%TD*%
M02*
